G04 Layer_Color=32896*
%FSLAX43Y43*%
%MOMM*%
G71*
G01*
G75*
%ADD85C,0.152*%
%ADD86C,0.127*%
%ADD90C,0.200*%
%ADD92C,0.203*%
%ADD93C,0.250*%
%ADD95C,0.150*%
%ADD96C,0.254*%
%ADD198C,0.025*%
%ADD199C,0.100*%
%ADD200C,0.154*%
%ADD442C,0.064*%
%ADD443C,0.076*%
G36*
X143085Y162662D02*
X142949D01*
X142842Y162958D01*
X142433D01*
X142320Y162662D01*
X142174D01*
X142571Y163638D01*
X142712D01*
X143085Y162662D01*
D02*
G37*
G36*
X146234D02*
X145506D01*
Y162777D01*
X146105D01*
Y163110D01*
X145566D01*
Y163225D01*
X146105D01*
Y163523D01*
X145529D01*
Y163638D01*
X146234D01*
Y162662D01*
D02*
G37*
G36*
X147146D02*
X147016D01*
Y163058D01*
X146768D01*
X146731Y163059D01*
X146696Y163062D01*
X146665Y163065D01*
X146635Y163072D01*
X146610Y163078D01*
X146586Y163086D01*
X146566Y163093D01*
X146547Y163101D01*
X146531Y163109D01*
X146517Y163118D01*
X146506Y163124D01*
X146497Y163130D01*
X146491Y163137D01*
X146486Y163140D01*
X146483Y163143D01*
X146482Y163144D01*
X146468Y163161D01*
X146455Y163178D01*
X146445Y163196D01*
X146436Y163214D01*
X146427Y163232D01*
X146421Y163248D01*
X146412Y163283D01*
X146408Y163297D01*
X146406Y163311D01*
X146404Y163323D01*
X146403Y163335D01*
X146402Y163344D01*
Y163350D01*
Y163354D01*
Y163355D01*
X146403Y163382D01*
X146407Y163406D01*
X146412Y163429D01*
X146417Y163449D01*
X146422Y163466D01*
X146427Y163478D01*
X146430Y163482D01*
X146431Y163486D01*
X146432Y163487D01*
Y163488D01*
X146444Y163510D01*
X146456Y163529D01*
X146470Y163546D01*
X146483Y163558D01*
X146493Y163568D01*
X146503Y163576D01*
X146508Y163581D01*
X146511Y163582D01*
X146530Y163594D01*
X146550Y163604D01*
X146569Y163612D01*
X146588Y163618D01*
X146605Y163623D01*
X146619Y163626D01*
X146624Y163627D01*
X146627Y163628D01*
X146630D01*
X146651Y163632D01*
X146675Y163634D01*
X146700Y163636D01*
X146723Y163637D01*
X146745Y163638D01*
X147146D01*
Y162662D01*
D02*
G37*
G36*
X138916D02*
X138781D01*
X138674Y162958D01*
X138265D01*
X138152Y162662D01*
X138006D01*
X138403Y163638D01*
X138544D01*
X138916Y162662D01*
D02*
G37*
G36*
X141083D02*
X140731D01*
X140699Y162663D01*
X140669Y162664D01*
X140642Y162667D01*
X140619Y162670D01*
X140600Y162673D01*
X140593Y162674D01*
X140586Y162676D01*
X140581Y162677D01*
X140578D01*
X140576Y162678D01*
X140575D01*
X140551Y162684D01*
X140528Y162692D01*
X140508Y162701D01*
X140491Y162709D01*
X140477Y162715D01*
X140467Y162721D01*
X140461Y162725D01*
X140458Y162726D01*
X140440Y162740D01*
X140423Y162754D01*
X140407Y162770D01*
X140395Y162784D01*
X140383Y162796D01*
X140376Y162806D01*
X140369Y162813D01*
X140368Y162815D01*
X140354Y162837D01*
X140340Y162861D01*
X140329Y162885D01*
X140320Y162908D01*
X140312Y162927D01*
X140310Y162936D01*
X140307Y162944D01*
X140305Y162949D01*
X140303Y162954D01*
X140302Y162956D01*
Y162958D01*
X140293Y162991D01*
X140287Y163025D01*
X140282Y163058D01*
X140279Y163088D01*
X140278Y163102D01*
X140277Y163115D01*
Y163126D01*
X140275Y163135D01*
Y163144D01*
Y163149D01*
Y163153D01*
Y163154D01*
X140277Y163201D01*
X140282Y163246D01*
X140284Y163266D01*
X140288Y163285D01*
X140292Y163303D01*
X140294Y163319D01*
X140298Y163335D01*
X140302Y163347D01*
X140306Y163359D01*
X140308Y163369D01*
X140311Y163377D01*
X140313Y163382D01*
X140315Y163385D01*
Y163387D01*
X140330Y163424D01*
X140349Y163455D01*
X140368Y163485D01*
X140387Y163509D01*
X140396Y163519D01*
X140404Y163528D01*
X140411Y163535D01*
X140418Y163542D01*
X140423Y163547D01*
X140426Y163551D01*
X140429Y163552D01*
X140430Y163553D01*
X140453Y163571D01*
X140477Y163586D01*
X140501Y163598D01*
X140524Y163608D01*
X140543Y163614D01*
X140552Y163617D01*
X140560Y163619D01*
X140565Y163620D01*
X140570Y163622D01*
X140572Y163623D01*
X140574D01*
X140598Y163628D01*
X140626Y163632D01*
X140655Y163634D01*
X140683Y163637D01*
X140707D01*
X140719Y163638D01*
X141083D01*
Y162662D01*
D02*
G37*
G36*
X142067D02*
X141938D01*
Y163095D01*
X141770D01*
X141756Y163093D01*
X141743D01*
X141733Y163092D01*
X141726Y163091D01*
X141721D01*
X141718Y163090D01*
X141717D01*
X141695Y163082D01*
X141685Y163078D01*
X141676Y163073D01*
X141669Y163069D01*
X141663Y163065D01*
X141660Y163064D01*
X141658Y163063D01*
X141647Y163054D01*
X141635Y163045D01*
X141624Y163034D01*
X141614Y163022D01*
X141605Y163013D01*
X141599Y163005D01*
X141594Y162999D01*
X141592Y162997D01*
X141577Y162978D01*
X141562Y162956D01*
X141547Y162935D01*
X141531Y162913D01*
X141519Y162894D01*
X141512Y162885D01*
X141507Y162878D01*
X141503Y162872D01*
X141501Y162867D01*
X141498Y162865D01*
Y162864D01*
X141370Y162662D01*
X141207D01*
X141376Y162926D01*
X141395Y162954D01*
X141415Y162979D01*
X141432Y163002D01*
X141449Y163020D01*
X141464Y163035D01*
X141474Y163046D01*
X141482Y163053D01*
X141483Y163055D01*
X141484D01*
X141496Y163064D01*
X141507Y163073D01*
X141533Y163090D01*
X141544Y163096D01*
X141553Y163101D01*
X141559Y163104D01*
X141562Y163105D01*
X141536Y163109D01*
X141512Y163114D01*
X141491Y163120D01*
X141470Y163126D01*
X141451Y163134D01*
X141434Y163142D01*
X141418Y163149D01*
X141404Y163157D01*
X141393Y163165D01*
X141383Y163172D01*
X141374Y163178D01*
X141366Y163184D01*
X141361Y163189D01*
X141356Y163192D01*
X141355Y163194D01*
X141354Y163195D01*
X141342Y163209D01*
X141331Y163223D01*
X141322Y163238D01*
X141314Y163252D01*
X141303Y163281D01*
X141295Y163309D01*
X141290Y163333D01*
X141289Y163344D01*
X141288Y163352D01*
X141286Y163360D01*
Y163365D01*
Y163369D01*
Y163370D01*
X141288Y163399D01*
X141293Y163427D01*
X141299Y163453D01*
X141307Y163474D01*
X141314Y163492D01*
X141321Y163506D01*
X141323Y163511D01*
X141326Y163515D01*
X141327Y163516D01*
Y163518D01*
X141343Y163540D01*
X141361Y163561D01*
X141379Y163577D01*
X141397Y163590D01*
X141412Y163600D01*
X141425Y163606D01*
X141430Y163609D01*
X141434Y163610D01*
X141435Y163612D01*
X141436D01*
X141449Y163617D01*
X141464Y163620D01*
X141496Y163627D01*
X141529Y163632D01*
X141561Y163634D01*
X141576Y163636D01*
X141590Y163637D01*
X141601D01*
X141613Y163638D01*
X142067D01*
Y162662D01*
D02*
G37*
G36*
X150555D02*
X150425D01*
Y163095D01*
X150258D01*
X150244Y163093D01*
X150231D01*
X150221Y163092D01*
X150213Y163091D01*
X150208D01*
X150205Y163090D01*
X150204D01*
X150183Y163082D01*
X150172Y163078D01*
X150164Y163073D01*
X150156Y163069D01*
X150151Y163065D01*
X150147Y163064D01*
X150146Y163063D01*
X150134Y163054D01*
X150123Y163045D01*
X150111Y163034D01*
X150101Y163022D01*
X150092Y163013D01*
X150086Y163005D01*
X150081Y162999D01*
X150080Y162997D01*
X150064Y162978D01*
X150049Y162956D01*
X150034Y162935D01*
X150019Y162913D01*
X150006Y162894D01*
X150000Y162885D01*
X149995Y162878D01*
X149991Y162872D01*
X149988Y162867D01*
X149986Y162865D01*
Y162864D01*
X149857Y162662D01*
X149695D01*
X149864Y162926D01*
X149883Y162954D01*
X149902Y162979D01*
X149920Y163002D01*
X149936Y163020D01*
X149951Y163035D01*
X149962Y163046D01*
X149969Y163053D01*
X149970Y163055D01*
X149972D01*
X149983Y163064D01*
X149995Y163073D01*
X150020Y163090D01*
X150031Y163096D01*
X150040Y163101D01*
X150047Y163104D01*
X150049Y163105D01*
X150024Y163109D01*
X150000Y163114D01*
X149978Y163120D01*
X149958Y163126D01*
X149939Y163134D01*
X149921Y163142D01*
X149906Y163149D01*
X149892Y163157D01*
X149880Y163165D01*
X149870Y163172D01*
X149861Y163178D01*
X149854Y163184D01*
X149849Y163189D01*
X149843Y163192D01*
X149842Y163194D01*
X149841Y163195D01*
X149830Y163209D01*
X149818Y163223D01*
X149809Y163238D01*
X149802Y163252D01*
X149790Y163281D01*
X149783Y163309D01*
X149777Y163333D01*
X149776Y163344D01*
X149775Y163352D01*
X149774Y163360D01*
Y163365D01*
Y163369D01*
Y163370D01*
X149775Y163399D01*
X149780Y163427D01*
X149786Y163453D01*
X149794Y163474D01*
X149802Y163492D01*
X149808Y163506D01*
X149810Y163511D01*
X149813Y163515D01*
X149814Y163516D01*
Y163518D01*
X149831Y163540D01*
X149849Y163561D01*
X149866Y163577D01*
X149884Y163590D01*
X149899Y163600D01*
X149912Y163606D01*
X149917Y163609D01*
X149921Y163610D01*
X149922Y163612D01*
X149923D01*
X149936Y163617D01*
X149951Y163620D01*
X149983Y163627D01*
X150016Y163632D01*
X150048Y163634D01*
X150063Y163636D01*
X150077Y163637D01*
X150089D01*
X150100Y163638D01*
X150555D01*
Y162662D01*
D02*
G37*
G36*
X129135D02*
X129000D01*
X128619Y163638D01*
X128750D01*
X129014Y162928D01*
X129026Y162899D01*
X129036Y162870D01*
X129045Y162842D01*
X129052Y162818D01*
X129059Y162797D01*
X129061Y162790D01*
X129064Y162782D01*
X129065Y162776D01*
X129066Y162772D01*
X129068Y162770D01*
Y162768D01*
X129075Y162796D01*
X129084Y162825D01*
X129093Y162852D01*
X129101Y162876D01*
X129108Y162898D01*
X129111Y162907D01*
X129113Y162914D01*
X129116Y162919D01*
X129117Y162924D01*
X129118Y162927D01*
Y162928D01*
X129372Y163638D01*
X129513D01*
X129135Y162662D01*
D02*
G37*
G36*
X139931D02*
X139795D01*
X139590Y163405D01*
X139584Y163424D01*
X139579Y163443D01*
X139574Y163463D01*
X139569Y163481D01*
X139565Y163496D01*
X139563Y163509D01*
X139562Y163514D01*
Y163518D01*
X139560Y163519D01*
Y163520D01*
X139559Y163515D01*
X139558Y163509D01*
X139553Y163493D01*
X139548Y163474D01*
X139543Y163454D01*
X139537Y163435D01*
X139532Y163420D01*
X139531Y163413D01*
X139530Y163408D01*
X139529Y163406D01*
Y163405D01*
X139324Y162662D01*
X139198D01*
X138930Y163638D01*
X139061D01*
X139215Y163010D01*
X139225Y162966D01*
X139235Y162926D01*
X139243Y162890D01*
X139247Y162874D01*
X139250Y162858D01*
X139253Y162846D01*
X139255Y162833D01*
X139258Y162823D01*
X139259Y162814D01*
X139261Y162806D01*
X139262Y162801D01*
X139263Y162799D01*
Y162797D01*
X139273Y162858D01*
X139286Y162919D01*
X139292Y162949D01*
X139299Y162978D01*
X139305Y163005D01*
X139311Y163031D01*
X139316Y163054D01*
X139323Y163076D01*
X139328Y163096D01*
X139332Y163111D01*
X139336Y163125D01*
X139338Y163135D01*
X139339Y163140D01*
X139341Y163143D01*
X139479Y163638D01*
X139635D01*
X139821Y162978D01*
X139822Y162971D01*
X139824Y162963D01*
X139827Y162952D01*
X139831Y162940D01*
X139833Y162926D01*
X139837Y162911D01*
X139845Y162879D01*
X139852Y162848D01*
X139856Y162834D01*
X139859Y162823D01*
X139861Y162813D01*
X139864Y162804D01*
X139865Y162799D01*
Y162797D01*
X139871Y162834D01*
X139878Y162870D01*
X139885Y162904D01*
X139892Y162935D01*
X139894Y162947D01*
X139897Y162960D01*
X139899Y162970D01*
X139902Y162979D01*
X139903Y162987D01*
X139904Y162992D01*
X139906Y162996D01*
Y162997D01*
X140053Y163638D01*
X140186D01*
X139931Y162662D01*
D02*
G37*
G36*
X132597D02*
X132472D01*
Y163427D01*
X131961Y162662D01*
X131827D01*
Y163638D01*
X131952D01*
Y162871D01*
X132465Y163638D01*
X132597D01*
Y162662D01*
D02*
G37*
G36*
X151463D02*
X150735D01*
Y162777D01*
X151333D01*
Y163110D01*
X150795D01*
Y163225D01*
X151333D01*
Y163523D01*
X150758D01*
Y163638D01*
X151463D01*
Y162662D01*
D02*
G37*
G36*
X134115Y163652D02*
X134159Y163646D01*
X134200Y163636D01*
X134217Y163631D01*
X134235Y163626D01*
X134250Y163619D01*
X134264Y163614D01*
X134276Y163609D01*
X134286Y163604D01*
X134294Y163600D01*
X134300Y163598D01*
X134304Y163596D01*
X134305Y163595D01*
X134324Y163584D01*
X134343Y163571D01*
X134376Y163543D01*
X134405Y163515D01*
X134428Y163487D01*
X134438Y163473D01*
X134447Y163462D01*
X134455Y163450D01*
X134460Y163441D01*
X134465Y163434D01*
X134469Y163427D01*
X134470Y163424D01*
X134471Y163422D01*
X134482Y163401D01*
X134490Y163378D01*
X134504Y163333D01*
X134515Y163289D01*
X134518Y163267D01*
X134521Y163247D01*
X134523Y163228D01*
X134526Y163212D01*
X134527Y163196D01*
Y163182D01*
X134529Y163172D01*
Y163163D01*
Y163158D01*
Y163157D01*
X134526Y163106D01*
X134521Y163057D01*
X134517Y163035D01*
X134512Y163013D01*
X134508Y162993D01*
X134503Y162974D01*
X134498Y162956D01*
X134494Y162941D01*
X134489Y162928D01*
X134485Y162917D01*
X134483Y162908D01*
X134480Y162900D01*
X134478Y162897D01*
Y162895D01*
X134468Y162874D01*
X134456Y162852D01*
X134445Y162833D01*
X134432Y162815D01*
X134419Y162797D01*
X134407Y162782D01*
X134395Y162768D01*
X134383Y162757D01*
X134371Y162745D01*
X134361Y162735D01*
X134351Y162728D01*
X134343Y162721D01*
X134336Y162715D01*
X134330Y162711D01*
X134328Y162710D01*
X134327Y162709D01*
X134308Y162697D01*
X134287Y162688D01*
X134266Y162679D01*
X134244Y162672D01*
X134201Y162660D01*
X134160Y162653D01*
X134141Y162650D01*
X134125Y162649D01*
X134108Y162648D01*
X134095Y162646D01*
X134084Y162645D01*
X134069D01*
X134041Y162646D01*
X134014Y162649D01*
X133989Y162653D01*
X133965Y162658D01*
X133942Y162664D01*
X133920Y162672D01*
X133901Y162678D01*
X133882Y162687D01*
X133867Y162695D01*
X133853Y162701D01*
X133840Y162709D01*
X133830Y162715D01*
X133821Y162720D01*
X133816Y162724D01*
X133812Y162726D01*
X133811Y162728D01*
X133792Y162744D01*
X133774Y162762D01*
X133758Y162781D01*
X133744Y162801D01*
X133730Y162822D01*
X133718Y162841D01*
X133707Y162861D01*
X133698Y162880D01*
X133689Y162899D01*
X133683Y162916D01*
X133676Y162931D01*
X133671Y162944D01*
X133669Y162955D01*
X133666Y162964D01*
X133664Y162969D01*
Y162970D01*
X133793Y163003D01*
X133800Y162980D01*
X133806Y162960D01*
X133814Y162941D01*
X133821Y162922D01*
X133830Y162905D01*
X133838Y162890D01*
X133847Y162876D01*
X133855Y162865D01*
X133863Y162853D01*
X133871Y162844D01*
X133878Y162836D01*
X133883Y162829D01*
X133888Y162824D01*
X133892Y162820D01*
X133895Y162819D01*
X133896Y162818D01*
X133910Y162806D01*
X133925Y162797D01*
X133941Y162789D01*
X133957Y162782D01*
X133988Y162771D01*
X134017Y162763D01*
X134029Y162761D01*
X134042Y162759D01*
X134052Y162758D01*
X134062Y162757D01*
X134070Y162756D01*
X134080D01*
X134113Y162758D01*
X134144Y162763D01*
X134172Y162770D01*
X134197Y162778D01*
X134217Y162787D01*
X134226Y162791D01*
X134233Y162794D01*
X134239Y162797D01*
X134243Y162799D01*
X134245Y162801D01*
X134247D01*
X134273Y162820D01*
X134296Y162842D01*
X134315Y162865D01*
X134332Y162888D01*
X134344Y162908D01*
X134348Y162917D01*
X134352Y162924D01*
X134356Y162931D01*
X134358Y162936D01*
X134360Y162938D01*
Y162940D01*
X134371Y162975D01*
X134380Y163013D01*
X134386Y163049D01*
X134390Y163083D01*
X134393Y163098D01*
Y163112D01*
X134394Y163125D01*
X134395Y163137D01*
Y163145D01*
Y163152D01*
Y163156D01*
Y163157D01*
X134394Y163192D01*
X134390Y163227D01*
X134385Y163258D01*
X134380Y163288D01*
X134377Y163299D01*
X134375Y163311D01*
X134372Y163321D01*
X134370Y163330D01*
X134367Y163336D01*
X134366Y163341D01*
X134365Y163344D01*
Y163345D01*
X134352Y163378D01*
X134336Y163406D01*
X134318Y163431D01*
X134300Y163452D01*
X134285Y163468D01*
X134272Y163479D01*
X134267Y163485D01*
X134263Y163487D01*
X134261Y163490D01*
X134259D01*
X134244Y163500D01*
X134229Y163507D01*
X134197Y163521D01*
X134165Y163532D01*
X134136Y163538D01*
X134122Y163539D01*
X134109Y163542D01*
X134098Y163543D01*
X134089D01*
X134082Y163544D01*
X134070D01*
X134035Y163542D01*
X134003Y163537D01*
X133975Y163529D01*
X133951Y163520D01*
X133932Y163510D01*
X133924Y163506D01*
X133918Y163502D01*
X133913Y163500D01*
X133909Y163497D01*
X133908Y163495D01*
X133906D01*
X133895Y163485D01*
X133883Y163474D01*
X133863Y163450D01*
X133847Y163425D01*
X133833Y163399D01*
X133821Y163377D01*
X133817Y163366D01*
X133814Y163358D01*
X133811Y163350D01*
X133808Y163345D01*
X133807Y163341D01*
Y163340D01*
X133680Y163370D01*
X133688Y163394D01*
X133698Y163419D01*
X133708Y163440D01*
X133720Y163460D01*
X133731Y163478D01*
X133742Y163496D01*
X133754Y163511D01*
X133765Y163525D01*
X133777Y163538D01*
X133787Y163549D01*
X133797Y163558D01*
X133805Y163566D01*
X133811Y163572D01*
X133817Y163576D01*
X133820Y163579D01*
X133821Y163580D01*
X133840Y163593D01*
X133861Y163605D01*
X133881Y163614D01*
X133901Y163623D01*
X133923Y163631D01*
X133943Y163637D01*
X133981Y163646D01*
X133999Y163648D01*
X134015Y163651D01*
X134031Y163652D01*
X134043Y163653D01*
X134054Y163655D01*
X134092D01*
X134115Y163652D01*
D02*
G37*
G36*
X152075D02*
X152119Y163646D01*
X152160Y163636D01*
X152178Y163631D01*
X152196Y163626D01*
X152211Y163619D01*
X152225Y163614D01*
X152236Y163609D01*
X152246Y163604D01*
X152254Y163600D01*
X152260Y163598D01*
X152264Y163596D01*
X152265Y163595D01*
X152284Y163584D01*
X152303Y163571D01*
X152337Y163543D01*
X152366Y163515D01*
X152389Y163487D01*
X152399Y163473D01*
X152408Y163462D01*
X152415Y163450D01*
X152420Y163441D01*
X152425Y163434D01*
X152429Y163427D01*
X152430Y163424D01*
X152432Y163422D01*
X152442Y163401D01*
X152451Y163378D01*
X152465Y163333D01*
X152475Y163289D01*
X152479Y163267D01*
X152481Y163247D01*
X152484Y163228D01*
X152486Y163212D01*
X152488Y163196D01*
Y163182D01*
X152489Y163172D01*
Y163163D01*
Y163158D01*
Y163157D01*
X152486Y163106D01*
X152481Y163057D01*
X152477Y163035D01*
X152472Y163013D01*
X152469Y162993D01*
X152464Y162974D01*
X152458Y162956D01*
X152455Y162941D01*
X152450Y162928D01*
X152446Y162917D01*
X152443Y162908D01*
X152441Y162900D01*
X152438Y162897D01*
Y162895D01*
X152428Y162874D01*
X152417Y162852D01*
X152405Y162833D01*
X152392Y162815D01*
X152380Y162797D01*
X152367Y162782D01*
X152356Y162768D01*
X152343Y162757D01*
X152331Y162745D01*
X152321Y162735D01*
X152311Y162728D01*
X152303Y162721D01*
X152296Y162715D01*
X152291Y162711D01*
X152288Y162710D01*
X152287Y162709D01*
X152268Y162697D01*
X152248Y162688D01*
X152226Y162679D01*
X152204Y162672D01*
X152161Y162660D01*
X152121Y162653D01*
X152102Y162650D01*
X152085Y162649D01*
X152069Y162648D01*
X152056Y162646D01*
X152044Y162645D01*
X152029D01*
X152001Y162646D01*
X151975Y162649D01*
X151949Y162653D01*
X151925Y162658D01*
X151902Y162664D01*
X151881Y162672D01*
X151862Y162678D01*
X151842Y162687D01*
X151827Y162695D01*
X151813Y162701D01*
X151801Y162709D01*
X151790Y162715D01*
X151782Y162720D01*
X151776Y162724D01*
X151773Y162726D01*
X151771Y162728D01*
X151752Y162744D01*
X151735Y162762D01*
X151718Y162781D01*
X151704Y162801D01*
X151690Y162822D01*
X151679Y162841D01*
X151667Y162861D01*
X151658Y162880D01*
X151649Y162899D01*
X151643Y162916D01*
X151637Y162931D01*
X151632Y162944D01*
X151629Y162955D01*
X151627Y162964D01*
X151624Y162969D01*
Y162970D01*
X151754Y163003D01*
X151760Y162980D01*
X151766Y162960D01*
X151774Y162941D01*
X151782Y162922D01*
X151790Y162905D01*
X151798Y162890D01*
X151807Y162876D01*
X151816Y162865D01*
X151823Y162853D01*
X151831Y162844D01*
X151839Y162836D01*
X151844Y162829D01*
X151849Y162824D01*
X151853Y162820D01*
X151855Y162819D01*
X151856Y162818D01*
X151870Y162806D01*
X151886Y162797D01*
X151901Y162789D01*
X151917Y162782D01*
X151948Y162771D01*
X151977Y162763D01*
X151990Y162761D01*
X152002Y162759D01*
X152013Y162758D01*
X152023Y162757D01*
X152030Y162756D01*
X152041D01*
X152074Y162758D01*
X152104Y162763D01*
X152132Y162770D01*
X152157Y162778D01*
X152178Y162787D01*
X152187Y162791D01*
X152193Y162794D01*
X152199Y162797D01*
X152203Y162799D01*
X152206Y162801D01*
X152207D01*
X152234Y162820D01*
X152256Y162842D01*
X152276Y162865D01*
X152292Y162888D01*
X152305Y162908D01*
X152309Y162917D01*
X152312Y162924D01*
X152316Y162931D01*
X152319Y162936D01*
X152320Y162938D01*
Y162940D01*
X152331Y162975D01*
X152340Y163013D01*
X152347Y163049D01*
X152350Y163083D01*
X152353Y163098D01*
Y163112D01*
X152354Y163125D01*
X152356Y163137D01*
Y163145D01*
Y163152D01*
Y163156D01*
Y163157D01*
X152354Y163192D01*
X152350Y163227D01*
X152345Y163258D01*
X152340Y163288D01*
X152338Y163299D01*
X152335Y163311D01*
X152333Y163321D01*
X152330Y163330D01*
X152328Y163336D01*
X152326Y163341D01*
X152325Y163344D01*
Y163345D01*
X152312Y163378D01*
X152296Y163406D01*
X152278Y163431D01*
X152260Y163452D01*
X152245Y163468D01*
X152232Y163479D01*
X152227Y163485D01*
X152223Y163487D01*
X152221Y163490D01*
X152220D01*
X152204Y163500D01*
X152189Y163507D01*
X152157Y163521D01*
X152126Y163532D01*
X152096Y163538D01*
X152083Y163539D01*
X152070Y163542D01*
X152058Y163543D01*
X152049D01*
X152042Y163544D01*
X152030D01*
X151995Y163542D01*
X151963Y163537D01*
X151935Y163529D01*
X151911Y163520D01*
X151892Y163510D01*
X151884Y163506D01*
X151878Y163502D01*
X151873Y163500D01*
X151869Y163497D01*
X151868Y163495D01*
X151867D01*
X151855Y163485D01*
X151844Y163474D01*
X151823Y163450D01*
X151807Y163425D01*
X151793Y163399D01*
X151782Y163377D01*
X151778Y163366D01*
X151774Y163358D01*
X151771Y163350D01*
X151769Y163345D01*
X151768Y163341D01*
Y163340D01*
X151641Y163370D01*
X151648Y163394D01*
X151658Y163419D01*
X151668Y163440D01*
X151680Y163460D01*
X151691Y163478D01*
X151703Y163496D01*
X151714Y163511D01*
X151726Y163525D01*
X151737Y163538D01*
X151747Y163549D01*
X151757Y163558D01*
X151765Y163566D01*
X151771Y163572D01*
X151778Y163576D01*
X151780Y163579D01*
X151782Y163580D01*
X151801Y163593D01*
X151821Y163605D01*
X151841Y163614D01*
X151862Y163623D01*
X151883Y163631D01*
X151903Y163637D01*
X151942Y163646D01*
X151959Y163648D01*
X151976Y163651D01*
X151991Y163652D01*
X152004Y163653D01*
X152014Y163655D01*
X152052D01*
X152075Y163652D01*
D02*
G37*
G36*
X131309Y163653D02*
X131343Y163650D01*
X131374Y163643D01*
X131401Y163638D01*
X131412Y163634D01*
X131422Y163632D01*
X131431Y163628D01*
X131439Y163626D01*
X131445Y163624D01*
X131449Y163622D01*
X131451Y163620D01*
X131453D01*
X131481Y163606D01*
X131506Y163591D01*
X131526Y163575D01*
X131544Y163559D01*
X131557Y163546D01*
X131567Y163533D01*
X131572Y163525D01*
X131575Y163524D01*
Y163523D01*
X131589Y163499D01*
X131599Y163474D01*
X131606Y163452D01*
X131611Y163430D01*
X131614Y163411D01*
X131615Y163397D01*
X131616Y163392D01*
Y163388D01*
Y163385D01*
Y163384D01*
X131615Y163360D01*
X131611Y163337D01*
X131606Y163316D01*
X131600Y163298D01*
X131594Y163283D01*
X131589Y163272D01*
X131585Y163265D01*
X131583Y163264D01*
Y163262D01*
X131569Y163243D01*
X131553Y163225D01*
X131535Y163210D01*
X131519Y163198D01*
X131503Y163186D01*
X131491Y163178D01*
X131486Y163176D01*
X131482Y163173D01*
X131481Y163172D01*
X131479D01*
X131468Y163167D01*
X131455Y163161D01*
X131427Y163151D01*
X131395Y163139D01*
X131365Y163130D01*
X131336Y163121D01*
X131324Y163119D01*
X131313Y163115D01*
X131304Y163114D01*
X131298Y163111D01*
X131293Y163110D01*
X131291D01*
X131267Y163104D01*
X131246Y163098D01*
X131225Y163093D01*
X131208Y163090D01*
X131191Y163085D01*
X131177Y163081D01*
X131164Y163078D01*
X131154Y163074D01*
X131144Y163072D01*
X131136Y163069D01*
X131130Y163068D01*
X131125Y163065D01*
X131120Y163064D01*
X131117Y163063D01*
X131096Y163054D01*
X131078Y163044D01*
X131063Y163035D01*
X131050Y163026D01*
X131041Y163018D01*
X131035Y163012D01*
X131031Y163007D01*
X131030Y163006D01*
X131021Y162993D01*
X131013Y162979D01*
X131008Y162965D01*
X131006Y162952D01*
X131003Y162942D01*
X131002Y162933D01*
Y162928D01*
Y162926D01*
X131003Y162909D01*
X131006Y162894D01*
X131011Y162880D01*
X131016Y162867D01*
X131021Y162857D01*
X131026Y162848D01*
X131028Y162843D01*
X131030Y162842D01*
X131041Y162828D01*
X131055Y162817D01*
X131069Y162806D01*
X131083Y162797D01*
X131096Y162791D01*
X131106Y162786D01*
X131112Y162784D01*
X131114Y162782D01*
X131115D01*
X131136Y162775D01*
X131158Y162770D01*
X131181Y162766D01*
X131200Y162763D01*
X131218Y162762D01*
X131232Y162761D01*
X131244D01*
X131275Y162762D01*
X131303Y162764D01*
X131328Y162770D01*
X131350Y162775D01*
X131369Y162780D01*
X131376Y162782D01*
X131383Y162785D01*
X131388Y162786D01*
X131392Y162787D01*
X131393Y162789D01*
X131394D01*
X131417Y162800D01*
X131437Y162813D01*
X131454Y162825D01*
X131468Y162838D01*
X131478Y162848D01*
X131486Y162857D01*
X131491Y162862D01*
X131492Y162865D01*
X131502Y162884D01*
X131511Y162904D01*
X131519Y162924D01*
X131524Y162944D01*
X131528Y162961D01*
X131530Y162974D01*
Y162979D01*
X131531Y162983D01*
Y162985D01*
Y162987D01*
X131653Y162977D01*
X131651Y162941D01*
X131644Y162907D01*
X131635Y162878D01*
X131625Y162851D01*
X131620Y162839D01*
X131616Y162829D01*
X131611Y162822D01*
X131608Y162814D01*
X131605Y162808D01*
X131602Y162804D01*
X131600Y162801D01*
Y162800D01*
X131580Y162773D01*
X131557Y162749D01*
X131534Y162729D01*
X131511Y162712D01*
X131491Y162700D01*
X131482Y162695D01*
X131475Y162691D01*
X131469Y162687D01*
X131464Y162684D01*
X131462Y162683D01*
X131460D01*
X131425Y162670D01*
X131388Y162662D01*
X131350Y162654D01*
X131315Y162650D01*
X131299Y162649D01*
X131285Y162648D01*
X131271Y162646D01*
X131260D01*
X131251Y162645D01*
X131238D01*
X131200Y162646D01*
X131164Y162651D01*
X131133Y162658D01*
X131106Y162664D01*
X131093Y162668D01*
X131083Y162672D01*
X131074Y162674D01*
X131065Y162677D01*
X131060Y162679D01*
X131055Y162682D01*
X131053Y162683D01*
X131051D01*
X131022Y162698D01*
X130995Y162716D01*
X130974Y162734D01*
X130956Y162751D01*
X130942Y162766D01*
X130931Y162778D01*
X130928Y162784D01*
X130926Y162787D01*
X130923Y162789D01*
Y162790D01*
X130908Y162815D01*
X130896Y162842D01*
X130889Y162866D01*
X130882Y162889D01*
X130880Y162908D01*
X130879Y162916D01*
Y162923D01*
X130877Y162928D01*
Y162932D01*
Y162935D01*
Y162936D01*
X130879Y162965D01*
X130884Y162991D01*
X130890Y163015D01*
X130898Y163035D01*
X130907Y163051D01*
X130913Y163064D01*
X130915Y163068D01*
X130918Y163072D01*
X130919Y163073D01*
Y163074D01*
X130936Y163096D01*
X130956Y163116D01*
X130976Y163133D01*
X130997Y163148D01*
X131016Y163159D01*
X131031Y163167D01*
X131037Y163171D01*
X131041Y163173D01*
X131044Y163175D01*
X131045D01*
X131056Y163180D01*
X131070Y163185D01*
X131087Y163190D01*
X131103Y163196D01*
X131139Y163206D01*
X131174Y163215D01*
X131192Y163220D01*
X131208Y163224D01*
X131223Y163228D01*
X131235Y163231D01*
X131246Y163233D01*
X131255Y163236D01*
X131260Y163237D01*
X131261D01*
X131289Y163243D01*
X131314Y163250D01*
X131337Y163256D01*
X131357Y163262D01*
X131375Y163269D01*
X131390Y163274D01*
X131404Y163280D01*
X131417Y163285D01*
X131426Y163289D01*
X131435Y163293D01*
X131441Y163297D01*
X131446Y163300D01*
X131450Y163302D01*
X131453Y163304D01*
X131455Y163305D01*
X131468Y163319D01*
X131477Y163333D01*
X131483Y163347D01*
X131487Y163361D01*
X131489Y163374D01*
X131492Y163383D01*
Y163389D01*
Y163392D01*
X131489Y163413D01*
X131483Y163434D01*
X131475Y163452D01*
X131465Y163467D01*
X131455Y163479D01*
X131448Y163488D01*
X131441Y163493D01*
X131439Y163496D01*
X131428Y163504D01*
X131416Y163510D01*
X131389Y163521D01*
X131361Y163529D01*
X131333Y163534D01*
X131308Y163537D01*
X131298Y163538D01*
X131288Y163539D01*
X131248D01*
X131229Y163537D01*
X131211Y163535D01*
X131195Y163532D01*
X131180Y163528D01*
X131166Y163524D01*
X131153Y163520D01*
X131141Y163516D01*
X131133Y163511D01*
X131124Y163507D01*
X131116Y163504D01*
X131110Y163500D01*
X131106Y163496D01*
X131102Y163495D01*
X131100Y163492D01*
X131079Y163473D01*
X131064Y163450D01*
X131053Y163427D01*
X131044Y163406D01*
X131037Y163385D01*
X131035Y163377D01*
X131034Y163369D01*
X131032Y163363D01*
X131031Y163358D01*
Y163355D01*
Y163354D01*
X130907Y163363D01*
X130909Y163393D01*
X130915Y163422D01*
X130923Y163448D01*
X130932Y163471D01*
X130941Y163490D01*
X130945Y163497D01*
X130947Y163504D01*
X130951Y163509D01*
X130952Y163512D01*
X130955Y163514D01*
Y163515D01*
X130973Y163539D01*
X130994Y163561D01*
X131014Y163579D01*
X131036Y163593D01*
X131054Y163604D01*
X131069Y163613D01*
X131075Y163615D01*
X131079Y163618D01*
X131082Y163619D01*
X131083D01*
X131115Y163631D01*
X131148Y163639D01*
X131180Y163646D01*
X131209Y163651D01*
X131223Y163652D01*
X131235Y163653D01*
X131246D01*
X131256Y163655D01*
X131274D01*
X131309Y163653D01*
D02*
G37*
G36*
X147817D02*
X147852Y163648D01*
X147886Y163642D01*
X147918Y163633D01*
X147949Y163623D01*
X147977Y163612D01*
X148002Y163599D01*
X148025Y163586D01*
X148045Y163572D01*
X148064Y163561D01*
X148079Y163548D01*
X148092Y163538D01*
X148102Y163529D01*
X148110Y163523D01*
X148115Y163518D01*
X148116Y163516D01*
X148139Y163490D01*
X148159Y163460D01*
X148176Y163430D01*
X148191Y163399D01*
X148204Y163368D01*
X148214Y163336D01*
X148223Y163305D01*
X148229Y163275D01*
X148234Y163247D01*
X148239Y163220D01*
X148242Y163198D01*
X148243Y163177D01*
X148245Y163159D01*
X148246Y163147D01*
Y163143D01*
Y163139D01*
Y163138D01*
Y163137D01*
X148245Y163112D01*
X148243Y163090D01*
X148237Y163044D01*
X148228Y163003D01*
X148223Y162984D01*
X148218Y162966D01*
X148213Y162951D01*
X148208Y162936D01*
X148203Y162923D01*
X148199Y162913D01*
X148195Y162904D01*
X148192Y162898D01*
X148190Y162894D01*
Y162893D01*
X148167Y162852D01*
X148140Y162815D01*
X148128Y162800D01*
X148114Y162785D01*
X148100Y162771D01*
X148087Y162758D01*
X148074Y162748D01*
X148063Y162738D01*
X148053Y162730D01*
X148044Y162724D01*
X148036Y162717D01*
X148031Y162714D01*
X148027Y162712D01*
X148026Y162711D01*
X148006Y162700D01*
X147984Y162690D01*
X147964Y162681D01*
X147942Y162673D01*
X147900Y162662D01*
X147862Y162654D01*
X147845Y162650D01*
X147829Y162649D01*
X147815Y162648D01*
X147803Y162646D01*
X147794Y162645D01*
X147780D01*
X147756Y162646D01*
X147733Y162648D01*
X147690Y162654D01*
X147649Y162664D01*
X147631Y162669D01*
X147613Y162676D01*
X147598Y162681D01*
X147584Y162686D01*
X147573Y162691D01*
X147563Y162696D01*
X147555Y162700D01*
X147549Y162702D01*
X147545Y162705D01*
X147544D01*
X147523Y162716D01*
X147504Y162729D01*
X147470Y162758D01*
X147441Y162787D01*
X147428Y162801D01*
X147417Y162815D01*
X147406Y162829D01*
X147397Y162841D01*
X147391Y162852D01*
X147385Y162862D01*
X147380Y162870D01*
X147376Y162876D01*
X147375Y162880D01*
X147373Y162881D01*
X147363Y162904D01*
X147353Y162927D01*
X147338Y162973D01*
X147328Y163017D01*
X147324Y163039D01*
X147320Y163059D01*
X147317Y163078D01*
X147315Y163095D01*
X147314Y163110D01*
Y163123D01*
X147312Y163134D01*
Y163142D01*
Y163147D01*
Y163148D01*
Y163175D01*
X147315Y163201D01*
X147321Y163251D01*
X147325Y163274D01*
X147330Y163295D01*
X147335Y163316D01*
X147340Y163333D01*
X147347Y163350D01*
X147352Y163365D01*
X147357Y163378D01*
X147361Y163389D01*
X147364Y163398D01*
X147367Y163405D01*
X147368Y163408D01*
X147370Y163410D01*
X147394Y163450D01*
X147406Y163469D01*
X147419Y163487D01*
X147433Y163502D01*
X147447Y163518D01*
X147461Y163532D01*
X147474Y163543D01*
X147486Y163554D01*
X147498Y163563D01*
X147509Y163571D01*
X147518Y163579D01*
X147526Y163584D01*
X147531Y163587D01*
X147535Y163589D01*
X147536Y163590D01*
X147556Y163601D01*
X147578Y163612D01*
X147598Y163620D01*
X147620Y163628D01*
X147660Y163639D01*
X147697Y163647D01*
X147715Y163650D01*
X147730Y163651D01*
X147744Y163652D01*
X147756Y163653D01*
X147766Y163655D01*
X147778D01*
X147817Y163653D01*
D02*
G37*
G36*
X125776Y162662D02*
X125646D01*
Y163058D01*
X125397D01*
X125360Y163059D01*
X125326Y163062D01*
X125294Y163065D01*
X125265Y163072D01*
X125240Y163078D01*
X125216Y163086D01*
X125195Y163093D01*
X125176Y163101D01*
X125161Y163109D01*
X125147Y163118D01*
X125136Y163124D01*
X125127Y163130D01*
X125120Y163137D01*
X125115Y163140D01*
X125113Y163143D01*
X125112Y163144D01*
X125098Y163161D01*
X125085Y163178D01*
X125075Y163196D01*
X125066Y163214D01*
X125057Y163232D01*
X125051Y163248D01*
X125042Y163283D01*
X125038Y163297D01*
X125035Y163311D01*
X125034Y163323D01*
X125033Y163335D01*
X125032Y163344D01*
Y163350D01*
Y163354D01*
Y163355D01*
X125033Y163382D01*
X125037Y163406D01*
X125042Y163429D01*
X125047Y163449D01*
X125052Y163466D01*
X125057Y163478D01*
X125059Y163482D01*
X125061Y163486D01*
X125062Y163487D01*
Y163488D01*
X125073Y163510D01*
X125086Y163529D01*
X125100Y163546D01*
X125113Y163558D01*
X125123Y163568D01*
X125133Y163576D01*
X125138Y163581D01*
X125141Y163582D01*
X125160Y163594D01*
X125180Y163604D01*
X125199Y163612D01*
X125218Y163618D01*
X125235Y163623D01*
X125249Y163626D01*
X125254Y163627D01*
X125256Y163628D01*
X125260D01*
X125280Y163632D01*
X125305Y163634D01*
X125330Y163636D01*
X125353Y163637D01*
X125374Y163638D01*
X125776D01*
Y162662D01*
D02*
G37*
G36*
X124874Y163629D02*
X124861Y163605D01*
X124849Y163584D01*
X124838Y163565D01*
X124828Y163546D01*
X124819Y163529D01*
X124812Y163515D01*
X124805Y163501D01*
X124799Y163490D01*
X124795Y163481D01*
X124791Y163472D01*
X124788Y163466D01*
X124785Y163460D01*
X124784Y163457D01*
X124783Y163455D01*
Y163454D01*
X124769Y163420D01*
X124756Y163385D01*
X124744Y163354D01*
X124736Y163325D01*
X124732Y163311D01*
X124728Y163299D01*
X124725Y163289D01*
X124723Y163280D01*
X124722Y163272D01*
X124720Y163267D01*
X124719Y163264D01*
Y163262D01*
X124709Y163217D01*
X124703Y163172D01*
X124697Y163130D01*
X124695Y163110D01*
X124694Y163092D01*
X124692Y163076D01*
X124691Y163060D01*
Y163048D01*
X124690Y163036D01*
Y163027D01*
Y163020D01*
Y163016D01*
Y163015D01*
X124692Y162955D01*
X124699Y162895D01*
X124708Y162837D01*
X124720Y162780D01*
X124736Y162724D01*
X124753Y162670D01*
X124771Y162621D01*
X124789Y162574D01*
X124808Y162531D01*
X124826Y162493D01*
X124835Y162475D01*
X124844Y162458D01*
X124851Y162443D01*
X124858Y162429D01*
X124865Y162416D01*
X124870Y162406D01*
X124877Y162396D01*
X124880Y162389D01*
X124884Y162382D01*
X124887Y162378D01*
X124889Y162376D01*
Y162375D01*
X124803D01*
X124767Y162423D01*
X124736Y162474D01*
X124708Y162522D01*
X124695Y162546D01*
X124684Y162568D01*
X124672Y162588D01*
X124663Y162607D01*
X124656Y162625D01*
X124649Y162639D01*
X124643Y162650D01*
X124639Y162659D01*
X124638Y162665D01*
X124637Y162667D01*
X124624Y162698D01*
X124614Y162730D01*
X124604Y162761D01*
X124596Y162792D01*
X124590Y162822D01*
X124583Y162851D01*
X124579Y162878D01*
X124576Y162904D01*
X124573Y162927D01*
X124570Y162949D01*
X124569Y162968D01*
X124568Y162984D01*
X124567Y162997D01*
Y163007D01*
Y163012D01*
Y163015D01*
X124569Y163073D01*
X124574Y163129D01*
X124578Y163156D01*
X124583Y163181D01*
X124588Y163204D01*
X124592Y163225D01*
X124597Y163246D01*
X124602Y163264D01*
X124606Y163280D01*
X124611Y163293D01*
X124614Y163304D01*
X124616Y163312D01*
X124619Y163317D01*
Y163318D01*
X124630Y163350D01*
X124644Y163382D01*
X124672Y163443D01*
X124687Y163471D01*
X124704Y163499D01*
X124718Y163525D01*
X124733Y163549D01*
X124747Y163572D01*
X124760Y163593D01*
X124772Y163610D01*
X124783Y163626D01*
X124791Y163638D01*
X124798Y163647D01*
X124802Y163653D01*
X124803Y163655D01*
X124889D01*
X124874Y163629D01*
D02*
G37*
G36*
X126040Y163623D02*
X126061Y163593D01*
X126081Y163562D01*
X126100Y163532D01*
X126116Y163502D01*
X126131Y163474D01*
X126144Y163448D01*
X126157Y163424D01*
X126168Y163401D01*
X126177Y163380D01*
X126185Y163363D01*
X126191Y163347D01*
X126196Y163335D01*
X126200Y163326D01*
X126201Y163321D01*
X126202Y163318D01*
X126219Y163264D01*
X126232Y163210D01*
X126241Y163158D01*
X126244Y163134D01*
X126247Y163112D01*
X126249Y163091D01*
X126251Y163073D01*
X126252Y163057D01*
Y163041D01*
X126253Y163030D01*
Y163022D01*
Y163016D01*
Y163015D01*
X126252Y162982D01*
X126251Y162947D01*
X126243Y162884D01*
X126238Y162855D01*
X126232Y162825D01*
X126225Y162799D01*
X126219Y162773D01*
X126214Y162751D01*
X126208Y162729D01*
X126201Y162711D01*
X126196Y162696D01*
X126192Y162683D01*
X126188Y162674D01*
X126187Y162669D01*
X126186Y162667D01*
X126159Y162607D01*
X126145Y162578D01*
X126130Y162551D01*
X126116Y162526D01*
X126102Y162502D01*
X126088Y162479D01*
X126075Y162458D01*
X126064Y162439D01*
X126053Y162423D01*
X126042Y162409D01*
X126034Y162397D01*
X126027Y162387D01*
X126021Y162381D01*
X126018Y162376D01*
X126017Y162375D01*
X125931D01*
X125966Y162434D01*
X125997Y162494D01*
X126023Y162552D01*
X126046Y162610D01*
X126065Y162664D01*
X126082Y162717D01*
X126094Y162767D01*
X126105Y162814D01*
X126114Y162857D01*
X126120Y162897D01*
X126122Y162914D01*
X126124Y162931D01*
X126125Y162946D01*
X126128Y162960D01*
Y162971D01*
X126129Y162983D01*
Y162992D01*
X126130Y163001D01*
Y163007D01*
Y163011D01*
Y163013D01*
Y163015D01*
X126129Y163062D01*
X126126Y163107D01*
X126121Y163149D01*
X126119Y163168D01*
X126116Y163187D01*
X126114Y163204D01*
X126111Y163219D01*
X126108Y163232D01*
X126106Y163243D01*
X126105Y163252D01*
X126103Y163260D01*
X126102Y163264D01*
Y163265D01*
X126093Y163302D01*
X126083Y163337D01*
X126072Y163369D01*
X126061Y163398D01*
X126056Y163411D01*
X126053Y163422D01*
X126049Y163432D01*
X126045Y163440D01*
X126042Y163448D01*
X126040Y163453D01*
X126039Y163455D01*
Y163457D01*
X126034Y163468D01*
X126026Y163482D01*
X126011Y163512D01*
X125993Y163546D01*
X125975Y163577D01*
X125966Y163593D01*
X125957Y163608D01*
X125950Y163620D01*
X125943Y163632D01*
X125938Y163642D01*
X125934Y163648D01*
X125932Y163653D01*
X125931Y163655D01*
X126017D01*
X126040Y163623D01*
D02*
G37*
G36*
X127136Y163639D02*
X127170Y163633D01*
X127201Y163624D01*
X127226Y163614D01*
X127237Y163608D01*
X127246Y163603D01*
X127255Y163598D01*
X127262Y163594D01*
X127267Y163590D01*
X127271Y163587D01*
X127273Y163586D01*
X127274Y163585D01*
X127298Y163562D01*
X127320Y163535D01*
X127338Y163507D01*
X127353Y163482D01*
X127364Y163458D01*
X127370Y163448D01*
X127373Y163439D01*
X127376Y163431D01*
X127378Y163426D01*
X127380Y163422D01*
Y163421D01*
X127386Y163401D01*
X127391Y163379D01*
X127400Y163333D01*
X127406Y163286D01*
X127410Y163242D01*
X127413Y163222D01*
Y163203D01*
X127414Y163186D01*
X127415Y163172D01*
Y163159D01*
Y163151D01*
Y163145D01*
Y163143D01*
X127414Y163093D01*
X127411Y163046D01*
X127406Y163005D01*
X127400Y162965D01*
X127394Y162928D01*
X127385Y162897D01*
X127376Y162867D01*
X127367Y162841D01*
X127358Y162818D01*
X127351Y162799D01*
X127342Y162782D01*
X127335Y162768D01*
X127329Y162758D01*
X127324Y162752D01*
X127321Y162747D01*
X127320Y162745D01*
X127304Y162728D01*
X127287Y162712D01*
X127269Y162698D01*
X127251Y162687D01*
X127232Y162678D01*
X127213Y162669D01*
X127196Y162663D01*
X127178Y162658D01*
X127161Y162654D01*
X127146Y162650D01*
X127133Y162648D01*
X127121Y162646D01*
X127112D01*
X127104Y162645D01*
X127098D01*
X127079Y162646D01*
X127060Y162648D01*
X127025Y162654D01*
X126995Y162663D01*
X126970Y162674D01*
X126958Y162679D01*
X126949Y162684D01*
X126940Y162690D01*
X126934Y162693D01*
X126929Y162697D01*
X126924Y162700D01*
X126923Y162702D01*
X126921D01*
X126896Y162725D01*
X126874Y162752D01*
X126856Y162778D01*
X126841Y162805D01*
X126830Y162828D01*
X126825Y162838D01*
X126821Y162847D01*
X126818Y162855D01*
X126816Y162860D01*
X126815Y162864D01*
Y162865D01*
X126808Y162885D01*
X126803Y162907D01*
X126794Y162952D01*
X126788Y162999D01*
X126783Y163044D01*
X126782Y163064D01*
X126780Y163083D01*
Y163100D01*
X126779Y163114D01*
Y163126D01*
Y163135D01*
Y163140D01*
Y163143D01*
Y163170D01*
X126780Y163195D01*
X126782Y163218D01*
X126783Y163239D01*
X126784Y163261D01*
X126787Y163279D01*
X126788Y163297D01*
X126790Y163312D01*
X126793Y163326D01*
X126794Y163339D01*
X126797Y163349D01*
X126798Y163358D01*
X126799Y163364D01*
X126801Y163369D01*
X126802Y163372D01*
Y163373D01*
X126811Y163403D01*
X126820Y163432D01*
X126830Y163457D01*
X126840Y163478D01*
X126849Y163496D01*
X126855Y163509D01*
X126858Y163512D01*
X126860Y163516D01*
X126862Y163518D01*
Y163519D01*
X126877Y163540D01*
X126893Y163558D01*
X126910Y163573D01*
X126925Y163587D01*
X126939Y163598D01*
X126949Y163604D01*
X126957Y163609D01*
X126958Y163610D01*
X126959D01*
X126982Y163620D01*
X127006Y163628D01*
X127029Y163634D01*
X127051Y163638D01*
X127070Y163641D01*
X127077D01*
X127085Y163642D01*
X127117D01*
X127136Y163639D01*
D02*
G37*
G36*
X127726Y162662D02*
X127589D01*
Y162799D01*
X127726D01*
Y162662D01*
D02*
G37*
G36*
X135632D02*
X135023D01*
Y162777D01*
X135503D01*
Y163638D01*
X135632D01*
Y162662D01*
D02*
G37*
G36*
X136912D02*
X136185D01*
Y162777D01*
X136783D01*
Y163110D01*
X136244D01*
Y163225D01*
X136783D01*
Y163523D01*
X136208D01*
Y163638D01*
X136912D01*
Y162662D01*
D02*
G37*
G36*
X137899D02*
X137770D01*
Y163095D01*
X137602D01*
X137588Y163093D01*
X137575D01*
X137565Y163092D01*
X137558Y163091D01*
X137552D01*
X137550Y163090D01*
X137549D01*
X137527Y163082D01*
X137517Y163078D01*
X137508Y163073D01*
X137500Y163069D01*
X137495Y163065D01*
X137491Y163064D01*
X137490Y163063D01*
X137479Y163054D01*
X137467Y163045D01*
X137456Y163034D01*
X137446Y163022D01*
X137437Y163013D01*
X137431Y163005D01*
X137425Y162999D01*
X137424Y162997D01*
X137409Y162978D01*
X137394Y162956D01*
X137378Y162935D01*
X137363Y162913D01*
X137350Y162894D01*
X137344Y162885D01*
X137339Y162878D01*
X137335Y162872D01*
X137333Y162867D01*
X137330Y162865D01*
Y162864D01*
X137202Y162662D01*
X137039D01*
X137208Y162926D01*
X137227Y162954D01*
X137246Y162979D01*
X137264Y163002D01*
X137281Y163020D01*
X137296Y163035D01*
X137306Y163046D01*
X137314Y163053D01*
X137315Y163055D01*
X137316D01*
X137328Y163064D01*
X137339Y163073D01*
X137364Y163090D01*
X137376Y163096D01*
X137385Y163101D01*
X137391Y163104D01*
X137394Y163105D01*
X137368Y163109D01*
X137344Y163114D01*
X137323Y163120D01*
X137302Y163126D01*
X137283Y163134D01*
X137265Y163142D01*
X137250Y163149D01*
X137236Y163157D01*
X137225Y163165D01*
X137215Y163172D01*
X137206Y163178D01*
X137198Y163184D01*
X137193Y163189D01*
X137188Y163192D01*
X137187Y163194D01*
X137185Y163195D01*
X137174Y163209D01*
X137163Y163223D01*
X137154Y163238D01*
X137146Y163252D01*
X137135Y163281D01*
X137127Y163309D01*
X137122Y163333D01*
X137121Y163344D01*
X137119Y163352D01*
X137118Y163360D01*
Y163365D01*
Y163369D01*
Y163370D01*
X137119Y163399D01*
X137124Y163427D01*
X137131Y163453D01*
X137138Y163474D01*
X137146Y163492D01*
X137152Y163506D01*
X137155Y163511D01*
X137157Y163515D01*
X137159Y163516D01*
Y163518D01*
X137175Y163540D01*
X137193Y163561D01*
X137211Y163577D01*
X137229Y163590D01*
X137244Y163600D01*
X137257Y163606D01*
X137262Y163609D01*
X137265Y163610D01*
X137267Y163612D01*
X137268D01*
X137281Y163617D01*
X137296Y163620D01*
X137328Y163627D01*
X137361Y163632D01*
X137392Y163634D01*
X137408Y163636D01*
X137422Y163637D01*
X137433D01*
X137444Y163638D01*
X137899D01*
Y162662D01*
D02*
G37*
G36*
X130698D02*
X129971D01*
Y162777D01*
X130569D01*
Y163110D01*
X130030D01*
Y163225D01*
X130569D01*
Y163523D01*
X129993D01*
Y163638D01*
X130698D01*
Y162662D01*
D02*
G37*
G36*
X133502D02*
X132775D01*
Y162777D01*
X133373D01*
Y163110D01*
X132834D01*
Y163225D01*
X133373D01*
Y163523D01*
X132798D01*
Y163638D01*
X133502D01*
Y162662D01*
D02*
G37*
G36*
X134847D02*
X134718D01*
Y163638D01*
X134847D01*
Y162662D01*
D02*
G37*
G36*
X159333Y103645D02*
X159378Y103637D01*
X159418Y103625D01*
X159452Y103612D01*
X159467Y103603D01*
X159478Y103597D01*
X159490Y103590D01*
X159498Y103585D01*
X159505Y103580D01*
X159510Y103577D01*
X159513Y103575D01*
X159515Y103573D01*
X159547Y103543D01*
X159575Y103508D01*
X159598Y103472D01*
X159618Y103438D01*
X159633Y103407D01*
X159640Y103393D01*
X159645Y103382D01*
X159648Y103372D01*
X159652Y103365D01*
X159653Y103360D01*
Y103358D01*
X159662Y103332D01*
X159668Y103303D01*
X159680Y103243D01*
X159688Y103182D01*
X159693Y103123D01*
X159697Y103097D01*
Y103072D01*
X159698Y103050D01*
X159700Y103032D01*
Y103015D01*
Y103004D01*
Y102997D01*
Y102993D01*
X159698Y102929D01*
X159695Y102867D01*
X159688Y102812D01*
X159680Y102760D01*
X159672Y102712D01*
X159660Y102670D01*
X159648Y102632D01*
X159637Y102597D01*
X159625Y102567D01*
X159615Y102542D01*
X159603Y102520D01*
X159595Y102502D01*
X159587Y102489D01*
X159580Y102480D01*
X159577Y102474D01*
X159575Y102472D01*
X159553Y102449D01*
X159532Y102429D01*
X159508Y102410D01*
X159485Y102395D01*
X159460Y102384D01*
X159435Y102372D01*
X159412Y102364D01*
X159388Y102357D01*
X159367Y102352D01*
X159347Y102347D01*
X159330Y102344D01*
X159313Y102342D01*
X159302D01*
X159292Y102340D01*
X159283D01*
X159258Y102342D01*
X159233Y102344D01*
X159189Y102352D01*
X159149Y102364D01*
X159115Y102379D01*
X159100Y102385D01*
X159089Y102392D01*
X159077Y102399D01*
X159069Y102404D01*
X159062Y102409D01*
X159055Y102412D01*
X159054Y102415D01*
X159052D01*
X159019Y102445D01*
X158990Y102480D01*
X158967Y102515D01*
X158947Y102550D01*
X158932Y102580D01*
X158925Y102594D01*
X158920Y102605D01*
X158917Y102615D01*
X158914Y102622D01*
X158912Y102627D01*
Y102629D01*
X158904Y102655D01*
X158897Y102684D01*
X158885Y102744D01*
X158877Y102805D01*
X158870Y102864D01*
X158869Y102890D01*
X158867Y102915D01*
Y102937D01*
X158865Y102955D01*
Y102972D01*
Y102984D01*
Y102990D01*
Y102993D01*
Y103029D01*
X158867Y103062D01*
X158869Y103092D01*
X158870Y103120D01*
X158872Y103148D01*
X158875Y103172D01*
X158877Y103195D01*
X158880Y103215D01*
X158884Y103233D01*
X158885Y103250D01*
X158889Y103263D01*
X158890Y103275D01*
X158892Y103283D01*
X158894Y103290D01*
X158895Y103293D01*
Y103295D01*
X158907Y103335D01*
X158919Y103373D01*
X158932Y103405D01*
X158945Y103433D01*
X158957Y103457D01*
X158965Y103473D01*
X158969Y103478D01*
X158972Y103483D01*
X158974Y103485D01*
Y103487D01*
X158994Y103515D01*
X159015Y103538D01*
X159037Y103558D01*
X159057Y103577D01*
X159075Y103590D01*
X159089Y103598D01*
X159099Y103605D01*
X159100Y103607D01*
X159102D01*
X159132Y103620D01*
X159164Y103630D01*
X159193Y103638D01*
X159222Y103643D01*
X159247Y103647D01*
X159257D01*
X159267Y103648D01*
X159308D01*
X159333Y103645D01*
D02*
G37*
G36*
X153568Y102362D02*
X153398D01*
Y102930D01*
X153178D01*
X153160Y102929D01*
X153143D01*
X153130Y102927D01*
X153120Y102925D01*
X153113D01*
X153110Y102924D01*
X153108D01*
X153080Y102914D01*
X153067Y102909D01*
X153055Y102902D01*
X153045Y102897D01*
X153038Y102892D01*
X153033Y102890D01*
X153032Y102889D01*
X153017Y102877D01*
X153002Y102865D01*
X152987Y102850D01*
X152973Y102835D01*
X152962Y102824D01*
X152953Y102812D01*
X152947Y102805D01*
X152945Y102802D01*
X152925Y102777D01*
X152905Y102749D01*
X152885Y102720D01*
X152865Y102692D01*
X152848Y102667D01*
X152840Y102655D01*
X152833Y102645D01*
X152828Y102639D01*
X152825Y102632D01*
X152822Y102629D01*
Y102627D01*
X152654Y102362D01*
X152440D01*
X152662Y102709D01*
X152687Y102745D01*
X152712Y102779D01*
X152735Y102809D01*
X152757Y102832D01*
X152777Y102852D01*
X152790Y102867D01*
X152800Y102875D01*
X152802Y102879D01*
X152803D01*
X152818Y102890D01*
X152833Y102902D01*
X152867Y102924D01*
X152882Y102932D01*
X152893Y102939D01*
X152902Y102942D01*
X152905Y102944D01*
X152872Y102949D01*
X152840Y102955D01*
X152812Y102964D01*
X152785Y102972D01*
X152760Y102982D01*
X152737Y102992D01*
X152717Y103002D01*
X152699Y103012D01*
X152684Y103022D01*
X152670Y103032D01*
X152659Y103040D01*
X152649Y103047D01*
X152642Y103053D01*
X152635Y103058D01*
X152634Y103060D01*
X152632Y103062D01*
X152617Y103080D01*
X152602Y103098D01*
X152590Y103118D01*
X152580Y103137D01*
X152565Y103175D01*
X152555Y103212D01*
X152549Y103243D01*
X152547Y103257D01*
X152545Y103268D01*
X152544Y103278D01*
Y103285D01*
Y103290D01*
Y103292D01*
X152545Y103330D01*
X152552Y103367D01*
X152560Y103400D01*
X152570Y103428D01*
X152580Y103452D01*
X152589Y103470D01*
X152592Y103477D01*
X152595Y103482D01*
X152597Y103483D01*
Y103485D01*
X152619Y103515D01*
X152642Y103542D01*
X152665Y103563D01*
X152689Y103580D01*
X152708Y103593D01*
X152725Y103602D01*
X152732Y103605D01*
X152737Y103607D01*
X152738Y103608D01*
X152740D01*
X152757Y103615D01*
X152777Y103620D01*
X152818Y103628D01*
X152862Y103635D01*
X152903Y103638D01*
X152923Y103640D01*
X152942Y103642D01*
X152957D01*
X152972Y103643D01*
X153568D01*
Y102362D01*
D02*
G37*
G36*
X162308Y103308D02*
X162349Y103302D01*
X162388Y103292D01*
X162419Y103282D01*
X162448Y103272D01*
X162459Y103267D01*
X162468Y103262D01*
X162476Y103258D01*
X162481Y103255D01*
X162484Y103253D01*
X162486D01*
X162521Y103230D01*
X162553Y103203D01*
X162579Y103175D01*
X162599Y103147D01*
X162616Y103122D01*
X162628Y103102D01*
X162633Y103095D01*
X162636Y103088D01*
X162638Y103085D01*
Y103083D01*
X162654Y103040D01*
X162666Y102995D01*
X162674Y102952D01*
X162679Y102910D01*
X162683Y102892D01*
Y102875D01*
X162684Y102860D01*
X162686Y102847D01*
Y102837D01*
Y102829D01*
Y102824D01*
Y102822D01*
X162684Y102780D01*
X162681Y102740D01*
X162676Y102704D01*
X162668Y102669D01*
X162659Y102637D01*
X162649Y102607D01*
X162639Y102580D01*
X162628Y102557D01*
X162618Y102535D01*
X162608Y102517D01*
X162598Y102502D01*
X162589Y102489D01*
X162581Y102479D01*
X162576Y102472D01*
X162573Y102467D01*
X162571Y102465D01*
X162549Y102444D01*
X162524Y102425D01*
X162499Y102409D01*
X162474Y102394D01*
X162449Y102382D01*
X162424Y102372D01*
X162399Y102364D01*
X162376Y102357D01*
X162353Y102352D01*
X162333Y102349D01*
X162314Y102345D01*
X162298Y102344D01*
X162284D01*
X162274Y102342D01*
X162266D01*
X162238Y102344D01*
X162211Y102345D01*
X162163Y102355D01*
X162119Y102370D01*
X162099Y102379D01*
X162081Y102387D01*
X162066Y102394D01*
X162051Y102402D01*
X162039Y102410D01*
X162029Y102417D01*
X162021Y102422D01*
X162016Y102427D01*
X162013Y102429D01*
X162011Y102430D01*
X161993Y102449D01*
X161974Y102467D01*
X161959Y102487D01*
X161946Y102507D01*
X161923Y102549D01*
X161906Y102589D01*
X161899Y102607D01*
X161893Y102625D01*
X161889Y102640D01*
X161884Y102654D01*
X161883Y102665D01*
X161881Y102674D01*
X161879Y102679D01*
Y102680D01*
X162034Y102702D01*
X162043Y102660D01*
X162054Y102625D01*
X162068Y102595D01*
X162081Y102570D01*
X162093Y102552D01*
X162104Y102537D01*
X162111Y102530D01*
X162114Y102527D01*
X162139Y102509D01*
X162164Y102495D01*
X162189Y102485D01*
X162214Y102479D01*
X162236Y102475D01*
X162253Y102474D01*
X162259Y102472D01*
X162268D01*
X162289Y102474D01*
X162309Y102475D01*
X162346Y102485D01*
X162378Y102499D01*
X162404Y102514D01*
X162426Y102529D01*
X162441Y102542D01*
X162451Y102552D01*
X162453Y102554D01*
X162454Y102555D01*
X162466Y102572D01*
X162478Y102592D01*
X162494Y102634D01*
X162508Y102679D01*
X162516Y102724D01*
X162518Y102744D01*
X162521Y102764D01*
X162523Y102780D01*
Y102797D01*
X162524Y102809D01*
Y102819D01*
Y102825D01*
Y102827D01*
X162523Y102860D01*
X162521Y102892D01*
X162518Y102920D01*
X162513Y102947D01*
X162508Y102970D01*
X162501Y102992D01*
X162494Y103012D01*
X162488Y103030D01*
X162481Y103045D01*
X162474Y103058D01*
X162468Y103070D01*
X162463Y103078D01*
X162458Y103087D01*
X162454Y103092D01*
X162451Y103093D01*
Y103095D01*
X162436Y103110D01*
X162421Y103123D01*
X162406Y103135D01*
X162389Y103145D01*
X162358Y103160D01*
X162328Y103170D01*
X162301Y103175D01*
X162289Y103177D01*
X162279Y103178D01*
X162271Y103180D01*
X162259D01*
X162231Y103178D01*
X162206Y103173D01*
X162183Y103165D01*
X162163Y103157D01*
X162148Y103147D01*
X162136Y103140D01*
X162128Y103133D01*
X162126Y103132D01*
X162106Y103112D01*
X162091Y103090D01*
X162078Y103067D01*
X162066Y103045D01*
X162058Y103025D01*
X162053Y103008D01*
X162049Y103002D01*
Y102997D01*
X162048Y102995D01*
Y102993D01*
X161894Y103017D01*
X161908Y103067D01*
X161926Y103110D01*
X161946Y103147D01*
X161968Y103178D01*
X161978Y103190D01*
X161988Y103202D01*
X161996Y103212D01*
X162004Y103220D01*
X162011Y103225D01*
X162014Y103230D01*
X162018Y103232D01*
X162019Y103233D01*
X162038Y103247D01*
X162058Y103258D01*
X162098Y103278D01*
X162139Y103292D01*
X162178Y103300D01*
X162196Y103303D01*
X162211Y103307D01*
X162226Y103308D01*
X162239D01*
X162249Y103310D01*
X162264D01*
X162308Y103308D01*
D02*
G37*
G36*
X161735Y103632D02*
X161718Y103600D01*
X161701Y103572D01*
X161688Y103547D01*
X161675Y103522D01*
X161663Y103500D01*
X161653Y103482D01*
X161645Y103463D01*
X161636Y103448D01*
X161631Y103437D01*
X161626Y103425D01*
X161621Y103417D01*
X161618Y103410D01*
X161616Y103405D01*
X161615Y103403D01*
Y103402D01*
X161596Y103357D01*
X161580Y103312D01*
X161565Y103270D01*
X161553Y103232D01*
X161548Y103213D01*
X161543Y103198D01*
X161540Y103185D01*
X161536Y103173D01*
X161535Y103163D01*
X161533Y103157D01*
X161531Y103152D01*
Y103150D01*
X161518Y103090D01*
X161510Y103032D01*
X161503Y102977D01*
X161500Y102950D01*
X161498Y102927D01*
X161496Y102905D01*
X161495Y102885D01*
Y102869D01*
X161493Y102854D01*
Y102842D01*
Y102832D01*
Y102827D01*
Y102825D01*
X161496Y102747D01*
X161505Y102669D01*
X161516Y102592D01*
X161533Y102517D01*
X161553Y102444D01*
X161576Y102374D01*
X161600Y102309D01*
X161623Y102247D01*
X161648Y102190D01*
X161671Y102140D01*
X161683Y102117D01*
X161695Y102095D01*
X161705Y102075D01*
X161713Y102057D01*
X161723Y102040D01*
X161730Y102027D01*
X161738Y102014D01*
X161743Y102004D01*
X161748Y101995D01*
X161751Y101990D01*
X161755Y101987D01*
Y101985D01*
X161641D01*
X161595Y102049D01*
X161553Y102115D01*
X161516Y102179D01*
X161500Y102210D01*
X161485Y102239D01*
X161470Y102265D01*
X161458Y102290D01*
X161448Y102314D01*
X161440Y102332D01*
X161431Y102347D01*
X161426Y102359D01*
X161425Y102367D01*
X161423Y102369D01*
X161406Y102410D01*
X161393Y102452D01*
X161380Y102492D01*
X161370Y102534D01*
X161361Y102572D01*
X161353Y102610D01*
X161348Y102645D01*
X161343Y102680D01*
X161340Y102710D01*
X161336Y102739D01*
X161335Y102764D01*
X161333Y102785D01*
X161331Y102802D01*
Y102815D01*
Y102822D01*
Y102825D01*
X161335Y102902D01*
X161341Y102975D01*
X161346Y103010D01*
X161353Y103043D01*
X161360Y103073D01*
X161365Y103102D01*
X161371Y103128D01*
X161378Y103152D01*
X161383Y103173D01*
X161390Y103190D01*
X161393Y103205D01*
X161396Y103215D01*
X161400Y103222D01*
Y103223D01*
X161415Y103265D01*
X161433Y103307D01*
X161470Y103387D01*
X161490Y103423D01*
X161511Y103460D01*
X161530Y103495D01*
X161550Y103527D01*
X161568Y103557D01*
X161585Y103583D01*
X161601Y103607D01*
X161615Y103627D01*
X161626Y103643D01*
X161635Y103655D01*
X161640Y103663D01*
X161641Y103665D01*
X161755D01*
X161735Y103632D01*
D02*
G37*
G36*
X162966Y103623D02*
X162994Y103583D01*
X163019Y103543D01*
X163044Y103503D01*
X163066Y103465D01*
X163086Y103428D01*
X163102Y103393D01*
X163119Y103362D01*
X163134Y103332D01*
X163146Y103305D01*
X163156Y103282D01*
X163164Y103262D01*
X163171Y103245D01*
X163176Y103233D01*
X163177Y103227D01*
X163179Y103223D01*
X163201Y103152D01*
X163217Y103082D01*
X163229Y103013D01*
X163234Y102982D01*
X163237Y102954D01*
X163241Y102925D01*
X163242Y102902D01*
X163244Y102880D01*
Y102860D01*
X163246Y102845D01*
Y102835D01*
Y102827D01*
Y102825D01*
X163244Y102782D01*
X163242Y102737D01*
X163232Y102654D01*
X163226Y102615D01*
X163217Y102577D01*
X163209Y102542D01*
X163201Y102509D01*
X163194Y102479D01*
X163186Y102450D01*
X163177Y102427D01*
X163171Y102407D01*
X163166Y102390D01*
X163161Y102379D01*
X163159Y102372D01*
X163157Y102369D01*
X163122Y102290D01*
X163104Y102252D01*
X163084Y102217D01*
X163066Y102184D01*
X163048Y102152D01*
X163029Y102122D01*
X163013Y102095D01*
X162998Y102070D01*
X162983Y102049D01*
X162969Y102030D01*
X162958Y102015D01*
X162949Y102002D01*
X162941Y101994D01*
X162938Y101987D01*
X162936Y101985D01*
X162823D01*
X162869Y102064D01*
X162909Y102142D01*
X162944Y102219D01*
X162974Y102294D01*
X162999Y102365D01*
X163021Y102435D01*
X163038Y102500D01*
X163051Y102562D01*
X163063Y102619D01*
X163071Y102670D01*
X163074Y102694D01*
X163076Y102715D01*
X163078Y102735D01*
X163081Y102754D01*
Y102769D01*
X163083Y102784D01*
Y102795D01*
X163084Y102807D01*
Y102815D01*
Y102820D01*
Y102824D01*
Y102825D01*
X163083Y102887D01*
X163079Y102947D01*
X163073Y103002D01*
X163069Y103027D01*
X163066Y103052D01*
X163063Y103073D01*
X163059Y103093D01*
X163056Y103110D01*
X163053Y103125D01*
X163051Y103137D01*
X163049Y103147D01*
X163048Y103152D01*
Y103153D01*
X163036Y103202D01*
X163023Y103248D01*
X163008Y103290D01*
X162994Y103328D01*
X162988Y103345D01*
X162983Y103360D01*
X162978Y103373D01*
X162973Y103383D01*
X162969Y103393D01*
X162966Y103400D01*
X162964Y103403D01*
Y103405D01*
X162958Y103420D01*
X162948Y103438D01*
X162928Y103478D01*
X162904Y103522D01*
X162881Y103563D01*
X162869Y103583D01*
X162858Y103603D01*
X162848Y103620D01*
X162839Y103635D01*
X162833Y103648D01*
X162828Y103657D01*
X162824Y103663D01*
X162823Y103665D01*
X162936D01*
X162966Y103623D01*
D02*
G37*
G36*
X150987Y103663D02*
X151032Y103658D01*
X151072Y103650D01*
X151107Y103643D01*
X151122Y103638D01*
X151136Y103635D01*
X151147Y103630D01*
X151157Y103627D01*
X151166Y103625D01*
X151171Y103622D01*
X151174Y103620D01*
X151176D01*
X151212Y103602D01*
X151246Y103582D01*
X151272Y103560D01*
X151296Y103540D01*
X151312Y103522D01*
X151326Y103505D01*
X151332Y103495D01*
X151336Y103493D01*
Y103492D01*
X151354Y103460D01*
X151367Y103428D01*
X151377Y103398D01*
X151384Y103370D01*
X151387Y103345D01*
X151389Y103327D01*
X151391Y103320D01*
Y103315D01*
Y103312D01*
Y103310D01*
X151389Y103278D01*
X151384Y103248D01*
X151377Y103220D01*
X151369Y103197D01*
X151361Y103177D01*
X151354Y103163D01*
X151349Y103153D01*
X151347Y103152D01*
Y103150D01*
X151329Y103125D01*
X151307Y103102D01*
X151284Y103082D01*
X151262Y103065D01*
X151242Y103050D01*
X151226Y103040D01*
X151219Y103037D01*
X151214Y103033D01*
X151212Y103032D01*
X151211D01*
X151196Y103025D01*
X151179Y103017D01*
X151142Y103004D01*
X151101Y102989D01*
X151061Y102977D01*
X151022Y102965D01*
X151007Y102962D01*
X150992Y102957D01*
X150981Y102955D01*
X150972Y102952D01*
X150966Y102950D01*
X150964D01*
X150932Y102942D01*
X150904Y102935D01*
X150877Y102929D01*
X150854Y102924D01*
X150832Y102917D01*
X150814Y102912D01*
X150797Y102909D01*
X150784Y102904D01*
X150771Y102900D01*
X150761Y102897D01*
X150752Y102895D01*
X150746Y102892D01*
X150739Y102890D01*
X150736Y102889D01*
X150707Y102877D01*
X150684Y102864D01*
X150664Y102852D01*
X150647Y102840D01*
X150636Y102830D01*
X150627Y102822D01*
X150622Y102815D01*
X150621Y102814D01*
X150609Y102797D01*
X150599Y102779D01*
X150592Y102760D01*
X150589Y102744D01*
X150586Y102730D01*
X150584Y102719D01*
Y102712D01*
Y102709D01*
X150586Y102687D01*
X150589Y102667D01*
X150596Y102649D01*
X150602Y102632D01*
X150609Y102619D01*
X150616Y102607D01*
X150619Y102600D01*
X150621Y102599D01*
X150636Y102580D01*
X150654Y102565D01*
X150672Y102552D01*
X150691Y102540D01*
X150707Y102532D01*
X150721Y102525D01*
X150729Y102522D01*
X150731Y102520D01*
X150732D01*
X150761Y102510D01*
X150789Y102504D01*
X150819Y102499D01*
X150844Y102495D01*
X150867Y102494D01*
X150886Y102492D01*
X150902D01*
X150942Y102494D01*
X150979Y102497D01*
X151012Y102504D01*
X151041Y102510D01*
X151066Y102517D01*
X151076Y102520D01*
X151084Y102524D01*
X151091Y102525D01*
X151096Y102527D01*
X151097Y102529D01*
X151099D01*
X151129Y102544D01*
X151156Y102560D01*
X151177Y102577D01*
X151196Y102594D01*
X151209Y102607D01*
X151219Y102619D01*
X151226Y102625D01*
X151227Y102629D01*
X151241Y102654D01*
X151252Y102680D01*
X151262Y102707D01*
X151269Y102732D01*
X151274Y102755D01*
X151277Y102772D01*
Y102779D01*
X151279Y102784D01*
Y102787D01*
Y102789D01*
X151439Y102775D01*
X151435Y102729D01*
X151427Y102684D01*
X151415Y102645D01*
X151402Y102610D01*
X151395Y102595D01*
X151391Y102582D01*
X151384Y102572D01*
X151379Y102562D01*
X151376Y102554D01*
X151372Y102549D01*
X151369Y102545D01*
Y102544D01*
X151342Y102509D01*
X151312Y102477D01*
X151282Y102450D01*
X151252Y102429D01*
X151226Y102412D01*
X151214Y102405D01*
X151206Y102400D01*
X151197Y102395D01*
X151191Y102392D01*
X151187Y102390D01*
X151186D01*
X151139Y102374D01*
X151091Y102362D01*
X151041Y102352D01*
X150996Y102347D01*
X150974Y102345D01*
X150956Y102344D01*
X150937Y102342D01*
X150922D01*
X150911Y102340D01*
X150894D01*
X150844Y102342D01*
X150797Y102349D01*
X150756Y102357D01*
X150721Y102365D01*
X150704Y102370D01*
X150691Y102375D01*
X150679Y102379D01*
X150667Y102382D01*
X150661Y102385D01*
X150654Y102389D01*
X150651Y102390D01*
X150649D01*
X150611Y102410D01*
X150576Y102434D01*
X150547Y102457D01*
X150524Y102479D01*
X150506Y102499D01*
X150491Y102515D01*
X150487Y102522D01*
X150484Y102527D01*
X150481Y102529D01*
Y102530D01*
X150461Y102564D01*
X150446Y102599D01*
X150436Y102630D01*
X150427Y102660D01*
X150424Y102685D01*
X150422Y102695D01*
Y102705D01*
X150421Y102712D01*
Y102717D01*
Y102720D01*
Y102722D01*
X150422Y102760D01*
X150429Y102794D01*
X150437Y102825D01*
X150447Y102852D01*
X150459Y102874D01*
X150467Y102890D01*
X150471Y102895D01*
X150474Y102900D01*
X150476Y102902D01*
Y102904D01*
X150497Y102932D01*
X150524Y102959D01*
X150551Y102980D01*
X150577Y103000D01*
X150602Y103015D01*
X150622Y103025D01*
X150631Y103030D01*
X150636Y103033D01*
X150639Y103035D01*
X150641D01*
X150656Y103042D01*
X150674Y103048D01*
X150696Y103055D01*
X150717Y103063D01*
X150764Y103077D01*
X150811Y103088D01*
X150834Y103095D01*
X150854Y103100D01*
X150874Y103105D01*
X150891Y103108D01*
X150904Y103112D01*
X150916Y103115D01*
X150922Y103117D01*
X150924D01*
X150961Y103125D01*
X150994Y103133D01*
X151024Y103142D01*
X151051Y103150D01*
X151074Y103158D01*
X151094Y103165D01*
X151112Y103173D01*
X151129Y103180D01*
X151141Y103185D01*
X151152Y103190D01*
X151161Y103195D01*
X151167Y103200D01*
X151172Y103202D01*
X151176Y103205D01*
X151179Y103207D01*
X151196Y103225D01*
X151207Y103243D01*
X151216Y103262D01*
X151221Y103280D01*
X151224Y103297D01*
X151227Y103308D01*
Y103317D01*
Y103320D01*
X151224Y103348D01*
X151216Y103375D01*
X151206Y103398D01*
X151192Y103418D01*
X151179Y103435D01*
X151169Y103447D01*
X151161Y103453D01*
X151157Y103457D01*
X151144Y103467D01*
X151127Y103475D01*
X151092Y103490D01*
X151056Y103500D01*
X151019Y103507D01*
X150986Y103510D01*
X150972Y103512D01*
X150959Y103513D01*
X150907D01*
X150882Y103510D01*
X150859Y103508D01*
X150837Y103503D01*
X150817Y103498D01*
X150799Y103493D01*
X150782Y103488D01*
X150767Y103483D01*
X150756Y103477D01*
X150744Y103472D01*
X150734Y103467D01*
X150726Y103462D01*
X150721Y103457D01*
X150716Y103455D01*
X150712Y103452D01*
X150686Y103427D01*
X150666Y103397D01*
X150651Y103367D01*
X150639Y103338D01*
X150631Y103312D01*
X150627Y103300D01*
X150626Y103290D01*
X150624Y103282D01*
X150622Y103275D01*
Y103272D01*
Y103270D01*
X150459Y103282D01*
X150462Y103322D01*
X150471Y103360D01*
X150481Y103393D01*
X150492Y103423D01*
X150504Y103448D01*
X150509Y103458D01*
X150512Y103467D01*
X150517Y103473D01*
X150519Y103478D01*
X150522Y103480D01*
Y103482D01*
X150546Y103513D01*
X150574Y103542D01*
X150601Y103565D01*
X150629Y103583D01*
X150652Y103598D01*
X150672Y103610D01*
X150681Y103613D01*
X150686Y103617D01*
X150689Y103618D01*
X150691D01*
X150732Y103633D01*
X150776Y103645D01*
X150817Y103653D01*
X150856Y103660D01*
X150874Y103662D01*
X150891Y103663D01*
X150904D01*
X150917Y103665D01*
X150941D01*
X150987Y103663D01*
D02*
G37*
G36*
X152044Y102362D02*
X151892D01*
X151542Y103290D01*
X151705D01*
X151910Y102724D01*
X151924Y102687D01*
X151935Y102652D01*
X151945Y102622D01*
X151954Y102597D01*
X151960Y102575D01*
X151965Y102560D01*
X151967Y102550D01*
X151969Y102549D01*
Y102547D01*
X151979Y102582D01*
X151989Y102617D01*
X151999Y102649D01*
X152009Y102677D01*
X152017Y102700D01*
X152024Y102719D01*
X152025Y102725D01*
X152027Y102730D01*
X152029Y102732D01*
Y102734D01*
X152227Y103290D01*
X152394D01*
X152044Y102362D01*
D02*
G37*
G36*
X155731Y103647D02*
X155763Y103645D01*
X155793Y103640D01*
X155819Y103633D01*
X155846Y103627D01*
X155869Y103618D01*
X155891Y103610D01*
X155911Y103602D01*
X155929Y103592D01*
X155944Y103583D01*
X155958Y103575D01*
X155969Y103568D01*
X155978Y103562D01*
X155984Y103557D01*
X155988Y103555D01*
X155989Y103553D01*
X156009Y103535D01*
X156026Y103515D01*
X156041Y103493D01*
X156054Y103470D01*
X156066Y103448D01*
X156076Y103425D01*
X156091Y103380D01*
X156098Y103360D01*
X156103Y103340D01*
X156106Y103323D01*
X156109Y103308D01*
X156111Y103295D01*
Y103287D01*
X156113Y103280D01*
Y103278D01*
X155951Y103262D01*
X155948Y103305D01*
X155941Y103342D01*
X155929Y103373D01*
X155916Y103402D01*
X155904Y103422D01*
X155893Y103438D01*
X155886Y103447D01*
X155883Y103450D01*
X155856Y103473D01*
X155826Y103490D01*
X155794Y103502D01*
X155766Y103510D01*
X155741Y103515D01*
X155729Y103517D01*
X155719D01*
X155713Y103518D01*
X155701D01*
X155663Y103515D01*
X155628Y103508D01*
X155598Y103498D01*
X155573Y103487D01*
X155553Y103473D01*
X155538Y103463D01*
X155529Y103457D01*
X155526Y103453D01*
X155503Y103428D01*
X155486Y103402D01*
X155474Y103377D01*
X155466Y103352D01*
X155461Y103330D01*
X155459Y103312D01*
X155458Y103305D01*
Y103302D01*
Y103298D01*
Y103297D01*
Y103280D01*
X155461Y103263D01*
X155469Y103228D01*
X155481Y103197D01*
X155494Y103168D01*
X155509Y103143D01*
X155516Y103133D01*
X155521Y103123D01*
X155526Y103117D01*
X155529Y103112D01*
X155531Y103108D01*
X155533Y103107D01*
X155548Y103087D01*
X155566Y103067D01*
X155586Y103045D01*
X155608Y103022D01*
X155654Y102977D01*
X155701Y102934D01*
X155723Y102914D01*
X155744Y102895D01*
X155764Y102879D01*
X155781Y102864D01*
X155794Y102852D01*
X155806Y102844D01*
X155813Y102837D01*
X155814Y102835D01*
X155863Y102795D01*
X155904Y102759D01*
X155939Y102725D01*
X155968Y102697D01*
X155991Y102674D01*
X156008Y102655D01*
X156013Y102649D01*
X156018Y102644D01*
X156019Y102642D01*
X156021Y102640D01*
X156046Y102609D01*
X156068Y102579D01*
X156084Y102550D01*
X156099Y102524D01*
X156111Y102502D01*
X156118Y102485D01*
X156121Y102479D01*
X156123Y102474D01*
X156124Y102472D01*
Y102470D01*
X156131Y102450D01*
X156136Y102432D01*
X156139Y102414D01*
X156141Y102397D01*
X156143Y102382D01*
Y102372D01*
Y102365D01*
Y102362D01*
X155294D01*
Y102514D01*
X155924D01*
X155903Y102544D01*
X155891Y102559D01*
X155881Y102570D01*
X155871Y102582D01*
X155864Y102590D01*
X155859Y102595D01*
X155858Y102597D01*
X155849Y102605D01*
X155838Y102617D01*
X155826Y102629D01*
X155813Y102640D01*
X155783Y102667D01*
X155751Y102694D01*
X155723Y102719D01*
X155709Y102730D01*
X155699Y102740D01*
X155689Y102747D01*
X155683Y102754D01*
X155678Y102757D01*
X155676Y102759D01*
X155646Y102785D01*
X155616Y102810D01*
X155591Y102832D01*
X155566Y102854D01*
X155544Y102874D01*
X155524Y102894D01*
X155506Y102910D01*
X155491Y102925D01*
X155476Y102939D01*
X155464Y102950D01*
X155454Y102960D01*
X155446Y102969D01*
X155441Y102975D01*
X155436Y102980D01*
X155433Y102982D01*
Y102984D01*
X155408Y103013D01*
X155386Y103043D01*
X155368Y103070D01*
X155353Y103093D01*
X155341Y103112D01*
X155334Y103127D01*
X155329Y103137D01*
X155328Y103140D01*
X155318Y103168D01*
X155309Y103195D01*
X155305Y103222D01*
X155299Y103243D01*
X155298Y103263D01*
X155296Y103278D01*
Y103288D01*
Y103292D01*
X155298Y103320D01*
X155301Y103347D01*
X155306Y103372D01*
X155313Y103395D01*
X155331Y103438D01*
X155339Y103458D01*
X155349Y103475D01*
X155361Y103492D01*
X155369Y103505D01*
X155379Y103517D01*
X155388Y103527D01*
X155394Y103535D01*
X155399Y103540D01*
X155403Y103543D01*
X155404Y103545D01*
X155426Y103563D01*
X155448Y103578D01*
X155471Y103593D01*
X155496Y103605D01*
X155521Y103615D01*
X155544Y103623D01*
X155591Y103635D01*
X155613Y103640D01*
X155633Y103643D01*
X155651Y103645D01*
X155668Y103647D01*
X155679Y103648D01*
X155698D01*
X155731Y103647D01*
D02*
G37*
G36*
X160307D02*
X160338Y103645D01*
X160368Y103640D01*
X160395Y103633D01*
X160422Y103627D01*
X160445Y103618D01*
X160467Y103610D01*
X160487Y103602D01*
X160505Y103592D01*
X160520Y103583D01*
X160533Y103575D01*
X160545Y103568D01*
X160553Y103562D01*
X160560Y103557D01*
X160563Y103555D01*
X160565Y103553D01*
X160585Y103535D01*
X160601Y103515D01*
X160616Y103493D01*
X160630Y103470D01*
X160641Y103448D01*
X160651Y103425D01*
X160666Y103380D01*
X160673Y103360D01*
X160678Y103340D01*
X160681Y103323D01*
X160685Y103308D01*
X160686Y103295D01*
Y103287D01*
X160688Y103280D01*
Y103278D01*
X160527Y103262D01*
X160523Y103305D01*
X160516Y103342D01*
X160505Y103373D01*
X160492Y103402D01*
X160480Y103422D01*
X160468Y103438D01*
X160462Y103447D01*
X160458Y103450D01*
X160432Y103473D01*
X160402Y103490D01*
X160370Y103502D01*
X160342Y103510D01*
X160317Y103515D01*
X160305Y103517D01*
X160295D01*
X160288Y103518D01*
X160277D01*
X160238Y103515D01*
X160203Y103508D01*
X160173Y103498D01*
X160148Y103487D01*
X160128Y103473D01*
X160113Y103463D01*
X160105Y103457D01*
X160102Y103453D01*
X160078Y103428D01*
X160062Y103402D01*
X160050Y103377D01*
X160042Y103352D01*
X160037Y103330D01*
X160035Y103312D01*
X160033Y103305D01*
Y103302D01*
Y103298D01*
Y103297D01*
Y103280D01*
X160037Y103263D01*
X160045Y103228D01*
X160057Y103197D01*
X160070Y103168D01*
X160085Y103143D01*
X160092Y103133D01*
X160097Y103123D01*
X160102Y103117D01*
X160105Y103112D01*
X160107Y103108D01*
X160108Y103107D01*
X160123Y103087D01*
X160142Y103067D01*
X160162Y103045D01*
X160183Y103022D01*
X160230Y102977D01*
X160277Y102934D01*
X160298Y102914D01*
X160320Y102895D01*
X160340Y102879D01*
X160357Y102864D01*
X160370Y102852D01*
X160382Y102844D01*
X160388Y102837D01*
X160390Y102835D01*
X160438Y102795D01*
X160480Y102759D01*
X160515Y102725D01*
X160543Y102697D01*
X160566Y102674D01*
X160583Y102655D01*
X160588Y102649D01*
X160593Y102644D01*
X160595Y102642D01*
X160596Y102640D01*
X160621Y102609D01*
X160643Y102579D01*
X160660Y102550D01*
X160675Y102524D01*
X160686Y102502D01*
X160693Y102485D01*
X160696Y102479D01*
X160698Y102474D01*
X160700Y102472D01*
Y102470D01*
X160706Y102450D01*
X160711Y102432D01*
X160715Y102414D01*
X160716Y102397D01*
X160718Y102382D01*
Y102372D01*
Y102365D01*
Y102362D01*
X159870D01*
Y102514D01*
X160500D01*
X160478Y102544D01*
X160467Y102559D01*
X160457Y102570D01*
X160447Y102582D01*
X160440Y102590D01*
X160435Y102595D01*
X160433Y102597D01*
X160425Y102605D01*
X160413Y102617D01*
X160402Y102629D01*
X160388Y102640D01*
X160358Y102667D01*
X160327Y102694D01*
X160298Y102719D01*
X160285Y102730D01*
X160275Y102740D01*
X160265Y102747D01*
X160258Y102754D01*
X160253Y102757D01*
X160252Y102759D01*
X160222Y102785D01*
X160192Y102810D01*
X160167Y102832D01*
X160142Y102854D01*
X160120Y102874D01*
X160100Y102894D01*
X160082Y102910D01*
X160067Y102925D01*
X160052Y102939D01*
X160040Y102950D01*
X160030Y102960D01*
X160022Y102969D01*
X160017Y102975D01*
X160012Y102980D01*
X160008Y102982D01*
Y102984D01*
X159983Y103013D01*
X159962Y103043D01*
X159943Y103070D01*
X159928Y103093D01*
X159917Y103112D01*
X159910Y103127D01*
X159905Y103137D01*
X159903Y103140D01*
X159893Y103168D01*
X159885Y103195D01*
X159880Y103222D01*
X159875Y103243D01*
X159873Y103263D01*
X159872Y103278D01*
Y103288D01*
Y103292D01*
X159873Y103320D01*
X159877Y103347D01*
X159882Y103372D01*
X159888Y103395D01*
X159907Y103438D01*
X159915Y103458D01*
X159925Y103475D01*
X159937Y103492D01*
X159945Y103505D01*
X159955Y103517D01*
X159963Y103527D01*
X159970Y103535D01*
X159975Y103540D01*
X159978Y103543D01*
X159980Y103545D01*
X160002Y103563D01*
X160023Y103578D01*
X160047Y103593D01*
X160072Y103605D01*
X160097Y103615D01*
X160120Y103623D01*
X160167Y103635D01*
X160188Y103640D01*
X160208Y103643D01*
X160227Y103645D01*
X160243Y103647D01*
X160255Y103648D01*
X160273D01*
X160307Y103647D01*
D02*
G37*
G36*
X157339D02*
X157366Y103645D01*
X157416Y103635D01*
X157459Y103620D01*
X157477Y103612D01*
X157496Y103605D01*
X157511Y103597D01*
X157526Y103588D01*
X157537Y103580D01*
X157547Y103573D01*
X157556Y103568D01*
X157561Y103563D01*
X157564Y103562D01*
X157566Y103560D01*
X157584Y103543D01*
X157601Y103525D01*
X157629Y103485D01*
X157651Y103445D01*
X157669Y103407D01*
X157676Y103388D01*
X157681Y103372D01*
X157686Y103355D01*
X157689Y103343D01*
X157692Y103332D01*
X157694Y103323D01*
X157696Y103318D01*
Y103317D01*
X157539Y103288D01*
X157531Y103328D01*
X157521Y103363D01*
X157507Y103393D01*
X157494Y103417D01*
X157482Y103437D01*
X157472Y103450D01*
X157466Y103457D01*
X157462Y103460D01*
X157437Y103480D01*
X157412Y103493D01*
X157386Y103503D01*
X157362Y103512D01*
X157341Y103515D01*
X157322Y103517D01*
X157316Y103518D01*
X157307D01*
X157274Y103517D01*
X157246Y103510D01*
X157219Y103500D01*
X157197Y103490D01*
X157181Y103478D01*
X157167Y103470D01*
X157161Y103463D01*
X157157Y103460D01*
X157137Y103438D01*
X157122Y103413D01*
X157112Y103390D01*
X157104Y103368D01*
X157101Y103348D01*
X157099Y103333D01*
X157097Y103322D01*
Y103320D01*
Y103318D01*
X157099Y103298D01*
X157101Y103280D01*
X157111Y103247D01*
X157122Y103218D01*
X157137Y103195D01*
X157152Y103178D01*
X157166Y103165D01*
X157176Y103158D01*
X157177Y103155D01*
X157179D01*
X157209Y103138D01*
X157241Y103125D01*
X157271Y103117D01*
X157299Y103110D01*
X157322Y103107D01*
X157342Y103105D01*
X157349Y103103D01*
X157367D01*
X157376Y103105D01*
X157381Y103107D01*
X157384D01*
X157402Y102969D01*
X157379Y102974D01*
X157357Y102979D01*
X157337Y102982D01*
X157321Y102984D01*
X157309Y102985D01*
X157291D01*
X157251Y102982D01*
X157216Y102974D01*
X157186Y102964D01*
X157159Y102950D01*
X157139Y102937D01*
X157124Y102927D01*
X157114Y102919D01*
X157111Y102915D01*
X157097Y102902D01*
X157087Y102887D01*
X157069Y102859D01*
X157056Y102829D01*
X157047Y102800D01*
X157042Y102775D01*
X157041Y102764D01*
Y102755D01*
X157039Y102747D01*
Y102742D01*
Y102739D01*
Y102737D01*
Y102717D01*
X157042Y102697D01*
X157051Y102660D01*
X157064Y102627D01*
X157077Y102600D01*
X157091Y102577D01*
X157104Y102560D01*
X157109Y102555D01*
X157112Y102550D01*
X157114Y102549D01*
X157116Y102547D01*
X157131Y102534D01*
X157146Y102522D01*
X157177Y102502D01*
X157209Y102489D01*
X157239Y102480D01*
X157264Y102474D01*
X157276Y102472D01*
X157286D01*
X157292Y102470D01*
X157304D01*
X157337Y102474D01*
X157369Y102480D01*
X157396Y102489D01*
X157419Y102500D01*
X157439Y102510D01*
X157452Y102520D01*
X157461Y102527D01*
X157464Y102529D01*
X157476Y102540D01*
X157486Y102554D01*
X157504Y102585D01*
X157521Y102617D01*
X157532Y102649D01*
X157542Y102679D01*
X157546Y102690D01*
X157549Y102702D01*
X157551Y102710D01*
X157552Y102717D01*
X157554Y102722D01*
Y102724D01*
X157711Y102702D01*
X157707Y102672D01*
X157701Y102644D01*
X157694Y102619D01*
X157684Y102594D01*
X157674Y102570D01*
X157664Y102549D01*
X157652Y102529D01*
X157642Y102510D01*
X157631Y102495D01*
X157621Y102480D01*
X157611Y102469D01*
X157602Y102459D01*
X157594Y102450D01*
X157589Y102445D01*
X157586Y102442D01*
X157584Y102440D01*
X157562Y102422D01*
X157541Y102407D01*
X157517Y102394D01*
X157492Y102382D01*
X157469Y102374D01*
X157446Y102365D01*
X157402Y102354D01*
X157382Y102349D01*
X157362Y102345D01*
X157346Y102344D01*
X157332Y102342D01*
X157321Y102340D01*
X157304D01*
X157269Y102342D01*
X157237Y102345D01*
X157206Y102350D01*
X157177Y102359D01*
X157149Y102367D01*
X157124Y102377D01*
X157101Y102387D01*
X157079Y102399D01*
X157061Y102409D01*
X157044Y102419D01*
X157029Y102429D01*
X157017Y102437D01*
X157007Y102445D01*
X157001Y102450D01*
X156997Y102454D01*
X156996Y102455D01*
X156974Y102477D01*
X156956Y102500D01*
X156939Y102525D01*
X156924Y102549D01*
X156912Y102574D01*
X156902Y102597D01*
X156894Y102620D01*
X156887Y102642D01*
X156882Y102662D01*
X156879Y102680D01*
X156876Y102697D01*
X156874Y102712D01*
X156872Y102724D01*
Y102734D01*
Y102739D01*
Y102740D01*
X156876Y102785D01*
X156882Y102824D01*
X156892Y102859D01*
X156904Y102889D01*
X156916Y102914D01*
X156921Y102922D01*
X156926Y102930D01*
X156929Y102937D01*
X156932Y102942D01*
X156936Y102944D01*
Y102945D01*
X156961Y102974D01*
X156991Y102997D01*
X157019Y103017D01*
X157047Y103032D01*
X157072Y103042D01*
X157084Y103047D01*
X157094Y103050D01*
X157101Y103052D01*
X157107Y103053D01*
X157111Y103055D01*
X157112D01*
X157082Y103072D01*
X157056Y103088D01*
X157032Y103107D01*
X157014Y103125D01*
X156999Y103140D01*
X156989Y103152D01*
X156982Y103160D01*
X156981Y103163D01*
X156966Y103190D01*
X156954Y103217D01*
X156947Y103242D01*
X156941Y103265D01*
X156937Y103285D01*
X156936Y103302D01*
Y103312D01*
Y103313D01*
Y103315D01*
X156937Y103347D01*
X156942Y103377D01*
X156951Y103405D01*
X156959Y103430D01*
X156969Y103450D01*
X156976Y103467D01*
X156982Y103477D01*
X156984Y103478D01*
Y103480D01*
X157002Y103508D01*
X157024Y103532D01*
X157047Y103553D01*
X157069Y103572D01*
X157089Y103585D01*
X157104Y103595D01*
X157111Y103598D01*
X157116Y103602D01*
X157117Y103603D01*
X157119D01*
X157152Y103618D01*
X157186Y103630D01*
X157217Y103637D01*
X157247Y103643D01*
X157272Y103647D01*
X157284D01*
X157292Y103648D01*
X157311D01*
X157339Y103647D01*
D02*
G37*
G36*
X156734Y102747D02*
X156251D01*
Y102905D01*
X156734D01*
Y102747D01*
D02*
G37*
G36*
X158234Y103617D02*
X158255Y103587D01*
X158279Y103557D01*
X158300Y103532D01*
X158322Y103508D01*
X158339Y103492D01*
X158345Y103485D01*
X158350Y103480D01*
X158354Y103478D01*
X158355Y103477D01*
X158394Y103445D01*
X158432Y103417D01*
X158472Y103390D01*
X158507Y103368D01*
X158539Y103352D01*
X158552Y103343D01*
X158564Y103338D01*
X158572Y103333D01*
X158579Y103330D01*
X158584Y103327D01*
X158585D01*
Y103173D01*
X158557Y103185D01*
X158529Y103198D01*
X158500Y103212D01*
X158475Y103225D01*
X158454Y103237D01*
X158435Y103247D01*
X158429Y103250D01*
X158424Y103253D01*
X158422Y103255D01*
X158420D01*
X158387Y103275D01*
X158359Y103295D01*
X158332Y103313D01*
X158310Y103330D01*
X158294Y103343D01*
X158280Y103355D01*
X158274Y103362D01*
X158270Y103363D01*
Y102362D01*
X158114D01*
Y103648D01*
X158215D01*
X158234Y103617D01*
D02*
G37*
G36*
X154736Y103647D02*
X154768Y103645D01*
X154798Y103640D01*
X154825Y103633D01*
X154851Y103627D01*
X154875Y103618D01*
X154896Y103610D01*
X154916Y103602D01*
X154935Y103592D01*
X154950Y103583D01*
X154963Y103575D01*
X154975Y103568D01*
X154983Y103562D01*
X154990Y103557D01*
X154993Y103555D01*
X154995Y103553D01*
X155015Y103535D01*
X155031Y103515D01*
X155046Y103493D01*
X155060Y103470D01*
X155071Y103448D01*
X155081Y103425D01*
X155096Y103380D01*
X155103Y103360D01*
X155108Y103340D01*
X155111Y103323D01*
X155115Y103308D01*
X155116Y103295D01*
Y103287D01*
X155118Y103280D01*
Y103278D01*
X154956Y103262D01*
X154953Y103305D01*
X154946Y103342D01*
X154935Y103373D01*
X154921Y103402D01*
X154910Y103422D01*
X154898Y103438D01*
X154891Y103447D01*
X154888Y103450D01*
X154861Y103473D01*
X154831Y103490D01*
X154800Y103502D01*
X154771Y103510D01*
X154746Y103515D01*
X154735Y103517D01*
X154725D01*
X154718Y103518D01*
X154706D01*
X154668Y103515D01*
X154633Y103508D01*
X154603Y103498D01*
X154578Y103487D01*
X154558Y103473D01*
X154543Y103463D01*
X154535Y103457D01*
X154531Y103453D01*
X154508Y103428D01*
X154491Y103402D01*
X154480Y103377D01*
X154471Y103352D01*
X154466Y103330D01*
X154465Y103312D01*
X154463Y103305D01*
Y103302D01*
Y103298D01*
Y103297D01*
Y103280D01*
X154466Y103263D01*
X154475Y103228D01*
X154486Y103197D01*
X154500Y103168D01*
X154515Y103143D01*
X154521Y103133D01*
X154526Y103123D01*
X154531Y103117D01*
X154535Y103112D01*
X154536Y103108D01*
X154538Y103107D01*
X154553Y103087D01*
X154571Y103067D01*
X154591Y103045D01*
X154613Y103022D01*
X154660Y102977D01*
X154706Y102934D01*
X154728Y102914D01*
X154750Y102895D01*
X154770Y102879D01*
X154786Y102864D01*
X154800Y102852D01*
X154811Y102844D01*
X154818Y102837D01*
X154820Y102835D01*
X154868Y102795D01*
X154910Y102759D01*
X154945Y102725D01*
X154973Y102697D01*
X154996Y102674D01*
X155013Y102655D01*
X155018Y102649D01*
X155023Y102644D01*
X155025Y102642D01*
X155026Y102640D01*
X155051Y102609D01*
X155073Y102579D01*
X155090Y102550D01*
X155105Y102524D01*
X155116Y102502D01*
X155123Y102485D01*
X155126Y102479D01*
X155128Y102474D01*
X155130Y102472D01*
Y102470D01*
X155136Y102450D01*
X155141Y102432D01*
X155145Y102414D01*
X155146Y102397D01*
X155148Y102382D01*
Y102372D01*
Y102365D01*
Y102362D01*
X154300D01*
Y102514D01*
X154930D01*
X154908Y102544D01*
X154896Y102559D01*
X154886Y102570D01*
X154876Y102582D01*
X154870Y102590D01*
X154865Y102595D01*
X154863Y102597D01*
X154855Y102605D01*
X154843Y102617D01*
X154831Y102629D01*
X154818Y102640D01*
X154788Y102667D01*
X154756Y102694D01*
X154728Y102719D01*
X154715Y102730D01*
X154705Y102740D01*
X154695Y102747D01*
X154688Y102754D01*
X154683Y102757D01*
X154681Y102759D01*
X154651Y102785D01*
X154621Y102810D01*
X154596Y102832D01*
X154571Y102854D01*
X154550Y102874D01*
X154530Y102894D01*
X154511Y102910D01*
X154496Y102925D01*
X154481Y102939D01*
X154470Y102950D01*
X154460Y102960D01*
X154451Y102969D01*
X154446Y102975D01*
X154441Y102980D01*
X154438Y102982D01*
Y102984D01*
X154413Y103013D01*
X154391Y103043D01*
X154373Y103070D01*
X154358Y103093D01*
X154346Y103112D01*
X154340Y103127D01*
X154335Y103137D01*
X154333Y103140D01*
X154323Y103168D01*
X154315Y103195D01*
X154310Y103222D01*
X154305Y103243D01*
X154303Y103263D01*
X154301Y103278D01*
Y103288D01*
Y103292D01*
X154303Y103320D01*
X154306Y103347D01*
X154311Y103372D01*
X154318Y103395D01*
X154336Y103438D01*
X154345Y103458D01*
X154355Y103475D01*
X154366Y103492D01*
X154375Y103505D01*
X154385Y103517D01*
X154393Y103527D01*
X154400Y103535D01*
X154405Y103540D01*
X154408Y103543D01*
X154410Y103545D01*
X154431Y103563D01*
X154453Y103578D01*
X154476Y103593D01*
X154501Y103605D01*
X154526Y103615D01*
X154550Y103623D01*
X154596Y103635D01*
X154618Y103640D01*
X154638Y103643D01*
X154656Y103645D01*
X154673Y103647D01*
X154685Y103648D01*
X154703D01*
X154736Y103647D01*
D02*
G37*
G36*
X128256Y163641D02*
X128280Y163639D01*
X128303Y163636D01*
X128323Y163631D01*
X128344Y163626D01*
X128361Y163619D01*
X128378Y163613D01*
X128393Y163606D01*
X128407Y163599D01*
X128419Y163593D01*
X128429Y163586D01*
X128438Y163581D01*
X128444Y163576D01*
X128449Y163572D01*
X128452Y163571D01*
X128453Y163570D01*
X128468Y163556D01*
X128481Y163540D01*
X128492Y163524D01*
X128502Y163506D01*
X128511Y163490D01*
X128519Y163472D01*
X128530Y163438D01*
X128535Y163422D01*
X128539Y163407D01*
X128542Y163394D01*
X128544Y163383D01*
X128546Y163373D01*
Y163366D01*
X128547Y163361D01*
Y163360D01*
X128424Y163347D01*
X128421Y163380D01*
X128416Y163408D01*
X128407Y163432D01*
X128397Y163454D01*
X128388Y163469D01*
X128379Y163482D01*
X128374Y163488D01*
X128372Y163491D01*
X128351Y163509D01*
X128328Y163521D01*
X128304Y163530D01*
X128283Y163537D01*
X128264Y163540D01*
X128255Y163542D01*
X128247D01*
X128242Y163543D01*
X128233D01*
X128204Y163540D01*
X128177Y163535D01*
X128154Y163528D01*
X128135Y163519D01*
X128120Y163509D01*
X128109Y163501D01*
X128102Y163496D01*
X128100Y163493D01*
X128082Y163474D01*
X128069Y163454D01*
X128060Y163435D01*
X128054Y163416D01*
X128050Y163399D01*
X128049Y163385D01*
X128048Y163380D01*
Y163378D01*
Y163375D01*
Y163374D01*
Y163361D01*
X128050Y163349D01*
X128057Y163322D01*
X128066Y163298D01*
X128076Y163276D01*
X128087Y163257D01*
X128092Y163250D01*
X128096Y163242D01*
X128100Y163237D01*
X128102Y163233D01*
X128104Y163231D01*
X128105Y163229D01*
X128116Y163214D01*
X128130Y163199D01*
X128146Y163182D01*
X128162Y163165D01*
X128198Y163130D01*
X128233Y163097D01*
X128250Y163082D01*
X128266Y163068D01*
X128281Y163055D01*
X128294Y163044D01*
X128304Y163035D01*
X128313Y163029D01*
X128318Y163024D01*
X128320Y163022D01*
X128356Y162992D01*
X128388Y162964D01*
X128415Y162938D01*
X128436Y162917D01*
X128454Y162899D01*
X128467Y162885D01*
X128471Y162880D01*
X128474Y162876D01*
X128476Y162875D01*
X128477Y162874D01*
X128496Y162850D01*
X128513Y162827D01*
X128525Y162805D01*
X128537Y162785D01*
X128546Y162768D01*
X128551Y162756D01*
X128553Y162751D01*
X128554Y162747D01*
X128556Y162745D01*
Y162744D01*
X128561Y162729D01*
X128565Y162715D01*
X128567Y162701D01*
X128568Y162688D01*
X128570Y162677D01*
Y162669D01*
Y162664D01*
Y162662D01*
X127923D01*
Y162777D01*
X128403D01*
X128387Y162800D01*
X128378Y162811D01*
X128370Y162820D01*
X128363Y162829D01*
X128358Y162836D01*
X128354Y162839D01*
X128353Y162841D01*
X128346Y162847D01*
X128337Y162856D01*
X128328Y162865D01*
X128318Y162874D01*
X128295Y162894D01*
X128271Y162914D01*
X128250Y162933D01*
X128240Y162942D01*
X128232Y162950D01*
X128224Y162955D01*
X128219Y162960D01*
X128215Y162963D01*
X128214Y162964D01*
X128191Y162984D01*
X128168Y163003D01*
X128149Y163020D01*
X128130Y163036D01*
X128114Y163051D01*
X128099Y163067D01*
X128085Y163079D01*
X128073Y163091D01*
X128062Y163101D01*
X128053Y163110D01*
X128045Y163118D01*
X128039Y163124D01*
X128035Y163129D01*
X128031Y163133D01*
X128029Y163134D01*
Y163135D01*
X128010Y163158D01*
X127993Y163181D01*
X127979Y163201D01*
X127968Y163219D01*
X127959Y163233D01*
X127954Y163245D01*
X127950Y163252D01*
X127949Y163255D01*
X127941Y163276D01*
X127935Y163297D01*
X127931Y163317D01*
X127927Y163333D01*
X127926Y163349D01*
X127925Y163360D01*
Y163368D01*
Y163370D01*
X127926Y163392D01*
X127928Y163412D01*
X127932Y163431D01*
X127937Y163449D01*
X127951Y163482D01*
X127958Y163497D01*
X127965Y163510D01*
X127974Y163523D01*
X127980Y163533D01*
X127988Y163542D01*
X127994Y163549D01*
X127999Y163556D01*
X128003Y163559D01*
X128006Y163562D01*
X128007Y163563D01*
X128024Y163577D01*
X128040Y163589D01*
X128058Y163600D01*
X128077Y163609D01*
X128096Y163617D01*
X128114Y163623D01*
X128149Y163632D01*
X128166Y163636D01*
X128181Y163638D01*
X128195Y163639D01*
X128208Y163641D01*
X128217Y163642D01*
X128231D01*
X128256Y163641D01*
D02*
G37*
G36*
X149572Y162662D02*
X149447D01*
Y163427D01*
X148935Y162662D01*
X148802D01*
Y163638D01*
X148927D01*
Y162871D01*
X149440Y163638D01*
X149572D01*
Y162662D01*
D02*
G37*
G36*
X145329D02*
X145204D01*
Y163427D01*
X144692Y162662D01*
X144559D01*
Y163638D01*
X144683D01*
Y162871D01*
X145197Y163638D01*
X145329D01*
Y162662D01*
D02*
G37*
G36*
X143958D02*
X143829D01*
Y163121D01*
X143323D01*
Y162662D01*
X143194D01*
Y163638D01*
X143323D01*
Y163237D01*
X143829D01*
Y163638D01*
X143958D01*
Y162662D01*
D02*
G37*
%LPC*%
G36*
X142645Y163537D02*
X142635Y163505D01*
X142625Y163471D01*
X142613Y163436D01*
X142602Y163405D01*
X142597Y163389D01*
X142592Y163375D01*
X142587Y163363D01*
X142583Y163352D01*
X142580Y163344D01*
X142578Y163337D01*
X142575Y163333D01*
Y163332D01*
X142474Y163063D01*
X142805D01*
X142698Y163349D01*
X142686Y163383D01*
X142676Y163417D01*
X142667Y163449D01*
X142659Y163477D01*
X142655Y163490D01*
X142653Y163501D01*
X142650Y163511D01*
X142649Y163520D01*
X142648Y163528D01*
X142646Y163533D01*
X142645Y163535D01*
Y163537D01*
D02*
G37*
G36*
X147016Y163523D02*
X146737D01*
X146712Y163521D01*
X146691Y163520D01*
X146675Y163519D01*
X146663Y163516D01*
X146655Y163515D01*
X146649Y163514D01*
X146648D01*
X146630Y163507D01*
X146614Y163499D01*
X146600Y163490D01*
X146588Y163479D01*
X146580Y163471D01*
X146572Y163463D01*
X146568Y163458D01*
X146567Y163455D01*
X146557Y163439D01*
X146549Y163421D01*
X146543Y163403D01*
X146539Y163387D01*
X146536Y163373D01*
X146535Y163361D01*
Y163354D01*
Y163352D01*
Y163351D01*
X146538Y163321D01*
X146544Y163295D01*
X146552Y163272D01*
X146562Y163253D01*
X146572Y163238D01*
X146580Y163228D01*
X146586Y163222D01*
X146588Y163219D01*
X146599Y163212D01*
X146611Y163204D01*
X146638Y163192D01*
X146667Y163185D01*
X146696Y163180D01*
X146723Y163176D01*
X146735Y163175D01*
X146745D01*
X146754Y163173D01*
X147016D01*
Y163523D01*
D02*
G37*
G36*
X138477Y163537D02*
X138467Y163505D01*
X138457Y163471D01*
X138445Y163436D01*
X138434Y163405D01*
X138429Y163389D01*
X138424Y163375D01*
X138419Y163363D01*
X138415Y163352D01*
X138412Y163344D01*
X138410Y163337D01*
X138407Y163333D01*
Y163332D01*
X138306Y163063D01*
X138637D01*
X138530Y163349D01*
X138518Y163383D01*
X138507Y163417D01*
X138499Y163449D01*
X138491Y163477D01*
X138487Y163490D01*
X138485Y163501D01*
X138482Y163511D01*
X138481Y163520D01*
X138480Y163528D01*
X138478Y163533D01*
X138477Y163535D01*
Y163537D01*
D02*
G37*
G36*
X140953Y163523D02*
X140727D01*
X140708Y163521D01*
X140691D01*
X140674Y163520D01*
X140659Y163518D01*
X140645Y163516D01*
X140632Y163515D01*
X140622Y163512D01*
X140612Y163511D01*
X140604Y163509D01*
X140597Y163507D01*
X140592Y163506D01*
X140586Y163505D01*
X140584Y163504D01*
X140581Y163502D01*
X140569Y163496D01*
X140556Y163490D01*
X140532Y163473D01*
X140512Y163455D01*
X140494Y163436D01*
X140480Y163420D01*
X140468Y163406D01*
X140465Y163399D01*
X140462Y163396D01*
X140459Y163393D01*
Y163392D01*
X140451Y163375D01*
X140443Y163358D01*
X140430Y163321D01*
X140421Y163281D01*
X140415Y163243D01*
X140412Y163225D01*
X140411Y163209D01*
X140410Y163195D01*
Y163182D01*
X140409Y163172D01*
Y163163D01*
Y163158D01*
Y163157D01*
X140410Y163118D01*
X140412Y163081D01*
X140418Y163049D01*
X140420Y163035D01*
X140421Y163021D01*
X140424Y163010D01*
X140426Y162999D01*
X140429Y162991D01*
X140432Y162983D01*
X140433Y162977D01*
X140434Y162973D01*
X140435Y162970D01*
Y162969D01*
X140445Y162941D01*
X140457Y162917D01*
X140468Y162895D01*
X140480Y162878D01*
X140491Y162864D01*
X140499Y162853D01*
X140504Y162847D01*
X140506Y162844D01*
X140519Y162833D01*
X140534Y162823D01*
X140548Y162815D01*
X140562Y162808D01*
X140575Y162803D01*
X140585Y162799D01*
X140592Y162796D01*
X140593Y162795D01*
X140594D01*
X140616Y162789D01*
X140641Y162785D01*
X140666Y162781D01*
X140691Y162780D01*
X140712Y162778D01*
X140721Y162777D01*
X140953D01*
Y163523D01*
D02*
G37*
G36*
X141938Y163530D02*
X141610D01*
X141591Y163528D01*
X141575Y163526D01*
X141559Y163523D01*
X141544Y163520D01*
X141531Y163516D01*
X141520Y163511D01*
X141510Y163507D01*
X141492Y163499D01*
X141481Y163492D01*
X141473Y163487D01*
X141470Y163485D01*
X141454Y163467D01*
X141441Y163448D01*
X141432Y163429D01*
X141426Y163411D01*
X141422Y163394D01*
X141421Y163382D01*
X141420Y163377D01*
Y163373D01*
Y163372D01*
Y163370D01*
X141421Y163352D01*
X141423Y163337D01*
X141428Y163322D01*
X141432Y163309D01*
X141437Y163298D01*
X141442Y163290D01*
X141445Y163284D01*
X141446Y163283D01*
X141456Y163269D01*
X141469Y163256D01*
X141482Y163246D01*
X141493Y163238D01*
X141505Y163232D01*
X141514Y163228D01*
X141520Y163225D01*
X141522Y163224D01*
X141543Y163218D01*
X141564Y163214D01*
X141588Y163210D01*
X141610Y163209D01*
X141630Y163208D01*
X141639Y163206D01*
X141938D01*
Y163530D01*
D02*
G37*
G36*
X150425D02*
X150097D01*
X150078Y163528D01*
X150062Y163526D01*
X150047Y163523D01*
X150031Y163520D01*
X150019Y163516D01*
X150007Y163511D01*
X149997Y163507D01*
X149979Y163499D01*
X149968Y163492D01*
X149960Y163487D01*
X149958Y163485D01*
X149941Y163467D01*
X149929Y163448D01*
X149920Y163429D01*
X149913Y163411D01*
X149910Y163394D01*
X149908Y163382D01*
X149907Y163377D01*
Y163373D01*
Y163372D01*
Y163370D01*
X149908Y163352D01*
X149911Y163337D01*
X149916Y163322D01*
X149920Y163309D01*
X149925Y163298D01*
X149930Y163290D01*
X149932Y163284D01*
X149934Y163283D01*
X149944Y163269D01*
X149957Y163256D01*
X149969Y163246D01*
X149981Y163238D01*
X149992Y163232D01*
X150001Y163228D01*
X150007Y163225D01*
X150010Y163224D01*
X150030Y163218D01*
X150052Y163214D01*
X150076Y163210D01*
X150097Y163209D01*
X150118Y163208D01*
X150127Y163206D01*
X150425D01*
Y163530D01*
D02*
G37*
G36*
X147791Y163543D02*
X147778D01*
X147743Y163540D01*
X147710Y163535D01*
X147681Y163528D01*
X147655Y163519D01*
X147644Y163514D01*
X147634Y163509D01*
X147625Y163505D01*
X147618Y163501D01*
X147612Y163499D01*
X147608Y163496D01*
X147606Y163493D01*
X147604D01*
X147577Y163473D01*
X147554Y163452D01*
X147533Y163429D01*
X147517Y163407D01*
X147503Y163387D01*
X147498Y163378D01*
X147494Y163372D01*
X147490Y163365D01*
X147488Y163360D01*
X147486Y163358D01*
Y163356D01*
X147472Y163322D01*
X147462Y163286D01*
X147456Y163251D01*
X147451Y163219D01*
X147450Y163204D01*
X147448Y163190D01*
X147447Y163178D01*
X147446Y163168D01*
Y163159D01*
Y163153D01*
Y163149D01*
Y163148D01*
X147447Y163114D01*
X147450Y163082D01*
X147455Y163051D01*
X147461Y163024D01*
X147467Y162997D01*
X147476Y162974D01*
X147484Y162951D01*
X147493Y162932D01*
X147502Y162914D01*
X147510Y162899D01*
X147519Y162886D01*
X147526Y162876D01*
X147532Y162867D01*
X147537Y162862D01*
X147540Y162858D01*
X147541Y162857D01*
X147559Y162839D01*
X147578Y162824D01*
X147598Y162810D01*
X147618Y162799D01*
X147639Y162789D01*
X147658Y162781D01*
X147678Y162773D01*
X147696Y162768D01*
X147714Y162764D01*
X147730Y162761D01*
X147744Y162758D01*
X147757Y162757D01*
X147767D01*
X147775Y162756D01*
X147781D01*
X147808Y162757D01*
X147832Y162759D01*
X147856Y162764D01*
X147878Y162771D01*
X147899Y162778D01*
X147918Y162787D01*
X147937Y162796D01*
X147952Y162806D01*
X147968Y162815D01*
X147980Y162824D01*
X147992Y162833D01*
X148001Y162841D01*
X148008Y162847D01*
X148015Y162852D01*
X148017Y162855D01*
X148018Y162856D01*
X148035Y162876D01*
X148049Y162897D01*
X148062Y162919D01*
X148073Y162942D01*
X148082Y162965D01*
X148090Y162988D01*
X148096Y163011D01*
X148101Y163034D01*
X148105Y163054D01*
X148107Y163073D01*
X148110Y163090D01*
X148111Y163105D01*
Y163118D01*
X148112Y163126D01*
Y163132D01*
Y163134D01*
X148111Y163173D01*
X148109Y163210D01*
X148104Y163245D01*
X148097Y163276D01*
X148090Y163304D01*
X148082Y163330D01*
X148073Y163352D01*
X148063Y163373D01*
X148054Y163391D01*
X148045Y163406D01*
X148038Y163420D01*
X148030Y163430D01*
X148024Y163438D01*
X148018Y163444D01*
X148016Y163446D01*
X148015Y163448D01*
X147996Y163464D01*
X147977Y163479D01*
X147956Y163492D01*
X147936Y163502D01*
X147916Y163512D01*
X147897Y163520D01*
X147878Y163526D01*
X147860Y163532D01*
X147842Y163535D01*
X147827Y163538D01*
X147813Y163540D01*
X147801Y163542D01*
X147791Y163543D01*
D02*
G37*
G36*
X125646Y163523D02*
X125367D01*
X125341Y163521D01*
X125321Y163520D01*
X125305Y163519D01*
X125293Y163516D01*
X125284Y163515D01*
X125279Y163514D01*
X125278D01*
X125260Y163507D01*
X125244Y163499D01*
X125230Y163490D01*
X125218Y163479D01*
X125209Y163471D01*
X125202Y163463D01*
X125198Y163458D01*
X125197Y163455D01*
X125186Y163439D01*
X125179Y163421D01*
X125172Y163403D01*
X125169Y163387D01*
X125166Y163373D01*
X125165Y163361D01*
Y163354D01*
Y163352D01*
Y163351D01*
X125167Y163321D01*
X125174Y163295D01*
X125181Y163272D01*
X125192Y163253D01*
X125202Y163238D01*
X125209Y163228D01*
X125216Y163222D01*
X125218Y163219D01*
X125228Y163212D01*
X125241Y163204D01*
X125268Y163192D01*
X125297Y163185D01*
X125326Y163180D01*
X125353Y163176D01*
X125364Y163175D01*
X125374D01*
X125383Y163173D01*
X125646D01*
Y163523D01*
D02*
G37*
G36*
X127107Y163543D02*
X127099D01*
X127084Y163542D01*
X127069Y163539D01*
X127055Y163535D01*
X127042Y163530D01*
X127018Y163518D01*
X126997Y163504D01*
X126981Y163488D01*
X126970Y163476D01*
X126964Y163471D01*
X126962Y163467D01*
X126959Y163464D01*
Y163463D01*
X126949Y163446D01*
X126940Y163426D01*
X126933Y163405D01*
X126926Y163380D01*
X126921Y163354D01*
X126916Y163327D01*
X126910Y163274D01*
X126907Y163248D01*
X126905Y163223D01*
X126903Y163201D01*
Y163182D01*
X126902Y163166D01*
Y163153D01*
Y163145D01*
Y163144D01*
Y163143D01*
Y163100D01*
X126905Y163060D01*
X126907Y163025D01*
X126911Y162992D01*
X126915Y162963D01*
X126920Y162936D01*
X126925Y162913D01*
X126930Y162893D01*
X126937Y162875D01*
X126942Y162861D01*
X126947Y162848D01*
X126950Y162839D01*
X126954Y162832D01*
X126957Y162827D01*
X126958Y162824D01*
X126959Y162823D01*
X126970Y162809D01*
X126981Y162797D01*
X126992Y162786D01*
X127005Y162777D01*
X127017Y162770D01*
X127028Y162763D01*
X127050Y162754D01*
X127069Y162748D01*
X127077Y162747D01*
X127084Y162745D01*
X127090Y162744D01*
X127098D01*
X127113Y162745D01*
X127127Y162748D01*
X127141Y162752D01*
X127154Y162757D01*
X127178Y162770D01*
X127198Y162784D01*
X127215Y162797D01*
X127226Y162810D01*
X127230Y162815D01*
X127234Y162819D01*
X127235Y162822D01*
X127236Y162823D01*
X127246Y162839D01*
X127254Y162860D01*
X127262Y162881D01*
X127268Y162907D01*
X127274Y162932D01*
X127278Y162959D01*
X127284Y163012D01*
X127287Y163039D01*
X127290Y163063D01*
X127291Y163085D01*
Y163104D01*
X127292Y163120D01*
Y163133D01*
Y163140D01*
Y163142D01*
Y163143D01*
X127291Y163186D01*
X127290Y163225D01*
X127287Y163262D01*
X127282Y163295D01*
X127278Y163326D01*
X127273Y163352D01*
X127267Y163377D01*
X127262Y163397D01*
X127255Y163416D01*
X127250Y163431D01*
X127245Y163444D01*
X127240Y163454D01*
X127236Y163462D01*
X127234Y163468D01*
X127232Y163471D01*
X127231Y163472D01*
X127221Y163485D01*
X127211Y163496D01*
X127201Y163505D01*
X127189Y163512D01*
X127168Y163525D01*
X127146Y163534D01*
X127128Y163539D01*
X127113Y163542D01*
X127107Y163543D01*
D02*
G37*
G36*
X137770Y163530D02*
X137442D01*
X137423Y163528D01*
X137406Y163526D01*
X137391Y163523D01*
X137376Y163520D01*
X137363Y163516D01*
X137352Y163511D01*
X137342Y163507D01*
X137324Y163499D01*
X137312Y163492D01*
X137305Y163487D01*
X137302Y163485D01*
X137286Y163467D01*
X137273Y163448D01*
X137264Y163429D01*
X137258Y163411D01*
X137254Y163394D01*
X137253Y163382D01*
X137251Y163377D01*
Y163373D01*
Y163372D01*
Y163370D01*
X137253Y163352D01*
X137255Y163337D01*
X137260Y163322D01*
X137264Y163309D01*
X137269Y163298D01*
X137274Y163290D01*
X137277Y163284D01*
X137278Y163283D01*
X137288Y163269D01*
X137301Y163256D01*
X137314Y163246D01*
X137325Y163238D01*
X137337Y163232D01*
X137345Y163228D01*
X137352Y163225D01*
X137354Y163224D01*
X137375Y163218D01*
X137396Y163214D01*
X137420Y163210D01*
X137442Y163209D01*
X137462Y163208D01*
X137471Y163206D01*
X137770D01*
Y163530D01*
D02*
G37*
G36*
X159295Y103518D02*
X159285D01*
X159265Y103517D01*
X159245Y103513D01*
X159227Y103508D01*
X159210Y103502D01*
X159179Y103485D01*
X159152Y103467D01*
X159130Y103447D01*
X159115Y103430D01*
X159109Y103423D01*
X159105Y103418D01*
X159102Y103415D01*
Y103413D01*
X159089Y103392D01*
X159077Y103365D01*
X159067Y103337D01*
X159059Y103305D01*
X159052Y103270D01*
X159045Y103235D01*
X159037Y103165D01*
X159034Y103132D01*
X159030Y103098D01*
X159029Y103070D01*
Y103045D01*
X159027Y103023D01*
Y103007D01*
Y102997D01*
Y102995D01*
Y102993D01*
Y102937D01*
X159030Y102885D01*
X159034Y102839D01*
X159039Y102795D01*
X159044Y102757D01*
X159050Y102722D01*
X159057Y102692D01*
X159064Y102665D01*
X159072Y102642D01*
X159079Y102624D01*
X159085Y102607D01*
X159090Y102595D01*
X159095Y102585D01*
X159099Y102579D01*
X159100Y102575D01*
X159102Y102574D01*
X159115Y102555D01*
X159130Y102540D01*
X159145Y102525D01*
X159162Y102514D01*
X159177Y102504D01*
X159192Y102495D01*
X159220Y102484D01*
X159245Y102475D01*
X159257Y102474D01*
X159265Y102472D01*
X159273Y102470D01*
X159283D01*
X159303Y102472D01*
X159322Y102475D01*
X159340Y102480D01*
X159357Y102487D01*
X159388Y102504D01*
X159415Y102522D01*
X159437Y102540D01*
X159452Y102557D01*
X159457Y102564D01*
X159462Y102569D01*
X159463Y102572D01*
X159465Y102574D01*
X159478Y102595D01*
X159488Y102622D01*
X159498Y102650D01*
X159507Y102684D01*
X159515Y102717D01*
X159520Y102752D01*
X159528Y102822D01*
X159532Y102857D01*
X159535Y102889D01*
X159537Y102917D01*
Y102942D01*
X159538Y102964D01*
Y102980D01*
Y102990D01*
Y102992D01*
Y102993D01*
X159537Y103050D01*
X159535Y103102D01*
X159532Y103150D01*
X159525Y103193D01*
X159520Y103233D01*
X159513Y103268D01*
X159505Y103300D01*
X159498Y103327D01*
X159490Y103352D01*
X159483Y103372D01*
X159477Y103388D01*
X159470Y103402D01*
X159465Y103412D01*
X159462Y103420D01*
X159460Y103423D01*
X159458Y103425D01*
X159445Y103442D01*
X159432Y103457D01*
X159418Y103468D01*
X159403Y103478D01*
X159375Y103495D01*
X159347Y103507D01*
X159323Y103513D01*
X159303Y103517D01*
X159295Y103518D01*
D02*
G37*
G36*
X153398Y103502D02*
X152968D01*
X152943Y103498D01*
X152922Y103497D01*
X152902Y103492D01*
X152882Y103488D01*
X152865Y103483D01*
X152850Y103477D01*
X152837Y103472D01*
X152813Y103460D01*
X152798Y103452D01*
X152788Y103445D01*
X152785Y103442D01*
X152763Y103418D01*
X152747Y103393D01*
X152735Y103368D01*
X152727Y103345D01*
X152722Y103323D01*
X152720Y103307D01*
X152719Y103300D01*
Y103295D01*
Y103293D01*
Y103292D01*
X152720Y103268D01*
X152723Y103248D01*
X152730Y103228D01*
X152735Y103212D01*
X152742Y103197D01*
X152748Y103187D01*
X152752Y103178D01*
X152753Y103177D01*
X152767Y103158D01*
X152783Y103142D01*
X152800Y103128D01*
X152815Y103118D01*
X152830Y103110D01*
X152842Y103105D01*
X152850Y103102D01*
X152853Y103100D01*
X152880Y103092D01*
X152908Y103087D01*
X152940Y103082D01*
X152968Y103080D01*
X152995Y103078D01*
X153007Y103077D01*
X153398D01*
Y103502D01*
D02*
G37*
%LPD*%
D85*
X170015Y135788D02*
G03*
X170015Y135788I-102J0D01*
G01*
X179959Y115849D02*
G03*
X179959Y115849I-102J0D01*
G01*
X174320Y134226D02*
G03*
X174320Y134226I-102J0D01*
G01*
X175260Y134214D02*
G03*
X175260Y134214I-102J0D01*
G01*
X176543Y135674D02*
G03*
X176543Y135674I-102J0D01*
G01*
X177482D02*
G03*
X177482Y135674I-102J0D01*
G01*
X169532Y137681D02*
G03*
X169532Y137681I-102J0D01*
G01*
X171374D02*
G03*
X171374Y137681I-102J0D01*
G01*
X170421D02*
G03*
X170421Y137681I-102J0D01*
G01*
X173165D02*
G03*
X173165Y137681I-102J0D01*
G01*
X174066Y137643D02*
G03*
X174066Y137643I-102J0D01*
G01*
X174955D02*
G03*
X174955Y137643I-102J0D01*
G01*
X177762Y104623D02*
G03*
X177762Y104623I-102J0D01*
G01*
X102172Y116345D02*
G03*
X102172Y116345I-102J0D01*
G01*
X102184Y113284D02*
G03*
X102184Y113284I-102J0D01*
G01*
X155931Y149593D02*
G03*
X155931Y149593I-102J0D01*
G01*
X168250Y125679D02*
G03*
X168250Y125679I-102J0D01*
G01*
X172580Y122377D02*
G03*
X172580Y122377I-102J0D01*
G01*
X172974Y119596D02*
G03*
X172974Y119596I-102J0D01*
G01*
X110185Y139852D02*
G03*
X110185Y139852I-127J0D01*
G01*
X159322Y151676D02*
G03*
X159322Y151676I-102J0D01*
G01*
X183847Y153228D02*
G03*
X183847Y153228I-102J0D01*
G01*
X165100Y130086D02*
G03*
X165100Y130086I-102J0D01*
G01*
X179527Y129273D02*
G03*
X179527Y129273I-102J0D01*
G01*
X177508Y120967D02*
G03*
X177508Y120967I-102J0D01*
G01*
X166256Y119736D02*
G03*
X166256Y119736I-102J0D01*
G01*
X183020Y162446D02*
G03*
X183020Y162446I-102J0D01*
G01*
X171094Y119355D02*
G03*
X171094Y119355I-102J0D01*
G01*
X172264Y154203D02*
G03*
X172264Y154203I-102J0D01*
G01*
X167399Y121666D02*
G03*
X167399Y121666I-102J0D01*
G01*
X174346Y116776D02*
G03*
X174346Y116776I-102J0D01*
G01*
X172301Y137643D02*
G03*
X172301Y137643I-102J0D01*
G01*
X167958Y124777D02*
G03*
X167958Y124777I-102J0D01*
G01*
X185472Y153736D02*
G03*
X185472Y153736I-102J0D01*
G01*
X183796Y154320D02*
G03*
X183796Y154320I-102J0D01*
G01*
X169227Y121666D02*
G03*
X169227Y121666I-102J0D01*
G01*
X171463Y126378D02*
G03*
X171463Y126378I-102J0D01*
G01*
X159310Y150688D02*
G03*
X159310Y150688I-102J0D01*
G01*
X165837Y125222D02*
G03*
X165837Y125222I-102J0D01*
G01*
X171120Y121209D02*
G03*
X171120Y121209I-102J0D01*
G01*
X170663Y133947D02*
G03*
X170663Y133947I-102J0D01*
G01*
X169151Y133248D02*
G03*
X169151Y133248I-102J0D01*
G01*
X170040Y125666D02*
G03*
X170040Y125666I-102J0D01*
G01*
X173444Y109093D02*
G03*
X173444Y109093I-102J0D01*
G01*
X167170Y119685D02*
G03*
X167170Y119685I-102J0D01*
G01*
X177178Y131305D02*
G03*
X177178Y131305I-102J0D01*
G01*
X170015Y124803D02*
G03*
X170015Y124803I-102J0D01*
G01*
X172339Y127660D02*
G03*
X172339Y127660I-102J0D01*
G01*
X184036Y139230D02*
G03*
X184036Y139230I-102J0D01*
G01*
X183388Y144120D02*
G03*
X183388Y144120I-102J0D01*
G01*
X175552Y122923D02*
G03*
X175552Y122923I-102J0D01*
G01*
X173901Y122936D02*
G03*
X173901Y122936I-102J0D01*
G01*
X172061Y161305D02*
G03*
X172061Y161305I-102J0D01*
G01*
X172264Y155438D02*
G03*
X172264Y155438I-102J0D01*
G01*
X166230Y117983D02*
G03*
X166230Y117983I-102J0D01*
G01*
X166599Y111773D02*
G03*
X166599Y111773I-102J0D01*
G01*
X174587Y103657D02*
G03*
X174587Y103657I-102J0D01*
G01*
X164960Y103746D02*
G03*
X164960Y103746I-102J0D01*
G01*
X173165Y111785D02*
G03*
X173165Y111785I-102J0D01*
G01*
X166573Y103683D02*
G03*
X166573Y103683I-102J0D01*
G01*
X176212Y103632D02*
G03*
X176212Y103632I-102J0D01*
G01*
X171768Y110350D02*
G03*
X171768Y110350I-102J0D01*
G01*
X171183Y132525D02*
G03*
X171183Y132525I-102J0D01*
G01*
X172631Y133960D02*
G03*
X172631Y133960I-102J0D01*
G01*
X119571Y145250D02*
G03*
X119571Y145250I-316J0D01*
G01*
X178475Y113691D02*
Y114961D01*
X178773D01*
Y113691D02*
Y114961D01*
X178475Y113691D02*
X178773D01*
X176418Y116460D02*
Y117730D01*
X176716D01*
Y116460D02*
Y117730D01*
X176418Y116460D02*
X176716D01*
X123253Y143627D02*
X124523D01*
X123253D02*
Y143925D01*
X124523D01*
Y143627D02*
Y143925D01*
X179961Y106566D02*
Y107836D01*
X180259D01*
Y106566D02*
Y107836D01*
X179961Y106566D02*
X180259D01*
X160326Y137386D02*
X161596D01*
Y137088D02*
Y137386D01*
X160326Y137088D02*
X161596D01*
X160326D02*
Y137386D01*
X121665Y143614D02*
Y143912D01*
X120395D02*
X121665D01*
X120395Y143614D02*
Y143912D01*
Y143614D02*
X121665D01*
X176401Y124637D02*
Y125907D01*
X176103Y124637D02*
X176401D01*
X176103D02*
Y125907D01*
X176401D01*
X126635Y120524D02*
X127102D01*
Y120174D01*
X126868D01*
X127102D01*
Y119825D01*
X126402Y120524D02*
Y119825D01*
X126052D01*
X125935Y119941D01*
Y120058D01*
X126052Y120174D01*
X126402D01*
X126052D01*
X125935Y120291D01*
Y120408D01*
X126052Y120524D01*
X126402D01*
X125352Y119825D02*
Y120524D01*
X125702Y120174D01*
X125236D01*
X125002Y120408D02*
X124886Y120524D01*
X124652D01*
X124536Y120408D01*
Y119941D01*
X124652Y119825D01*
X124886D01*
X125002Y119941D01*
Y120408D01*
X128692Y131053D02*
X129159D01*
Y130703D01*
X128926D01*
X129159D01*
Y130353D01*
X128459Y131053D02*
Y130353D01*
X128109D01*
X127993Y130469D01*
Y130586D01*
X128109Y130703D01*
X128459D01*
X128109D01*
X127993Y130819D01*
Y130936D01*
X128109Y131053D01*
X128459D01*
X127410Y130353D02*
Y131053D01*
X127759Y130703D01*
X127293D01*
X127060Y130353D02*
X126826D01*
X126943D01*
Y131053D01*
X127060Y130936D01*
X134061Y122212D02*
Y122912D01*
X133711D01*
X133595Y122795D01*
Y122562D01*
X133711Y122445D01*
X134061D01*
X133828D02*
X133595Y122212D01*
X133012D02*
Y122912D01*
X133361Y122562D01*
X132895D01*
X132195Y122212D02*
X132662D01*
X132195Y122679D01*
Y122795D01*
X132312Y122912D01*
X132545D01*
X132662Y122795D01*
X131962Y122212D02*
X131729D01*
X131845D01*
Y122912D01*
X131962Y122795D01*
X159639Y152895D02*
X159406D01*
X159522D01*
Y153595D01*
X159639Y153478D01*
X159056Y153595D02*
Y153129D01*
X158823Y152895D01*
X158589Y153129D01*
Y153595D01*
X157890Y152895D02*
X158356D01*
X157890Y153362D01*
Y153478D01*
X158006Y153595D01*
X158239D01*
X158356Y153478D01*
X148666Y144095D02*
Y143629D01*
X148433Y143396D01*
X148200Y143629D01*
Y144095D01*
X147966Y143279D02*
X147500D01*
X147267Y143396D02*
Y144095D01*
X147033Y143862D01*
X146800Y144095D01*
Y143396D01*
X146567D02*
Y144095D01*
X146217D01*
X146100Y143979D01*
Y143746D01*
X146217Y143629D01*
X146567D01*
X145867Y144095D02*
Y143512D01*
X145750Y143396D01*
X145517D01*
X145401Y143512D01*
Y144095D01*
X124295Y137465D02*
X124062D01*
X124178D01*
Y138165D01*
X124295Y138048D01*
X123712Y138165D02*
Y137698D01*
X123479Y137465D01*
X123245Y137698D01*
Y138165D01*
X122545Y137465D02*
X123012D01*
X122545Y137931D01*
Y138048D01*
X122662Y138165D01*
X122895D01*
X123012Y138048D01*
X123165Y142442D02*
X123048Y142559D01*
X122815D01*
X122698Y142442D01*
Y142326D01*
X122815Y142209D01*
X122931D01*
X122815D01*
X122698Y142092D01*
Y141976D01*
X122815Y141859D01*
X123048D01*
X123165Y141976D01*
X122465Y142559D02*
Y142092D01*
X122232Y141859D01*
X121998Y142092D01*
Y142559D01*
X121765Y142442D02*
X121648Y142559D01*
X121415D01*
X121299Y142442D01*
Y142326D01*
X121415Y142209D01*
X121532D01*
X121415D01*
X121299Y142092D01*
Y141976D01*
X121415Y141859D01*
X121648D01*
X121765Y141976D01*
X122012Y148261D02*
X122479D01*
Y147911D01*
X122246Y148028D01*
X122129D01*
X122012Y147911D01*
Y147678D01*
X122129Y147561D01*
X122362D01*
X122479Y147678D01*
X121779Y148261D02*
Y147795D01*
X121546Y147561D01*
X121313Y147795D01*
Y148261D01*
X162903Y142761D02*
X162670D01*
X162786D01*
Y143460D01*
X162903Y143344D01*
X162320Y143460D02*
Y142994D01*
X162087Y142761D01*
X161853Y142994D01*
Y143460D01*
X161153Y142761D02*
X161620D01*
X161153Y143227D01*
Y143344D01*
X161270Y143460D01*
X161503D01*
X161620Y143344D01*
X187731Y155383D02*
X187615Y155500D01*
X187382D01*
X187265Y155383D01*
Y155267D01*
X187382Y155150D01*
X187498D01*
X187382D01*
X187265Y155034D01*
Y154917D01*
X187382Y154800D01*
X187615D01*
X187731Y154917D01*
X187032Y155500D02*
Y155034D01*
X186798Y154800D01*
X186565Y155034D01*
Y155500D01*
X186332Y155383D02*
X186215Y155500D01*
X185982D01*
X185865Y155383D01*
Y155267D01*
X185982Y155150D01*
X186099D01*
X185982D01*
X185865Y155034D01*
Y154917D01*
X185982Y154800D01*
X186215D01*
X186332Y154917D01*
D86*
X164085Y157419D02*
G03*
X164085Y157419I-127J0D01*
G01*
X161163Y153416D02*
G03*
X161163Y153416I-254J0D01*
G01*
D90*
X114927Y108875D02*
X116127D01*
X112827Y107075D02*
Y108875D01*
X116127Y107075D02*
Y108875D01*
X112827D02*
X114027D01*
X112827Y107075D02*
X114027D01*
X114927D02*
X116127D01*
X112879Y105247D02*
X114079D01*
X116179D02*
Y107047D01*
X112879Y105247D02*
Y107047D01*
X114979Y105247D02*
X116179D01*
X114979Y107047D02*
X116179D01*
X112879D02*
X114079D01*
X107799Y102275D02*
X108999D01*
X111099D02*
Y104075D01*
X107799Y102275D02*
Y104075D01*
X109899Y102275D02*
X111099D01*
X109899Y104075D02*
X111099D01*
X107799D02*
X108999D01*
X173293Y161330D02*
X174493D01*
X176593D02*
Y163130D01*
X173293Y161330D02*
Y163130D01*
X175393Y161330D02*
X176593D01*
X175393Y163130D02*
X176593D01*
X173293D02*
X174493D01*
X180621Y153484D02*
Y154684D01*
Y151384D02*
X182421D01*
X180621Y154684D02*
X182421D01*
X180621Y151384D02*
Y152584D01*
X182421Y151384D02*
Y152584D01*
Y153484D02*
Y154684D01*
X183793Y158942D02*
Y160142D01*
X181993Y162242D02*
X183793D01*
X181993Y158942D02*
X183793D01*
Y161042D02*
Y162242D01*
X181993Y161042D02*
Y162242D01*
Y158942D02*
Y160142D01*
X111155Y146264D02*
X112355D01*
X109055Y144464D02*
Y146264D01*
X112355Y144464D02*
Y146264D01*
X109055D02*
X110255D01*
X109055Y144464D02*
X110255D01*
X111155D02*
X112355D01*
X116931Y127992D02*
X118131D01*
X120231D02*
Y129792D01*
X116931Y127992D02*
Y129792D01*
X119031Y127992D02*
X120231D01*
X119031Y129792D02*
X120231D01*
X116931D02*
X118131D01*
X121664Y127472D02*
Y128672D01*
X119864Y130772D02*
X121664D01*
X119864Y127472D02*
X121664D01*
Y129572D02*
Y130772D01*
X119864Y129572D02*
Y130772D01*
Y127472D02*
Y128672D01*
X123370Y129558D02*
Y130758D01*
Y127457D02*
X125170D01*
X123370Y130758D02*
X125170D01*
X123370Y127457D02*
Y128658D01*
X125170Y127457D02*
Y128658D01*
Y129558D02*
Y130758D01*
X124081Y135219D02*
X125281D01*
X127381D02*
Y137019D01*
X124081Y135219D02*
Y137019D01*
X126181Y135219D02*
X127381D01*
X126181Y137019D02*
X127381D01*
X124081D02*
X125281D01*
X119353Y132999D02*
Y134199D01*
Y130899D02*
Y132099D01*
X117553Y130899D02*
Y132099D01*
Y134199D02*
X119353D01*
X117553Y130899D02*
X119353D01*
X117553Y132999D02*
Y134199D01*
X123277Y129596D02*
Y130796D01*
Y127496D02*
Y128696D01*
X121477Y127496D02*
Y128696D01*
Y130796D02*
X123277D01*
X121477Y127496D02*
X123277D01*
X121477Y129596D02*
Y130796D01*
X165607Y114643D02*
X167057D01*
Y112993D02*
Y114643D01*
X165607Y116843D02*
X168906D01*
Y112993D02*
Y116843D01*
X165607Y112993D02*
Y116843D01*
Y112993D02*
X168906D01*
X165441Y115994D02*
Y117194D01*
Y113894D02*
Y115094D01*
X163641Y113894D02*
Y115094D01*
Y117194D02*
X165441D01*
X163641Y113894D02*
X165441D01*
X163641Y115994D02*
Y117194D01*
X167975Y106593D02*
X169175D01*
X165875D02*
X167075D01*
X165875Y108393D02*
X167075D01*
X169175Y106593D02*
Y108393D01*
X165875Y106593D02*
Y108393D01*
X167975D02*
X169175D01*
X118705Y122585D02*
Y123785D01*
Y120485D02*
Y121685D01*
X116905Y120485D02*
Y121685D01*
Y123785D02*
X118705D01*
X116905Y120485D02*
X118705D01*
X116905Y122585D02*
Y123785D01*
X163946Y141391D02*
Y142591D01*
Y143491D02*
Y144691D01*
X165746Y143491D02*
Y144691D01*
X163946Y141391D02*
X165746D01*
X163946Y144691D02*
X165746D01*
Y141391D02*
Y142591D01*
X119639Y105450D02*
X120839D01*
X117539D02*
X118739D01*
X117539Y107250D02*
X118739D01*
X120839Y105450D02*
Y107250D01*
X117539Y105450D02*
Y107250D01*
X119639D02*
X120839D01*
X161165Y131066D02*
Y132266D01*
Y133166D02*
Y134366D01*
X162965Y133166D02*
Y134366D01*
X161165Y131066D02*
X162965D01*
X161165Y134366D02*
X162965D01*
Y131066D02*
Y132266D01*
X162524Y108726D02*
Y109926D01*
Y110826D02*
Y112026D01*
X164324Y110826D02*
Y112026D01*
X162524Y108726D02*
X164324D01*
X162524Y112026D02*
X164324D01*
Y108726D02*
Y109926D01*
X165333Y146433D02*
X166533D01*
X163233D02*
X164433D01*
X163233Y148233D02*
X164433D01*
X166533Y146433D02*
Y148233D01*
X163233Y146433D02*
Y148233D01*
X165333D02*
X166533D01*
X169500Y159897D02*
X170700D01*
X167400D02*
X168600D01*
X167400Y161697D02*
X168600D01*
X170700Y159897D02*
Y161697D01*
X167400Y159897D02*
Y161697D01*
X169500D02*
X170700D01*
X163338Y153137D02*
X164538D01*
X165438D02*
X166638D01*
X165438Y151337D02*
X166638D01*
X163338D02*
Y153137D01*
X166638Y151337D02*
Y153137D01*
X163338Y151337D02*
X164538D01*
X155564Y118007D02*
X156764D01*
X157664D02*
X158864D01*
X157664Y116207D02*
X158864D01*
X155564D02*
Y118007D01*
X158864Y116207D02*
Y118007D01*
X155564Y116207D02*
X156764D01*
X169766Y144998D02*
X170966D01*
X167666D02*
X168866D01*
X167666Y146798D02*
X168866D01*
X170966Y144998D02*
Y146798D01*
X167666Y144998D02*
Y146798D01*
X169766D02*
X170966D01*
X180596Y148516D02*
Y149715D01*
Y150615D02*
Y151816D01*
X182396Y150615D02*
Y151816D01*
X180596Y148516D02*
X182396D01*
X180596Y151816D02*
X182396D01*
Y148516D02*
Y149715D01*
X117283Y150556D02*
X121883D01*
X117283Y157055D02*
Y159356D01*
X121883Y157055D02*
Y159356D01*
X119761Y149089D02*
Y150089D01*
X117283Y150556D02*
Y152855D01*
Y159356D02*
X121883D01*
Y150556D02*
Y152855D01*
X119231Y149631D02*
X120231D01*
X170271Y111266D02*
Y112466D01*
Y113366D02*
Y114566D01*
X172071Y113366D02*
Y114566D01*
X170271Y111266D02*
X172071D01*
X170271Y114566D02*
X172071D01*
Y111266D02*
Y112466D01*
X174881Y111165D02*
Y112365D01*
Y113265D02*
Y114465D01*
X176681Y113265D02*
Y114465D01*
X174881Y111165D02*
X176681D01*
X174881Y114465D02*
X176681D01*
Y111165D02*
Y112365D01*
X171994Y116375D02*
Y117575D01*
Y114275D02*
Y115475D01*
X170194Y114275D02*
Y115475D01*
Y117575D02*
X171994D01*
X170194Y114275D02*
X171994D01*
X170194Y116375D02*
Y117575D01*
X179087Y111495D02*
X180288D01*
X176988D02*
X178188D01*
X176988Y113295D02*
X178188D01*
X180288Y111495D02*
Y113295D01*
X176988Y111495D02*
Y113295D01*
X179087D02*
X180288D01*
X188673Y154735D02*
X189873D01*
X190773D02*
X191973D01*
X190773Y152935D02*
X191973D01*
X188673D02*
Y154735D01*
X191973Y152935D02*
Y154735D01*
X188673Y152935D02*
X189873D01*
X166843Y153137D02*
X168043D01*
X168943D02*
X170143D01*
X168943Y151337D02*
X170143D01*
X166843D02*
Y153137D01*
X170143Y151337D02*
Y153137D01*
X166843Y151337D02*
X168043D01*
X187089Y145582D02*
X188288D01*
X184988D02*
X186189D01*
X184988Y147382D02*
X186189D01*
X188288Y145582D02*
Y147382D01*
X184988Y145582D02*
Y147382D01*
X187089D02*
X188288D01*
X157621Y128107D02*
Y129307D01*
Y130207D02*
Y131407D01*
X159421Y130207D02*
Y131407D01*
X157621Y128107D02*
X159421D01*
X157621Y131407D02*
X159421D01*
Y128107D02*
Y129307D01*
X176557Y139410D02*
Y140610D01*
Y141510D02*
Y142710D01*
X178357Y141510D02*
Y142710D01*
X176557Y139410D02*
X178357D01*
X176557Y142710D02*
X178357D01*
Y139410D02*
Y140610D01*
X169232Y155513D02*
X170432D01*
X167132D02*
X168332D01*
X167132Y157313D02*
X168332D01*
X170432Y155513D02*
Y157313D01*
X167132Y155513D02*
Y157313D01*
X169232D02*
X170432D01*
X122274Y134307D02*
Y135507D01*
Y132207D02*
Y133407D01*
X120474Y132207D02*
Y133407D01*
Y135507D02*
X122274D01*
X120474Y132207D02*
X122274D01*
X120474Y134307D02*
Y135507D01*
X162920Y156770D02*
X164120D01*
X160820D02*
X162020D01*
X160820Y158570D02*
X162020D01*
X164120Y156770D02*
Y158570D01*
X160820Y156770D02*
Y158570D01*
X162920D02*
X164120D01*
X187908Y151160D02*
Y152360D01*
Y149060D02*
Y150260D01*
X186107Y149060D02*
Y150260D01*
Y152360D02*
X187908D01*
X186107Y149060D02*
X187908D01*
X186107Y151160D02*
Y152360D01*
X118743Y124309D02*
Y125509D01*
X116943Y127609D02*
X118743D01*
X116943Y124309D02*
X118743D01*
Y126409D02*
Y127609D01*
X116943Y126409D02*
Y127609D01*
Y124309D02*
Y125509D01*
X159996Y149080D02*
Y150680D01*
X163196Y149080D02*
Y151280D01*
X120807Y138390D02*
X122007D01*
X118707Y136590D02*
Y138390D01*
X122007Y136590D02*
Y138390D01*
X118707D02*
X119907D01*
X118707Y136590D02*
X119907D01*
X120807D02*
X122007D01*
X157659Y124616D02*
Y127916D01*
X161509D01*
X157659Y124616D02*
X161509D01*
Y127916D01*
X157659Y126466D02*
X159309D01*
Y127916D01*
X165167Y138810D02*
X168467D01*
Y134960D02*
Y138810D01*
X165167Y134960D02*
Y138810D01*
Y134960D02*
X168467D01*
X167017Y137160D02*
Y138810D01*
Y137160D02*
X168467D01*
X162584Y154104D02*
Y155303D01*
X160784Y157404D02*
X162584D01*
X160784Y154104D02*
X162584D01*
Y156204D02*
Y157404D01*
X160784Y156204D02*
Y157404D01*
Y154104D02*
Y155303D01*
X160873Y158574D02*
X162073D01*
X164173D02*
Y160374D01*
X160873Y158574D02*
Y160374D01*
X162973Y158574D02*
X164173D01*
X162973Y160374D02*
X164173D01*
X160873D02*
X162073D01*
X172150Y114965D02*
Y116165D01*
Y112865D02*
X173950D01*
X172150Y116165D02*
X173950D01*
X172150Y112865D02*
Y114065D01*
X173950Y112865D02*
Y114065D01*
Y114965D02*
Y116165D01*
X118493Y111609D02*
X119693D01*
X121793D02*
Y113409D01*
X118493Y111609D02*
Y113409D01*
X120593Y111609D02*
X121793D01*
X120593Y113409D02*
X121793D01*
X118493D02*
X119693D01*
X126351Y126814D02*
Y128014D01*
Y124714D02*
Y125914D01*
X124551Y124714D02*
Y125914D01*
Y128014D02*
X126351D01*
X124551Y124714D02*
X126351D01*
X124551Y126814D02*
Y128014D01*
X120940Y134320D02*
Y135520D01*
Y132220D02*
Y133420D01*
X119140Y132220D02*
Y133420D01*
Y135520D02*
X120940D01*
X119140Y132220D02*
X120940D01*
X119140Y134320D02*
Y135520D01*
X124008Y131497D02*
X125208D01*
X121908D02*
X123108D01*
X121908Y133297D02*
X123108D01*
X125208Y131497D02*
Y133297D01*
X121908Y131497D02*
Y133297D01*
X124008D02*
X125208D01*
X168937Y108380D02*
X170137D01*
X171037D02*
X172237D01*
X171037Y106580D02*
X172237D01*
X168937D02*
Y108380D01*
X172237Y106580D02*
Y108380D01*
X168937Y106580D02*
X170137D01*
X172404Y108380D02*
X173604D01*
X174504D02*
X175704D01*
X174504Y106580D02*
X175704D01*
X172404D02*
Y108380D01*
X175704Y106580D02*
Y108380D01*
X172404Y106580D02*
X173604D01*
X109911Y105891D02*
X111111D01*
X107811Y104091D02*
Y105891D01*
X111111Y104091D02*
Y105891D01*
X107811D02*
X109011D01*
X107811Y104091D02*
X109011D01*
X109911D02*
X111111D01*
X146608Y144814D02*
Y147413D01*
X141608Y144814D02*
Y147413D01*
X145208Y144814D02*
X146608D01*
X145208Y147413D02*
X146608D01*
X141608D02*
X143008D01*
X141608Y144814D02*
X143008D01*
X183962Y142642D02*
X184262D01*
X187861D02*
X188161D01*
Y145042D01*
X187861D02*
X188161D01*
X183962Y142642D02*
Y145042D01*
X184262D01*
X98652Y138027D02*
Y147927D01*
X99952D01*
X104559Y147930D02*
X105067D01*
X104559Y138024D02*
X105067D01*
X98652Y138027D02*
X99952D01*
X108252Y145227D02*
Y146027D01*
Y139927D02*
Y140727D01*
X191591Y107750D02*
Y110050D01*
X197991Y107750D02*
Y110050D01*
X191591Y143650D02*
Y145950D01*
X197991Y143650D02*
Y145950D01*
X191591D02*
X197991D01*
X191591Y107750D02*
X197991D01*
X181800Y107750D02*
X188200D01*
X181800Y137950D02*
X188200D01*
Y135650D02*
Y137950D01*
X181800Y135650D02*
Y137950D01*
X188200Y107750D02*
Y110050D01*
X181800Y107750D02*
Y110050D01*
X177122Y157488D02*
X177672D01*
X177122D02*
Y158038D01*
X180772Y157488D02*
X181322D01*
Y158038D01*
X177122Y161688D02*
X177672D01*
X177122Y161138D02*
Y161688D01*
X181047D02*
X181322Y161413D01*
X180772Y161688D02*
X181047D01*
X181322Y161138D02*
Y161413D01*
X171245Y159757D02*
X171345D01*
X171145Y159557D02*
Y159657D01*
X171245Y159757D01*
X171145Y156757D02*
X171345D01*
X171145D02*
Y156957D01*
X173945Y159757D02*
X174145D01*
Y159557D02*
Y159757D01*
X173945Y156757D02*
X174145D01*
Y156957D01*
X187494Y152159D02*
X187594D01*
Y150759D02*
Y152159D01*
Y149059D02*
Y150459D01*
X187494Y149059D02*
X187594D01*
X192694D02*
X192794D01*
X192694D02*
Y150459D01*
Y150759D02*
Y152159D01*
X192794D01*
X188062Y158287D02*
X188487D01*
Y158712D01*
Y161862D02*
Y162287D01*
X188062D02*
X188487D01*
X184487D02*
X184912D01*
X184487Y161862D02*
Y162287D01*
Y158287D02*
Y158712D01*
Y158287D02*
X184912D01*
X121863Y149951D02*
X125863D01*
X121863Y150551D02*
X125863D01*
X121863Y155351D02*
Y157951D01*
X125863Y155351D02*
Y157951D01*
X121863Y149951D02*
Y153151D01*
X125863Y149951D02*
Y153151D01*
X121863Y157951D02*
X125863D01*
X111937Y149751D02*
X116565D01*
X111151Y150537D02*
Y152251D01*
X117351Y150537D02*
Y152251D01*
X111551Y159351D02*
X116951D01*
X111151D02*
X117351D01*
Y156851D02*
Y159351D01*
X111151Y156851D02*
Y159351D01*
Y150537D02*
X111937Y149751D01*
X116565D02*
X117351Y150537D01*
X182653Y149563D02*
Y151163D01*
X185853Y149563D02*
Y151763D01*
X190195Y144297D02*
X189862D01*
X190029D01*
Y145297D01*
X190195Y145130D01*
X189400Y134450D02*
X189067D01*
X189233D01*
Y135450D01*
X189400Y135283D01*
D92*
X162278Y114005D02*
X162756D01*
X162267Y112005D02*
X162746D01*
X163145Y112822D02*
Y113162D01*
X163080Y140115D02*
Y140454D01*
X163479Y141271D02*
X163958D01*
X163469Y139271D02*
X163947D01*
D93*
X159971Y151280D02*
G03*
X159971Y151280I-125J0D01*
G01*
X109027Y141377D02*
G03*
X109027Y141377I-125J0D01*
G01*
X182122Y160563D02*
G03*
X182122Y160563I-125J0D01*
G01*
X171425Y160299D02*
G03*
X171425Y160299I-125J0D01*
G01*
X187985Y153619D02*
G03*
X187985Y153619I-125J0D01*
G01*
X188976Y157886D02*
G03*
X188976Y157886I-125J0D01*
G01*
X182943Y152705D02*
G03*
X182943Y152705I-125J0D01*
G01*
D95*
X100116Y123103D02*
X116345D01*
X100116D02*
Y137603D01*
X116345Y123103D02*
Y137603D01*
X100116D02*
X116345D01*
X121234Y110046D02*
Y110745D01*
X120884D01*
X120768Y110629D01*
Y110395D01*
X120884Y110279D01*
X121234D01*
X121001D02*
X120768Y110046D01*
X120534Y110162D02*
X120418Y110046D01*
X120185D01*
X120068Y110162D01*
Y110629D01*
X120185Y110745D01*
X120418D01*
X120534Y110629D01*
Y110512D01*
X120418Y110395D01*
X120068D01*
X119485Y110046D02*
Y110745D01*
X119835Y110395D01*
X119368D01*
X131026Y157176D02*
Y157060D01*
X130793Y156827D01*
X130559Y157060D01*
Y157176D01*
X130793Y156827D02*
Y156477D01*
X130326Y157060D02*
X130210Y157176D01*
X129976D01*
X129860Y157060D01*
Y156943D01*
X129976Y156827D01*
X130093D01*
X129976D01*
X129860Y156710D01*
Y156593D01*
X129976Y156477D01*
X130210D01*
X130326Y156593D01*
X127623Y152213D02*
X127507Y152330D01*
Y152563D01*
X127623Y152679D01*
X128090D01*
X128206Y152563D01*
Y152330D01*
X128090Y152213D01*
X128206Y151980D02*
Y151746D01*
Y151863D01*
X127507D01*
X127623Y151980D01*
X128206Y151396D02*
Y151163D01*
Y151280D01*
X127507D01*
X127623Y151396D01*
Y150813D02*
X127507Y150697D01*
Y150463D01*
X127623Y150347D01*
X127740D01*
X127857Y150463D01*
X127973Y150347D01*
X128090D01*
X128206Y150463D01*
Y150697D01*
X128090Y150813D01*
X127973D01*
X127857Y150697D01*
X127740Y150813D01*
X127623D01*
X127857Y150697D02*
Y150463D01*
X127547Y155870D02*
X127431Y155987D01*
Y156220D01*
X127547Y156337D01*
X128014D01*
X128130Y156220D01*
Y155987D01*
X128014Y155870D01*
X128130Y155637D02*
Y155404D01*
Y155521D01*
X127431D01*
X127547Y155637D01*
X128130Y155054D02*
Y154821D01*
Y154937D01*
X127431D01*
X127547Y155054D01*
X128014Y154471D02*
X128130Y154354D01*
Y154121D01*
X128014Y154004D01*
X127547D01*
X127431Y154121D01*
Y154354D01*
X127547Y154471D01*
X127664D01*
X127780Y154354D01*
Y154004D01*
X110328Y138469D02*
X110562D01*
X110445D01*
Y137886D01*
X110562Y137770D01*
X110678D01*
X110795Y137886D01*
X110095D02*
X109978Y137770D01*
X109745D01*
X109629Y137886D01*
Y138353D01*
X109745Y138469D01*
X109978D01*
X110095Y138353D01*
Y138236D01*
X109978Y138119D01*
X109629D01*
X119066Y114248D02*
X119183Y114365D01*
X119416D01*
X119532Y114248D01*
Y113782D01*
X119416Y113665D01*
X119183D01*
X119066Y113782D01*
X118833D02*
X118716Y113665D01*
X118483D01*
X118366Y113782D01*
Y114248D01*
X118483Y114365D01*
X118716D01*
X118833Y114248D01*
Y114132D01*
X118716Y114015D01*
X118366D01*
X118133Y114248D02*
X118016Y114365D01*
X117783D01*
X117666Y114248D01*
Y114132D01*
X117783Y114015D01*
X117666Y113898D01*
Y113782D01*
X117783Y113665D01*
X118016D01*
X118133Y113782D01*
Y113898D01*
X118016Y114015D01*
X118133Y114132D01*
Y114248D01*
X118016Y114015D02*
X117783D01*
X171323Y163082D02*
Y162499D01*
X171206Y162382D01*
X170973D01*
X170856Y162499D01*
Y163082D01*
X170623Y162965D02*
X170507Y163082D01*
X170273D01*
X170157Y162965D01*
Y162849D01*
X170273Y162732D01*
X170390D01*
X170273D01*
X170157Y162615D01*
Y162499D01*
X170273Y162382D01*
X170507D01*
X170623Y162499D01*
X169457Y163082D02*
X169923D01*
Y162732D01*
X169690Y162849D01*
X169574D01*
X169457Y162732D01*
Y162499D01*
X169574Y162382D01*
X169807D01*
X169923Y162499D01*
X109922Y147270D02*
X110155D01*
X110039D01*
Y146687D01*
X110155Y146571D01*
X110272D01*
X110388Y146687D01*
X109689Y147154D02*
X109572Y147270D01*
X109339D01*
X109222Y147154D01*
Y147037D01*
X109339Y146921D01*
X109222Y146804D01*
Y146687D01*
X109339Y146571D01*
X109572D01*
X109689Y146687D01*
Y146804D01*
X109572Y146921D01*
X109689Y147037D01*
Y147154D01*
X109572Y146921D02*
X109339D01*
X145025Y139803D02*
X145491D01*
Y139453D01*
X145258D01*
X145491D01*
Y139103D01*
X144791Y139803D02*
Y139103D01*
X144442D01*
X144325Y139220D01*
Y139336D01*
X144442Y139453D01*
X144791D01*
X144442D01*
X144325Y139570D01*
Y139686D01*
X144442Y139803D01*
X144791D01*
X144092Y139103D02*
X143858D01*
X143975D01*
Y139803D01*
X144092Y139686D01*
X143508D02*
X143392Y139803D01*
X143159D01*
X143042Y139686D01*
Y139220D01*
X143159Y139103D01*
X143392D01*
X143508Y139220D01*
Y139686D01*
X169100Y139790D02*
Y139207D01*
X168984Y139090D01*
X168751D01*
X168634Y139207D01*
Y139790D01*
X168401Y139674D02*
X168284Y139790D01*
X168051D01*
X167934Y139674D01*
Y139557D01*
X168051Y139440D01*
X168167D01*
X168051D01*
X167934Y139324D01*
Y139207D01*
X168051Y139090D01*
X168284D01*
X168401Y139207D01*
X167234Y139090D02*
X167701D01*
X167234Y139557D01*
Y139674D01*
X167351Y139790D01*
X167584D01*
X167701Y139674D01*
X160871Y124334D02*
Y123751D01*
X160754Y123634D01*
X160521D01*
X160404Y123751D01*
Y124334D01*
X159705Y123634D02*
X160171D01*
X159705Y124101D01*
Y124218D01*
X159821Y124334D01*
X160055D01*
X160171Y124218D01*
X159471Y123751D02*
X159355Y123634D01*
X159121D01*
X159005Y123751D01*
Y124218D01*
X159121Y124334D01*
X159355D01*
X159471Y124218D01*
Y124101D01*
X159355Y123984D01*
X159005D01*
X146826Y153280D02*
X146709Y153396D01*
Y153630D01*
X146826Y153746D01*
X147292D01*
X147409Y153630D01*
Y153396D01*
X147292Y153280D01*
X147409Y153046D02*
Y152813D01*
Y152930D01*
X146709D01*
X146826Y153046D01*
X147292Y152463D02*
X147409Y152347D01*
Y152113D01*
X147292Y151997D01*
X146826D01*
X146709Y152113D01*
Y152347D01*
X146826Y152463D01*
X146942D01*
X147059Y152347D01*
Y151997D01*
X147292Y151764D02*
X147409Y151647D01*
Y151414D01*
X147292Y151297D01*
X146826D01*
X146709Y151414D01*
Y151647D01*
X146826Y151764D01*
X146942D01*
X147059Y151647D01*
Y151297D01*
X150930Y129133D02*
X151047Y129249D01*
X151280D01*
X151397Y129133D01*
Y128666D01*
X151280Y128549D01*
X151047D01*
X150930Y128666D01*
X150230Y128549D02*
X150697D01*
X150230Y129016D01*
Y129133D01*
X150347Y129249D01*
X150580D01*
X150697Y129133D01*
X149997D02*
X149881Y129249D01*
X149647D01*
X149531Y129133D01*
Y128666D01*
X149647Y128549D01*
X149881D01*
X149997Y128666D01*
Y129133D01*
X148831Y129249D02*
X149064Y129133D01*
X149297Y128899D01*
Y128666D01*
X149181Y128549D01*
X148947D01*
X148831Y128666D01*
Y128783D01*
X148947Y128899D01*
X149297D01*
X193399Y147029D02*
X193632D01*
X193516D01*
Y146446D01*
X193632Y146329D01*
X193749D01*
X193865Y146446D01*
X193166Y146329D02*
X192932D01*
X193049D01*
Y147029D01*
X193166Y146913D01*
X192583D02*
X192466Y147029D01*
X192233D01*
X192116Y146913D01*
Y146446D01*
X192233Y146329D01*
X192466D01*
X192583Y146446D01*
Y146913D01*
X150905Y142429D02*
X151021Y142546D01*
X151255D01*
X151371Y142429D01*
Y141963D01*
X151255Y141846D01*
X151021D01*
X150905Y141963D01*
X150205Y141846D02*
X150672D01*
X150205Y142313D01*
Y142429D01*
X150322Y142546D01*
X150555D01*
X150672Y142429D01*
X149972D02*
X149855Y142546D01*
X149622D01*
X149505Y142429D01*
Y141963D01*
X149622Y141846D01*
X149855D01*
X149972Y141963D01*
Y142429D01*
X149272D02*
X149155Y142546D01*
X148922D01*
X148805Y142429D01*
Y142313D01*
X148922Y142196D01*
X148805Y142080D01*
Y141963D01*
X148922Y141846D01*
X149155D01*
X149272Y141963D01*
Y142080D01*
X149155Y142196D01*
X149272Y142313D01*
Y142429D01*
X149155Y142196D02*
X148922D01*
X153432Y124891D02*
X153549Y125007D01*
X153782D01*
X153899Y124891D01*
Y124424D01*
X153782Y124308D01*
X153549D01*
X153432Y124424D01*
X152732Y124308D02*
X153199D01*
X152732Y124774D01*
Y124891D01*
X152849Y125007D01*
X153082D01*
X153199Y124891D01*
X152499D02*
X152382Y125007D01*
X152149D01*
X152033Y124891D01*
Y124424D01*
X152149Y124308D01*
X152382D01*
X152499Y124424D01*
Y124891D01*
X151799Y124424D02*
X151683Y124308D01*
X151449D01*
X151333Y124424D01*
Y124891D01*
X151449Y125007D01*
X151683D01*
X151799Y124891D01*
Y124774D01*
X151683Y124657D01*
X151333D01*
X160071Y148223D02*
Y147640D01*
X159954Y147523D01*
X159721D01*
X159604Y147640D01*
Y148223D01*
X159371Y148106D02*
X159254Y148223D01*
X159021D01*
X158905Y148106D01*
Y147990D01*
X159021Y147873D01*
X159138D01*
X159021D01*
X158905Y147756D01*
Y147640D01*
X159021Y147523D01*
X159254D01*
X159371Y147640D01*
X158671Y148106D02*
X158555Y148223D01*
X158321D01*
X158205Y148106D01*
Y147640D01*
X158321Y147523D01*
X158555D01*
X158671Y147640D01*
Y148106D01*
X184848Y148642D02*
Y148059D01*
X184732Y147942D01*
X184499D01*
X184382Y148059D01*
Y148642D01*
X184149Y148525D02*
X184032Y148642D01*
X183799D01*
X183682Y148525D01*
Y148409D01*
X183799Y148292D01*
X183915D01*
X183799D01*
X183682Y148176D01*
Y148059D01*
X183799Y147942D01*
X184032D01*
X184149Y148059D01*
X183449Y148642D02*
X182982D01*
Y148525D01*
X183449Y148059D01*
Y147942D01*
X120676Y125285D02*
X121209D01*
Y124885D01*
X120942D01*
X121209D01*
Y124485D01*
X120409Y125285D02*
Y124485D01*
X120009D01*
X119876Y124619D01*
Y124752D01*
X120009Y124885D01*
X120409D01*
X120009D01*
X119876Y125019D01*
Y125152D01*
X120009Y125285D01*
X120409D01*
X119076D02*
X119609D01*
Y124885D01*
X119343Y125019D01*
X119209D01*
X119076Y124885D01*
Y124619D01*
X119209Y124485D01*
X119476D01*
X119609Y124619D01*
X144339Y142201D02*
X144456Y142317D01*
X144689D01*
X144805Y142201D01*
Y141734D01*
X144689Y141618D01*
X144456D01*
X144339Y141734D01*
X144106Y141618D02*
X143872D01*
X143989D01*
Y142317D01*
X144106Y142201D01*
X143522D02*
X143406Y142317D01*
X143173D01*
X143056Y142201D01*
Y142084D01*
X143173Y141968D01*
X143056Y141851D01*
Y141734D01*
X143173Y141618D01*
X143406D01*
X143522Y141734D01*
Y141851D01*
X143406Y141968D01*
X143522Y142084D01*
Y142201D01*
X143406Y141968D02*
X143173D01*
X142823Y142201D02*
X142706Y142317D01*
X142473D01*
X142356Y142201D01*
Y142084D01*
X142473Y141968D01*
X142589D01*
X142473D01*
X142356Y141851D01*
Y141734D01*
X142473Y141618D01*
X142706D01*
X142823Y141734D01*
X125136Y114870D02*
X125253Y114987D01*
X125486D01*
X125603Y114870D01*
Y114404D01*
X125486Y114287D01*
X125253D01*
X125136Y114404D01*
X124903Y114287D02*
X124670D01*
X124787D01*
Y114987D01*
X124903Y114870D01*
X124320D02*
X124203Y114987D01*
X123970D01*
X123854Y114870D01*
Y114404D01*
X123970Y114287D01*
X124203D01*
X124320Y114404D01*
Y114870D01*
X123620D02*
X123504Y114987D01*
X123270D01*
X123154Y114870D01*
Y114754D01*
X123270Y114637D01*
X123154Y114521D01*
Y114404D01*
X123270Y114287D01*
X123504D01*
X123620Y114404D01*
Y114521D01*
X123504Y114637D01*
X123620Y114754D01*
Y114870D01*
X123504Y114637D02*
X123270D01*
X143666Y133476D02*
X143782Y133593D01*
X144016D01*
X144132Y133476D01*
Y133009D01*
X144016Y132893D01*
X143782D01*
X143666Y133009D01*
X143433Y132893D02*
X143199D01*
X143316D01*
Y133593D01*
X143433Y133476D01*
X142383Y133593D02*
X142616Y133476D01*
X142849Y133243D01*
Y133009D01*
X142733Y132893D01*
X142499D01*
X142383Y133009D01*
Y133126D01*
X142499Y133243D01*
X142849D01*
X141683Y133593D02*
X141916Y133476D01*
X142150Y133243D01*
Y133009D01*
X142033Y132893D01*
X141800D01*
X141683Y133009D01*
Y133126D01*
X141800Y133243D01*
X142150D01*
X137720Y147577D02*
X137603Y147694D01*
Y147927D01*
X137720Y148044D01*
X138186D01*
X138303Y147927D01*
Y147694D01*
X138186Y147577D01*
X138303Y147344D02*
Y147111D01*
Y147227D01*
X137603D01*
X137720Y147344D01*
X138303Y146411D02*
X137603D01*
X137953Y146761D01*
Y146294D01*
X137720Y146061D02*
X137603Y145945D01*
Y145711D01*
X137720Y145595D01*
X137836D01*
X137953Y145711D01*
X138070Y145595D01*
X138186D01*
X138303Y145711D01*
Y145945D01*
X138186Y146061D01*
X138070D01*
X137953Y145945D01*
X137836Y146061D01*
X137720D01*
X137953Y145945D02*
Y145711D01*
X123892Y104520D02*
X124009Y104637D01*
X124242D01*
X124358Y104520D01*
Y104053D01*
X124242Y103937D01*
X124009D01*
X123892Y104053D01*
X123659Y103937D02*
X123425D01*
X123542D01*
Y104637D01*
X123659Y104520D01*
X123075D02*
X122959Y104637D01*
X122726D01*
X122609Y104520D01*
Y104053D01*
X122726Y103937D01*
X122959D01*
X123075Y104053D01*
Y104520D01*
X122376D02*
X122259Y104637D01*
X122026D01*
X121909Y104520D01*
Y104403D01*
X122026Y104287D01*
X122142D01*
X122026D01*
X121909Y104170D01*
Y104053D01*
X122026Y103937D01*
X122259D01*
X122376Y104053D01*
X127689Y113969D02*
X127806Y114085D01*
X128039D01*
X128156Y113969D01*
Y113502D01*
X128039Y113386D01*
X127806D01*
X127689Y113502D01*
X127456Y113386D02*
X127223D01*
X127339D01*
Y114085D01*
X127456Y113969D01*
X126873Y113386D02*
X126640D01*
X126756D01*
Y114085D01*
X126873Y113969D01*
X125940Y113386D02*
Y114085D01*
X126290Y113735D01*
X125823D01*
X121238Y160209D02*
X121354Y160326D01*
X121587D01*
X121704Y160209D01*
Y159743D01*
X121587Y159626D01*
X121354D01*
X121238Y159743D01*
X121004Y159626D02*
X120771D01*
X120888D01*
Y160326D01*
X121004Y160209D01*
X120421D02*
X120305Y160326D01*
X120071D01*
X119955Y160209D01*
Y159743D01*
X120071Y159626D01*
X120305D01*
X120421Y159743D01*
Y160209D01*
X119255Y159626D02*
X119721D01*
X119255Y160093D01*
Y160209D01*
X119372Y160326D01*
X119605D01*
X119721Y160209D01*
X158169Y118795D02*
X158286Y118911D01*
X158519D01*
X158636Y118795D01*
Y118328D01*
X158519Y118212D01*
X158286D01*
X158169Y118328D01*
X157469Y118212D02*
X157936D01*
X157469Y118678D01*
Y118795D01*
X157586Y118911D01*
X157819D01*
X157936Y118795D01*
X157236Y118212D02*
X157003D01*
X157120D01*
Y118911D01*
X157236Y118795D01*
X156303Y118212D02*
Y118911D01*
X156653Y118561D01*
X156186D01*
X115456Y160351D02*
Y159652D01*
X115106D01*
X114989Y159768D01*
Y160235D01*
X115106Y160351D01*
X115456D01*
X114756D02*
X114289D01*
Y160235D01*
X114756Y159768D01*
Y159652D01*
X124384Y158891D02*
Y158191D01*
X124034D01*
X123917Y158308D01*
Y158774D01*
X124034Y158891D01*
X124384D01*
X123684Y158774D02*
X123567Y158891D01*
X123334D01*
X123218Y158774D01*
Y158658D01*
X123334Y158541D01*
X123218Y158424D01*
Y158308D01*
X123334Y158191D01*
X123567D01*
X123684Y158308D01*
Y158424D01*
X123567Y158541D01*
X123684Y158658D01*
Y158774D01*
X123567Y158541D02*
X123334D01*
X141862Y139701D02*
X142329D01*
Y139351D01*
X142096D01*
X142329D01*
Y139001D01*
X141629Y139701D02*
Y139001D01*
X141279D01*
X141163Y139118D01*
Y139235D01*
X141279Y139351D01*
X141629D01*
X141279D01*
X141163Y139468D01*
Y139585D01*
X141279Y139701D01*
X141629D01*
X140929Y139118D02*
X140813Y139001D01*
X140579D01*
X140463Y139118D01*
Y139585D01*
X140579Y139701D01*
X140813D01*
X140929Y139585D01*
Y139468D01*
X140813Y139351D01*
X140463D01*
X134446Y142762D02*
X134912D01*
Y142412D01*
X134679D01*
X134912D01*
Y142062D01*
X134212Y142762D02*
Y142062D01*
X133862D01*
X133746Y142179D01*
Y142295D01*
X133862Y142412D01*
X134212D01*
X133862D01*
X133746Y142529D01*
Y142645D01*
X133862Y142762D01*
X134212D01*
X133513Y142645D02*
X133396Y142762D01*
X133163D01*
X133046Y142645D01*
Y142529D01*
X133163Y142412D01*
X133046Y142295D01*
Y142179D01*
X133163Y142062D01*
X133396D01*
X133513Y142179D01*
Y142295D01*
X133396Y142412D01*
X133513Y142529D01*
Y142645D01*
X133396Y142412D02*
X133163D01*
X129010Y144732D02*
Y145198D01*
X129127Y145315D01*
X129360D01*
X129477Y145198D01*
Y144732D01*
X129360Y144615D01*
X129127D01*
X129243Y144848D02*
X129010Y144615D01*
X129127D02*
X129010Y144732D01*
X128310Y144615D02*
X128777D01*
X128310Y145081D01*
Y145198D01*
X128427Y145315D01*
X128660D01*
X128777Y145198D01*
X128714Y106972D02*
X128015D01*
Y106622D01*
X128131Y106506D01*
X128365D01*
X128481Y106622D01*
Y106972D01*
Y106739D02*
X128714Y106506D01*
Y106272D02*
X128015D01*
Y105922D01*
X128131Y105806D01*
X128365D01*
X128481Y105922D01*
Y106272D01*
X128714Y105106D02*
Y105573D01*
X128248Y105106D01*
X128131D01*
X128015Y105223D01*
Y105456D01*
X128131Y105573D01*
X128714Y111277D02*
X128015D01*
Y110928D01*
X128131Y110811D01*
X128365D01*
X128481Y110928D01*
Y111277D01*
Y111044D02*
X128714Y110811D01*
Y110578D02*
X128015D01*
Y110228D01*
X128131Y110111D01*
X128365D01*
X128481Y110228D01*
Y110578D01*
X128131Y109878D02*
X128015Y109761D01*
Y109528D01*
X128131Y109411D01*
X128248D01*
X128365Y109528D01*
Y109645D01*
Y109528D01*
X128481Y109411D01*
X128598D01*
X128714Y109528D01*
Y109761D01*
X128598Y109878D01*
X134074Y116613D02*
Y116030D01*
X133957Y115913D01*
X133724D01*
X133607Y116030D01*
Y116613D01*
X132908Y115913D02*
X133374D01*
X132908Y116379D01*
Y116496D01*
X133024Y116613D01*
X133258D01*
X133374Y116496D01*
X132674Y116613D02*
X132208D01*
Y116496D01*
X132674Y116030D01*
Y115913D01*
X155169Y158027D02*
Y157444D01*
X155052Y157328D01*
X154819D01*
X154702Y157444D01*
Y158027D01*
X154002Y157328D02*
X154469D01*
X154002Y157794D01*
Y157911D01*
X154119Y158027D01*
X154352D01*
X154469Y157911D01*
X153769D02*
X153652Y158027D01*
X153419D01*
X153303Y157911D01*
Y157794D01*
X153419Y157677D01*
X153303Y157561D01*
Y157444D01*
X153419Y157328D01*
X153652D01*
X153769Y157444D01*
Y157561D01*
X153652Y157677D01*
X153769Y157794D01*
Y157911D01*
X153652Y157677D02*
X153419D01*
X116992Y145683D02*
Y145100D01*
X116876Y144983D01*
X116643D01*
X116526Y145100D01*
Y145683D01*
X115826Y144983D02*
X116293D01*
X115826Y145450D01*
Y145566D01*
X115943Y145683D01*
X116176D01*
X116293Y145566D01*
X115126Y145683D02*
X115360Y145566D01*
X115593Y145333D01*
Y145100D01*
X115476Y144983D01*
X115243D01*
X115126Y145100D01*
Y145216D01*
X115243Y145333D01*
X115593D01*
X167805Y158396D02*
Y157813D01*
X167688Y157696D01*
X167455D01*
X167339Y157813D01*
Y158396D01*
X167105Y158279D02*
X166989Y158396D01*
X166755D01*
X166639Y158279D01*
Y158162D01*
X166755Y158046D01*
X166872D01*
X166755D01*
X166639Y157929D01*
Y157813D01*
X166755Y157696D01*
X166989D01*
X167105Y157813D01*
X166406Y158279D02*
X166289Y158396D01*
X166056D01*
X165939Y158279D01*
Y158162D01*
X166056Y158046D01*
X166172D01*
X166056D01*
X165939Y157929D01*
Y157813D01*
X166056Y157696D01*
X166289D01*
X166406Y157813D01*
X120349Y104393D02*
X120465Y104510D01*
X120698D01*
X120815Y104393D01*
Y103926D01*
X120698Y103810D01*
X120465D01*
X120349Y103926D01*
X120115D02*
X119999Y103810D01*
X119765D01*
X119649Y103926D01*
Y104393D01*
X119765Y104510D01*
X119999D01*
X120115Y104393D01*
Y104276D01*
X119999Y104160D01*
X119649D01*
X119416Y104510D02*
X118949D01*
Y104393D01*
X119416Y103926D01*
Y103810D01*
X145850Y148360D02*
X145967Y148477D01*
X146200D01*
X146317Y148360D01*
Y147894D01*
X146200Y147777D01*
X145967D01*
X145850Y147894D01*
X145617Y147777D02*
X145384D01*
X145500D01*
Y148477D01*
X145617Y148360D01*
X145034D02*
X144917Y148477D01*
X144684D01*
X144567Y148360D01*
Y148244D01*
X144684Y148127D01*
X144567Y148010D01*
Y147894D01*
X144684Y147777D01*
X144917D01*
X145034Y147894D01*
Y148010D01*
X144917Y148127D01*
X145034Y148244D01*
Y148360D01*
X144917Y148127D02*
X144684D01*
X143984Y147777D02*
Y148477D01*
X144334Y148127D01*
X143867D01*
X129213Y135737D02*
X129330Y135853D01*
X129563D01*
X129680Y135737D01*
Y135270D01*
X129563Y135153D01*
X129330D01*
X129213Y135270D01*
X128980Y135153D02*
X128747D01*
X128863D01*
Y135853D01*
X128980Y135737D01*
X128397Y135153D02*
X128164D01*
X128280D01*
Y135853D01*
X128397Y135737D01*
X127814Y135153D02*
X127580D01*
X127697D01*
Y135853D01*
X127814Y135737D01*
X190411Y148401D02*
Y147818D01*
X190294Y147701D01*
X190061D01*
X189945Y147818D01*
Y148401D01*
X189711Y148284D02*
X189595Y148401D01*
X189361D01*
X189245Y148284D01*
Y148168D01*
X189361Y148051D01*
X189478D01*
X189361D01*
X189245Y147934D01*
Y147818D01*
X189361Y147701D01*
X189595D01*
X189711Y147818D01*
X189012D02*
X188895Y147701D01*
X188662D01*
X188545Y147818D01*
Y148284D01*
X188662Y148401D01*
X188895D01*
X189012Y148284D01*
Y148168D01*
X188895Y148051D01*
X188545D01*
X187084Y157430D02*
Y156847D01*
X186967Y156731D01*
X186734D01*
X186617Y156847D01*
Y157430D01*
X186384Y157314D02*
X186267Y157430D01*
X186034D01*
X185917Y157314D01*
Y157197D01*
X186034Y157081D01*
X186151D01*
X186034D01*
X185917Y156964D01*
Y156847D01*
X186034Y156731D01*
X186267D01*
X186384Y156847D01*
X185684Y157314D02*
X185568Y157430D01*
X185334D01*
X185218Y157314D01*
Y157197D01*
X185334Y157081D01*
X185218Y156964D01*
Y156847D01*
X185334Y156731D01*
X185568D01*
X185684Y156847D01*
Y156964D01*
X185568Y157081D01*
X185684Y157197D01*
Y157314D01*
X185568Y157081D02*
X185334D01*
X177190Y157176D02*
Y156593D01*
X177074Y156477D01*
X176841D01*
X176724Y156593D01*
Y157176D01*
X176491Y157060D02*
X176374Y157176D01*
X176141D01*
X176024Y157060D01*
Y156943D01*
X176141Y156827D01*
X176257D01*
X176141D01*
X176024Y156710D01*
Y156593D01*
X176141Y156477D01*
X176374D01*
X176491Y156593D01*
X175324Y157176D02*
X175558Y157060D01*
X175791Y156827D01*
Y156593D01*
X175674Y156477D01*
X175441D01*
X175324Y156593D01*
Y156710D01*
X175441Y156827D01*
X175791D01*
X106899Y102158D02*
X107016Y102274D01*
X107249D01*
X107366Y102158D01*
Y101691D01*
X107249Y101575D01*
X107016D01*
X106899Y101691D01*
X106666D02*
X106549Y101575D01*
X106316D01*
X106200Y101691D01*
Y102158D01*
X106316Y102274D01*
X106549D01*
X106666Y102158D01*
Y102041D01*
X106549Y101924D01*
X106200D01*
X105966Y102158D02*
X105850Y102274D01*
X105616D01*
X105500Y102158D01*
Y101691D01*
X105616Y101575D01*
X105850D01*
X105966Y101691D01*
Y102158D01*
X117796Y105003D02*
X117913Y105119D01*
X118146D01*
X118262Y105003D01*
Y104536D01*
X118146Y104419D01*
X117913D01*
X117796Y104536D01*
X117563D02*
X117446Y104419D01*
X117213D01*
X117096Y104536D01*
Y105003D01*
X117213Y105119D01*
X117446D01*
X117563Y105003D01*
Y104886D01*
X117446Y104769D01*
X117096D01*
X116863Y105003D02*
X116746Y105119D01*
X116513D01*
X116396Y105003D01*
Y104886D01*
X116513Y104769D01*
X116630D01*
X116513D01*
X116396Y104653D01*
Y104536D01*
X116513Y104419D01*
X116746D01*
X116863Y104536D01*
X117843Y109131D02*
Y109831D01*
X117493D01*
X117377Y109714D01*
Y109481D01*
X117493Y109364D01*
X117843D01*
X117610D02*
X117377Y109131D01*
X117144Y109248D02*
X117027Y109131D01*
X116794D01*
X116677Y109248D01*
Y109714D01*
X116794Y109831D01*
X117027D01*
X117144Y109714D01*
Y109598D01*
X117027Y109481D01*
X116677D01*
X116444Y109131D02*
X116210D01*
X116327D01*
Y109831D01*
X116444Y109714D01*
X107404Y106134D02*
Y106834D01*
X107054D01*
X106937Y106717D01*
Y106484D01*
X107054Y106367D01*
X107404D01*
X107171D02*
X106937Y106134D01*
X106704Y106717D02*
X106588Y106834D01*
X106354D01*
X106238Y106717D01*
Y106600D01*
X106354Y106484D01*
X106238Y106367D01*
Y106251D01*
X106354Y106134D01*
X106588D01*
X106704Y106251D01*
Y106367D01*
X106588Y106484D01*
X106704Y106600D01*
Y106717D01*
X106588Y106484D02*
X106354D01*
X106004Y106251D02*
X105888Y106134D01*
X105654D01*
X105538Y106251D01*
Y106717D01*
X105654Y106834D01*
X105888D01*
X106004Y106717D01*
Y106600D01*
X105888Y106484D01*
X105538D01*
X186893Y138303D02*
Y139003D01*
X186543D01*
X186427Y138886D01*
Y138653D01*
X186543Y138536D01*
X186893D01*
X186193Y138886D02*
X186077Y139003D01*
X185844D01*
X185727Y138886D01*
Y138770D01*
X185844Y138653D01*
X185960D01*
X185844D01*
X185727Y138536D01*
Y138420D01*
X185844Y138303D01*
X186077D01*
X186193Y138420D01*
X184252Y145669D02*
Y146369D01*
X183902D01*
X183785Y146252D01*
Y146019D01*
X183902Y145902D01*
X184252D01*
X184018D02*
X183785Y145669D01*
X183552D02*
Y146369D01*
X183202D01*
X183085Y146252D01*
Y146019D01*
X183202Y145902D01*
X183552D01*
X182502Y145669D02*
Y146369D01*
X182852Y146019D01*
X182386D01*
X125975Y144681D02*
Y145147D01*
X126091Y145264D01*
X126325D01*
X126441Y145147D01*
Y144681D01*
X126325Y144564D01*
X126091D01*
X126208Y144797D02*
X125975Y144564D01*
X126091D02*
X125975Y144681D01*
X125741Y144564D02*
X125508D01*
X125625D01*
Y145264D01*
X125741Y145147D01*
X161811Y140387D02*
Y139804D01*
X161694Y139687D01*
X161461D01*
X161344Y139804D01*
Y140387D01*
X161111Y140270D02*
X160994Y140387D01*
X160761D01*
X160644Y140270D01*
Y140154D01*
X160761Y140037D01*
X160878D01*
X160761D01*
X160644Y139921D01*
Y139804D01*
X160761Y139687D01*
X160994D01*
X161111Y139804D01*
X160411Y139687D02*
X160178D01*
X160295D01*
Y140387D01*
X160411Y140270D01*
X190640Y109886D02*
X190506Y110020D01*
X190240D01*
X190107Y109886D01*
Y109753D01*
X190240Y109620D01*
X190107Y109487D01*
Y109353D01*
X190240Y109220D01*
X190506D01*
X190640Y109353D01*
Y109487D01*
X190506Y109620D01*
X190640Y109753D01*
Y109886D01*
X190506Y109620D02*
X190240D01*
X189840Y109886D02*
X189707Y110020D01*
X189440D01*
X189307Y109886D01*
Y109353D01*
X189440Y109220D01*
X189707D01*
X189840Y109353D01*
Y109886D01*
X180785Y111023D02*
X181051Y110890D01*
X181318Y110623D01*
Y110357D01*
X181185Y110223D01*
X180918D01*
X180785Y110357D01*
Y110490D01*
X180918Y110623D01*
X181318D01*
X180518Y110890D02*
X180385Y111023D01*
X180118D01*
X179985Y110890D01*
Y110357D01*
X180118Y110223D01*
X180385D01*
X180518Y110357D01*
Y110890D01*
D96*
X161612Y111698D02*
G03*
X161612Y111698I-127J0D01*
G01*
X164867Y141578D02*
G03*
X164867Y141578I-127J0D01*
G01*
D198*
X116929Y136144D02*
G03*
X116929Y136144I-102J0D01*
G01*
X135217Y122555D02*
G03*
X135217Y122555I-102J0D01*
G01*
X134163Y121603D02*
G03*
X134163Y121603I-102J0D01*
G01*
X132944Y132131D02*
G03*
X132944Y132131I-102J0D01*
G01*
X170764Y123215D02*
G03*
X170764Y123215I-102J0D01*
G01*
X171475Y124650D02*
G03*
X171475Y124650I-102J0D01*
G01*
X166941Y149936D02*
G03*
X166941Y149936I-102J0D01*
G01*
X164732Y126467D02*
G03*
X164732Y126467I-102J0D01*
G01*
X163614Y137503D02*
G03*
X163614Y137503I-102J0D01*
G01*
X126581Y140487D02*
G03*
X126581Y140487I-102J0D01*
G01*
X175133Y142291D02*
G03*
X175133Y142291I-102J0D01*
G01*
X174092Y142316D02*
G03*
X174092Y142316I-102J0D01*
G01*
X192621Y147891D02*
G03*
X192621Y147891I-102J0D01*
G01*
X183058Y158090D02*
G03*
X183058Y158090I-102J0D01*
G01*
X181496Y155994D02*
G03*
X181496Y155994I-102J0D01*
G01*
X169634Y158407D02*
G03*
X169634Y158407I-102J0D01*
G01*
X151574Y148908D02*
G03*
X151574Y148908I-102J0D01*
G01*
X151600Y147891D02*
G03*
X151600Y147891I-102J0D01*
G01*
X178524Y162687D02*
G03*
X178524Y162687I-102J0D01*
G01*
X150724Y133680D02*
G03*
X150724Y133680I-102J0D01*
G01*
X152382Y137973D02*
G03*
X152382Y137973I-102J0D01*
G01*
X151181Y135585D02*
G03*
X151181Y135585I-102J0D01*
G01*
X153289Y136017D02*
G03*
X153289Y136017I-102J0D01*
G01*
X152438Y137033D02*
G03*
X152438Y137033I-102J0D01*
G01*
X153213Y135166D02*
G03*
X153213Y135166I-102J0D01*
G01*
X152400Y138925D02*
G03*
X152400Y138925I-102J0D01*
G01*
X149949Y138747D02*
G03*
X149949Y138747I-102J0D01*
G01*
X150139Y134734D02*
G03*
X150139Y134734I-102J0D01*
G01*
X118453Y134506D02*
G03*
X118453Y134506I-102J0D01*
G01*
X126314Y129007D02*
G03*
X126314Y129007I-102J0D01*
G01*
X133667Y127381D02*
G03*
X133667Y127381I-102J0D01*
G01*
X137249Y122072D02*
G03*
X137249Y122072I-102J0D01*
G01*
X144554Y130432D02*
G03*
X144554Y130432I-102J0D01*
G01*
X143741D02*
G03*
X143741Y130432I-102J0D01*
G01*
X132972Y125250D02*
G03*
X132972Y125250I-102J0D01*
G01*
X134239Y123444D02*
G03*
X134239Y123444I-102J0D01*
G01*
X143943Y152618D02*
G03*
X143943Y152618I-102J0D01*
G01*
X169545Y127292D02*
G03*
X169545Y127292I-102J0D01*
G01*
X138585Y130482D02*
G03*
X138585Y130482I-102J0D01*
G01*
X133769Y120256D02*
G03*
X133769Y120256I-102J0D01*
G01*
X142878Y128527D02*
G03*
X142878Y128527I-102J0D01*
G01*
X132972Y124361D02*
G03*
X132972Y124361I-102J0D01*
G01*
X147320Y132182D02*
G03*
X147320Y132182I-102J0D01*
G01*
X168135Y155283D02*
G03*
X168135Y155283I-102J0D01*
G01*
Y153607D02*
G03*
X168135Y153607I-102J0D01*
G01*
X137645Y130482D02*
G03*
X137645Y130482I-102J0D01*
G01*
X114656Y138976D02*
G03*
X114656Y138976I-102J0D01*
G01*
X131128Y129083D02*
G03*
X131128Y129083I-102J0D01*
G01*
X138735Y104165D02*
G03*
X138735Y104165I-102J0D01*
G01*
X143246Y109832D02*
G03*
X143246Y109832I-102J0D01*
G01*
X143205Y108496D02*
G03*
X143205Y108496I-102J0D01*
G01*
X129057Y140525D02*
G03*
X129057Y140525I-102J0D01*
G01*
X159499Y162077D02*
G03*
X159499Y162077I-102J0D01*
G01*
X142596Y148336D02*
G03*
X142596Y148336I-102J0D01*
G01*
X140056Y139725D02*
G03*
X140056Y139725I-102J0D01*
G01*
X145772Y157241D02*
G03*
X145772Y157241I-102J0D01*
G01*
X142978Y150774D02*
G03*
X142978Y150774I-102J0D01*
G01*
X128549Y118821D02*
G03*
X128549Y118821I-102J0D01*
G01*
X159817Y112941D02*
G03*
X159817Y112941I-102J0D01*
G01*
X155321Y108471D02*
G03*
X155321Y108471I-102J0D01*
G01*
X151651Y109550D02*
G03*
X151651Y109550I-102J0D01*
G01*
X151600Y108001D02*
G03*
X151600Y108001I-102J0D01*
G01*
X159817Y113767D02*
G03*
X159817Y113767I-102J0D01*
G01*
X151651Y110363D02*
G03*
X151651Y110363I-102J0D01*
G01*
Y108763D02*
G03*
X151651Y108763I-102J0D01*
G01*
X151613Y107150D02*
G03*
X151613Y107150I-102J0D01*
G01*
X159829Y112052D02*
G03*
X159829Y112052I-102J0D01*
G01*
X159842Y111163D02*
G03*
X159842Y111163I-102J0D01*
G01*
X158547Y107518D02*
G03*
X158547Y107518I-102J0D01*
G01*
Y105829D02*
G03*
X158547Y105829I-102J0D01*
G01*
X160680Y109525D02*
G03*
X160680Y109525I-102J0D01*
G01*
X155359Y110871D02*
G03*
X155359Y110871I-102J0D01*
G01*
X158534Y106642D02*
G03*
X158534Y106642I-102J0D01*
G01*
X158547Y104978D02*
G03*
X158547Y104978I-102J0D01*
G01*
X131686Y137427D02*
G03*
X131686Y137427I-102J0D01*
G01*
X132982Y145263D02*
G03*
X132982Y145263I-102J0D01*
G01*
Y146126D02*
G03*
X132982Y146126I-102J0D01*
G01*
X155372Y109791D02*
G03*
X155372Y109791I-102J0D01*
G01*
X156604Y107518D02*
G03*
X156604Y107518I-102J0D01*
G01*
X156591Y105829D02*
G03*
X156591Y105829I-102J0D01*
G01*
X158839Y109550D02*
G03*
X158839Y109550I-102J0D01*
G01*
X158102Y108636D02*
G03*
X158102Y108636I-102J0D01*
G01*
X156591Y106617D02*
G03*
X156591Y106617I-102J0D01*
G01*
X156578Y104978D02*
G03*
X156578Y104978I-102J0D01*
G01*
X124384Y118834D02*
G03*
X124384Y118834I-102J0D01*
G01*
X122479Y118821D02*
G03*
X122479Y118821I-102J0D01*
G01*
X132880Y119151D02*
G03*
X132880Y119151I-102J0D01*
G01*
X131240Y115903D02*
G03*
X131240Y115903I-102J0D01*
G01*
X129629Y118821D02*
G03*
X129629Y118821I-102J0D01*
G01*
X178727Y125311D02*
G03*
X178727Y125311I-102J0D01*
G01*
X167932Y127279D02*
G03*
X167932Y127279I-102J0D01*
G01*
X167437Y111773D02*
G03*
X167437Y111773I-102J0D01*
G01*
X168669Y123241D02*
G03*
X168669Y123241I-102J0D01*
G01*
X169532Y123254D02*
G03*
X169532Y123254I-102J0D01*
G01*
X171387Y105067D02*
G03*
X171387Y105067I-102J0D01*
G01*
X128283Y158051D02*
G03*
X128283Y158051I-102J0D01*
G01*
X143256Y119367D02*
G03*
X143256Y119367I-102J0D01*
G01*
X169024Y103708D02*
G03*
X169024Y103708I-102J0D01*
G01*
X180391Y162662D02*
G03*
X180391Y162662I-102J0D01*
G01*
X112204Y140792D02*
G03*
X112204Y140792I-102J0D01*
G01*
X154762Y105842D02*
G03*
X154762Y105842I-102J0D01*
G01*
X141760Y107190D02*
G03*
X141760Y107190I-102J0D01*
G01*
X143002Y104038D02*
G03*
X143002Y104038I-102J0D01*
G01*
X134239Y103937D02*
G03*
X134239Y103937I-102J0D01*
G01*
X140566Y104168D02*
G03*
X140566Y104168I-102J0D01*
G01*
X144577Y105372D02*
G03*
X144577Y105372I-102J0D01*
G01*
X143320Y113970D02*
G03*
X143320Y113970I-102J0D01*
G01*
X145402Y104102D02*
G03*
X145402Y104102I-102J0D01*
G01*
X143675Y111620D02*
G03*
X143675Y111620I-102J0D01*
G01*
X134039Y112296D02*
G03*
X134039Y112296I-102J0D01*
G01*
X136706Y103355D02*
G03*
X136706Y103355I-102J0D01*
G01*
X139804Y118367D02*
G03*
X139804Y118367I-102J0D01*
G01*
X140841Y105616D02*
G03*
X140841Y105616I-102J0D01*
G01*
X132931Y134633D02*
G03*
X132931Y134633I-102J0D01*
G01*
X116954Y124854D02*
G03*
X116954Y124854I-102J0D01*
G01*
X178524Y135712D02*
G03*
X178524Y135712I-102J0D01*
G01*
X136477Y121135D02*
G03*
X136477Y121135I-102J0D01*
G01*
X143005Y120500D02*
G03*
X143005Y120500I-102J0D01*
G01*
X141684Y127130D02*
G03*
X141684Y127130I-102J0D01*
G01*
X132893Y152235D02*
G03*
X132893Y152235I-102J0D01*
G01*
X136096Y125529D02*
G03*
X136096Y125529I-102J0D01*
G01*
X127292Y138062D02*
G03*
X127292Y138062I-102J0D01*
G01*
X139433Y127559D02*
G03*
X139433Y127559I-102J0D01*
G01*
X138139Y134290D02*
G03*
X138139Y134290I-102J0D01*
G01*
X140145Y130482D02*
G03*
X140145Y130482I-102J0D01*
G01*
X137274Y135509D02*
G03*
X137274Y135509I-102J0D01*
G01*
X141684Y124767D02*
G03*
X141684Y124767I-102J0D01*
G01*
X136350Y123675D02*
G03*
X136350Y123675I-102J0D01*
G01*
X157124Y137947D02*
G03*
X157124Y137947I-102J0D01*
G01*
X140160Y111966D02*
G03*
X140160Y111966I-102J0D01*
G01*
X143081Y121948D02*
G03*
X143081Y121948I-102J0D01*
G01*
X141786Y122049D02*
G03*
X141786Y122049I-102J0D01*
G01*
X137071Y126365D02*
G03*
X137071Y126365I-102J0D01*
G01*
X136462Y116815D02*
G03*
X136462Y116815I-102J0D01*
G01*
X148222Y107506D02*
G03*
X148222Y107506I-102J0D01*
G01*
X146815Y124767D02*
G03*
X146815Y124767I-102J0D01*
G01*
X143246Y125402D02*
G03*
X143246Y125402I-102J0D01*
G01*
X140096Y121821D02*
G03*
X140096Y121821I-102J0D01*
G01*
X140109Y124793D02*
G03*
X140109Y124793I-102J0D01*
G01*
X138509Y121414D02*
G03*
X138509Y121414I-102J0D01*
G01*
X130670Y122352D02*
G03*
X130670Y122352I-102J0D01*
G01*
X129096Y116599D02*
G03*
X129096Y116599I-102J0D01*
G01*
X143335Y127180D02*
G03*
X143335Y127180I-102J0D01*
G01*
X143943Y150764D02*
G03*
X143943Y150764I-102J0D01*
G01*
X136893Y114021D02*
G03*
X136893Y114021I-102J0D01*
G01*
X138433Y126368D02*
G03*
X138433Y126368I-102J0D01*
G01*
X145062Y113642D02*
G03*
X145062Y113642I-102J0D01*
G01*
X137544Y124005D02*
G03*
X137544Y124005I-102J0D01*
G01*
X143513Y123624D02*
G03*
X143513Y123624I-102J0D01*
G01*
X150863Y121069D02*
G03*
X150863Y121069I-102J0D01*
G01*
X168149Y154498D02*
G03*
X168149Y154498I-102J0D01*
G01*
X149923Y136360D02*
G03*
X149923Y136360I-102J0D01*
G01*
X154953Y135077D02*
G03*
X154953Y135077I-102J0D01*
G01*
X153225Y134239D02*
G03*
X153225Y134239I-102J0D01*
G01*
X154876Y139370D02*
G03*
X154876Y139370I-102J0D01*
G01*
X149949Y137173D02*
G03*
X149949Y137173I-102J0D01*
G01*
X128918Y155258D02*
G03*
X128918Y155258I-102J0D01*
G01*
Y153378D02*
G03*
X128918Y153378I-102J0D01*
G01*
X154762Y107061D02*
G03*
X154762Y107061I-102J0D01*
G01*
X120714Y108979D02*
G03*
X120714Y108979I-102J0D01*
G01*
X137820Y116827D02*
G03*
X137820Y116827I-102J0D01*
G01*
X149136Y125781D02*
G03*
X149136Y125781I-102J0D01*
G01*
X169786Y111633D02*
G03*
X169786Y111633I-102J0D01*
G01*
X170599Y103670D02*
G03*
X170599Y103670I-102J0D01*
G01*
X164973Y112674D02*
G03*
X164973Y112674I-102J0D01*
G01*
X159868Y115075D02*
G03*
X159868Y115075I-102J0D01*
G01*
X116980Y129477D02*
G03*
X116980Y129477I-102J0D01*
G01*
X118656Y111100D02*
G03*
X118656Y111100I-102J0D01*
G01*
X128219Y125159D02*
G03*
X128219Y125159I-102J0D01*
G01*
X145948Y123596D02*
G03*
X145948Y123596I-102J0D01*
G01*
X170777Y154864D02*
G03*
X170777Y154864I-102J0D01*
G01*
X127379Y122880D02*
X128780D01*
Y120680D02*
Y122880D01*
X127379Y120680D02*
X128780D01*
X127379D02*
Y122880D01*
X130927Y109178D02*
Y112977D01*
X129327D02*
X130927D01*
X129327Y109178D02*
Y112977D01*
Y109178D02*
X130927D01*
Y104428D02*
Y108228D01*
X129327D02*
X130927D01*
X129327Y104428D02*
Y108228D01*
Y104428D02*
X130927D01*
X130886Y141973D02*
Y143193D01*
X127838D02*
X130886D01*
X127838Y141973D02*
Y143193D01*
Y141973D02*
X130886D01*
X109517Y142086D02*
X111717D01*
X109517D02*
Y143486D01*
X111717D01*
Y142086D02*
Y143486D01*
X131742Y143204D02*
Y144604D01*
X133942D01*
Y143204D02*
Y144604D01*
X131742Y143204D02*
X133942D01*
X140270Y135412D02*
X141670D01*
X140270D02*
Y137612D01*
X141670D01*
Y135412D02*
Y137612D01*
X129027Y115129D02*
X131227D01*
Y113629D02*
Y115129D01*
X129027Y113629D02*
X131227D01*
X129027D02*
Y115129D01*
X122192Y105066D02*
X124392D01*
X122192D02*
Y106566D01*
X124392D01*
Y105066D02*
Y106566D01*
X141384Y153138D02*
X142284D01*
Y154837D01*
X141384D02*
X142284D01*
X141384Y153138D02*
Y154837D01*
X124588Y147594D02*
Y148494D01*
Y147594D02*
X126288D01*
Y148494D01*
X124588D02*
X126288D01*
X135060Y156618D02*
X135960D01*
X135060Y154918D02*
Y156618D01*
Y154918D02*
X135960D01*
Y156618D01*
X142800Y157297D02*
Y158197D01*
Y157297D02*
X144500D01*
Y158197D01*
X142800D02*
X144500D01*
X131561Y145778D02*
Y147978D01*
X130061Y145778D02*
X131561D01*
X130061D02*
Y147978D01*
X131561D01*
X137681Y150029D02*
Y152230D01*
X139181D01*
Y150029D02*
Y152230D01*
X137681Y150029D02*
X139181D01*
X137432Y155625D02*
X139632D01*
X137432D02*
Y157125D01*
X139632D01*
Y155625D02*
Y157125D01*
X137302Y145788D02*
Y147988D01*
X135802Y145788D02*
X137302D01*
X135802D02*
Y147988D01*
X137302D01*
X136051Y150305D02*
X136951D01*
Y152005D01*
X136051D02*
X136951D01*
X136051Y150305D02*
Y152005D01*
X129910Y124023D02*
Y126223D01*
X131410D01*
Y124023D02*
Y126223D01*
X129910Y124023D02*
X131410D01*
X138704Y133620D02*
X140904D01*
Y132120D02*
Y133620D01*
X138704Y132120D02*
X140904D01*
X138704D02*
Y133620D01*
X123601Y115112D02*
X125801D01*
X123601D02*
Y116612D01*
X125801D01*
Y115112D02*
Y116612D01*
X142397Y142671D02*
X144597D01*
X142397D02*
Y144171D01*
X144597D01*
Y142671D02*
Y144171D01*
X151414Y124016D02*
X153614D01*
Y122516D02*
Y124016D01*
X151414Y122516D02*
X153614D01*
X151414D02*
Y124016D01*
X149217Y141199D02*
X151417D01*
Y139699D02*
Y141199D01*
X149217Y139699D02*
X151417D01*
X149217D02*
Y141199D01*
X149195Y128184D02*
X151395D01*
Y126684D02*
Y128184D01*
X149195Y126684D02*
X151395D01*
X149195D02*
Y128184D01*
X146166Y151528D02*
Y153728D01*
X144666Y151528D02*
X146166D01*
X144666D02*
Y153728D01*
X146166D01*
X143321Y136113D02*
X144721D01*
X143321D02*
Y138313D01*
X144721D01*
Y136113D02*
Y138313D01*
X163474Y156963D02*
X166475D01*
X163474Y153963D02*
Y156963D01*
Y153963D02*
X166475D01*
Y156963D01*
X127506Y127386D02*
X128907D01*
X127506D02*
Y129586D01*
X128907D01*
Y127386D02*
Y129586D01*
X160693Y155423D02*
Y159436D01*
X155689D02*
X160693D01*
X155689Y155423D02*
Y159436D01*
Y155423D02*
X160693D01*
X160655Y157124D02*
Y157734D01*
X160045D02*
X160655D01*
X160045Y157124D02*
Y157734D01*
Y157124D02*
X160655D01*
X127533Y142024D02*
Y143243D01*
X124485D02*
X127533D01*
X124485Y142024D02*
Y143243D01*
Y142024D02*
X127533D01*
X114649Y139842D02*
Y144841D01*
X118649D01*
Y139842D02*
Y144841D01*
X114649Y139842D02*
X118649D01*
X131519Y117782D02*
X132154D01*
X131519D02*
Y118417D01*
X132154D01*
Y117782D02*
Y118417D01*
X130071Y117706D02*
X132205D01*
X130071D02*
Y120145D01*
X132205D01*
Y117706D02*
Y120145D01*
D199*
X131519Y153730D02*
Y154930D01*
X129619Y153730D02*
Y154930D01*
D200*
X126480Y124276D02*
X126613Y124409D01*
X126879D01*
X127013Y124276D01*
Y123742D01*
X126879Y123609D01*
X126613D01*
X126480Y123742D01*
X126213Y123609D02*
X125946D01*
X126080D01*
Y124409D01*
X126213Y124276D01*
X125547D02*
X125413Y124409D01*
X125147D01*
X125013Y124276D01*
Y123742D01*
X125147Y123609D01*
X125413D01*
X125547Y123742D01*
Y124276D01*
X124747Y123742D02*
X124613Y123609D01*
X124347D01*
X124214Y123742D01*
Y124276D01*
X124347Y124409D01*
X124613D01*
X124747Y124276D01*
Y124142D01*
X124613Y124009D01*
X124214D01*
X131915Y127806D02*
X132048Y127939D01*
X132315D01*
X132448Y127806D01*
Y127273D01*
X132315Y127140D01*
X132048D01*
X131915Y127273D01*
X131649Y127140D02*
X131382D01*
X131515D01*
Y127939D01*
X131649Y127806D01*
X130449Y127140D02*
X130982D01*
X130449Y127673D01*
Y127806D01*
X130582Y127939D01*
X130849D01*
X130982Y127806D01*
X129649Y127140D02*
X130182D01*
X129649Y127673D01*
Y127806D01*
X129782Y127939D01*
X130049D01*
X130182Y127806D01*
X138951Y158172D02*
X139084Y158305D01*
X139351D01*
X139484Y158172D01*
Y157639D01*
X139351Y157505D01*
X139084D01*
X138951Y157639D01*
X138684Y157505D02*
X138418D01*
X138551D01*
Y158305D01*
X138684Y158172D01*
X137485Y158305D02*
X138018D01*
Y157905D01*
X137751Y158039D01*
X137618D01*
X137485Y157905D01*
Y157639D01*
X137618Y157505D01*
X137885D01*
X138018Y157639D01*
X137218Y157505D02*
X136952D01*
X137085D01*
Y158305D01*
X137218Y158172D01*
X139834Y151714D02*
X139700Y151848D01*
Y152114D01*
X139834Y152248D01*
X140367D01*
X140500Y152114D01*
Y151848D01*
X140367Y151714D01*
X140500Y151448D02*
Y151181D01*
Y151315D01*
X139700D01*
X139834Y151448D01*
X139700Y150248D02*
X139834Y150515D01*
X140100Y150781D01*
X140367D01*
X140500Y150648D01*
Y150382D01*
X140367Y150248D01*
X140234D01*
X140100Y150382D01*
Y150781D01*
X140367Y149982D02*
X140500Y149848D01*
Y149582D01*
X140367Y149449D01*
X139834D01*
X139700Y149582D01*
Y149848D01*
X139834Y149982D01*
X139967D01*
X140100Y149848D01*
Y149449D01*
X128772Y148197D02*
X128639Y148330D01*
Y148596D01*
X128772Y148730D01*
X129305D01*
X129438Y148596D01*
Y148330D01*
X129305Y148197D01*
X129438Y147930D02*
Y147663D01*
Y147797D01*
X128639D01*
X128772Y147930D01*
X129438Y146730D02*
Y147264D01*
X128905Y146730D01*
X128772D01*
X128639Y146864D01*
Y147130D01*
X128772Y147264D01*
X128639Y145931D02*
Y146464D01*
X129039D01*
X128905Y146197D01*
Y146064D01*
X129039Y145931D01*
X129305D01*
X129438Y146064D01*
Y146330D01*
X129305Y146464D01*
X159652Y135934D02*
X159785Y136067D01*
X160052D01*
X160185Y135934D01*
Y135401D01*
X160052Y135268D01*
X159785D01*
X159652Y135401D01*
X158852Y135268D02*
X159385D01*
X158852Y135801D01*
Y135934D01*
X158985Y136067D01*
X159252D01*
X159385Y135934D01*
X158052Y135268D02*
X158586D01*
X158052Y135801D01*
Y135934D01*
X158186Y136067D01*
X158452D01*
X158586Y135934D01*
X157786D02*
X157653Y136067D01*
X157386D01*
X157253Y135934D01*
Y135401D01*
X157386Y135268D01*
X157653D01*
X157786Y135401D01*
Y135934D01*
X158992Y132302D02*
X159125Y132435D01*
X159391D01*
X159525Y132302D01*
Y131769D01*
X159391Y131635D01*
X159125D01*
X158992Y131769D01*
X158192Y131635D02*
X158725D01*
X158192Y132169D01*
Y132302D01*
X158325Y132435D01*
X158592D01*
X158725Y132302D01*
X157925Y131635D02*
X157659D01*
X157792D01*
Y132435D01*
X157925Y132302D01*
X156726Y132435D02*
X156992Y132302D01*
X157259Y132035D01*
Y131769D01*
X157125Y131635D01*
X156859D01*
X156726Y131769D01*
Y131902D01*
X156859Y132035D01*
X157259D01*
X160249Y134169D02*
X160382Y134302D01*
X160649D01*
X160782Y134169D01*
Y133636D01*
X160649Y133502D01*
X160382D01*
X160249Y133636D01*
X159449Y133502D02*
X159982D01*
X159449Y134036D01*
Y134169D01*
X159582Y134302D01*
X159849D01*
X159982Y134169D01*
X158649Y134302D02*
X159183D01*
Y133902D01*
X158916Y134036D01*
X158783D01*
X158649Y133902D01*
Y133636D01*
X158783Y133502D01*
X159049D01*
X159183Y133636D01*
X158383Y134302D02*
X157850D01*
Y134169D01*
X158383Y133636D01*
Y133502D01*
X118428Y119958D02*
X118561Y120091D01*
X118828D01*
X118961Y119958D01*
Y119424D01*
X118828Y119291D01*
X118561D01*
X118428Y119424D01*
X118161D02*
X118028Y119291D01*
X117761D01*
X117628Y119424D01*
Y119958D01*
X117761Y120091D01*
X118028D01*
X118161Y119958D01*
Y119824D01*
X118028Y119691D01*
X117628D01*
X116962Y119291D02*
Y120091D01*
X117361Y119691D01*
X116828D01*
X169012Y117741D02*
Y117075D01*
X168878Y116942D01*
X168612D01*
X168478Y117075D01*
Y117741D01*
X168212Y117608D02*
X168079Y117741D01*
X167812D01*
X167679Y117608D01*
Y117475D01*
X167812Y117341D01*
X167945D01*
X167812D01*
X167679Y117208D01*
Y117075D01*
X167812Y116942D01*
X168079D01*
X168212Y117075D01*
X167012Y116942D02*
Y117741D01*
X167412Y117341D01*
X166879D01*
D442*
X187314Y105044D02*
G03*
X187085Y104308I40491J-12970D01*
G01*
X187085Y104308D02*
G03*
X187149Y103927I331J-141D01*
G01*
X187047Y104282D02*
G03*
X187111Y103901I331J-141D01*
G01*
X187276Y105031D02*
G03*
X187047Y104295I40491J-12970D01*
G01*
X187238Y105057D02*
G03*
X187009Y104320I40491J-12970D01*
G01*
X187200Y105070D02*
G03*
X186971Y104333I40491J-12970D01*
G01*
X187161Y105095D02*
G03*
X186933Y104358I40491J-12970D01*
G01*
X187123Y105120D02*
G03*
X186895Y104384I40491J-12970D01*
G01*
X187085Y105120D02*
G03*
X186857Y104384I40491J-12970D01*
G01*
X187047Y105120D02*
G03*
X186819Y104384I40491J-12970D01*
G01*
X186971Y105006D02*
G03*
X186742Y104269I40491J-12970D01*
G01*
X186882Y104828D02*
G03*
X186653Y104092I40491J-12970D01*
G01*
X187148Y103927D02*
G03*
X187390Y103253I10049J3223D01*
G01*
X187110Y103901D02*
G03*
X187352Y103228I10049J3223D01*
G01*
X187072Y103876D02*
G03*
X187314Y103203I10049J3223D01*
G01*
X186996Y104269D02*
G03*
X187060Y103889I331J-141D01*
G01*
X189054Y105946D02*
G03*
X190019Y106251I96J1376D01*
G01*
X189054Y105946D02*
G03*
X188254Y105908I-311J-1886D01*
G01*
X188241Y105908D02*
G03*
X187758Y105755I141J-1286D01*
G01*
X187885Y104574D02*
G03*
X187911Y104625I-25J45D01*
G01*
X188050Y104676D02*
G03*
X187911Y104638I-59J-59D01*
G01*
X188063Y104638D02*
G03*
X187923Y104600I-59J-59D01*
G01*
X188076Y104600D02*
G03*
X187936Y104562I-59J-59D01*
G01*
X187758Y105755D02*
G03*
X187593Y105590I165J-330D01*
G01*
X190705Y105082D02*
G03*
X189905Y104257I1228J-1991D01*
G01*
X187873Y104574D02*
G03*
X187746Y104104I3662J-1242D01*
G01*
X188609Y104269D02*
G03*
X188063Y104663I-1107J-960D01*
G01*
X188622Y104079D02*
G03*
X188609Y104270I-113J88D01*
G01*
X188571Y104079D02*
G03*
X188558Y104270I-113J88D01*
G01*
X188520Y104092D02*
G03*
X188508Y104282I-113J88D01*
G01*
X188469Y104104D02*
G03*
X188457Y104295I-113J88D01*
G01*
X188571Y104244D02*
G03*
X188025Y104638I-1107J-960D01*
G01*
X188520Y104206D02*
G03*
X187974Y104600I-1107J-960D01*
G01*
X188482Y104181D02*
G03*
X187936Y104574I-1107J-960D01*
G01*
X188457Y104142D02*
G03*
X187911Y104536I-1107J-960D01*
G01*
X188431Y104104D02*
G03*
X187885Y104498I-1107J-960D01*
G01*
X188406Y104054D02*
G03*
X187860Y104447I-1107J-960D01*
G01*
X188393Y104003D02*
G03*
X187847Y104396I-1107J-960D01*
G01*
X188368Y103965D02*
G03*
X187822Y104358I-1107J-960D01*
G01*
X188355Y103914D02*
G03*
X187809Y104308I-1107J-960D01*
G01*
X187898Y104549D02*
G03*
X187771Y104079I3662J-1242D01*
G01*
X187923Y104473D02*
G03*
X187796Y104003I3662J-1242D01*
G01*
X187949Y104396D02*
G03*
X187822Y103927I3662J-1242D01*
G01*
X190832Y102885D02*
G03*
X190768Y102657I1835J-633D01*
G01*
X190781Y102885D02*
G03*
X190717Y102657I1835J-633D01*
G01*
X190743Y102898D02*
G03*
X190679Y102669I1835J-633D01*
G01*
X190692Y102911D02*
G03*
X190629Y102682I1835J-633D01*
G01*
X190641Y102923D02*
G03*
X190578Y102695I1835J-633D01*
G01*
X190590Y102936D02*
G03*
X190527Y102707I1835J-633D01*
G01*
X190540Y102949D02*
G03*
X190476Y102720I1835J-633D01*
G01*
X190489Y102961D02*
G03*
X190425Y102733I1835J-633D01*
G01*
X190438Y102974D02*
G03*
X190375Y102745I1835J-633D01*
G01*
X187682Y102822D02*
G03*
X188012Y102911I151J99D01*
G01*
X188012Y102911D02*
G03*
X187910Y103393I-1043J32D01*
G01*
X187911Y103393D02*
G03*
X187745Y104104I-82937J-18879D01*
G01*
X188266Y103736D02*
G03*
X188622Y104079I-2051J2483D01*
G01*
X188266Y103736D02*
G03*
X188139Y103126I881J-502D01*
G01*
X188139Y103127D02*
G03*
X188444Y102771I416J48D01*
G01*
X188457Y102771D02*
G03*
X188647Y102872I26J182D01*
G01*
X188711Y103101D02*
G03*
X188647Y102872I1835J-633D01*
G01*
X188965Y103419D02*
G03*
X188711Y103101I2275J-2081D01*
G01*
X188965Y103419D02*
G03*
X189384Y103838I-828J1247D01*
G01*
X188101Y103101D02*
G03*
X188406Y102746I416J48D01*
G01*
X188050Y103076D02*
G03*
X188355Y102720I416J48D01*
G01*
X187707Y102784D02*
G03*
X188038Y102872I151J99D01*
G01*
X188050Y102911D02*
G03*
X187949Y103393I-1043J32D01*
G01*
X188088Y102949D02*
G03*
X187987Y103431I-1043J32D01*
G01*
X188126Y102974D02*
G03*
X188025Y103457I-1043J32D01*
G01*
X188228Y103736D02*
G03*
X188101Y103126I881J-502D01*
G01*
X188177Y103749D02*
G03*
X188050Y103139I881J-502D01*
G01*
X188152Y103749D02*
G03*
X188025Y103139I881J-502D01*
G01*
X188215Y103761D02*
G03*
X188571Y104104I-2051J2483D01*
G01*
X188165Y103774D02*
G03*
X188520Y104117I-2051J2483D01*
G01*
X188126Y103800D02*
G03*
X188482Y104142I-2051J2483D01*
G01*
X188342Y103863D02*
G03*
X187796Y104257I-1107J-960D01*
G01*
X187949Y104295D02*
G03*
X187822Y103825I3662J-1242D01*
G01*
X187974Y104219D02*
G03*
X187847Y103749I3662J-1242D01*
G01*
X188000Y104155D02*
G03*
X187873Y103685I3662J-1242D01*
G01*
X188025Y104104D02*
G03*
X187898Y103634I3662J-1242D01*
G01*
X188063Y104079D02*
G03*
X187936Y103609I3662J-1242D01*
G01*
X188101Y104054D02*
G03*
X187974Y103584I3662J-1242D01*
G01*
X188139Y104028D02*
G03*
X188012Y103558I3662J-1242D01*
G01*
X188177Y104028D02*
G03*
X188050Y103558I3662J-1242D01*
G01*
X188241Y104066D02*
G03*
X188114Y103596I3662J-1242D01*
G01*
X188101Y103850D02*
G03*
X187974Y103380I3662J-1242D01*
G01*
X188063Y103876D02*
G03*
X187936Y103406I3662J-1242D01*
G01*
X188038Y103927D02*
G03*
X187911Y103457I3662J-1242D01*
G01*
X188025Y104028D02*
G03*
X187898Y103558I3662J-1242D01*
G01*
X188952Y103355D02*
G03*
X189371Y103774I-828J1247D01*
G01*
X188965Y103330D02*
G03*
X189384Y103749I-828J1247D01*
G01*
X189003Y103304D02*
G03*
X189422Y103723I-828J1247D01*
G01*
X189041Y103292D02*
G03*
X189460Y103711I-828J1247D01*
G01*
X188990Y103381D02*
G03*
X188736Y103063I2275J-2081D01*
G01*
X189028Y103355D02*
G03*
X188774Y103038I2275J-2081D01*
G01*
X189079Y103355D02*
G03*
X188825Y103038I2275J-2081D01*
G01*
X189117Y103342D02*
G03*
X188863Y103025I2275J-2081D01*
G01*
X188749Y103076D02*
G03*
X188685Y102847I1835J-633D01*
G01*
X188800Y103076D02*
G03*
X188736Y102847I1835J-633D01*
G01*
X188838Y103076D02*
G03*
X188774Y102847I1835J-633D01*
G01*
X188889Y103076D02*
G03*
X188825Y102847I1835J-633D01*
G01*
X188863Y102949D02*
G03*
X188800Y102720I1835J-633D01*
G01*
X188812Y102936D02*
G03*
X188749Y102707I1835J-633D01*
G01*
X188774Y102936D02*
G03*
X188711Y102707I1835J-633D01*
G01*
X188724Y102936D02*
G03*
X188660Y102707I1835J-633D01*
G01*
X188660Y102860D02*
G03*
X188597Y102631I1835J-633D01*
G01*
X188609Y102822D02*
G03*
X188546Y102593I1835J-633D01*
G01*
X188089Y102949D02*
G03*
X188025Y102720I1835J-633D01*
G01*
X188127Y102923D02*
G03*
X188063Y102695I1835J-633D01*
G01*
X188165Y102898D02*
G03*
X188101Y102669I1835J-633D01*
G01*
X188203Y102885D02*
G03*
X188139Y102657I1835J-633D01*
G01*
X187390Y103254D02*
G03*
X187669Y102822I1123J420D01*
G01*
X187377Y103203D02*
G03*
X187657Y102771I1123J420D01*
G01*
X187339Y103190D02*
G03*
X187619Y102758I1123J420D01*
G01*
X187581Y102847D02*
G03*
X187517Y102618I1835J-633D01*
G01*
X187542Y102898D02*
G03*
X187479Y102669I1835J-633D01*
G01*
X187504Y102936D02*
G03*
X187441Y102707I1835J-633D01*
G01*
X187466Y102961D02*
G03*
X187403Y102733I1835J-633D01*
G01*
X187428Y102987D02*
G03*
X187365Y102758I1835J-633D01*
G01*
X187390Y102999D02*
G03*
X187327Y102771I1835J-633D01*
G01*
X187060Y105184D02*
X187314Y105044D01*
X185498Y102492D02*
X187060Y105184D01*
X185498Y102492D02*
X191708D01*
X189384Y103838D02*
X191708Y102492D01*
X186780Y104257D02*
X186844Y104396D01*
X185688Y102745D02*
X190933Y102733D01*
X189270Y103673D02*
X190933Y102733D01*
X185612Y102644D02*
X191174Y102631D01*
X189308Y103698D02*
X191174Y102631D01*
X185587Y102606D02*
X191314D01*
X189333Y103736D02*
X191314Y102606D01*
X185587Y102568D02*
X191428D01*
X189358Y103761D02*
X191428Y102568D01*
X185548Y102530D02*
X191568D01*
X189384Y103787D02*
X191568Y102530D01*
X190324Y104752D02*
X190501Y104473D01*
X190247Y104663D02*
X190501Y104473D01*
X190286Y104727D02*
X190413Y104562D01*
X190247Y104676D02*
X190413Y104562D01*
X190260Y104701D02*
X190298Y104650D01*
X190235Y104663D02*
X190298Y104650D01*
X190387Y104803D02*
X190705Y104270D01*
X190222Y104638D02*
X190705Y104270D01*
X190349Y104777D02*
X190603Y104371D01*
X190235Y104650D02*
X190603Y104371D01*
X190451Y104879D02*
X190997Y103977D01*
X190133Y104549D02*
X190997Y103977D01*
X190413Y104854D02*
X190895Y104079D01*
X190158Y104574D02*
X190895Y104079D01*
X190400Y104854D02*
X190794Y104181D01*
X190197Y104600D02*
X190794Y104181D01*
X187365Y105730D02*
X187593Y105590D01*
X187365Y105730D02*
X188838Y108270D01*
X190019Y106251D01*
X187517Y105908D02*
X188838Y108194D01*
X189943Y106301D01*
X187530Y105654D02*
X187606D01*
X190514Y104930D02*
X191174Y103787D01*
X190095Y104498D02*
X191174Y103787D01*
X190489Y104905D02*
X191086Y103888D01*
X190120Y104523D02*
X191086Y103888D01*
X190705Y105082D02*
X191797Y103152D01*
X189904Y104244D02*
X191797Y103152D01*
X190692Y105057D02*
X191708Y103241D01*
X189930Y104270D02*
X191708Y103241D01*
X190654Y105032D02*
X191619Y103330D01*
X189955Y104295D02*
X191619Y103330D01*
X190616Y105006D02*
X191530Y103419D01*
X189981Y104346D02*
X191530Y103419D01*
X190578Y104993D02*
X191441Y103507D01*
X190006Y104396D02*
X191441Y103507D01*
X190565Y104968D02*
X191352Y103596D01*
X190044Y104422D02*
X191352Y103596D01*
X190540Y104943D02*
X191276Y103685D01*
X190082Y104447D02*
X191276Y103685D01*
D443*
X185637Y102695D02*
X191073D01*
X189308Y103711D02*
X191073Y102695D01*
X185714Y102758D02*
X186831Y104689D01*
X186882Y104663D01*
X185764Y102758D02*
X186882Y104663D01*
X185764Y102758D02*
X185840D01*
X186730Y104308D01*
X186768Y104282D01*
X185891Y102745D02*
X186768Y104282D01*
X185891Y102745D02*
X185967D01*
X186895Y104358D01*
X186945Y104333D01*
X186031Y102745D02*
X186945Y104333D01*
X186031Y102745D02*
X186107D01*
X186996Y104295D01*
X187047Y104270D01*
X186158Y102720D02*
X187047Y104270D01*
X186158Y102720D02*
X186234D01*
X186971Y104016D01*
X187009Y103965D01*
X186298Y102720D02*
X187009Y103965D01*
X186298Y102720D02*
X186374D01*
X187047Y103901D01*
X187085Y103838D01*
X186450Y102733D02*
X187085Y103838D01*
X186450Y102733D02*
X186526D01*
X187111Y103761D01*
X187136Y103673D01*
X186590Y102733D02*
X187136Y103673D01*
X186590Y102733D02*
X186666D01*
X187161Y103596D01*
X187199Y103520D01*
X186730Y102720D02*
X187199Y103520D01*
X186730Y102720D02*
X186806D01*
X187238Y103469D01*
X187263Y103406D01*
X186882Y102720D02*
X187263Y103406D01*
X186882Y102720D02*
X186958D01*
X187288Y103317D01*
X187314Y103228D01*
X187034Y102720D02*
X187314Y103228D01*
X187034Y102720D02*
X187111D01*
X187352Y103165D01*
X187390Y103076D01*
X187174Y102720D02*
X187390Y103076D01*
X187174Y102720D02*
X187238D01*
X187352Y102898D01*
X187365Y103101D01*
X187212Y102834D02*
X187365Y103101D01*
X188800Y108143D02*
X188914D01*
Y108079D02*
Y108143D01*
X188749Y108079D02*
X188914D01*
X188749Y108016D02*
Y108079D01*
Y108016D02*
X188952D01*
Y107952D02*
Y108016D01*
X188685Y107952D02*
X188952D01*
X188685Y107889D02*
Y107952D01*
Y107889D02*
X189016D01*
Y107826D02*
Y107889D01*
X188596Y107826D02*
X189016D01*
X188596Y107762D02*
Y107826D01*
Y107762D02*
X189104D01*
Y107699D02*
Y107762D01*
X188533Y107699D02*
X189104D01*
X188533Y107635D02*
Y107699D01*
Y107635D02*
X189181D01*
Y107572D02*
Y107635D01*
X188457Y107572D02*
X189181D01*
X188457Y107508D02*
Y107572D01*
Y107508D02*
X189257D01*
Y107445D02*
Y107508D01*
X188380Y107445D02*
X189257D01*
X188380Y107381D02*
Y107445D01*
Y107381D02*
X189333D01*
Y107317D02*
Y107381D01*
X188304Y107317D02*
X189333D01*
X188304Y107254D02*
Y107317D01*
Y107254D02*
X189409D01*
Y107190D02*
Y107254D01*
X188241Y107190D02*
X189409D01*
X188241Y107127D02*
Y107190D01*
Y107127D02*
X189485D01*
Y107063D02*
Y107127D01*
X188139Y107063D02*
X189485D01*
X188139Y107000D02*
Y107063D01*
Y107000D02*
X189549D01*
Y106937D02*
Y107000D01*
X188076Y106937D02*
X189549D01*
X188076Y106873D02*
Y106937D01*
Y106873D02*
X189638D01*
Y106810D02*
Y106873D01*
X188012Y106810D02*
X189638D01*
X188012Y106746D02*
Y106810D01*
Y106746D02*
X189701D01*
Y106683D02*
Y106746D01*
X187949Y106683D02*
X189701D01*
X187949Y106619D02*
Y106683D01*
Y106619D02*
X189777D01*
Y106555D02*
Y106619D01*
X187860Y106555D02*
X189777D01*
X187860Y106492D02*
Y106555D01*
Y106492D02*
X189854D01*
Y106428D02*
Y106492D01*
X187796Y106428D02*
X189854D01*
X187796Y106365D02*
Y106428D01*
Y106365D02*
X189930D01*
Y106301D02*
Y106365D01*
X187733Y106301D02*
X189930D01*
X187733Y106238D02*
Y106301D01*
Y106238D02*
X189866D01*
Y106174D02*
Y106238D01*
X187644Y106174D02*
X189866D01*
X187644Y106111D02*
Y106174D01*
Y106111D02*
X189638D01*
Y106048D02*
Y106111D01*
X187568Y106048D02*
X189638D01*
X187568Y105984D02*
Y106048D01*
Y105984D02*
X189396D01*
X189473Y106060D01*
X189638D01*
X189739Y106162D01*
X189828D01*
X189955Y106289D01*
X187517Y105921D02*
X188215D01*
X188253Y105959D01*
X188025D02*
X188253D01*
X187923Y105857D02*
X188025Y105959D01*
X187466Y105857D02*
X187923D01*
X187466Y105832D02*
Y105857D01*
X187428Y105794D02*
X187466Y105832D01*
X187428Y105794D02*
X187796D01*
X187822Y105819D01*
X187758D02*
X187822D01*
X187669Y105730D02*
X187758Y105819D01*
X187428Y105730D02*
X187669D01*
X187428D02*
X187492Y105666D01*
X187593D01*
X187618Y105692D01*
X188812Y102796D02*
X190451D01*
Y102860D01*
X188812D02*
X190451D01*
X188812D02*
Y102923D01*
X190451D01*
Y102987D01*
X188850D02*
X190451D01*
X188850D02*
Y103050D01*
X190387D01*
Y103114D01*
X188927D02*
X190387D01*
X188927D02*
Y103177D01*
X190171D01*
Y103241D01*
X188990D02*
X190171D01*
X188990D02*
Y103304D01*
X189981D01*
Y103368D01*
X189117D02*
X189981D01*
X189117D02*
Y103431D01*
X189739D01*
Y103495D01*
X189257D02*
X189739D01*
X189257D02*
Y103558D01*
X189574D01*
M02*
