G04 Layer_Color=8421504*
%FSLAX43Y43*%
%MOMM*%
G71*
G01*
G75*
%ADD55R,0.550X0.250*%
%ADD56R,0.250X0.550*%
%ADD85C,0.152*%
%ADD198C,0.025*%
%ADD202R,1.900X1.900*%
%ADD203R,0.640X0.340*%
%ADD204C,0.615*%
%ADD205R,0.740X0.740*%
%ADD206R,0.740X0.740*%
%ADD207R,1.337X1.489*%
%ADD208O,3.980X1.980*%
%ADD209R,0.956X0.346*%
%ADD210C,0.996*%
%ADD211R,1.032X1.083*%
%ADD212R,1.134X1.090*%
%ADD213R,2.440X0.940*%
%ADD214O,1.080X0.780*%
%ADD215R,0.940X1.540*%
%ADD216O,0.780X1.080*%
%ADD217R,1.032X0.981*%
%ADD218R,0.981X1.032*%
%ADD219R,1.286X1.464*%
%ADD220R,1.464X1.286*%
%ADD221C,0.330*%
%ADD222R,1.540X0.940*%
%ADD223R,1.740X0.940*%
%ADD224R,1.440X0.540*%
%ADD225R,0.540X0.740*%
%ADD226O,0.680X0.330*%
%ADD227O,0.330X0.680*%
%ADD228R,1.940X2.540*%
%ADD229R,0.700X1.190*%
%ADD230R,0.615X0.190*%
%ADD231R,1.590X2.320*%
%ADD232R,1.240X1.440*%
%ADD233R,1.040X0.240*%
%ADD234R,0.575X0.448*%
%ADD235R,3.440X1.940*%
%ADD236R,2.240X0.440*%
%ADD237R,3.940X1.940*%
%ADD238R,0.690X0.290*%
%ADD239C,0.430*%
%ADD240C,0.336*%
%ADD241R,2.940X1.940*%
%ADD242R,2.440X1.140*%
%ADD243R,2.099X1.140*%
%ADD244R,0.340X0.790*%
%ADD245R,0.240X0.590*%
%ADD246R,0.250X0.780*%
%ADD247R,0.250X0.170*%
%ADD248O,0.430X1.680*%
%ADD249R,0.940X1.140*%
%ADD250R,3.340X3.990*%
%ADD251O,0.930X0.480*%
%ADD252O,0.280X0.730*%
%ADD253O,0.730X0.280*%
%ADD254R,2.040X2.040*%
%ADD255O,0.230X0.680*%
%ADD256O,0.680X0.230*%
%ADD257R,0.240X1.590*%
%ADD258R,0.488X0.234*%
%ADD259R,0.448X0.346*%
%ADD260R,1.083X1.032*%
%ADD261R,0.940X1.140*%
%ADD262O,0.830X0.210*%
%ADD263O,0.210X0.830*%
%ADD264R,1.590X2.340*%
%ADD265R,0.956X0.829*%
%ADD266R,6.340X8.740*%
%ADD267R,0.740X3.190*%
%ADD268R,0.830X0.180*%
%ADD269R,0.180X0.830*%
%ADD270R,0.245X0.448*%
%ADD271R,0.448X0.245*%
%ADD272R,0.390X0.240*%
%ADD273C,0.380*%
%ADD274R,0.940X1.740*%
%ADD275R,1.337X1.083*%
D55*
X123454Y140885D02*
D03*
Y141385D02*
D03*
X126354D02*
D03*
Y140885D02*
D03*
D56*
X123655Y142585D02*
D03*
X124155D02*
D03*
X124655D02*
D03*
X125155D02*
D03*
X125655D02*
D03*
X126155D02*
D03*
Y139685D02*
D03*
X125655D02*
D03*
X125155D02*
D03*
X124655D02*
D03*
X124155D02*
D03*
X123655D02*
D03*
D85*
X137381Y153314D02*
X138113Y152582D01*
X137169Y153314D02*
X138113Y152370D01*
X138000Y152210D02*
X138113Y152323D01*
X137787Y152210D02*
X138113Y152536D01*
X138017Y153314D02*
X138113Y153218D01*
X137805Y153314D02*
X138113Y153006D01*
X137593Y153314D02*
X138113Y152794D01*
Y152210D02*
Y153314D01*
X137151Y152210D02*
X138113Y153172D01*
X136958Y152210D02*
X138113D01*
X137575D02*
X138113Y152748D01*
X137363Y152210D02*
X138113Y152960D01*
X136958Y152677D02*
X137425Y152210D01*
X136958Y152228D02*
X138044Y153314D01*
X136958Y152440D02*
X137832Y153314D01*
X136958D02*
X138113D01*
X136958Y152228D02*
X138044Y153314D01*
X136958Y152865D02*
X137407Y153314D01*
X136958Y153077D02*
X137195Y153314D01*
X136958Y152653D02*
X137620Y153314D01*
X136958Y153313D02*
X138062Y152210D01*
X136958Y153313D02*
X138062Y152210D01*
X136958Y153101D02*
X137850Y152210D01*
X136958Y152889D02*
X137637Y152210D01*
X136958D02*
Y153314D01*
Y152465D02*
X137213Y152210D01*
X138779Y153322D02*
X139511Y152590D01*
X138566Y153322D02*
X139511Y152378D01*
X139397Y152217D02*
X139511Y152331D01*
X139185Y152217D02*
X139511Y152543D01*
X139415Y153322D02*
X139511Y153226D01*
X139203Y153322D02*
X139511Y153014D01*
X138991Y153322D02*
X139511Y152802D01*
Y152217D02*
Y153322D01*
X138549Y152217D02*
X139511Y153180D01*
X138355Y152217D02*
X139511D01*
X138973D02*
X139511Y152756D01*
X138761Y152217D02*
X139511Y152968D01*
X138355Y152685D02*
X138823Y152217D01*
X138355Y152236D02*
X139441Y153322D01*
X138355Y152448D02*
X139229Y153322D01*
X138355D02*
X139511D01*
X138355Y152236D02*
X139441Y153322D01*
X138355Y152873D02*
X138805Y153322D01*
X138355Y153085D02*
X138593Y153322D01*
X138355Y152661D02*
X139017Y153322D01*
X138355Y153321D02*
X139459Y152217D01*
X138355Y153321D02*
X139459Y152217D01*
X138355Y153109D02*
X139247Y152217D01*
X138355Y152897D02*
X139035Y152217D01*
X138355D02*
Y153322D01*
Y152473D02*
X138611Y152217D01*
X140169Y153314D02*
X140902Y152582D01*
X139957Y153314D02*
X140902Y152370D01*
X140788Y152210D02*
X140902Y152323D01*
X140576Y152210D02*
X140902Y152536D01*
X140806Y153314D02*
X140902Y153218D01*
X140594Y153314D02*
X140902Y153006D01*
X140382Y153314D02*
X140902Y152794D01*
Y152210D02*
Y153314D01*
X139939Y152210D02*
X140902Y153172D01*
X139746Y152210D02*
X140902D01*
X140364D02*
X140902Y152748D01*
X140151Y152210D02*
X140902Y152960D01*
X139746Y152677D02*
X140214Y152210D01*
X139746Y152228D02*
X140832Y153314D01*
X139746Y152440D02*
X140620Y153314D01*
X139746D02*
X140902D01*
X139746Y152228D02*
X140832Y153314D01*
X139746Y152865D02*
X140196Y153314D01*
X139746Y153077D02*
X139984Y153314D01*
X139746Y152653D02*
X140408Y153314D01*
X139746Y153313D02*
X140850Y152210D01*
X139746Y153313D02*
X140850Y152210D01*
X139746Y153101D02*
X140638Y152210D01*
X139746Y152889D02*
X140426Y152210D01*
X139746D02*
Y153314D01*
Y152465D02*
X140001Y152210D01*
X137381Y154775D02*
X138113Y154043D01*
X137169Y154775D02*
X138113Y153830D01*
X138000Y153670D02*
X138113Y153784D01*
X137787Y153670D02*
X138113Y153996D01*
X138017Y154775D02*
X138113Y154679D01*
X137805Y154775D02*
X138113Y154467D01*
X137593Y154775D02*
X138113Y154255D01*
Y153670D02*
Y154775D01*
X137151Y153670D02*
X138113Y154632D01*
X136958Y153670D02*
X138113D01*
X137575D02*
X138113Y154208D01*
X137363Y153670D02*
X138113Y154420D01*
X136958Y154138D02*
X137425Y153670D01*
X136958Y153689D02*
X138044Y154775D01*
X136958Y153901D02*
X137832Y154775D01*
X136958D02*
X138113D01*
X136958Y153689D02*
X138044Y154775D01*
X136958Y154325D02*
X137407Y154775D01*
X136958Y154537D02*
X137195Y154775D01*
X136958Y154113D02*
X137620Y154775D01*
X136958Y154774D02*
X138062Y153670D01*
X136958Y154774D02*
X138062Y153670D01*
X136958Y154562D02*
X137850Y153670D01*
X136958Y154350D02*
X137637Y153670D01*
X136958D02*
Y154775D01*
Y153925D02*
X137213Y153670D01*
X138779Y154783D02*
X139511Y154051D01*
X138566Y154783D02*
X139511Y153838D01*
X139397Y153678D02*
X139511Y153792D01*
X139185Y153678D02*
X139511Y154004D01*
X139415Y154783D02*
X139511Y154687D01*
X139203Y154783D02*
X139511Y154475D01*
X138991Y154783D02*
X139511Y154263D01*
Y153678D02*
Y154783D01*
X138549Y153678D02*
X139511Y154640D01*
X138355Y153678D02*
X139511D01*
X138973D02*
X139511Y154216D01*
X138761Y153678D02*
X139511Y154428D01*
X138355Y154146D02*
X138823Y153678D01*
X138355Y153697D02*
X139441Y154783D01*
X138355Y153909D02*
X139229Y154783D01*
X138355D02*
X139511D01*
X138355Y153697D02*
X139441Y154783D01*
X138355Y154333D02*
X138805Y154783D01*
X138355Y154545D02*
X138593Y154783D01*
X138355Y154121D02*
X139017Y154783D01*
X138355Y154782D02*
X139459Y153678D01*
X138355Y154782D02*
X139459Y153678D01*
X138355Y154570D02*
X139247Y153678D01*
X138355Y154358D02*
X139035Y153678D01*
X138355D02*
Y154783D01*
Y153933D02*
X138611Y153678D01*
X140169Y154775D02*
X140902Y154043D01*
X139957Y154775D02*
X140902Y153830D01*
X140788Y153670D02*
X140902Y153784D01*
X140576Y153670D02*
X140902Y153996D01*
X140806Y154775D02*
X140902Y154679D01*
X140594Y154775D02*
X140902Y154467D01*
X140382Y154775D02*
X140902Y154255D01*
Y153670D02*
Y154775D01*
X139939Y153670D02*
X140902Y154632D01*
X139746Y153670D02*
X140902D01*
X140364D02*
X140902Y154208D01*
X140151Y153670D02*
X140902Y154420D01*
X139746Y154138D02*
X140214Y153670D01*
X139746Y153689D02*
X140832Y154775D01*
X139746Y153901D02*
X140620Y154775D01*
X139746D02*
X140902D01*
X139746Y153689D02*
X140832Y154775D01*
X139746Y154325D02*
X140196Y154775D01*
X139746Y154537D02*
X139984Y154775D01*
X139746Y154113D02*
X140408Y154775D01*
X139746Y154774D02*
X140850Y153670D01*
X139746Y154774D02*
X140850Y153670D01*
X139746Y154562D02*
X140638Y153670D01*
X139746Y154350D02*
X140426Y153670D01*
X139746D02*
Y154775D01*
Y153925D02*
X140001Y153670D01*
X140169Y156223D02*
X140902Y155490D01*
X139957Y156223D02*
X140902Y155278D01*
X140788Y155118D02*
X140902Y155232D01*
X140576Y155118D02*
X140902Y155444D01*
X140806Y156223D02*
X140902Y156127D01*
X140594Y156223D02*
X140902Y155915D01*
X140382Y156223D02*
X140902Y155702D01*
Y155118D02*
Y156223D01*
X139939Y155118D02*
X140902Y156080D01*
X139746Y155118D02*
X140902D01*
X140364D02*
X140902Y155656D01*
X140151Y155118D02*
X140902Y155868D01*
X139746Y155585D02*
X140214Y155118D01*
X139746Y155137D02*
X140832Y156223D01*
X139746Y155349D02*
X140620Y156223D01*
X139746D02*
X140902D01*
X139746Y155137D02*
X140832Y156223D01*
X139746Y155773D02*
X140196Y156223D01*
X139746Y155985D02*
X139984Y156223D01*
X139746Y155561D02*
X140408Y156223D01*
X139746Y156222D02*
X140850Y155118D01*
X139746Y156222D02*
X140850Y155118D01*
X139746Y156010D02*
X140638Y155118D01*
X139746Y155798D02*
X140426Y155118D01*
X139746D02*
Y156223D01*
Y155373D02*
X140001Y155118D01*
X138779Y156231D02*
X139511Y155498D01*
X138566Y156231D02*
X139511Y155286D01*
X139397Y155126D02*
X139511Y155240D01*
X139185Y155126D02*
X139511Y155452D01*
X139415Y156231D02*
X139511Y156135D01*
X139203Y156231D02*
X139511Y155923D01*
X138991Y156231D02*
X139511Y155710D01*
Y155126D02*
Y156231D01*
X138549Y155126D02*
X139511Y156088D01*
X138355Y155126D02*
X139511D01*
X138973D02*
X139511Y155664D01*
X138761Y155126D02*
X139511Y155876D01*
X138355Y155593D02*
X138823Y155126D01*
X138355Y155145D02*
X139441Y156231D01*
X138355Y155357D02*
X139229Y156231D01*
X138355D02*
X139511D01*
X138355Y155145D02*
X139441Y156231D01*
X138355Y155781D02*
X138805Y156231D01*
X138355Y155993D02*
X138593Y156231D01*
X138355Y155569D02*
X139017Y156231D01*
X138355Y156230D02*
X139459Y155126D01*
X138355Y156230D02*
X139459Y155126D01*
X138355Y156018D02*
X139247Y155126D01*
X138355Y155805D02*
X139035Y155126D01*
X138355D02*
Y156231D01*
Y155381D02*
X138611Y155126D01*
X138017Y156223D02*
X138113Y156127D01*
X137381Y156223D02*
X138113Y155490D01*
X137805Y156223D02*
X138113Y155915D01*
X137593Y156223D02*
X138113Y155702D01*
X137169Y156223D02*
X138113Y155278D01*
X136958Y155349D02*
X137832Y156223D01*
X138113Y155118D02*
Y156223D01*
X137787Y155118D02*
X138113Y155444D01*
X137151Y155118D02*
X138113Y156080D01*
X138000Y155118D02*
X138113Y155232D01*
X137363Y155118D02*
X138113Y155868D01*
X136958Y156222D02*
X138062Y155118D01*
X137575D02*
X138113Y155656D01*
X136958Y155137D02*
X138044Y156223D01*
X136958Y155561D02*
X137620Y156223D01*
X136958D02*
X138113D01*
X136958Y155137D02*
X138044Y156223D01*
X136958Y155985D02*
X137195Y156223D01*
X136958Y155773D02*
X137407Y156223D01*
X136958Y155373D02*
X137213Y155118D01*
X136958Y156010D02*
X137850Y155118D01*
X136958Y156222D02*
X138062Y155118D01*
X136958D02*
X138113D01*
X136958Y155798D02*
X137637Y155118D01*
X136958D02*
Y156223D01*
Y155585D02*
X137425Y155118D01*
X122555Y130658D02*
X123626Y129587D01*
X122343Y130658D02*
X123626Y129375D01*
Y129353D02*
Y130658D01*
X122343D02*
X123626Y129375D01*
X123404Y130658D02*
X123626Y130436D01*
X123192Y130658D02*
X123626Y130224D01*
X122979Y130658D02*
X123626Y130011D01*
X122767Y130658D02*
X123626Y129799D01*
X123351Y129353D02*
X123626Y129628D01*
X123139Y129353D02*
X123626Y129840D01*
X123564Y129353D02*
X123626Y129415D01*
X122250Y129353D02*
X123626D01*
X122503D02*
X123626Y130476D01*
X122291Y129353D02*
X123595Y130658D01*
X122927Y129353D02*
X123626Y130052D01*
X122715Y129353D02*
X123626Y130264D01*
X122219Y129706D02*
X123171Y130658D01*
X122217Y129492D02*
X123383Y130658D01*
X122229D02*
X123626D01*
X122217Y129492D02*
X123383Y130658D01*
X122228Y130563D02*
X122322Y130658D01*
X122226Y130349D02*
X122534Y130658D01*
X122224Y130135D02*
X122746Y130658D01*
X122221Y129921D02*
X122959Y130658D01*
X122228Y130561D02*
X123435Y129353D01*
X122226Y130351D02*
X123223Y129353D01*
X122224Y130141D02*
X123011Y129353D01*
X122222Y129931D02*
X122799Y129353D01*
X122220Y129720D02*
X122587Y129353D01*
X122216Y129350D02*
X122229Y130658D01*
X122218Y129510D02*
X122375Y129353D01*
X120888Y130658D02*
X121958Y129587D01*
X120676Y130658D02*
X121958Y129375D01*
Y129353D02*
Y130658D01*
X120675D02*
X121958Y129375D01*
X121736Y130658D02*
X121958Y130436D01*
X121524Y130658D02*
X121958Y130224D01*
X121312Y130658D02*
X121958Y130011D01*
X121100Y130658D02*
X121958Y129799D01*
X121684Y129353D02*
X121958Y129628D01*
X121472Y129353D02*
X121958Y129840D01*
X121896Y129353D02*
X121958Y129415D01*
X120583Y129353D02*
X121958D01*
X120835D02*
X121958Y130476D01*
X120623Y129353D02*
X121927Y130658D01*
X121260Y129353D02*
X121958Y130052D01*
X121047Y129353D02*
X121958Y130264D01*
X120552Y129706D02*
X121503Y130658D01*
X120550Y129492D02*
X121715Y130658D01*
X120561D02*
X121958D01*
X120550Y129492D02*
X121715Y130658D01*
X120560Y130563D02*
X120655Y130658D01*
X120558Y130349D02*
X120867Y130658D01*
X120556Y130135D02*
X121079Y130658D01*
X120554Y129921D02*
X121291Y130658D01*
X120560Y130561D02*
X121768Y129353D01*
X120558Y130351D02*
X121555Y129353D01*
X120556Y130141D02*
X121343Y129353D01*
X120554Y129931D02*
X121131Y129353D01*
X120552Y129720D02*
X120919Y129353D01*
X120548Y129350D02*
X120561Y130658D01*
X120550Y129510D02*
X120707Y129353D01*
X122564Y132423D02*
X123634Y131352D01*
X122352Y132423D02*
X123634Y131140D01*
Y131119D02*
Y132423D01*
X122352D02*
X123634Y131140D01*
X123413Y132423D02*
X123634Y132201D01*
X123200Y132423D02*
X123634Y131989D01*
X122988Y132423D02*
X123634Y131777D01*
X122776Y132423D02*
X123634Y131565D01*
X123360Y131119D02*
X123634Y131393D01*
X123148Y131119D02*
X123634Y131605D01*
X123572Y131119D02*
X123634Y131181D01*
X122259Y131119D02*
X123634D01*
X122512D02*
X123634Y132241D01*
X122300Y131119D02*
X123604Y132423D01*
X122936Y131119D02*
X123634Y131817D01*
X122724Y131119D02*
X123634Y132029D01*
X122228Y131472D02*
X123180Y132423D01*
X122226Y131257D02*
X123392Y132423D01*
X122238D02*
X123634D01*
X122226Y131257D02*
X123392Y132423D01*
X122237Y132328D02*
X122331Y132423D01*
X122234Y132114D02*
X122543Y132423D01*
X122232Y131900D02*
X122755Y132423D01*
X122230Y131686D02*
X122967Y132423D01*
X122237Y132326D02*
X123444Y131119D01*
X122235Y132116D02*
X123232Y131119D01*
X122232Y131906D02*
X123020Y131119D01*
X122230Y131696D02*
X122808Y131119D01*
X122228Y131486D02*
X122595Y131119D01*
X122225Y131115D02*
X122238Y132423D01*
X122226Y131276D02*
X122383Y131119D01*
X120856Y132423D02*
X121927Y131352D01*
X120644Y132423D02*
X121927Y131140D01*
Y131119D02*
Y132423D01*
X120644D02*
X121927Y131140D01*
X121705Y132423D02*
X121927Y132201D01*
X121493Y132423D02*
X121927Y131989D01*
X121280Y132423D02*
X121927Y131777D01*
X121068Y132423D02*
X121927Y131565D01*
X121652Y131119D02*
X121927Y131393D01*
X121440Y131119D02*
X121927Y131605D01*
X121865Y131119D02*
X121927Y131181D01*
X120551Y131119D02*
X121927D01*
X120804D02*
X121927Y132241D01*
X120592Y131119D02*
X121896Y132423D01*
X121228Y131119D02*
X121927Y131817D01*
X121016Y131119D02*
X121927Y132029D01*
X120520Y131472D02*
X121472Y132423D01*
X120518Y131257D02*
X121684Y132423D01*
X120530D02*
X121927D01*
X120518Y131257D02*
X121684Y132423D01*
X120529Y132328D02*
X120623Y132423D01*
X120527Y132114D02*
X120835Y132423D01*
X120525Y131900D02*
X121047Y132423D01*
X120523Y131686D02*
X121260Y132423D01*
X120529Y132326D02*
X121736Y131119D01*
X120527Y132116D02*
X121524Y131119D01*
X120525Y131906D02*
X121312Y131119D01*
X120523Y131696D02*
X121100Y131119D01*
X120521Y131486D02*
X120888Y131119D01*
X120517Y131115D02*
X120530Y132423D01*
X120519Y131276D02*
X120676Y131119D01*
X122553Y134146D02*
X123623Y133076D01*
X122341Y134146D02*
X123623Y132864D01*
Y132842D02*
Y134146D01*
X122341D02*
X123623Y132864D01*
X123401Y134146D02*
X123623Y133924D01*
X123189Y134146D02*
X123623Y133712D01*
X122977Y134146D02*
X123623Y133500D01*
X122765Y134146D02*
X123623Y133288D01*
X123349Y132842D02*
X123623Y133116D01*
X123137Y132842D02*
X123623Y133328D01*
X123561Y132842D02*
X123623Y132904D01*
X122248Y132842D02*
X123623D01*
X122500D02*
X123623Y133965D01*
X122288Y132842D02*
X123592Y134146D01*
X122925Y132842D02*
X123623Y133541D01*
X122713Y132842D02*
X123623Y133753D01*
X122217Y133195D02*
X123168Y134146D01*
X122215Y132981D02*
X123380Y134146D01*
X122226D02*
X123623D01*
X122215Y132981D02*
X123380Y134146D01*
X122225Y134052D02*
X122320Y134146D01*
X122223Y133838D02*
X122532Y134146D01*
X122221Y133623D02*
X122744Y134146D01*
X122219Y133409D02*
X122956Y134146D01*
X122225Y134049D02*
X123433Y132842D01*
X122223Y133839D02*
X123221Y132842D01*
X122221Y133629D02*
X123008Y132842D01*
X122219Y133419D02*
X122796Y132842D01*
X122217Y133209D02*
X122584Y132842D01*
X122213Y132838D02*
X122226Y134146D01*
X122215Y132999D02*
X122372Y132842D01*
X120834Y134149D02*
X121904Y133078D01*
X120621Y134149D02*
X121904Y132866D01*
Y132844D02*
Y134149D01*
X120621D02*
X121904Y132866D01*
X121682Y134149D02*
X121904Y133927D01*
X121470Y134149D02*
X121904Y133715D01*
X121258Y134149D02*
X121904Y133502D01*
X121046Y134149D02*
X121904Y133290D01*
X121630Y132844D02*
X121904Y133119D01*
X121418Y132844D02*
X121904Y133331D01*
X121842Y132844D02*
X121904Y132906D01*
X120529Y132844D02*
X121904D01*
X120781D02*
X121904Y133967D01*
X120569Y132844D02*
X121873Y134149D01*
X121206Y132844D02*
X121904Y133543D01*
X120993Y132844D02*
X121904Y133755D01*
X120498Y133197D02*
X121449Y134149D01*
X120496Y132983D02*
X121661Y134149D01*
X120507D02*
X121904D01*
X120496Y132983D02*
X121661Y134149D01*
X120506Y134054D02*
X120601Y134149D01*
X120504Y133840D02*
X120813Y134149D01*
X120502Y133626D02*
X121025Y134149D01*
X120500Y133412D02*
X121237Y134149D01*
X120506Y134052D02*
X121714Y132844D01*
X120504Y133842D02*
X121501Y132844D01*
X120502Y133632D02*
X121289Y132844D01*
X120500Y133422D02*
X121077Y132844D01*
X120498Y133211D02*
X120865Y132844D01*
X120494Y132840D02*
X120507Y134149D01*
X120496Y133001D02*
X120653Y132844D01*
X119148Y130683D02*
X120218Y129613D01*
X118936Y130683D02*
X120218Y129400D01*
Y129379D02*
Y130683D01*
X118936D02*
X120218Y129400D01*
X119996Y130683D02*
X120218Y130461D01*
X119784Y130683D02*
X120218Y130249D01*
X119572Y130683D02*
X120218Y130037D01*
X119360Y130683D02*
X120218Y129825D01*
X119944Y129379D02*
X120218Y129653D01*
X119732Y129379D02*
X120218Y129865D01*
X120156Y129379D02*
X120218Y129441D01*
X118843Y129379D02*
X120218D01*
X119095D02*
X120218Y130502D01*
X118883Y129379D02*
X120188Y130683D01*
X119520Y129379D02*
X120218Y130077D01*
X119308Y129379D02*
X120218Y130289D01*
X118812Y129732D02*
X119763Y130683D01*
X118810Y129518D02*
X119975Y130683D01*
X118821D02*
X120218D01*
X118810Y129518D02*
X119975Y130683D01*
X118820Y130589D02*
X118915Y130683D01*
X118818Y130374D02*
X119127Y130683D01*
X118816Y130160D02*
X119339Y130683D01*
X118814Y129946D02*
X119551Y130683D01*
X118820Y130586D02*
X120028Y129379D01*
X118818Y130376D02*
X119816Y129379D01*
X118816Y130166D02*
X119603Y129379D01*
X118814Y129956D02*
X119391Y129379D01*
X118812Y129746D02*
X119179Y129379D01*
X118809Y129375D02*
X118821Y130683D01*
X118810Y129536D02*
X118967Y129379D01*
X119135Y132436D02*
X120205Y131365D01*
X118923Y132436D02*
X120205Y131153D01*
Y131131D02*
Y132436D01*
X118923D02*
X120205Y131153D01*
X119984Y132436D02*
X120205Y132214D01*
X119771Y132436D02*
X120205Y132002D01*
X119559Y132436D02*
X120205Y131789D01*
X119347Y132436D02*
X120205Y131577D01*
X119931Y131131D02*
X120205Y131406D01*
X119719Y131131D02*
X120205Y131618D01*
X120143Y131131D02*
X120205Y131193D01*
X118830Y131131D02*
X120205D01*
X119083D02*
X120205Y132254D01*
X118871Y131131D02*
X120175Y132436D01*
X119507Y131131D02*
X120205Y131830D01*
X119295Y131131D02*
X120205Y132042D01*
X118799Y131484D02*
X119751Y132436D01*
X118797Y131270D02*
X119963Y132436D01*
X118809D02*
X120205D01*
X118797Y131270D02*
X119963Y132436D01*
X118808Y132341D02*
X118902Y132436D01*
X118805Y132127D02*
X119114Y132436D01*
X118803Y131913D02*
X119326Y132436D01*
X118801Y131699D02*
X119538Y132436D01*
X118808Y132339D02*
X120015Y131131D01*
X118806Y132129D02*
X119803Y131131D01*
X118803Y131919D02*
X119591Y131131D01*
X118801Y131709D02*
X119379Y131131D01*
X118799Y131498D02*
X119166Y131131D01*
X118796Y131128D02*
X118809Y132436D01*
X118797Y131288D02*
X118954Y131131D01*
X119122Y134163D02*
X120193Y133092D01*
X118910Y134163D02*
X120193Y132880D01*
Y132859D02*
Y134163D01*
X118910D02*
X120193Y132880D01*
X119971Y134163D02*
X120193Y133941D01*
X119759Y134163D02*
X120193Y133729D01*
X119547Y134163D02*
X120193Y133517D01*
X119334Y134163D02*
X120193Y133304D01*
X119919Y132859D02*
X120193Y133133D01*
X119706Y132859D02*
X120193Y133345D01*
X120131Y132859D02*
X120193Y132921D01*
X118818Y132859D02*
X120193D01*
X119070D02*
X120193Y133981D01*
X118858Y132859D02*
X120162Y134163D01*
X119494Y132859D02*
X120193Y133557D01*
X119282Y132859D02*
X120193Y133769D01*
X118787Y133212D02*
X119738Y134163D01*
X118784Y132997D02*
X119950Y134163D01*
X118796D02*
X120193D01*
X118784Y132997D02*
X119950Y134163D01*
X118795Y134068D02*
X118889Y134163D01*
X118793Y133854D02*
X119101Y134163D01*
X118791Y133640D02*
X119314Y134163D01*
X118789Y133426D02*
X119526Y134163D01*
X118795Y134066D02*
X120002Y132859D01*
X118793Y133856D02*
X119790Y132859D01*
X118791Y133646D02*
X119578Y132859D01*
X118789Y133436D02*
X119366Y132859D01*
X118787Y133226D02*
X119154Y132859D01*
X118783Y132855D02*
X118796Y134163D01*
X118785Y133016D02*
X118942Y132859D01*
D198*
X140961Y152200D02*
Y153350D01*
X139811D02*
X140961D01*
X139811Y152200D02*
Y153350D01*
Y152200D02*
X140961D01*
Y153650D02*
Y154800D01*
X139811D02*
X140961D01*
X139811Y153650D02*
Y154800D01*
Y153650D02*
X140961D01*
Y155100D02*
Y156250D01*
X139811D02*
X140961D01*
X139811Y155100D02*
Y156250D01*
Y155100D02*
X140961D01*
X139511Y152200D02*
Y153350D01*
X138361D02*
X139511D01*
X138361Y152200D02*
Y153350D01*
Y152200D02*
X139511D01*
Y153650D02*
Y154800D01*
X138361D02*
X139511D01*
X138361Y153650D02*
Y154800D01*
Y153650D02*
X139511D01*
Y155100D02*
Y156250D01*
X138361D02*
X139511D01*
X138361Y155100D02*
Y156250D01*
Y155100D02*
X139511D01*
X138061D02*
Y156250D01*
X136911D02*
X138061D01*
X136911Y155100D02*
Y156250D01*
Y155100D02*
X138061D01*
Y152200D02*
Y153350D01*
X136911D02*
X138061D01*
X136911Y152200D02*
Y153350D01*
Y152200D02*
X138061D01*
Y153650D02*
Y154800D01*
X136911D02*
X138061D01*
X136911Y153650D02*
Y154800D01*
Y153650D02*
X138061D01*
D202*
X115278Y141592D02*
D03*
D203*
X159884Y147792D02*
D03*
Y147142D02*
D03*
Y146492D02*
D03*
X161934Y146492D02*
D03*
Y147792D02*
D03*
X159884Y150789D02*
D03*
Y150139D02*
D03*
Y149489D02*
D03*
X161934Y149489D02*
D03*
Y150789D02*
D03*
D204*
X128753Y140500D02*
D03*
Y141516D02*
D03*
X110757Y141503D02*
D03*
X111773D02*
D03*
X110757Y140627D02*
D03*
X111773D02*
D03*
X116421Y137770D02*
D03*
X115405D02*
D03*
X109436Y144920D02*
D03*
Y143904D02*
D03*
Y141910D02*
D03*
Y142926D02*
D03*
X110757Y139725D02*
D03*
X111773D02*
D03*
X111722Y145986D02*
D03*
X110706D02*
D03*
X126589Y131864D02*
D03*
X127589D02*
D03*
X115837Y130962D02*
D03*
X116853D02*
D03*
X122784Y125222D02*
D03*
Y126238D02*
D03*
X119850Y125273D02*
D03*
Y126289D02*
D03*
X118047Y110790D02*
D03*
Y111790D02*
D03*
X116819Y132575D02*
D03*
X115819D02*
D03*
X118948Y136685D02*
D03*
Y137685D02*
D03*
X119812Y136687D02*
D03*
Y137687D02*
D03*
X120625Y137685D02*
D03*
Y136685D02*
D03*
X121539Y137685D02*
D03*
Y136685D02*
D03*
X122403Y137685D02*
D03*
Y136685D02*
D03*
X123317Y137698D02*
D03*
Y136698D02*
D03*
X126576Y129870D02*
D03*
X127576D02*
D03*
X126576Y130747D02*
D03*
X127576D02*
D03*
X118148Y137685D02*
D03*
Y136685D02*
D03*
X115832Y130111D02*
D03*
X116832D02*
D03*
X115807Y128829D02*
D03*
X116807D02*
D03*
X115438Y135649D02*
D03*
X116438D02*
D03*
X115438Y136550D02*
D03*
X116438D02*
D03*
X176252Y151899D02*
D03*
Y150899D02*
D03*
X130660Y124158D02*
D03*
X129644D02*
D03*
X150193Y126418D02*
D03*
Y127434D02*
D03*
X138331Y133276D02*
D03*
Y134292D02*
D03*
X130061Y134633D02*
D03*
Y135649D02*
D03*
X143154Y134176D02*
D03*
Y133160D02*
D03*
X146228Y136639D02*
D03*
Y135623D02*
D03*
X140195Y160719D02*
D03*
Y159702D02*
D03*
X145732Y133845D02*
D03*
Y132829D02*
D03*
X157185Y150713D02*
D03*
X158185D02*
D03*
X156034Y151509D02*
D03*
Y152509D02*
D03*
X158210Y151602D02*
D03*
X157210D02*
D03*
X117654Y145438D02*
D03*
Y146438D02*
D03*
X118594Y146439D02*
D03*
Y145439D02*
D03*
X128740Y124155D02*
D03*
X127724D02*
D03*
X118224Y120371D02*
D03*
X119240D02*
D03*
Y119558D02*
D03*
X118224D02*
D03*
Y118720D02*
D03*
X119240D02*
D03*
X118224Y117793D02*
D03*
X119240D02*
D03*
X118224Y114313D02*
D03*
X119240D02*
D03*
Y115341D02*
D03*
X118224D02*
D03*
X110237Y127752D02*
D03*
X109221D02*
D03*
X111101D02*
D03*
X112117D02*
D03*
X137569Y134292D02*
D03*
Y133276D02*
D03*
X136807Y134292D02*
D03*
Y133276D02*
D03*
X136020Y134267D02*
D03*
Y133251D02*
D03*
X118047Y109855D02*
D03*
X119062D02*
D03*
X120421Y104407D02*
D03*
X121437D02*
D03*
X124549Y106185D02*
D03*
X123533D02*
D03*
X119024Y107988D02*
D03*
X118008D02*
D03*
X128171Y111661D02*
D03*
X129187D02*
D03*
X131600Y104396D02*
D03*
X130584D02*
D03*
X128628Y113033D02*
D03*
X127612D02*
D03*
X129781Y140449D02*
D03*
Y141465D02*
D03*
X132918Y135458D02*
D03*
Y136474D02*
D03*
X132893Y134849D02*
D03*
Y133833D02*
D03*
X142775Y160705D02*
D03*
Y159689D02*
D03*
X135934Y160705D02*
D03*
Y159689D02*
D03*
X135079Y160705D02*
D03*
Y159689D02*
D03*
X137644Y160705D02*
D03*
Y159689D02*
D03*
X136789Y160705D02*
D03*
Y159689D02*
D03*
X138533Y148209D02*
D03*
Y147193D02*
D03*
X131610Y117945D02*
D03*
Y116929D02*
D03*
X131219Y136223D02*
D03*
Y135207D02*
D03*
X144018Y133160D02*
D03*
Y134176D02*
D03*
X119075Y108915D02*
D03*
X118059D02*
D03*
X131686Y134468D02*
D03*
Y133452D02*
D03*
X119610Y145438D02*
D03*
Y146438D02*
D03*
X124638Y144564D02*
D03*
X123622D02*
D03*
X118224Y121310D02*
D03*
X119240D02*
D03*
X191046Y149606D02*
D03*
Y148590D02*
D03*
X110871Y136042D02*
D03*
X111887D02*
D03*
X118021Y107048D02*
D03*
X119037D02*
D03*
X120434Y105258D02*
D03*
X121450D02*
D03*
X128983Y160746D02*
D03*
X127967D02*
D03*
X144729Y157546D02*
D03*
X143713D02*
D03*
X144729Y156591D02*
D03*
X143713D02*
D03*
X141046Y160719D02*
D03*
Y159702D02*
D03*
X141935Y160719D02*
D03*
Y159702D02*
D03*
X138493Y160719D02*
D03*
Y159702D02*
D03*
X139306Y160719D02*
D03*
Y159702D02*
D03*
X134023Y148273D02*
D03*
Y149288D02*
D03*
X132537Y152184D02*
D03*
X133553D02*
D03*
X133109Y154368D02*
D03*
X134125D02*
D03*
X137287Y147193D02*
D03*
Y148209D02*
D03*
X110109Y125641D02*
D03*
Y126657D02*
D03*
X150698Y145148D02*
D03*
Y144132D02*
D03*
X137782Y135522D02*
D03*
X136766D02*
D03*
X144018Y135001D02*
D03*
Y136017D02*
D03*
X139395Y137008D02*
D03*
X138379D02*
D03*
X150269Y125479D02*
D03*
X149253D02*
D03*
X130531Y120129D02*
D03*
X131547D02*
D03*
X149253Y127434D02*
D03*
Y126418D02*
D03*
X131547Y119177D02*
D03*
X130531D02*
D03*
X157210Y152542D02*
D03*
X158210D02*
D03*
X153875Y152509D02*
D03*
Y151509D02*
D03*
X130761Y158181D02*
D03*
Y159197D02*
D03*
X178411Y150823D02*
D03*
Y151823D02*
D03*
X182492Y151831D02*
D03*
X181492D02*
D03*
X181467Y150891D02*
D03*
X182467D02*
D03*
X179503Y150823D02*
D03*
Y151823D02*
D03*
X145263Y135572D02*
D03*
Y136589D02*
D03*
X177617Y114516D02*
D03*
X178617D02*
D03*
X135928Y149288D02*
D03*
Y148273D02*
D03*
X155516Y131178D02*
D03*
X154516D02*
D03*
X154529Y130111D02*
D03*
X155529D02*
D03*
X124630Y143675D02*
D03*
X123630D02*
D03*
X126890Y143662D02*
D03*
X125890D02*
D03*
X119825Y110808D02*
D03*
Y111824D02*
D03*
X160968Y151879D02*
D03*
X161968D02*
D03*
X170764Y114618D02*
D03*
Y113602D02*
D03*
X179426Y114529D02*
D03*
X180442D02*
D03*
X172060Y113602D02*
D03*
Y114618D02*
D03*
X118453Y144221D02*
D03*
X119469D02*
D03*
X118974Y138608D02*
D03*
Y139624D02*
D03*
X169786Y113602D02*
D03*
Y114618D02*
D03*
D205*
X187655Y158634D02*
D03*
Y160134D02*
D03*
X125857Y126707D02*
D03*
Y128206D02*
D03*
X117805Y125411D02*
D03*
Y126911D02*
D03*
X161938Y104470D02*
D03*
Y105970D02*
D03*
X150482Y149708D02*
D03*
Y151208D02*
D03*
D206*
X112155Y144793D02*
D03*
X110655D02*
D03*
X113411Y132829D02*
D03*
X114911D02*
D03*
X169558Y158331D02*
D03*
X171058D02*
D03*
X104218Y136388D02*
D03*
X105718D02*
D03*
X103024Y136413D02*
D03*
X101524D02*
D03*
X114910Y134607D02*
D03*
X113410D02*
D03*
X121945Y144247D02*
D03*
X120445D02*
D03*
X179629Y161760D02*
D03*
X178129D02*
D03*
X185077Y161747D02*
D03*
X186577D02*
D03*
X119278Y116548D02*
D03*
X117778D02*
D03*
X120639Y140640D02*
D03*
X119139D02*
D03*
X120639Y142456D02*
D03*
X119139D02*
D03*
X192875Y124980D02*
D03*
Y138950D02*
D03*
Y137680D02*
D03*
Y136410D02*
D03*
Y135140D02*
D03*
Y133870D02*
D03*
Y132600D02*
D03*
Y131330D02*
D03*
Y130060D02*
D03*
Y128790D02*
D03*
Y127520D02*
D03*
Y126250D02*
D03*
Y123710D02*
D03*
X191605Y138950D02*
D03*
Y137680D02*
D03*
Y136410D02*
D03*
Y135140D02*
D03*
Y133870D02*
D03*
Y132600D02*
D03*
Y131330D02*
D03*
Y130060D02*
D03*
Y128790D02*
D03*
Y127520D02*
D03*
Y126250D02*
D03*
Y124980D02*
D03*
Y123710D02*
D03*
X192875Y109740D02*
D03*
Y122440D02*
D03*
Y119900D02*
D03*
Y118630D02*
D03*
Y117360D02*
D03*
Y116090D02*
D03*
Y114820D02*
D03*
Y113550D02*
D03*
Y112280D02*
D03*
Y111010D02*
D03*
Y108470D02*
D03*
X191605Y122440D02*
D03*
Y121170D02*
D03*
Y119900D02*
D03*
Y118630D02*
D03*
Y117360D02*
D03*
Y116090D02*
D03*
Y114820D02*
D03*
Y113550D02*
D03*
Y112280D02*
D03*
Y111010D02*
D03*
Y109740D02*
D03*
Y108470D02*
D03*
X192875Y121170D02*
D03*
D207*
X138262Y140703D02*
D03*
X136362D02*
D03*
X111808Y132486D02*
D03*
X109908D02*
D03*
D208*
X146812Y153886D02*
D03*
Y150584D02*
D03*
X142711Y144119D02*
D03*
Y147421D02*
D03*
X129273Y153086D02*
D03*
Y156388D02*
D03*
D209*
X129425Y158115D02*
D03*
X127525Y158765D02*
D03*
Y159415D02*
D03*
Y158115D02*
D03*
X129425Y159415D02*
D03*
D210*
X142826Y150536D02*
D03*
D211*
X132081Y158907D02*
D03*
Y160707D02*
D03*
X133529Y160716D02*
D03*
Y158916D02*
D03*
D212*
X131102Y145079D02*
D03*
Y142830D02*
D03*
X128829Y145079D02*
D03*
Y142830D02*
D03*
D213*
X187871Y106629D02*
D03*
Y103629D02*
D03*
X162446Y141364D02*
D03*
Y138364D02*
D03*
X188531Y153594D02*
D03*
Y156594D02*
D03*
D214*
X111506Y126378D02*
D03*
Y124778D02*
D03*
D215*
X150752Y160045D02*
D03*
X147752D02*
D03*
X125479Y148615D02*
D03*
X122479D02*
D03*
X125504Y150978D02*
D03*
X122504D02*
D03*
X158221Y159603D02*
D03*
X155221D02*
D03*
X169648Y160683D02*
D03*
X172648D02*
D03*
X179503Y159527D02*
D03*
X182503D02*
D03*
D216*
X179997Y112535D02*
D03*
X178397D02*
D03*
X124346Y138151D02*
D03*
X125946D02*
D03*
D217*
X110199Y134633D02*
D03*
X111899D02*
D03*
X147549Y158016D02*
D03*
X145849D02*
D03*
D218*
X147650Y135368D02*
D03*
Y133669D02*
D03*
X128168Y135421D02*
D03*
Y137121D02*
D03*
X114338Y129808D02*
D03*
Y131507D02*
D03*
D219*
X128159Y115824D02*
D03*
X130159D02*
D03*
X125854Y111315D02*
D03*
X123854D02*
D03*
X127374Y104701D02*
D03*
X129374D02*
D03*
X138338Y145288D02*
D03*
X136338D02*
D03*
Y142811D02*
D03*
X138338D02*
D03*
X125092Y104661D02*
D03*
X123092D02*
D03*
X180483Y103213D02*
D03*
X182483D02*
D03*
D220*
X149555Y106042D02*
D03*
Y104042D02*
D03*
X127940Y149438D02*
D03*
Y147438D02*
D03*
X149225Y155527D02*
D03*
Y157527D02*
D03*
X158204Y142294D02*
D03*
Y144294D02*
D03*
D221*
X176485Y105258D02*
D03*
X172485Y110058D02*
D03*
X170885Y104458D02*
D03*
Y110858D02*
D03*
X172485Y104458D02*
D03*
Y110858D02*
D03*
X173285Y109258D02*
D03*
X176485D02*
D03*
X173285Y106058D02*
D03*
Y110058D02*
D03*
X170085Y104458D02*
D03*
X171685D02*
D03*
X165285Y109258D02*
D03*
X169285Y106058D02*
D03*
X170885Y109258D02*
D03*
X172485Y105258D02*
D03*
X171685Y109258D02*
D03*
X166885Y106058D02*
D03*
X166085Y109258D02*
D03*
X168485Y106058D02*
D03*
X167685Y109258D02*
D03*
X172485Y106058D02*
D03*
X170885D02*
D03*
X171685D02*
D03*
Y110858D02*
D03*
X164485Y109258D02*
D03*
X166085Y110058D02*
D03*
X165285D02*
D03*
X166085Y105258D02*
D03*
X166885Y109258D02*
D03*
X164485Y105258D02*
D03*
Y106058D02*
D03*
X166085D02*
D03*
X169285Y104458D02*
D03*
X165285D02*
D03*
Y110858D02*
D03*
X168485D02*
D03*
X165285Y106058D02*
D03*
X167685Y105258D02*
D03*
X170885D02*
D03*
X164485Y110858D02*
D03*
X166885Y104458D02*
D03*
X174885D02*
D03*
X173285D02*
D03*
X167685D02*
D03*
X166885Y110058D02*
D03*
X169285Y110858D02*
D03*
X170885Y110058D02*
D03*
X167685D02*
D03*
X169285D02*
D03*
X174885Y110858D02*
D03*
X173285D02*
D03*
X176485D02*
D03*
Y104458D02*
D03*
X168485Y110058D02*
D03*
Y109258D02*
D03*
Y105258D02*
D03*
X169285D02*
D03*
X167685Y106058D02*
D03*
X170085D02*
D03*
Y109258D02*
D03*
Y110058D02*
D03*
X174085D02*
D03*
X173285Y105258D02*
D03*
X176485Y106058D02*
D03*
X174085Y109258D02*
D03*
X175685D02*
D03*
X172485D02*
D03*
X175685Y106058D02*
D03*
X176485Y110058D02*
D03*
X175685Y105258D02*
D03*
Y110058D02*
D03*
X174885Y105258D02*
D03*
Y110058D02*
D03*
X174085Y105258D02*
D03*
X174885Y106058D02*
D03*
Y109258D02*
D03*
X164485Y110058D02*
D03*
X166885Y110858D02*
D03*
X166085D02*
D03*
X167685D02*
D03*
X170085D02*
D03*
X171685Y110058D02*
D03*
X175685Y110858D02*
D03*
X174085D02*
D03*
X166885Y105258D02*
D03*
X164485Y104458D02*
D03*
X165285Y105258D02*
D03*
X170085D02*
D03*
X169285Y109258D02*
D03*
X171685Y105258D02*
D03*
X166085Y104458D02*
D03*
X168485D02*
D03*
X175685D02*
D03*
X174085D02*
D03*
Y106058D02*
D03*
X134056Y110795D02*
D03*
X138056Y105994D02*
D03*
X139656Y111594D02*
D03*
Y105195D02*
D03*
X138056Y111594D02*
D03*
Y105195D02*
D03*
X137255Y106795D02*
D03*
X134056D02*
D03*
X137255Y109994D02*
D03*
Y105994D02*
D03*
X140456Y111594D02*
D03*
X138856D02*
D03*
X145255Y106795D02*
D03*
X141255Y109994D02*
D03*
X139656Y106795D02*
D03*
X138056Y110795D02*
D03*
X138856Y106795D02*
D03*
X143656Y109994D02*
D03*
X144456Y106795D02*
D03*
X142056Y109994D02*
D03*
X142856Y106795D02*
D03*
X138056Y109994D02*
D03*
X139656D02*
D03*
X138856D02*
D03*
Y105195D02*
D03*
X146056Y106795D02*
D03*
X144456Y105994D02*
D03*
X145255D02*
D03*
X144456Y110795D02*
D03*
X143656Y106795D02*
D03*
X146056Y110795D02*
D03*
Y109994D02*
D03*
X144456D02*
D03*
X141255Y111594D02*
D03*
X145255D02*
D03*
Y105195D02*
D03*
X142056D02*
D03*
X145255Y109994D02*
D03*
X142856Y110795D02*
D03*
X139656D02*
D03*
X146056Y105195D02*
D03*
X143656Y111594D02*
D03*
X135656D02*
D03*
X137255D02*
D03*
X142856D02*
D03*
X143656Y105994D02*
D03*
X141255Y105195D02*
D03*
X139656Y105994D02*
D03*
X142856D02*
D03*
X141255D02*
D03*
X135656Y105195D02*
D03*
X137255D02*
D03*
X134056D02*
D03*
Y111594D02*
D03*
X142056Y105994D02*
D03*
Y106795D02*
D03*
Y110795D02*
D03*
X141255D02*
D03*
X142856Y109994D02*
D03*
X140456D02*
D03*
Y106795D02*
D03*
Y105994D02*
D03*
X136456D02*
D03*
X137255Y110795D02*
D03*
X134056Y109994D02*
D03*
X136456Y106795D02*
D03*
X134856D02*
D03*
X138056D02*
D03*
X134856Y109994D02*
D03*
X134056Y105994D02*
D03*
X134856Y110795D02*
D03*
Y105994D02*
D03*
X135656Y110795D02*
D03*
Y105994D02*
D03*
X136456Y110795D02*
D03*
X135656Y109994D02*
D03*
Y106795D02*
D03*
X146056Y105994D02*
D03*
X143656Y105195D02*
D03*
X144456D02*
D03*
X142856D02*
D03*
X140456D02*
D03*
X138856Y105994D02*
D03*
X134856Y105195D02*
D03*
X136456D02*
D03*
X143656Y110795D02*
D03*
X146056Y111594D02*
D03*
X145255Y110795D02*
D03*
X140456D02*
D03*
X141255Y106795D02*
D03*
X138856Y110795D02*
D03*
X144456Y111594D02*
D03*
X142056D02*
D03*
X134856D02*
D03*
X136456D02*
D03*
Y109994D02*
D03*
D222*
X160936Y157315D02*
D03*
Y160315D02*
D03*
X185447Y159832D02*
D03*
Y156832D02*
D03*
D223*
X128702Y118511D02*
D03*
Y121011D02*
D03*
D224*
X185472Y155523D02*
D03*
Y153523D02*
D03*
X160936Y153828D02*
D03*
Y155828D02*
D03*
D225*
X185980Y154523D02*
D03*
X184964D02*
D03*
X160428Y154828D02*
D03*
X161444D02*
D03*
D226*
X182977Y154137D02*
D03*
Y154637D02*
D03*
Y155137D02*
D03*
Y155637D02*
D03*
Y156137D02*
D03*
Y156637D02*
D03*
X175877D02*
D03*
Y156137D02*
D03*
Y155637D02*
D03*
Y155137D02*
D03*
Y154637D02*
D03*
Y154137D02*
D03*
X151391Y154340D02*
D03*
Y154840D02*
D03*
Y155340D02*
D03*
Y155840D02*
D03*
Y156340D02*
D03*
Y156840D02*
D03*
X158491D02*
D03*
Y156340D02*
D03*
Y155840D02*
D03*
Y155340D02*
D03*
Y154840D02*
D03*
Y154340D02*
D03*
D227*
X182427Y157437D02*
D03*
X181927D02*
D03*
X181427D02*
D03*
X180927D02*
D03*
X180427D02*
D03*
X179927D02*
D03*
X179427D02*
D03*
X178927D02*
D03*
X178427D02*
D03*
X177927D02*
D03*
X177427D02*
D03*
X176927D02*
D03*
X176427D02*
D03*
Y153337D02*
D03*
X176927D02*
D03*
X177427D02*
D03*
X177927D02*
D03*
X178427D02*
D03*
X178927D02*
D03*
X179427D02*
D03*
X179927D02*
D03*
X180427D02*
D03*
X180927D02*
D03*
X181427D02*
D03*
X181927D02*
D03*
X182427D02*
D03*
X157941Y153540D02*
D03*
X157441D02*
D03*
X156941D02*
D03*
X156441D02*
D03*
X155941D02*
D03*
X155441D02*
D03*
X154941D02*
D03*
X154441D02*
D03*
X153941D02*
D03*
X153441D02*
D03*
X152941D02*
D03*
X152441D02*
D03*
X151941D02*
D03*
Y157640D02*
D03*
X152441D02*
D03*
X152941D02*
D03*
X153441D02*
D03*
X153941D02*
D03*
X154441D02*
D03*
X154941D02*
D03*
X155441D02*
D03*
X155941D02*
D03*
X156441D02*
D03*
X156941D02*
D03*
X157441D02*
D03*
X157941D02*
D03*
D228*
X178172Y155387D02*
D03*
X153686Y155590D02*
D03*
D229*
X157683Y126962D02*
D03*
X156413D02*
D03*
X155143D02*
D03*
X153873D02*
D03*
X157683Y119112D02*
D03*
X156413D02*
D03*
X155143D02*
D03*
X153873D02*
D03*
X188303Y148985D02*
D03*
X187033D02*
D03*
X185763D02*
D03*
X184493D02*
D03*
X188303Y141135D02*
D03*
X187033D02*
D03*
X185763D02*
D03*
X184493D02*
D03*
D230*
X180385Y110846D02*
D03*
Y110346D02*
D03*
Y109846D02*
D03*
Y109346D02*
D03*
X183215D02*
D03*
Y109846D02*
D03*
Y110346D02*
D03*
Y110846D02*
D03*
Y106935D02*
D03*
Y106435D02*
D03*
Y105935D02*
D03*
Y105435D02*
D03*
X180385D02*
D03*
Y105935D02*
D03*
Y106435D02*
D03*
Y106935D02*
D03*
D231*
X181801Y110096D02*
D03*
Y106185D02*
D03*
D232*
X123675Y145872D02*
D03*
X125575D02*
D03*
D233*
X158859Y114046D02*
D03*
Y113546D02*
D03*
Y112546D02*
D03*
Y113046D02*
D03*
Y111046D02*
D03*
Y110546D02*
D03*
Y111546D02*
D03*
Y112046D02*
D03*
Y108046D02*
D03*
Y107546D02*
D03*
Y106546D02*
D03*
Y107046D02*
D03*
Y109046D02*
D03*
Y108546D02*
D03*
Y109546D02*
D03*
Y110046D02*
D03*
Y105046D02*
D03*
Y104546D02*
D03*
Y105546D02*
D03*
Y106046D02*
D03*
X154958D02*
D03*
Y105546D02*
D03*
Y104546D02*
D03*
Y105046D02*
D03*
Y110046D02*
D03*
Y109546D02*
D03*
Y108546D02*
D03*
Y109046D02*
D03*
Y107046D02*
D03*
Y106546D02*
D03*
Y107546D02*
D03*
Y108046D02*
D03*
Y112046D02*
D03*
Y111546D02*
D03*
Y110546D02*
D03*
Y111046D02*
D03*
Y113046D02*
D03*
Y112546D02*
D03*
Y113546D02*
D03*
Y114046D02*
D03*
X124759Y113843D02*
D03*
Y114343D02*
D03*
Y115343D02*
D03*
Y114843D02*
D03*
Y116843D02*
D03*
Y117343D02*
D03*
Y116343D02*
D03*
Y115843D02*
D03*
Y119843D02*
D03*
Y120343D02*
D03*
Y121343D02*
D03*
Y120843D02*
D03*
Y118843D02*
D03*
Y119343D02*
D03*
Y118343D02*
D03*
Y117843D02*
D03*
Y122843D02*
D03*
Y123343D02*
D03*
Y122343D02*
D03*
Y121843D02*
D03*
X120859D02*
D03*
Y122343D02*
D03*
Y123343D02*
D03*
Y122843D02*
D03*
Y117843D02*
D03*
Y118343D02*
D03*
Y119343D02*
D03*
Y118843D02*
D03*
Y120843D02*
D03*
Y121343D02*
D03*
Y120343D02*
D03*
Y119843D02*
D03*
Y115843D02*
D03*
Y116343D02*
D03*
Y117343D02*
D03*
Y116843D02*
D03*
Y114843D02*
D03*
Y115343D02*
D03*
Y114343D02*
D03*
Y113843D02*
D03*
D234*
X156324Y115926D02*
D03*
X155308D02*
D03*
D235*
X107089Y138552D02*
D03*
Y147452D02*
D03*
X107153Y125636D02*
D03*
Y134536D02*
D03*
D236*
X107189Y141402D02*
D03*
Y142202D02*
D03*
Y143002D02*
D03*
Y143802D02*
D03*
Y144602D02*
D03*
X107253Y128486D02*
D03*
Y129286D02*
D03*
Y130086D02*
D03*
Y130886D02*
D03*
Y131686D02*
D03*
D237*
X102600Y147452D02*
D03*
Y138552D02*
D03*
Y134536D02*
D03*
Y125636D02*
D03*
D238*
X110455Y131057D02*
D03*
Y130207D02*
D03*
X112405Y131057D02*
D03*
Y130207D02*
D03*
D239*
X179431Y116873D02*
D03*
X178631D02*
D03*
X177831D02*
D03*
X177031D02*
D03*
X176231D02*
D03*
X175431D02*
D03*
X174631D02*
D03*
X173831D02*
D03*
X173031D02*
D03*
X172231D02*
D03*
X171431D02*
D03*
X170631D02*
D03*
X169831D02*
D03*
X169031D02*
D03*
X168231D02*
D03*
X167431D02*
D03*
X166631D02*
D03*
X165831D02*
D03*
X165031D02*
D03*
X164231D02*
D03*
X163431D02*
D03*
X162631D02*
D03*
X179431Y117673D02*
D03*
X178631D02*
D03*
X177831D02*
D03*
X177031D02*
D03*
X176231D02*
D03*
X175431D02*
D03*
X174631D02*
D03*
X173831D02*
D03*
X173031D02*
D03*
X172231D02*
D03*
X171431D02*
D03*
X170631D02*
D03*
X169831D02*
D03*
X169031D02*
D03*
X168231D02*
D03*
X167431D02*
D03*
X166631D02*
D03*
X165831D02*
D03*
X165031D02*
D03*
X164231D02*
D03*
X163431D02*
D03*
X162631D02*
D03*
X179431Y118473D02*
D03*
X178631D02*
D03*
X177831D02*
D03*
X177031D02*
D03*
X176231D02*
D03*
X175431D02*
D03*
X174631D02*
D03*
X173831D02*
D03*
X173031D02*
D03*
X172231D02*
D03*
X171431D02*
D03*
X170631D02*
D03*
X169831D02*
D03*
X169031D02*
D03*
X168231D02*
D03*
X167431D02*
D03*
X166631D02*
D03*
X165831D02*
D03*
X165031D02*
D03*
X164231D02*
D03*
X163431D02*
D03*
X162631D02*
D03*
X179431Y119273D02*
D03*
X178631D02*
D03*
X177831D02*
D03*
X177031D02*
D03*
X176231D02*
D03*
X175431D02*
D03*
X174631D02*
D03*
X173831D02*
D03*
X173031D02*
D03*
X172231D02*
D03*
X171431D02*
D03*
X170631D02*
D03*
X169831D02*
D03*
X169031D02*
D03*
X168231D02*
D03*
X167431D02*
D03*
X166631D02*
D03*
X165831D02*
D03*
X165031D02*
D03*
X164231D02*
D03*
X163431D02*
D03*
X162631D02*
D03*
X179431Y120073D02*
D03*
X178631D02*
D03*
X177831D02*
D03*
X177031D02*
D03*
X176231D02*
D03*
X175431D02*
D03*
X174631D02*
D03*
X173831D02*
D03*
X173031D02*
D03*
X172231D02*
D03*
X171431D02*
D03*
X170631D02*
D03*
X169831D02*
D03*
X169031D02*
D03*
X168231D02*
D03*
X167431D02*
D03*
X166631D02*
D03*
X165831D02*
D03*
X165031D02*
D03*
X164231D02*
D03*
X163431D02*
D03*
X162631D02*
D03*
X179431Y120873D02*
D03*
X178631D02*
D03*
X177831D02*
D03*
X177031D02*
D03*
X176231D02*
D03*
X175431D02*
D03*
X174631D02*
D03*
X173831D02*
D03*
X173031D02*
D03*
X172231D02*
D03*
X171431D02*
D03*
X170631D02*
D03*
X169831D02*
D03*
X169031D02*
D03*
X168231D02*
D03*
X167431D02*
D03*
X166631D02*
D03*
X165831D02*
D03*
X165031D02*
D03*
X164231D02*
D03*
X163431D02*
D03*
X162631D02*
D03*
X179431Y121673D02*
D03*
X178631D02*
D03*
X177831D02*
D03*
X177031D02*
D03*
X176231D02*
D03*
X175431D02*
D03*
X174631D02*
D03*
X173831D02*
D03*
X173031D02*
D03*
X172231D02*
D03*
X171431D02*
D03*
X170631D02*
D03*
X169831D02*
D03*
X169031D02*
D03*
X168231D02*
D03*
X167431D02*
D03*
X166631D02*
D03*
X165831D02*
D03*
X165031D02*
D03*
X164231D02*
D03*
X163431D02*
D03*
X162631D02*
D03*
X179431Y122473D02*
D03*
X178631D02*
D03*
X177831D02*
D03*
X177031D02*
D03*
X176231D02*
D03*
X175431D02*
D03*
X174631D02*
D03*
X173831D02*
D03*
X173031D02*
D03*
X172231D02*
D03*
X171431D02*
D03*
X170631D02*
D03*
X169831D02*
D03*
X169031D02*
D03*
X168231D02*
D03*
X167431D02*
D03*
X166631D02*
D03*
X165831D02*
D03*
X165031D02*
D03*
X164231D02*
D03*
X163431D02*
D03*
X162631D02*
D03*
X179431Y123273D02*
D03*
X178631D02*
D03*
X177831D02*
D03*
X177031D02*
D03*
X176231D02*
D03*
X175431D02*
D03*
X174631D02*
D03*
X173831D02*
D03*
X173031D02*
D03*
X172231D02*
D03*
X171431D02*
D03*
X170631D02*
D03*
X169831D02*
D03*
X169031D02*
D03*
X168231D02*
D03*
X167431D02*
D03*
X166631D02*
D03*
X165831D02*
D03*
X165031D02*
D03*
X164231D02*
D03*
X163431D02*
D03*
X162631D02*
D03*
X179431Y124073D02*
D03*
X178631D02*
D03*
X177831D02*
D03*
X177031D02*
D03*
X176231D02*
D03*
X175431D02*
D03*
X174631D02*
D03*
X173831D02*
D03*
X173031D02*
D03*
X172231D02*
D03*
X171431D02*
D03*
X170631D02*
D03*
X169831D02*
D03*
X169031D02*
D03*
X168231D02*
D03*
X167431D02*
D03*
X166631D02*
D03*
X165831D02*
D03*
X165031D02*
D03*
X164231D02*
D03*
X163431D02*
D03*
X162631D02*
D03*
X179431Y124873D02*
D03*
X178631D02*
D03*
X177831D02*
D03*
X177031D02*
D03*
X176231D02*
D03*
X175431D02*
D03*
X174631D02*
D03*
X173831D02*
D03*
X173031D02*
D03*
X172231D02*
D03*
X171431D02*
D03*
X170631D02*
D03*
X169831D02*
D03*
X169031D02*
D03*
X168231D02*
D03*
X167431D02*
D03*
X166631D02*
D03*
X165831D02*
D03*
X165031D02*
D03*
X164231D02*
D03*
X163431D02*
D03*
X162631D02*
D03*
X179431Y125673D02*
D03*
X178631D02*
D03*
X177831D02*
D03*
X177031D02*
D03*
X176231D02*
D03*
X175431D02*
D03*
X174631D02*
D03*
X173831D02*
D03*
X173031D02*
D03*
X172231D02*
D03*
X171431D02*
D03*
X170631D02*
D03*
X169831D02*
D03*
X169031D02*
D03*
X168231D02*
D03*
X167431D02*
D03*
X166631D02*
D03*
X165831D02*
D03*
X165031D02*
D03*
X164231D02*
D03*
X163431D02*
D03*
X162631D02*
D03*
X179431Y126473D02*
D03*
X178631D02*
D03*
X177831D02*
D03*
X177031D02*
D03*
X176231D02*
D03*
X175431D02*
D03*
X174631D02*
D03*
X173831D02*
D03*
X173031D02*
D03*
X172231D02*
D03*
X171431D02*
D03*
X170631D02*
D03*
X169831D02*
D03*
X169031D02*
D03*
X168231D02*
D03*
X167431D02*
D03*
X166631D02*
D03*
X165831D02*
D03*
X165031D02*
D03*
X164231D02*
D03*
X163431D02*
D03*
X162631D02*
D03*
X179431Y127273D02*
D03*
X178631D02*
D03*
X177831D02*
D03*
X177031D02*
D03*
X176231D02*
D03*
X175431D02*
D03*
X174631D02*
D03*
X173831D02*
D03*
X173031D02*
D03*
X172231D02*
D03*
X171431D02*
D03*
X170631D02*
D03*
X169831D02*
D03*
X169031D02*
D03*
X168231D02*
D03*
X167431D02*
D03*
X166631D02*
D03*
X165831D02*
D03*
X165031D02*
D03*
X164231D02*
D03*
X163431D02*
D03*
X162631D02*
D03*
X179431Y128073D02*
D03*
X178631D02*
D03*
X177831D02*
D03*
X177031D02*
D03*
X176231D02*
D03*
X175431D02*
D03*
X174631D02*
D03*
X173831D02*
D03*
X173031D02*
D03*
X172231D02*
D03*
X171431D02*
D03*
X170631D02*
D03*
X169831D02*
D03*
X169031D02*
D03*
X168231D02*
D03*
X167431D02*
D03*
X166631D02*
D03*
X165831D02*
D03*
X165031D02*
D03*
X164231D02*
D03*
X163431D02*
D03*
X162631D02*
D03*
X179431Y128873D02*
D03*
X178631D02*
D03*
X177831D02*
D03*
X177031D02*
D03*
X176231D02*
D03*
X175431D02*
D03*
X174631D02*
D03*
X173831D02*
D03*
X173031D02*
D03*
X172231D02*
D03*
X171431D02*
D03*
X170631D02*
D03*
X169831D02*
D03*
X169031D02*
D03*
X168231D02*
D03*
X167431D02*
D03*
X166631D02*
D03*
X165831D02*
D03*
X165031D02*
D03*
X164231D02*
D03*
X163431D02*
D03*
X162631D02*
D03*
X179431Y129673D02*
D03*
X178631D02*
D03*
X177831D02*
D03*
X177031D02*
D03*
X176231D02*
D03*
X175431D02*
D03*
X174631D02*
D03*
X173831D02*
D03*
X173031D02*
D03*
X172231D02*
D03*
X171431D02*
D03*
X170631D02*
D03*
X169831D02*
D03*
X169031D02*
D03*
X168231D02*
D03*
X167431D02*
D03*
X166631D02*
D03*
X165831D02*
D03*
X165031D02*
D03*
X164231D02*
D03*
X163431D02*
D03*
X162631D02*
D03*
X179431Y130473D02*
D03*
X178631D02*
D03*
X177831D02*
D03*
X177031D02*
D03*
X176231D02*
D03*
X175431D02*
D03*
X174631D02*
D03*
X173831D02*
D03*
X173031D02*
D03*
X172231D02*
D03*
X171431D02*
D03*
X170631D02*
D03*
X169831D02*
D03*
X169031D02*
D03*
X168231D02*
D03*
X167431D02*
D03*
X166631D02*
D03*
X165831D02*
D03*
X165031D02*
D03*
X164231D02*
D03*
X163431D02*
D03*
X162631D02*
D03*
X179431Y131273D02*
D03*
X178631D02*
D03*
X177831D02*
D03*
X177031D02*
D03*
X176231D02*
D03*
X175431D02*
D03*
X174631D02*
D03*
X173831D02*
D03*
X173031D02*
D03*
X172231D02*
D03*
X171431D02*
D03*
X170631D02*
D03*
X169831D02*
D03*
X169031D02*
D03*
X168231D02*
D03*
X167431D02*
D03*
X166631D02*
D03*
X165831D02*
D03*
X165031D02*
D03*
X164231D02*
D03*
X163431D02*
D03*
X162631D02*
D03*
X179431Y132073D02*
D03*
X178631D02*
D03*
X177831D02*
D03*
X177031D02*
D03*
X176231D02*
D03*
X175431D02*
D03*
X174631D02*
D03*
X173831D02*
D03*
X173031D02*
D03*
X172231D02*
D03*
X171431D02*
D03*
X170631D02*
D03*
X169831D02*
D03*
X169031D02*
D03*
X168231D02*
D03*
X167431D02*
D03*
X166631D02*
D03*
X165831D02*
D03*
X165031D02*
D03*
X164231D02*
D03*
X163431D02*
D03*
X162631D02*
D03*
X179431Y132873D02*
D03*
X178631D02*
D03*
X177831D02*
D03*
X177031D02*
D03*
X176231D02*
D03*
X175431D02*
D03*
X174631D02*
D03*
X173831D02*
D03*
X173031D02*
D03*
X172231D02*
D03*
X171431D02*
D03*
X170631D02*
D03*
X169831D02*
D03*
X169031D02*
D03*
X168231D02*
D03*
X167431D02*
D03*
X166631D02*
D03*
X165831D02*
D03*
X165031D02*
D03*
X164231D02*
D03*
X163431D02*
D03*
X162631D02*
D03*
X179431Y133673D02*
D03*
X178631D02*
D03*
X177831D02*
D03*
X177031D02*
D03*
X176231D02*
D03*
X175431D02*
D03*
X174631D02*
D03*
X173831D02*
D03*
X173031D02*
D03*
X172231D02*
D03*
X171431D02*
D03*
X170631D02*
D03*
X169831D02*
D03*
X169031D02*
D03*
X168231D02*
D03*
X167431D02*
D03*
X166631D02*
D03*
X165831D02*
D03*
X165031D02*
D03*
X164231D02*
D03*
X163431D02*
D03*
X162631D02*
D03*
D240*
X137182Y124773D02*
D03*
Y123974D02*
D03*
Y125574D02*
D03*
X137982Y126374D02*
D03*
X137182D02*
D03*
X138782D02*
D03*
X139582D02*
D03*
X137982Y119974D02*
D03*
X136382D02*
D03*
X139582D02*
D03*
X140382D02*
D03*
X141182D02*
D03*
X138782D02*
D03*
X137182D02*
D03*
X134782Y120773D02*
D03*
X146782Y125574D02*
D03*
X145182Y126374D02*
D03*
X134782Y119974D02*
D03*
X135582Y120773D02*
D03*
X133982Y119974D02*
D03*
X133182Y119173D02*
D03*
X133982Y130374D02*
D03*
X141982Y119974D02*
D03*
X133982Y119173D02*
D03*
X145182Y120773D02*
D03*
X144382Y121574D02*
D03*
X145182D02*
D03*
Y129573D02*
D03*
X140382Y130374D02*
D03*
X139582Y128773D02*
D03*
X144382Y127173D02*
D03*
X145182D02*
D03*
X135582D02*
D03*
X133182Y127974D02*
D03*
X145982Y129573D02*
D03*
Y130374D02*
D03*
Y122374D02*
D03*
X146782D02*
D03*
X144382Y123173D02*
D03*
X145182D02*
D03*
X133982Y125574D02*
D03*
X143582Y127974D02*
D03*
X134782Y130374D02*
D03*
X137182D02*
D03*
X137982Y127974D02*
D03*
Y128773D02*
D03*
Y130374D02*
D03*
X137182Y129573D02*
D03*
X146782Y126374D02*
D03*
X145182Y125574D02*
D03*
X145982Y120773D02*
D03*
X145182Y122374D02*
D03*
X144382D02*
D03*
X146782Y121574D02*
D03*
X137182Y128773D02*
D03*
X145982Y121574D02*
D03*
X145182Y123974D02*
D03*
X133182Y121574D02*
D03*
X134782D02*
D03*
X133982D02*
D03*
Y120773D02*
D03*
X133182Y129573D02*
D03*
X145982Y123974D02*
D03*
Y123173D02*
D03*
X137982Y129573D02*
D03*
X134782Y126374D02*
D03*
X145182Y124773D02*
D03*
X146782Y129573D02*
D03*
X145982Y126374D02*
D03*
X145182Y128773D02*
D03*
X144382Y125574D02*
D03*
X145982Y128773D02*
D03*
Y125574D02*
D03*
X146782Y128773D02*
D03*
X145182Y127974D02*
D03*
X145982D02*
D03*
X146782D02*
D03*
X145982Y127173D02*
D03*
X146782D02*
D03*
X144382Y126374D02*
D03*
X137982Y117574D02*
D03*
X146782Y123173D02*
D03*
X138782Y130374D02*
D03*
Y128773D02*
D03*
Y129573D02*
D03*
X139582Y127974D02*
D03*
X134782Y125574D02*
D03*
X143582Y128773D02*
D03*
X145182Y130374D02*
D03*
X133182Y117574D02*
D03*
X135582Y130374D02*
D03*
Y129573D02*
D03*
X133982Y128773D02*
D03*
X133182D02*
D03*
X145982Y117574D02*
D03*
X145182Y119173D02*
D03*
Y118374D02*
D03*
X144382Y116773D02*
D03*
X146782Y119173D02*
D03*
Y118374D02*
D03*
X144382Y119173D02*
D03*
X145182Y117574D02*
D03*
Y119974D02*
D03*
X145982Y116773D02*
D03*
X144382Y118374D02*
D03*
X145182Y116773D02*
D03*
X145982Y118374D02*
D03*
X146782Y117574D02*
D03*
X145982Y119173D02*
D03*
X144382Y117574D02*
D03*
X141982Y129573D02*
D03*
Y130374D02*
D03*
X139582Y129573D02*
D03*
X141182D02*
D03*
Y128773D02*
D03*
Y127974D02*
D03*
X141982Y128773D02*
D03*
X141182Y130374D02*
D03*
X139582D02*
D03*
X140382Y127974D02*
D03*
Y128773D02*
D03*
Y129573D02*
D03*
X134782D02*
D03*
Y128773D02*
D03*
X144382Y123974D02*
D03*
X136382Y121574D02*
D03*
Y123173D02*
D03*
X135582Y123974D02*
D03*
X144382Y124773D02*
D03*
X138782Y127974D02*
D03*
X133182Y119974D02*
D03*
X138782Y119173D02*
D03*
X133982Y118374D02*
D03*
X133182D02*
D03*
X143582Y126374D02*
D03*
Y125574D02*
D03*
X139582Y119173D02*
D03*
X137982Y116773D02*
D03*
X137182Y127974D02*
D03*
X143582Y130374D02*
D03*
X144382D02*
D03*
Y129573D02*
D03*
X141182Y117574D02*
D03*
X143582D02*
D03*
Y129573D02*
D03*
Y123974D02*
D03*
Y124773D02*
D03*
X142782Y127974D02*
D03*
X144382D02*
D03*
X136382Y125574D02*
D03*
Y123974D02*
D03*
Y124773D02*
D03*
Y126374D02*
D03*
X142782Y119974D02*
D03*
X143582D02*
D03*
Y120773D02*
D03*
X137182Y127173D02*
D03*
X137982D02*
D03*
X140382D02*
D03*
X141182D02*
D03*
X144382Y128773D02*
D03*
X142782D02*
D03*
X133982Y127173D02*
D03*
X134782D02*
D03*
X133182Y125574D02*
D03*
X133982Y124773D02*
D03*
X134782D02*
D03*
X135582Y121574D02*
D03*
X133182Y123974D02*
D03*
X135582Y128773D02*
D03*
Y127974D02*
D03*
X146782Y123974D02*
D03*
X145982Y124773D02*
D03*
X139582Y118374D02*
D03*
X134782Y122374D02*
D03*
X133982D02*
D03*
X133182D02*
D03*
Y123173D02*
D03*
X134782D02*
D03*
X133182Y120773D02*
D03*
X133982Y123173D02*
D03*
X141982Y127974D02*
D03*
X133982D02*
D03*
X135582Y117574D02*
D03*
X133182Y127173D02*
D03*
X135582Y126374D02*
D03*
X133982D02*
D03*
X133182D02*
D03*
X146782Y120773D02*
D03*
X135582Y125574D02*
D03*
X143582Y123173D02*
D03*
X142782Y120773D02*
D03*
X137182Y123173D02*
D03*
X136382Y120773D02*
D03*
X143582Y127173D02*
D03*
X140382Y126374D02*
D03*
X136382Y127173D02*
D03*
X144382Y120773D02*
D03*
Y119974D02*
D03*
X145982D02*
D03*
X136382Y128773D02*
D03*
Y129573D02*
D03*
Y127974D02*
D03*
Y130374D02*
D03*
X146782Y119974D02*
D03*
Y124773D02*
D03*
X134782Y127974D02*
D03*
X133982Y129573D02*
D03*
Y123974D02*
D03*
X138782Y117574D02*
D03*
X135582Y116773D02*
D03*
X133182Y124773D02*
D03*
X142782Y130374D02*
D03*
Y129573D02*
D03*
X139582Y117574D02*
D03*
X141182Y116773D02*
D03*
X143582D02*
D03*
X141982Y117574D02*
D03*
X133982D02*
D03*
X137982Y119173D02*
D03*
X137182Y116773D02*
D03*
X137982Y118374D02*
D03*
X141982Y116773D02*
D03*
X141182Y119173D02*
D03*
Y118374D02*
D03*
X140382Y119173D02*
D03*
Y118374D02*
D03*
X135582Y123173D02*
D03*
X140382Y117574D02*
D03*
Y116773D02*
D03*
X139582D02*
D03*
X133182D02*
D03*
X146782D02*
D03*
X139582Y120773D02*
D03*
X138782D02*
D03*
X140382Y121574D02*
D03*
X142782D02*
D03*
X141982Y122374D02*
D03*
Y121574D02*
D03*
Y120773D02*
D03*
X140382Y123173D02*
D03*
X139582D02*
D03*
X138782D02*
D03*
X139582Y122374D02*
D03*
X138782D02*
D03*
X139582Y121574D02*
D03*
X138782D02*
D03*
X141982Y123173D02*
D03*
Y123974D02*
D03*
X139582D02*
D03*
X141182D02*
D03*
X140382D02*
D03*
X142782D02*
D03*
Y124773D02*
D03*
X137982Y122374D02*
D03*
X137182D02*
D03*
X137982Y123173D02*
D03*
X138782Y123974D02*
D03*
X137982Y124773D02*
D03*
X141982Y125574D02*
D03*
X139582Y124773D02*
D03*
X138782Y125574D02*
D03*
X141182Y126374D02*
D03*
Y125574D02*
D03*
X142782Y127173D02*
D03*
X141982D02*
D03*
X141182Y124773D02*
D03*
X140382D02*
D03*
X137982Y125574D02*
D03*
X146782Y130374D02*
D03*
X133182D02*
D03*
X143582Y119173D02*
D03*
Y118374D02*
D03*
X142782Y119173D02*
D03*
Y118374D02*
D03*
Y117574D02*
D03*
Y116773D02*
D03*
X141982Y119173D02*
D03*
Y118374D02*
D03*
X136382Y116773D02*
D03*
X134782Y119173D02*
D03*
X138782Y118374D02*
D03*
X136382D02*
D03*
X137182Y117574D02*
D03*
Y119173D02*
D03*
X134782Y116773D02*
D03*
X135582Y119173D02*
D03*
X136382Y117574D02*
D03*
X135582Y119974D02*
D03*
X133982Y116773D02*
D03*
X134782Y117574D02*
D03*
Y118374D02*
D03*
X136382Y119173D02*
D03*
X138782Y116773D02*
D03*
X137182Y118374D02*
D03*
X135582Y124773D02*
D03*
X134782Y123974D02*
D03*
X135582Y122374D02*
D03*
X136382D02*
D03*
X143582Y121574D02*
D03*
Y122374D02*
D03*
X137182Y120773D02*
D03*
Y121574D02*
D03*
X141182Y123173D02*
D03*
X137982Y123974D02*
D03*
X138782Y124773D02*
D03*
X142782Y122374D02*
D03*
Y123173D02*
D03*
X141982Y124773D02*
D03*
X142782Y125574D02*
D03*
Y126374D02*
D03*
X141982D02*
D03*
X139582Y125574D02*
D03*
X140382D02*
D03*
X141182Y122374D02*
D03*
Y120773D02*
D03*
X140382D02*
D03*
X137982Y121574D02*
D03*
Y120773D02*
D03*
X140382Y122374D02*
D03*
X141182Y121574D02*
D03*
X138782Y127173D02*
D03*
X139582D02*
D03*
X135582Y118374D02*
D03*
D241*
X123877Y153914D02*
D03*
Y159914D02*
D03*
D242*
X197425Y141460D02*
D03*
X192325D02*
D03*
Y105950D02*
D03*
D243*
X197968D02*
D03*
D244*
X165150Y142568D02*
D03*
X174350D02*
D03*
D245*
X173350Y140018D02*
D03*
X172750D02*
D03*
X171550D02*
D03*
X172150D02*
D03*
X169750D02*
D03*
X169150D02*
D03*
X170350D02*
D03*
X170950D02*
D03*
X166150D02*
D03*
X167350D02*
D03*
X166750D02*
D03*
X167950D02*
D03*
X168550D02*
D03*
D246*
X168850Y142893D02*
D03*
X168250D02*
D03*
X167050D02*
D03*
X167650D02*
D03*
X165850D02*
D03*
X166450D02*
D03*
X171250D02*
D03*
X170650D02*
D03*
X169450D02*
D03*
X170050D02*
D03*
X172450D02*
D03*
X171850D02*
D03*
X173050D02*
D03*
X173650D02*
D03*
D247*
X146571Y132839D02*
D03*
Y133219D02*
D03*
D248*
X171993Y155884D02*
D03*
X171343D02*
D03*
X170693D02*
D03*
X170043D02*
D03*
X171993Y151684D02*
D03*
X171343D02*
D03*
X170693D02*
D03*
X170043D02*
D03*
D249*
X113632Y125044D02*
D03*
Y127244D02*
D03*
X115532D02*
D03*
Y125044D02*
D03*
D250*
X179476Y142189D02*
D03*
D251*
X176776Y140284D02*
D03*
Y141554D02*
D03*
Y142824D02*
D03*
Y144094D02*
D03*
X182176D02*
D03*
Y142824D02*
D03*
Y141554D02*
D03*
Y140284D02*
D03*
D252*
X116253Y143617D02*
D03*
X115603D02*
D03*
X114953D02*
D03*
X114303D02*
D03*
Y139567D02*
D03*
X114953D02*
D03*
X115603D02*
D03*
X116253D02*
D03*
D253*
X113253Y142567D02*
D03*
Y141917D02*
D03*
Y141267D02*
D03*
Y140617D02*
D03*
X117303D02*
D03*
Y141267D02*
D03*
Y141917D02*
D03*
Y142567D02*
D03*
D254*
X115278Y141592D02*
D03*
D255*
X118433Y128450D02*
D03*
X118933D02*
D03*
X119433D02*
D03*
X119933D02*
D03*
X120433D02*
D03*
X120933D02*
D03*
X121433D02*
D03*
X121933D02*
D03*
X122433D02*
D03*
X122933D02*
D03*
X123433D02*
D03*
X123933D02*
D03*
Y135050D02*
D03*
X123433D02*
D03*
X122933D02*
D03*
X122433D02*
D03*
X121933D02*
D03*
X121433D02*
D03*
X120933D02*
D03*
X120433D02*
D03*
X119933D02*
D03*
X119433D02*
D03*
X118933D02*
D03*
X118433D02*
D03*
D256*
X124483Y129000D02*
D03*
Y129500D02*
D03*
Y130000D02*
D03*
Y130500D02*
D03*
Y131000D02*
D03*
Y131500D02*
D03*
Y132000D02*
D03*
Y132500D02*
D03*
Y133000D02*
D03*
Y133500D02*
D03*
Y134000D02*
D03*
Y134500D02*
D03*
X117883D02*
D03*
Y134000D02*
D03*
Y133500D02*
D03*
Y133000D02*
D03*
Y132500D02*
D03*
Y132000D02*
D03*
Y131500D02*
D03*
Y131000D02*
D03*
Y130500D02*
D03*
Y130000D02*
D03*
Y129500D02*
D03*
Y129000D02*
D03*
D257*
X155963Y149739D02*
D03*
X155313D02*
D03*
X154663D02*
D03*
X154013D02*
D03*
X153363D02*
D03*
X152713D02*
D03*
X152063D02*
D03*
X155963Y144189D02*
D03*
X155313D02*
D03*
X154663D02*
D03*
X154013D02*
D03*
X153363D02*
D03*
X152713D02*
D03*
X152063D02*
D03*
D258*
X127624Y109684D02*
D03*
Y109184D02*
D03*
Y108684D02*
D03*
Y108184D02*
D03*
Y107684D02*
D03*
Y107184D02*
D03*
X129124D02*
D03*
Y109184D02*
D03*
Y108184D02*
D03*
Y107684D02*
D03*
Y109684D02*
D03*
Y108684D02*
D03*
D259*
X127624Y110264D02*
D03*
Y106604D02*
D03*
X129124D02*
D03*
Y110264D02*
D03*
D260*
X143958Y159756D02*
D03*
X145758D02*
D03*
D261*
X137636Y114353D02*
D03*
X139636D02*
D03*
D262*
X123497Y107496D02*
D03*
Y107996D02*
D03*
Y108496D02*
D03*
Y108996D02*
D03*
Y109496D02*
D03*
X120547D02*
D03*
Y108996D02*
D03*
Y108496D02*
D03*
Y107996D02*
D03*
Y107496D02*
D03*
D263*
X122272Y109971D02*
D03*
X121772D02*
D03*
Y107021D02*
D03*
X122272D02*
D03*
D264*
X122022Y108496D02*
D03*
D265*
X148895Y143187D02*
D03*
Y147287D02*
D03*
X147295D02*
D03*
Y143187D02*
D03*
D266*
X116410Y156533D02*
D03*
D267*
X120220Y148533D02*
D03*
X118950D02*
D03*
X117680D02*
D03*
X116410D02*
D03*
X115140D02*
D03*
X113870D02*
D03*
X112600D02*
D03*
D268*
X141686Y152200D02*
D03*
X135736Y153000D02*
D03*
X141686Y154600D02*
D03*
X135736Y155000D02*
D03*
Y153400D02*
D03*
X141686Y154200D02*
D03*
X135736Y154600D02*
D03*
Y155400D02*
D03*
X141686Y156200D02*
D03*
X135736Y152600D02*
D03*
Y151800D02*
D03*
X141686Y155800D02*
D03*
Y153400D02*
D03*
X135736Y156200D02*
D03*
Y152200D02*
D03*
X141686Y153000D02*
D03*
X135736Y155800D02*
D03*
Y154200D02*
D03*
X141686Y151800D02*
D03*
Y153800D02*
D03*
Y155400D02*
D03*
X135736Y153800D02*
D03*
X141686Y152600D02*
D03*
Y155000D02*
D03*
D269*
X136511Y151025D02*
D03*
X136911D02*
D03*
X140111D02*
D03*
X138911Y156975D02*
D03*
X140111D02*
D03*
X137311Y151025D02*
D03*
X137711D02*
D03*
X140911D02*
D03*
X139711D02*
D03*
X138511Y156975D02*
D03*
X139711D02*
D03*
X140511Y151025D02*
D03*
X136911Y156975D02*
D03*
X137311D02*
D03*
X137711D02*
D03*
X138111D02*
D03*
X136511D02*
D03*
X140511D02*
D03*
X139311D02*
D03*
Y151025D02*
D03*
X138911D02*
D03*
X138511D02*
D03*
X140911Y156975D02*
D03*
X138111Y151025D02*
D03*
D270*
X111815Y142601D02*
D03*
X111315Y143479D02*
D03*
X111815D02*
D03*
X111315Y142601D02*
D03*
X110816D02*
D03*
Y143479D02*
D03*
D271*
X110637Y128497D02*
D03*
X111515Y128996D02*
D03*
Y128497D02*
D03*
X110637Y128996D02*
D03*
Y129496D02*
D03*
D272*
X111515D02*
D03*
D273*
X159048Y140366D02*
D03*
Y139566D02*
D03*
Y133966D02*
D03*
Y133166D02*
D03*
X158248Y140366D02*
D03*
Y139566D02*
D03*
Y133966D02*
D03*
Y133166D02*
D03*
X157448Y138766D02*
D03*
Y137966D02*
D03*
Y137166D02*
D03*
Y136366D02*
D03*
Y135566D02*
D03*
Y134766D02*
D03*
X156648Y138766D02*
D03*
Y137966D02*
D03*
Y137166D02*
D03*
Y136366D02*
D03*
Y135566D02*
D03*
Y134766D02*
D03*
X155848Y138766D02*
D03*
Y137966D02*
D03*
Y137166D02*
D03*
Y136366D02*
D03*
Y135566D02*
D03*
Y134766D02*
D03*
X155048Y138766D02*
D03*
Y137966D02*
D03*
Y137166D02*
D03*
Y136366D02*
D03*
Y135566D02*
D03*
Y134766D02*
D03*
X154248Y138766D02*
D03*
Y137966D02*
D03*
Y137166D02*
D03*
Y136366D02*
D03*
Y135566D02*
D03*
Y134766D02*
D03*
X153448Y138766D02*
D03*
Y137966D02*
D03*
Y137166D02*
D03*
Y136366D02*
D03*
Y135566D02*
D03*
Y134766D02*
D03*
X152648Y138766D02*
D03*
Y137966D02*
D03*
Y137166D02*
D03*
Y136366D02*
D03*
Y135566D02*
D03*
Y134766D02*
D03*
X151848Y138766D02*
D03*
Y137966D02*
D03*
Y137166D02*
D03*
Y136366D02*
D03*
Y135566D02*
D03*
Y134766D02*
D03*
X151048Y140366D02*
D03*
Y139566D02*
D03*
Y133166D02*
D03*
X150248Y140366D02*
D03*
Y139566D02*
D03*
Y133966D02*
D03*
Y133166D02*
D03*
D274*
X172103Y148590D02*
D03*
X169603D02*
D03*
D275*
X151649Y128920D02*
D03*
X149449Y130520D02*
D03*
Y128920D02*
D03*
X151649Y130520D02*
D03*
M02*
