G04 Layer_Color=65535*
%FSLAX43Y43*%
%MOMM*%
G71*
G01*
G75*
%ADD85C,0.152*%
%ADD86C,0.127*%
%ADD90C,0.200*%
%ADD92C,0.203*%
%ADD93C,0.250*%
%ADD95C,0.150*%
%ADD96C,0.254*%
%ADD98C,0.400*%
%ADD198C,0.025*%
%ADD199C,0.100*%
%ADD200C,0.154*%
%ADD201R,1.626X9.068*%
G36*
X183243Y126254D02*
Y126252D01*
X183241Y126243D01*
X183239Y126229D01*
X183236Y126212D01*
X183234Y126194D01*
X183232Y126173D01*
X183229Y126126D01*
Y126122D01*
Y126110D01*
X183232Y126091D01*
X183234Y126070D01*
X183241Y126047D01*
X183248Y126024D01*
X183260Y126003D01*
X183274Y125984D01*
X183276Y125982D01*
X183283Y125977D01*
X183292Y125970D01*
X183309Y125963D01*
X183330Y125956D01*
X183358Y125949D01*
X183393Y125944D01*
X183432Y125942D01*
X183551D01*
Y126194D01*
X183721D01*
Y125942D01*
X184850D01*
Y125723D01*
X183721D01*
Y125529D01*
X183551D01*
Y125723D01*
X183393D01*
X183369Y125725D01*
X183341D01*
X183309Y125728D01*
X183276Y125732D01*
X183246Y125739D01*
X183220Y125746D01*
X183215Y125748D01*
X183206Y125753D01*
X183190Y125760D01*
X183171Y125772D01*
X183148Y125786D01*
X183124Y125804D01*
X183101Y125828D01*
X183080Y125856D01*
X183078Y125860D01*
X183071Y125870D01*
X183064Y125888D01*
X183052Y125914D01*
X183043Y125947D01*
X183036Y125986D01*
X183029Y126031D01*
X183026Y126082D01*
Y126087D01*
Y126098D01*
Y126117D01*
X183029Y126143D01*
X183031Y126173D01*
X183036Y126208D01*
X183043Y126245D01*
X183050Y126287D01*
X183243Y126254D01*
D02*
G37*
G36*
X184850Y126362D02*
X183057D01*
Y126581D01*
X184850D01*
Y126362D01*
D02*
G37*
G36*
X184926Y122951D02*
X183807D01*
X184532Y122641D01*
Y122345D01*
X183807Y122037D01*
X184926D01*
Y121631D01*
X183252D01*
Y122130D01*
X184094Y122506D01*
X183252Y122879D01*
Y123382D01*
X184926D01*
Y122951D01*
D02*
G37*
G36*
Y119139D02*
X184588Y119022D01*
Y118411D01*
X184926Y118295D01*
Y117858D01*
X183252Y118474D01*
Y118971D01*
X184926Y119589D01*
Y119139D01*
D02*
G37*
G36*
Y120915D02*
X184313Y120461D01*
Y120262D01*
X184926D01*
Y119831D01*
X183252D01*
Y120554D01*
Y120556D01*
Y120561D01*
Y120568D01*
Y120580D01*
Y120591D01*
Y120608D01*
X183254Y120643D01*
X183257Y120682D01*
X183259Y120724D01*
X183264Y120766D01*
X183271Y120808D01*
Y120810D01*
Y120813D01*
X183273Y120827D01*
X183278Y120848D01*
X183285Y120873D01*
X183296Y120904D01*
X183308Y120939D01*
X183324Y120974D01*
X183343Y121009D01*
X183345Y121013D01*
X183352Y121025D01*
X183366Y121041D01*
X183383Y121065D01*
X183403Y121088D01*
X183429Y121114D01*
X183457Y121137D01*
X183490Y121160D01*
X183494Y121163D01*
X183506Y121170D01*
X183525Y121179D01*
X183550Y121188D01*
X183583Y121198D01*
X183620Y121207D01*
X183665Y121214D01*
X183714Y121216D01*
X183732D01*
X183744Y121214D01*
X183760D01*
X183779Y121212D01*
X183821Y121205D01*
X183867Y121195D01*
X183919Y121179D01*
X183970Y121158D01*
X184017Y121130D01*
X184019D01*
X184021Y121125D01*
X184035Y121114D01*
X184059Y121095D01*
X184084Y121067D01*
X184115Y121032D01*
X184147Y120990D01*
X184180Y120939D01*
X184210Y120883D01*
X184926Y121442D01*
Y120915D01*
D02*
G37*
G36*
X184850Y127812D02*
X184848Y127810D01*
X184838Y127807D01*
X184824Y127800D01*
X184803Y127796D01*
X184780Y127786D01*
X184752Y127782D01*
X184722Y127775D01*
X184687Y127770D01*
Y127768D01*
X184691Y127765D01*
X184696Y127758D01*
X184703Y127749D01*
X184722Y127726D01*
X184745Y127693D01*
X184768Y127658D01*
X184794Y127619D01*
X184817Y127574D01*
X184836Y127532D01*
Y127530D01*
X184838Y127528D01*
X184841Y127521D01*
X184843Y127514D01*
X184850Y127490D01*
X184857Y127460D01*
X184864Y127425D01*
X184871Y127383D01*
X184876Y127339D01*
X184878Y127292D01*
Y127290D01*
Y127283D01*
Y127271D01*
X184876Y127257D01*
Y127238D01*
X184873Y127217D01*
X184864Y127171D01*
X184852Y127117D01*
X184834Y127064D01*
X184808Y127010D01*
X184794Y126987D01*
X184775Y126963D01*
X184773Y126961D01*
X184771Y126959D01*
X184757Y126945D01*
X184733Y126928D01*
X184703Y126907D01*
X184663Y126886D01*
X184619Y126868D01*
X184568Y126854D01*
X184540Y126851D01*
X184509Y126849D01*
X184493D01*
X184474Y126851D01*
X184451Y126854D01*
X184426Y126858D01*
X184395Y126868D01*
X184365Y126877D01*
X184335Y126891D01*
X184330Y126893D01*
X184321Y126898D01*
X184307Y126910D01*
X184288Y126921D01*
X184269Y126938D01*
X184248Y126959D01*
X184227Y126980D01*
X184209Y127005D01*
X184206Y127008D01*
X184202Y127017D01*
X184192Y127033D01*
X184181Y127052D01*
X184169Y127075D01*
X184157Y127101D01*
X184146Y127131D01*
X184136Y127164D01*
Y127166D01*
X184134Y127175D01*
X184129Y127192D01*
X184127Y127213D01*
X184120Y127241D01*
X184115Y127273D01*
X184111Y127313D01*
X184104Y127360D01*
Y127362D01*
X184101Y127371D01*
Y127385D01*
X184097Y127404D01*
X184094Y127425D01*
X184092Y127451D01*
X184087Y127479D01*
X184083Y127509D01*
X184071Y127572D01*
X184057Y127637D01*
X184043Y127698D01*
X184034Y127726D01*
X184027Y127751D01*
X184013D01*
X184003Y127754D01*
X183950D01*
X183924Y127751D01*
X183896Y127747D01*
X183864Y127737D01*
X183833Y127728D01*
X183803Y127712D01*
X183780Y127691D01*
X183777Y127686D01*
X183768Y127674D01*
X183756Y127656D01*
X183742Y127628D01*
X183728Y127591D01*
X183717Y127549D01*
X183707Y127497D01*
X183705Y127439D01*
Y127437D01*
Y127432D01*
Y127425D01*
Y127413D01*
X183707Y127385D01*
X183712Y127353D01*
X183719Y127313D01*
X183728Y127276D01*
X183742Y127238D01*
X183761Y127208D01*
X183763Y127206D01*
X183770Y127196D01*
X183784Y127182D01*
X183805Y127169D01*
X183831Y127150D01*
X183864Y127134D01*
X183906Y127115D01*
X183952Y127101D01*
X183922Y126886D01*
X183920D01*
X183915Y126889D01*
X183908D01*
X183899Y126891D01*
X183873Y126898D01*
X183843Y126910D01*
X183808Y126921D01*
X183770Y126938D01*
X183733Y126959D01*
X183700Y126982D01*
X183696Y126984D01*
X183686Y126994D01*
X183672Y127010D01*
X183651Y127031D01*
X183630Y127059D01*
X183609Y127092D01*
X183588Y127131D01*
X183570Y127175D01*
Y127178D01*
X183567Y127182D01*
X183565Y127189D01*
X183563Y127199D01*
X183558Y127210D01*
X183556Y127224D01*
X183546Y127262D01*
X183537Y127304D01*
X183530Y127355D01*
X183525Y127411D01*
X183523Y127472D01*
Y127474D01*
Y127479D01*
Y127488D01*
Y127500D01*
Y127514D01*
X183525Y127530D01*
X183528Y127567D01*
X183532Y127609D01*
X183539Y127656D01*
X183549Y127698D01*
X183563Y127740D01*
Y127742D01*
X183565Y127744D01*
X183570Y127756D01*
X183579Y127775D01*
X183591Y127798D01*
X183605Y127824D01*
X183621Y127849D01*
X183642Y127873D01*
X183663Y127894D01*
X183665Y127896D01*
X183672Y127901D01*
X183686Y127910D01*
X183703Y127922D01*
X183724Y127933D01*
X183749Y127945D01*
X183777Y127954D01*
X183810Y127964D01*
X183812D01*
X183822Y127966D01*
X183836Y127968D01*
X183857Y127971D01*
X183885D01*
X183920Y127973D01*
X183962Y127975D01*
X184437D01*
X184470Y127978D01*
X184535D01*
X184598Y127980D01*
X184628Y127982D01*
X184654D01*
X184675Y127985D01*
X184694Y127987D01*
X184698D01*
X184708Y127989D01*
X184724Y127994D01*
X184743Y127999D01*
X184768Y128008D01*
X184794Y128017D01*
X184822Y128029D01*
X184850Y128043D01*
Y127812D01*
D02*
G37*
G36*
X180531Y115773D02*
X179531D01*
X180531Y116773D01*
Y115773D01*
D02*
G37*
G36*
X150148Y132266D02*
X149148D01*
Y133266D01*
X150148Y132266D01*
D02*
G37*
G36*
X184850Y130403D02*
X184001D01*
X183989Y130400D01*
X183973Y130398D01*
X183936Y130393D01*
X183899Y130384D01*
X183859Y130372D01*
X183822Y130354D01*
X183789Y130330D01*
X183787Y130328D01*
X183777Y130316D01*
X183766Y130300D01*
X183749Y130279D01*
X183735Y130249D01*
X183724Y130214D01*
X183714Y130174D01*
X183712Y130127D01*
Y130123D01*
Y130111D01*
X183714Y130092D01*
X183719Y130069D01*
X183724Y130041D01*
X183733Y130011D01*
X183747Y129978D01*
X183763Y129946D01*
X183766Y129941D01*
X183773Y129932D01*
X183784Y129915D01*
X183801Y129899D01*
X183819Y129878D01*
X183843Y129857D01*
X183871Y129838D01*
X183901Y129822D01*
X183906Y129820D01*
X183917Y129817D01*
X183936Y129810D01*
X183964Y129806D01*
X183996Y129799D01*
X184038Y129792D01*
X184087Y129789D01*
X184141Y129787D01*
X184850D01*
Y129568D01*
X183057D01*
Y129787D01*
X183703D01*
X183700Y129789D01*
X183696Y129794D01*
X183686Y129803D01*
X183675Y129815D01*
X183661Y129829D01*
X183647Y129848D01*
X183630Y129869D01*
X183612Y129892D01*
X183595Y129920D01*
X183579Y129948D01*
X183565Y129981D01*
X183551Y130013D01*
X183539Y130051D01*
X183530Y130090D01*
X183525Y130132D01*
X183523Y130174D01*
Y130176D01*
Y130181D01*
Y130188D01*
Y130197D01*
X183525Y130225D01*
X183530Y130258D01*
X183537Y130298D01*
X183549Y130337D01*
X183563Y130382D01*
X183581Y130421D01*
Y130424D01*
X183584Y130426D01*
X183591Y130440D01*
X183605Y130459D01*
X183621Y130482D01*
X183644Y130505D01*
X183670Y130531D01*
X183703Y130554D01*
X183738Y130575D01*
X183742Y130577D01*
X183756Y130582D01*
X183780Y130589D01*
X183812Y130598D01*
X183852Y130608D01*
X183903Y130615D01*
X183962Y130619D01*
X184029Y130622D01*
X184850D01*
Y130403D01*
D02*
G37*
G36*
X184507Y129304D02*
X184535Y129300D01*
X184568Y129290D01*
X184603Y129279D01*
X184640Y129262D01*
X184677Y129241D01*
X184682Y129239D01*
X184694Y129230D01*
X184710Y129213D01*
X184731Y129195D01*
X184757Y129167D01*
X184780Y129134D01*
X184806Y129097D01*
X184827Y129055D01*
Y129053D01*
X184829Y129050D01*
X184831Y129043D01*
X184834Y129034D01*
X184843Y129008D01*
X184852Y128976D01*
X184862Y128936D01*
X184871Y128889D01*
X184876Y128838D01*
X184878Y128782D01*
Y128780D01*
Y128770D01*
Y128759D01*
X184876Y128740D01*
Y128719D01*
X184873Y128696D01*
X184869Y128668D01*
X184864Y128637D01*
X184852Y128577D01*
X184834Y128512D01*
X184808Y128451D01*
X184794Y128421D01*
X184775Y128395D01*
X184773Y128393D01*
X184771Y128390D01*
X184764Y128383D01*
X184757Y128374D01*
X184745Y128362D01*
X184731Y128351D01*
X184715Y128339D01*
X184696Y128325D01*
X184675Y128311D01*
X184652Y128295D01*
X184626Y128281D01*
X184598Y128269D01*
X184568Y128255D01*
X184535Y128243D01*
X184500Y128234D01*
X184463Y128227D01*
X184428Y128444D01*
X184433D01*
X184440Y128446D01*
X184449Y128449D01*
X184472Y128453D01*
X184502Y128463D01*
X184535Y128477D01*
X184568Y128493D01*
X184600Y128516D01*
X184628Y128544D01*
X184631Y128549D01*
X184638Y128561D01*
X184649Y128579D01*
X184661Y128605D01*
X184675Y128640D01*
X184684Y128679D01*
X184694Y128726D01*
X184696Y128780D01*
Y128782D01*
Y128787D01*
Y128794D01*
Y128805D01*
X184694Y128831D01*
X184689Y128866D01*
X184682Y128901D01*
X184670Y128938D01*
X184656Y128976D01*
X184635Y129006D01*
X184633Y129008D01*
X184624Y129018D01*
X184612Y129029D01*
X184593Y129043D01*
X184572Y129057D01*
X184549Y129069D01*
X184521Y129078D01*
X184491Y129081D01*
X184479D01*
X184465Y129078D01*
X184449Y129074D01*
X184430Y129064D01*
X184412Y129053D01*
X184393Y129036D01*
X184374Y129015D01*
X184372Y129013D01*
X184370Y129006D01*
X184363Y128992D01*
X184356Y128969D01*
X184349Y128955D01*
X184344Y128941D01*
X184339Y128922D01*
X184332Y128901D01*
X184325Y128878D01*
X184318Y128850D01*
X184309Y128822D01*
X184302Y128789D01*
Y128787D01*
X184300Y128777D01*
X184295Y128766D01*
X184290Y128749D01*
X184286Y128731D01*
X184279Y128707D01*
X184265Y128656D01*
X184248Y128600D01*
X184230Y128544D01*
X184220Y128519D01*
X184211Y128495D01*
X184204Y128472D01*
X184195Y128453D01*
X184192Y128449D01*
X184185Y128437D01*
X184176Y128421D01*
X184162Y128400D01*
X184146Y128379D01*
X184125Y128353D01*
X184101Y128332D01*
X184073Y128311D01*
X184069Y128309D01*
X184059Y128304D01*
X184043Y128297D01*
X184022Y128288D01*
X183996Y128278D01*
X183966Y128271D01*
X183934Y128267D01*
X183899Y128264D01*
X183885D01*
X183868Y128267D01*
X183845Y128269D01*
X183822Y128274D01*
X183794Y128281D01*
X183766Y128290D01*
X183738Y128304D01*
X183735Y128306D01*
X183726Y128311D01*
X183712Y128320D01*
X183693Y128332D01*
X183675Y128348D01*
X183654Y128367D01*
X183633Y128388D01*
X183614Y128411D01*
X183612Y128414D01*
X183607Y128421D01*
X183600Y128432D01*
X183593Y128449D01*
X183581Y128467D01*
X183572Y128493D01*
X183560Y128521D01*
X183551Y128551D01*
X183549Y128556D01*
X183546Y128568D01*
X183542Y128584D01*
X183537Y128609D01*
X183532Y128637D01*
X183528Y128670D01*
X183523Y128705D01*
Y128742D01*
Y128745D01*
Y128749D01*
Y128756D01*
Y128768D01*
X183525Y128782D01*
Y128796D01*
X183528Y128833D01*
X183535Y128873D01*
X183542Y128920D01*
X183553Y128964D01*
X183567Y129008D01*
Y129011D01*
X183570Y129013D01*
X183574Y129027D01*
X183586Y129048D01*
X183600Y129074D01*
X183616Y129101D01*
X183637Y129129D01*
X183661Y129157D01*
X183689Y129181D01*
X183691Y129183D01*
X183703Y129190D01*
X183719Y129199D01*
X183742Y129211D01*
X183770Y129225D01*
X183803Y129237D01*
X183843Y129248D01*
X183887Y129258D01*
X183917Y129043D01*
X183913D01*
X183901Y129039D01*
X183882Y129034D01*
X183861Y129027D01*
X183836Y129015D01*
X183810Y128999D01*
X183787Y128980D01*
X183763Y128957D01*
X183761Y128955D01*
X183754Y128943D01*
X183745Y128929D01*
X183733Y128906D01*
X183724Y128878D01*
X183714Y128843D01*
X183707Y128803D01*
X183705Y128756D01*
Y128754D01*
Y128749D01*
Y128742D01*
Y128731D01*
X183707Y128705D01*
X183712Y128672D01*
X183717Y128637D01*
X183726Y128600D01*
X183740Y128568D01*
X183756Y128540D01*
X183759Y128537D01*
X183766Y128530D01*
X183775Y128519D01*
X183789Y128509D01*
X183805Y128498D01*
X183826Y128486D01*
X183847Y128479D01*
X183873Y128477D01*
X183880D01*
X183887Y128479D01*
X183899D01*
X183922Y128488D01*
X183936Y128493D01*
X183950Y128502D01*
X183952Y128505D01*
X183955Y128507D01*
X183962Y128514D01*
X183971Y128523D01*
X183980Y128535D01*
X183989Y128549D01*
X183999Y128568D01*
X184008Y128586D01*
Y128589D01*
X184010Y128593D01*
X184015Y128605D01*
X184020Y128623D01*
X184027Y128649D01*
X184031Y128665D01*
X184036Y128684D01*
X184043Y128705D01*
X184048Y128728D01*
X184057Y128754D01*
X184064Y128782D01*
Y128784D01*
X184066Y128791D01*
X184069Y128805D01*
X184073Y128819D01*
X184080Y128838D01*
X184085Y128861D01*
X184099Y128910D01*
X184115Y128964D01*
X184132Y129018D01*
X184148Y129067D01*
X184157Y129087D01*
X184164Y129106D01*
X184167Y129111D01*
X184171Y129122D01*
X184181Y129139D01*
X184195Y129160D01*
X184211Y129183D01*
X184230Y129206D01*
X184253Y129232D01*
X184281Y129253D01*
X184283Y129255D01*
X184295Y129262D01*
X184311Y129269D01*
X184332Y129281D01*
X184360Y129290D01*
X184391Y129297D01*
X184428Y129304D01*
X184467Y129307D01*
X184486D01*
X184507Y129304D01*
D02*
G37*
%LPC*%
G36*
X184280Y118917D02*
X183693Y118717D01*
X184280Y118514D01*
Y118917D01*
D02*
G37*
G36*
X183791Y120768D02*
X183753D01*
X183742Y120766D01*
X183728D01*
X183693Y120757D01*
X183674Y120750D01*
X183658Y120741D01*
X183655D01*
X183651Y120736D01*
X183641Y120729D01*
X183632Y120720D01*
X183620Y120708D01*
X183609Y120694D01*
X183597Y120675D01*
X183588Y120654D01*
Y120652D01*
X183585Y120647D01*
X183581Y120638D01*
X183578Y120624D01*
X183574Y120610D01*
X183569Y120591D01*
X183564Y120552D01*
Y120549D01*
Y120542D01*
X183562Y120528D01*
Y120512D01*
Y120493D01*
X183560Y120470D01*
Y120444D01*
Y120416D01*
Y120262D01*
X184010D01*
Y120393D01*
Y120395D01*
Y120398D01*
Y120409D01*
Y120430D01*
X184007Y120454D01*
Y120479D01*
X184005Y120510D01*
X184003Y120538D01*
X184000Y120566D01*
Y120568D01*
X183998Y120577D01*
X183996Y120591D01*
X183991Y120608D01*
X183977Y120645D01*
X183965Y120664D01*
X183954Y120682D01*
X183951Y120685D01*
X183947Y120689D01*
X183942Y120699D01*
X183933Y120708D01*
X183909Y120729D01*
X183879Y120747D01*
X183877D01*
X183872Y120750D01*
X183861Y120755D01*
X183849Y120759D01*
X183833Y120761D01*
X183812Y120766D01*
X183791Y120768D01*
D02*
G37*
G36*
X184281Y127751D02*
X184199D01*
Y127749D01*
X184202Y127747D01*
X184204Y127740D01*
X184206Y127728D01*
X184211Y127716D01*
X184216Y127700D01*
X184223Y127681D01*
X184227Y127660D01*
X184234Y127637D01*
X184241Y127612D01*
X184248Y127581D01*
X184255Y127549D01*
X184262Y127514D01*
X184269Y127476D01*
X184276Y127437D01*
X184283Y127392D01*
Y127390D01*
Y127385D01*
X184286Y127381D01*
Y127371D01*
X184290Y127346D01*
X184295Y127318D01*
X184302Y127287D01*
X184309Y127255D01*
X184318Y127224D01*
X184328Y127201D01*
Y127199D01*
X184332Y127192D01*
X184337Y127182D01*
X184344Y127169D01*
X184367Y127141D01*
X184381Y127127D01*
X184398Y127115D01*
X184400Y127113D01*
X184405Y127110D01*
X184416Y127106D01*
X184428Y127101D01*
X184444Y127094D01*
X184460Y127089D01*
X184481Y127087D01*
X184502Y127085D01*
X184516D01*
X184533Y127089D01*
X184554Y127094D01*
X184575Y127101D01*
X184600Y127113D01*
X184624Y127129D01*
X184647Y127150D01*
X184649Y127152D01*
X184656Y127161D01*
X184666Y127178D01*
X184675Y127199D01*
X184687Y127227D01*
X184696Y127262D01*
X184703Y127301D01*
X184705Y127346D01*
Y127348D01*
Y127350D01*
Y127357D01*
Y127367D01*
X184703Y127390D01*
X184698Y127420D01*
X184691Y127455D01*
X184682Y127493D01*
X184670Y127532D01*
X184652Y127570D01*
Y127572D01*
X184649Y127574D01*
X184642Y127586D01*
X184628Y127605D01*
X184612Y127626D01*
X184591Y127649D01*
X184563Y127674D01*
X184535Y127698D01*
X184500Y127716D01*
X184495Y127719D01*
X184486Y127721D01*
X184470Y127728D01*
X184444Y127735D01*
X184414Y127740D01*
X184377Y127747D01*
X184332Y127749D01*
X184281Y127751D01*
D02*
G37*
%LPD*%
D85*
X127190Y131864D02*
G03*
X127190Y131864I-102J0D01*
G01*
X118148Y111290D02*
G03*
X118148Y111290I-102J0D01*
G01*
X116421Y132575D02*
G03*
X116421Y132575I-102J0D01*
G01*
X119050Y137185D02*
G03*
X119050Y137185I-102J0D01*
G01*
X119913Y137187D02*
G03*
X119913Y137187I-102J0D01*
G01*
X120726Y137185D02*
G03*
X120726Y137185I-102J0D01*
G01*
X121641D02*
G03*
X121641Y137185I-102J0D01*
G01*
X122504D02*
G03*
X122504Y137185I-102J0D01*
G01*
X123419Y137198D02*
G03*
X123419Y137198I-102J0D01*
G01*
X127178Y129870D02*
G03*
X127178Y129870I-102J0D01*
G01*
Y130747D02*
G03*
X127178Y130747I-102J0D01*
G01*
X118250Y137185D02*
G03*
X118250Y137185I-102J0D01*
G01*
X116434Y130111D02*
G03*
X116434Y130111I-102J0D01*
G01*
X116408Y128829D02*
G03*
X116408Y128829I-102J0D01*
G01*
X116040Y135649D02*
G03*
X116040Y135649I-102J0D01*
G01*
Y136550D02*
G03*
X116040Y136550I-102J0D01*
G01*
X176354Y151399D02*
G03*
X176354Y151399I-102J0D01*
G01*
X157786Y150713D02*
G03*
X157786Y150713I-102J0D01*
G01*
X156135Y152009D02*
G03*
X156135Y152009I-102J0D01*
G01*
X157812Y151602D02*
G03*
X157812Y151602I-102J0D01*
G01*
X117756Y145938D02*
G03*
X117756Y145938I-102J0D01*
G01*
X118696Y145939D02*
G03*
X118696Y145939I-102J0D01*
G01*
X119712Y145938D02*
G03*
X119712Y145938I-102J0D01*
G01*
X157812Y152542D02*
G03*
X157812Y152542I-102J0D01*
G01*
X153976Y152009D02*
G03*
X153976Y152009I-102J0D01*
G01*
X178513Y151323D02*
G03*
X178513Y151323I-102J0D01*
G01*
X182094Y151831D02*
G03*
X182094Y151831I-102J0D01*
G01*
X182069Y150891D02*
G03*
X182069Y150891I-102J0D01*
G01*
X179605Y151323D02*
G03*
X179605Y151323I-102J0D01*
G01*
X178219Y114516D02*
G03*
X178219Y114516I-102J0D01*
G01*
X155118Y131178D02*
G03*
X155118Y131178I-102J0D01*
G01*
X155130Y130111D02*
G03*
X155130Y130111I-102J0D01*
G01*
X124231Y143675D02*
G03*
X124231Y143675I-102J0D01*
G01*
X126492Y143662D02*
G03*
X126492Y143662I-102J0D01*
G01*
X161569Y151879D02*
G03*
X161569Y151879I-102J0D01*
G01*
X110274Y142557D02*
G03*
X110274Y142557I-127J0D01*
G01*
X110720Y130165D02*
G03*
X110720Y130165I-127J0D01*
G01*
X110883Y125728D02*
X112153D01*
X110883Y125430D02*
Y125728D01*
Y125430D02*
X112153D01*
Y125728D01*
X179347Y111888D02*
Y113158D01*
X179049D02*
X179347D01*
X179049Y111888D02*
Y113158D01*
Y111888D02*
X179347D01*
X124998Y137504D02*
X125296D01*
X124998D02*
Y138774D01*
X125296D01*
Y137504D02*
Y138774D01*
X173011Y150673D02*
X173594D01*
X173711Y150789D01*
Y151023D01*
X173594Y151139D01*
X173011D01*
X173711Y151839D02*
Y151373D01*
X173244Y151839D01*
X173127D01*
X173011Y151722D01*
Y151489D01*
X173127Y151373D01*
Y152072D02*
X173011Y152189D01*
Y152422D01*
X173127Y152539D01*
X173594D01*
X173711Y152422D01*
Y152189D01*
X173594Y152072D01*
X173127D01*
X167577Y150153D02*
X168043Y149454D01*
Y150153D02*
X167577Y149454D01*
X168276D02*
X168510D01*
X168393D01*
Y150153D01*
X168276Y150037D01*
X146418Y143624D02*
X145619D01*
Y144024D01*
X145752Y144157D01*
X146018D01*
X146152Y144024D01*
Y143624D01*
Y143891D02*
X146418Y144157D01*
X145619Y144957D02*
Y144424D01*
X146418D01*
Y144957D01*
X146018Y144424D02*
Y144691D01*
X145752Y145757D02*
X145619Y145624D01*
Y145357D01*
X145752Y145224D01*
X145885D01*
X146018Y145357D01*
Y145624D01*
X146152Y145757D01*
X146285D01*
X146418Y145624D01*
Y145357D01*
X146285Y145224D01*
X145619Y146557D02*
Y146024D01*
X146418D01*
Y146557D01*
X146018Y146024D02*
Y146290D01*
X145619Y146823D02*
Y147356D01*
Y147090D01*
X146418D01*
D86*
X163602Y102058D02*
G03*
X163602Y102058I-317J0D01*
G01*
X147573Y113994D02*
G03*
X147573Y113994I-317J0D01*
G01*
X131915Y116165D02*
G03*
X131915Y116165I-127J0D01*
G01*
X177535Y102608D02*
Y112708D01*
X163435D02*
X177535D01*
X163435Y102608D02*
Y112708D01*
Y102608D02*
X177535D01*
X133006Y103344D02*
Y113445D01*
Y103344D02*
X147106D01*
Y113445D01*
X133006D02*
X147106D01*
X132273Y131282D02*
X147691D01*
X132273Y115865D02*
Y131282D01*
Y115865D02*
X147691D01*
Y131282D01*
X173650Y140093D02*
X174158D01*
Y140099D02*
Y140607D01*
X174793D01*
X174800D02*
Y142893D01*
X165342Y140093D02*
X165850D01*
X165342Y140099D02*
Y140607D01*
X164707D02*
X165342D01*
X164700D02*
Y142893D01*
X136882Y113499D02*
Y115207D01*
Y113499D02*
X140390D01*
Y115207D01*
X136882D02*
X140390D01*
D90*
X158318Y123354D02*
G03*
X158318Y122719I0J-317D01*
G01*
X183858Y144743D02*
G03*
X183858Y145378I0J317D01*
G01*
X151463Y146448D02*
G03*
X151463Y147481I0J517D01*
G01*
X160609Y148242D02*
X161209D01*
X160609Y146042D02*
X161209D01*
X160609D02*
Y148242D01*
X161209Y146042D02*
Y148242D01*
X188555Y159834D02*
Y161034D01*
X186755Y157734D02*
X188555D01*
X186755Y161034D02*
X188555D01*
Y157734D02*
Y158934D01*
X186755Y157734D02*
Y158934D01*
Y159834D02*
Y161034D01*
X109755Y145693D02*
X110955D01*
X113055Y143893D02*
Y145693D01*
X109755Y143893D02*
Y145693D01*
X111855D02*
X113055D01*
X111855Y143893D02*
X113055D01*
X109755D02*
X110955D01*
X126757Y127907D02*
Y129107D01*
X124957Y125807D02*
X126757D01*
X124957Y129107D02*
X126757D01*
Y125807D02*
Y127007D01*
X124957Y125807D02*
Y127007D01*
Y127907D02*
Y129107D01*
X118705Y126611D02*
Y127811D01*
X116905Y124511D02*
X118705D01*
X116905Y127811D02*
X118705D01*
Y124511D02*
Y125711D01*
X116905Y124511D02*
Y125711D01*
Y126611D02*
Y127811D01*
X112511Y131929D02*
X113711D01*
X114611D02*
X115811D01*
X114611Y133729D02*
X115811D01*
X112511Y131929D02*
Y133729D01*
X115811Y131929D02*
Y133729D01*
X112511D02*
X113711D01*
X168658Y157431D02*
X169858D01*
X170758D02*
X171958D01*
X170758Y159231D02*
X171958D01*
X168658Y157431D02*
Y159231D01*
X171958Y157431D02*
Y159231D01*
X168658D02*
X169858D01*
X103318Y135488D02*
X104518D01*
X105418D02*
X106618D01*
X105418Y137288D02*
X106618D01*
Y135488D02*
Y137288D01*
X103318D02*
X104518D01*
X102724Y137313D02*
X103633D01*
X100624D02*
X101824D01*
X100624Y135513D02*
X101824D01*
X103633D02*
Y137313D01*
X100624Y135513D02*
Y137313D01*
X102724Y135513D02*
X103633D01*
X189671Y106229D02*
Y107729D01*
X186071Y106229D02*
Y107729D01*
Y102529D02*
Y104029D01*
X189671Y102529D02*
Y104029D01*
X186071Y107729D02*
X189671D01*
X186071Y102529D02*
X189671D01*
X164246Y140964D02*
Y142464D01*
X160646Y140964D02*
Y142464D01*
Y137264D02*
Y138764D01*
X164246Y137264D02*
Y138764D01*
X160646Y142464D02*
X164246D01*
X160646Y137264D02*
X164246D01*
X162838Y103570D02*
Y104770D01*
Y105670D02*
Y106870D01*
X161038Y105670D02*
Y106870D01*
Y103570D02*
X162838D01*
X161038Y106870D02*
X162838D01*
X161038Y103570D02*
Y104770D01*
X151752Y158745D02*
Y161345D01*
X146752Y158745D02*
Y161345D01*
X150352D02*
X151752D01*
X150352Y158745D02*
X151752D01*
X146752D02*
X148152D01*
X146752Y161345D02*
X148152D01*
X114610Y135507D02*
X115810D01*
X112510D02*
X113710D01*
X112510Y133707D02*
X113710D01*
X115810D02*
Y135507D01*
X112510Y133707D02*
Y135507D01*
X114610Y133707D02*
X115810D01*
X121645Y145147D02*
X122845D01*
X119545D02*
X120745D01*
X119545Y143347D02*
X120745D01*
X122845D02*
Y145147D01*
X119545Y143347D02*
Y145147D01*
X121645Y143347D02*
X122845D01*
X126479Y147315D02*
Y149915D01*
X121479Y147315D02*
Y149915D01*
X125079D02*
X126479D01*
X125079Y147315D02*
X126479D01*
X121479D02*
X122879D01*
X121479Y149915D02*
X122879D01*
X126504Y149678D02*
Y152278D01*
X121504Y149678D02*
Y152278D01*
X125104D02*
X126504D01*
X125104Y149678D02*
X126504D01*
X121504D02*
X122904D01*
X121504Y152278D02*
X122904D01*
X179329Y162660D02*
X180529D01*
X177229D02*
X178429D01*
X177229Y160860D02*
X178429D01*
X180529D02*
Y162660D01*
X177229Y160860D02*
Y162660D01*
X179329Y160860D02*
X180529D01*
X184177Y160847D02*
X185377D01*
X186277D02*
X187477D01*
X186277Y162647D02*
X187477D01*
X184177Y160847D02*
Y162647D01*
X187477Y160847D02*
Y162647D01*
X184177D02*
X185377D01*
X159221Y158303D02*
Y160903D01*
X154221Y158303D02*
Y160903D01*
X157821D02*
X159221D01*
X157821Y158303D02*
X159221D01*
X154221D02*
X155621D01*
X154221Y160903D02*
X155621D01*
X159636Y156315D02*
X162236D01*
X159636Y161315D02*
X162236D01*
Y156315D02*
Y157715D01*
X159636Y156315D02*
Y157715D01*
Y159915D02*
Y161315D01*
X162236Y159915D02*
Y161315D01*
X168648Y161983D02*
X170048D01*
X168648Y159383D02*
X170048D01*
X172248D02*
X173648D01*
X172248Y161983D02*
X173648D01*
X168648Y159383D02*
Y161983D01*
X173648Y159383D02*
Y161983D01*
X178503Y160827D02*
X179903D01*
X178503Y158227D02*
X179903D01*
X182103D02*
X183503D01*
X182103Y160827D02*
X183503D01*
X178503Y158227D02*
Y160827D01*
X183503Y158227D02*
Y160827D01*
X186488Y155285D02*
Y155785D01*
X184456Y155285D02*
Y155785D01*
X186488Y153261D02*
Y153761D01*
X186747Y159432D02*
Y160832D01*
X184147Y159432D02*
Y160832D01*
Y155832D02*
Y157232D01*
X186747Y155832D02*
Y157232D01*
X184147Y160832D02*
X186747D01*
X184147Y155832D02*
X186747D01*
X183027Y153287D02*
Y153812D01*
X183002Y153287D02*
X183027D01*
X175827D02*
X175852D01*
X175827D02*
Y153812D01*
Y156962D02*
Y157487D01*
X175852D01*
X183002D02*
X183027D01*
Y156962D02*
Y157487D01*
X158318Y123354D02*
Y125747D01*
Y120327D02*
Y122719D01*
X153238Y120327D02*
X158318D01*
X153238D02*
Y125747D01*
X158318D01*
X151382Y148808D02*
Y150008D01*
Y150908D02*
Y152108D01*
X149582Y150908D02*
Y152108D01*
Y148808D02*
X151382D01*
X149582Y152108D02*
X151382D01*
X149582Y148808D02*
Y150008D01*
X118978Y117448D02*
X120178D01*
X116878D02*
X118078D01*
X116878Y115648D02*
X118078D01*
X120178D02*
Y117448D01*
X116878Y115648D02*
Y117448D01*
X118978Y115648D02*
X120178D01*
X118239Y141540D02*
X119439D01*
X121539Y139740D02*
Y141540D01*
X118239Y139740D02*
Y141540D01*
X120339D02*
X121539D01*
X120339Y139740D02*
X121539D01*
X118239D02*
X119439D01*
X118239Y143356D02*
X119439D01*
X121539Y141556D02*
Y143356D01*
X118239Y141556D02*
Y143356D01*
X120339D02*
X121539D01*
X120339Y141556D02*
X121539D01*
X118239D02*
X119439D01*
X122725Y145222D02*
Y146522D01*
X186732Y152494D02*
Y153994D01*
X190331Y152494D02*
Y153994D01*
Y156194D02*
Y157694D01*
X186732Y156194D02*
Y157694D01*
Y152494D02*
X190331D01*
X186732Y157694D02*
X190331D01*
X160609Y151239D02*
X161209D01*
X160609Y149039D02*
X161209D01*
X160609D02*
Y151239D01*
X161209Y149039D02*
Y151239D01*
X98639Y138052D02*
Y147952D01*
Y138052D02*
X99939D01*
X104546Y138049D02*
X105054D01*
X104546Y147955D02*
X105054D01*
X98639Y147952D02*
X99939D01*
X108239Y139952D02*
Y140752D01*
Y145252D02*
Y146052D01*
X98703Y125136D02*
Y135036D01*
Y125136D02*
X100003D01*
X104610Y125133D02*
X105118D01*
X104610Y135039D02*
X105118D01*
X98703Y135036D02*
X100003D01*
X108303Y127036D02*
Y127836D01*
Y132336D02*
Y133136D01*
X179531Y115773D02*
X180531Y116773D01*
Y115773D02*
Y134773D01*
X161531Y115773D02*
Y134773D01*
Y115773D02*
X180531D01*
X161531Y134773D02*
X180531D01*
X121577Y152514D02*
X126177D01*
Y159014D02*
Y161314D01*
X121577Y159014D02*
Y161314D01*
X124030Y155378D02*
Y156378D01*
X126177Y152514D02*
Y154814D01*
X121577Y161314D02*
X126177D01*
X121577Y152514D02*
Y154814D01*
X123563Y155920D02*
X124563D01*
X190475Y142350D02*
X201275D01*
Y104950D02*
Y142350D01*
X190475Y104950D02*
X201275D01*
X190475D02*
Y142350D01*
X111077Y149490D02*
Y152277D01*
X111204Y157277D02*
Y159777D01*
X95473D02*
X111204D01*
X109473Y149490D02*
X111077D01*
X95473Y149777D02*
Y159777D01*
Y149777D02*
X102973D01*
X183858Y142350D02*
X188938D01*
Y147770D01*
X183858D02*
X188938D01*
X183858Y145378D02*
Y147770D01*
Y142350D02*
Y144743D01*
X161952Y153566D02*
Y154066D01*
X159920Y155590D02*
Y156090D01*
X161952Y155590D02*
Y156090D01*
X158541Y157165D02*
Y157690D01*
X158516D02*
X158541D01*
X151341D02*
X151366D01*
X151341Y157165D02*
Y157690D01*
Y153490D02*
Y154015D01*
Y153490D02*
X151366D01*
X158516D02*
X158541D01*
Y154015D01*
X193753Y146345D02*
Y159045D01*
X198833Y146345D02*
Y159045D01*
X193753D02*
X198833D01*
X193753Y146345D02*
X198833D01*
X126454Y141910D02*
Y142685D01*
X126679D01*
X126454Y139585D02*
Y140360D01*
Y139585D02*
X126679D01*
X123354Y141910D02*
Y142685D01*
X123130D02*
X123354D01*
X123242Y139585D02*
X123354Y139473D01*
Y140360D01*
X123130Y139585D02*
X123242D01*
X172568Y152934D02*
Y154634D01*
X169468Y152934D02*
Y154634D01*
X172568D01*
X169468Y152934D02*
X172568D01*
X114782Y125844D02*
X116232D01*
X114782Y124194D02*
Y125844D01*
X112932Y128044D02*
X116232D01*
X112932Y124194D02*
Y128044D01*
X116232Y124194D02*
Y128044D01*
X112932Y124194D02*
X116232D01*
X179491Y144839D02*
X182626D01*
Y144744D02*
Y144839D01*
X176326D02*
X179461D01*
X176326Y144744D02*
Y144839D01*
Y139539D02*
Y139634D01*
Y139539D02*
X179461D01*
X179491D02*
X182626D01*
Y139634D01*
X117478Y139392D02*
Y140067D01*
X116803Y139392D02*
X117478D01*
X113078D02*
Y140067D01*
Y139392D02*
X113753D01*
X113078Y143117D02*
Y143792D01*
X113753D01*
X117478Y143117D02*
Y143792D01*
X116803D02*
X117478D01*
X117658Y128250D02*
X117683D01*
Y128225D02*
Y128250D01*
Y135250D02*
Y135275D01*
X117658Y135250D02*
X117683D01*
X124683D02*
X124708D01*
X124683D02*
Y135275D01*
Y128225D02*
Y128250D01*
X124708D01*
X95339Y107315D02*
Y122809D01*
X111214Y107315D02*
X116929D01*
X111214Y122809D02*
X116929D01*
Y107315D02*
Y122809D01*
X95339Y107315D02*
X101054D01*
X95339Y122809D02*
X101054D01*
X151463Y148514D02*
X156563D01*
X151463Y145414D02*
X156563D01*
Y148514D01*
X151463Y147481D02*
Y148514D01*
Y145414D02*
Y146448D01*
X123622Y106896D02*
Y106981D01*
X122537Y106896D02*
X123622D01*
X120422D02*
X121507D01*
X120422D02*
Y106981D01*
Y110011D02*
Y110096D01*
X121507D01*
X122537D02*
X123622D01*
Y110011D02*
Y110096D01*
X111210Y151683D02*
Y151733D01*
Y151683D02*
X121610D01*
Y151733D01*
X111210D02*
Y161283D01*
X121610D01*
Y151733D02*
Y161283D01*
X115176Y162674D02*
X115510D01*
X115343D01*
Y163674D01*
X115176Y163507D01*
X116676Y162674D02*
X116009D01*
X116676Y163341D01*
Y163507D01*
X116509Y163674D01*
X116176D01*
X116009Y163507D01*
X117009Y163674D02*
Y163008D01*
X117342Y162674D01*
X117675Y163008D01*
Y163674D01*
X118009D02*
Y162674D01*
X118509D01*
X118675Y162841D01*
Y163507D01*
X118509Y163674D01*
X118009D01*
X119675Y163507D02*
X119508Y163674D01*
X119175D01*
X119008Y163507D01*
Y162841D01*
X119175Y162674D01*
X119508D01*
X119675Y162841D01*
X108906Y128960D02*
Y128627D01*
X109073Y128460D01*
X109739D01*
X109906Y128627D01*
Y128960D01*
X109739Y129127D01*
X109073D01*
X108906Y128960D01*
Y129460D02*
Y130127D01*
Y129793D01*
X109906D01*
X109073Y131126D02*
X108906Y130960D01*
Y130626D01*
X109073Y130460D01*
X109739D01*
X109906Y130626D01*
Y130960D01*
X109739Y131126D01*
X109406D01*
Y130793D01*
X110191Y138984D02*
X110025Y139150D01*
X109691D01*
X109525Y138984D01*
Y138317D01*
X109691Y138151D01*
X110025D01*
X110191Y138317D01*
X111024Y139150D02*
X110691D01*
X110524Y138984D01*
Y138317D01*
X110691Y138151D01*
X111024D01*
X111191Y138317D01*
Y138984D01*
X111024Y139150D01*
X111524Y138151D02*
Y139150D01*
X112191Y138151D01*
Y139150D01*
X189574Y140287D02*
X189841D01*
X189708D01*
Y141086D01*
X189574Y140953D01*
D92*
X129097Y158608D02*
Y158947D01*
X128220Y159764D02*
X128698D01*
X128231Y157764D02*
X128709D01*
X192977Y157391D02*
X193243D01*
X193110D01*
Y158191D01*
X192977Y158058D01*
D93*
X111074Y161672D02*
G03*
X111048Y164155I19J1242D01*
G01*
X160009Y148542D02*
G03*
X160009Y148542I-125J0D01*
G01*
X184002Y154137D02*
G03*
X184002Y154137I-125J0D01*
G01*
X179623Y110846D02*
G03*
X179623Y110846I-125J0D01*
G01*
X160009Y151539D02*
G03*
X160009Y151539I-125J0D01*
G01*
X109014Y144602D02*
G03*
X109014Y144602I-125J0D01*
G01*
X109078Y131686D02*
G03*
X109078Y131686I-125J0D01*
G01*
X181306Y115923D02*
G03*
X181306Y115923I-125J0D01*
G01*
X179623Y106935D02*
G03*
X179623Y106935I-125J0D01*
G01*
X159516Y154340D02*
G03*
X159516Y154340I-125J0D01*
G01*
X123780Y138860D02*
G03*
X123780Y138860I-125J0D01*
G01*
X169393Y151684D02*
G03*
X169393Y151684I-125J0D01*
G01*
X183401Y139689D02*
G03*
X183401Y139689I-125J0D01*
G01*
X117453Y144442D02*
G03*
X117453Y144442I-125J0D01*
G01*
X119393Y127381D02*
G03*
X119393Y127381I-125J0D01*
G01*
X151488Y144189D02*
G03*
X151488Y144189I-125J0D01*
G01*
X124597Y107496D02*
G03*
X124597Y107496I-125J0D01*
G01*
X111775Y148533D02*
G03*
X111775Y148533I-125J0D01*
G01*
X150373Y131641D02*
G03*
X150373Y131641I-125J0D01*
G01*
X183553Y161506D02*
X184112Y160947D01*
X109055Y162954D02*
X111138D01*
X112357Y162916D02*
X113716D01*
D95*
X127274Y103951D02*
X129474D01*
Y105451D01*
X127274D02*
X129474D01*
X127274Y103951D02*
Y105451D01*
X110330Y131332D02*
X112530D01*
X110330Y129932D02*
X112530D01*
X160148Y132266D02*
Y141266D01*
X149148Y132266D02*
Y141266D01*
X160148D01*
X149148Y132266D02*
X160148D01*
X149148Y133266D02*
X150148Y132266D01*
X121792Y141542D02*
X122492D01*
Y141891D01*
X122375Y142008D01*
X121908D01*
X121792Y141891D01*
Y141542D01*
X121908Y142241D02*
X121792Y142358D01*
Y142591D01*
X121908Y142708D01*
X122025D01*
X122142Y142591D01*
Y142475D01*
Y142591D01*
X122258Y142708D01*
X122375D01*
X122492Y142591D01*
Y142358D01*
X122375Y142241D01*
X121843Y139764D02*
X122542D01*
Y140113D01*
X122426Y140230D01*
X121959D01*
X121843Y140113D01*
Y139764D01*
X122542Y140930D02*
Y140463D01*
X122076Y140930D01*
X121959D01*
X121843Y140813D01*
Y140580D01*
X121959Y140463D01*
X126708Y133580D02*
Y132997D01*
X126825Y132880D01*
X127058D01*
X127174Y132997D01*
Y133580D01*
X127408D02*
X127874D01*
Y133463D01*
X127408Y132997D01*
Y132880D01*
X125028Y136829D02*
X124911Y136945D01*
X124678D01*
X124562Y136829D01*
Y136362D01*
X124678Y136246D01*
X124911D01*
X125028Y136362D01*
X125728Y136246D02*
X125261D01*
X125728Y136712D01*
Y136829D01*
X125611Y136945D01*
X125378D01*
X125261Y136829D01*
X125961D02*
X126078Y136945D01*
X126311D01*
X126428Y136829D01*
Y136712D01*
X126311Y136595D01*
X126428Y136479D01*
Y136362D01*
X126311Y136246D01*
X126078D01*
X125961Y136362D01*
Y136479D01*
X126078Y136595D01*
X125961Y136712D01*
Y136829D01*
X126078Y136595D02*
X126311D01*
X126948Y140170D02*
X127531D01*
X127648Y140287D01*
Y140520D01*
X127531Y140636D01*
X126948D01*
X127065Y140870D02*
X126948Y140986D01*
Y141220D01*
X127065Y141336D01*
X127181D01*
X127298Y141220D01*
X127414Y141336D01*
X127531D01*
X127648Y141220D01*
Y140986D01*
X127531Y140870D01*
X127414D01*
X127298Y140986D01*
X127181Y140870D01*
X127065D01*
X127298Y140986D02*
Y141220D01*
X165202Y159983D02*
Y159283D01*
X165551D01*
X165668Y159400D01*
Y159517D01*
X165551Y159633D01*
X165202D01*
X165551D01*
X165668Y159750D01*
Y159867D01*
X165551Y159983D01*
X165202D01*
X165901D02*
X166368D01*
X166135D01*
Y159283D01*
X166601D02*
X166834D01*
X166718D01*
Y159983D01*
X166601Y159867D01*
X130569Y132157D02*
Y131574D01*
X130685Y131458D01*
X130919D01*
X131035Y131574D01*
Y132157D01*
X131268Y131458D02*
X131502D01*
X131385D01*
Y132157D01*
X131268Y132041D01*
X131852D02*
X131968Y132157D01*
X132202D01*
X132318Y132041D01*
Y131574D01*
X132202Y131458D01*
X131968D01*
X131852Y131574D01*
Y132041D01*
X119288Y124004D02*
X119054D01*
X119171D01*
Y123421D01*
X119054Y123304D01*
X118938D01*
X118821Y123421D01*
X119987Y124004D02*
X119521D01*
Y123654D01*
X119754Y123771D01*
X119871D01*
X119987Y123654D01*
Y123421D01*
X119871Y123304D01*
X119638D01*
X119521Y123421D01*
X115224Y123852D02*
X114990D01*
X115107D01*
Y123269D01*
X114990Y123152D01*
X114874D01*
X114757Y123269D01*
X115457Y123152D02*
X115690D01*
X115574D01*
Y123852D01*
X115457Y123735D01*
X184009Y109868D02*
X184592D01*
X184709Y109984D01*
Y110218D01*
X184592Y110334D01*
X184009D01*
X184709Y111034D02*
Y110567D01*
X184242Y111034D01*
X184126D01*
X184009Y110917D01*
Y110684D01*
X184126Y110567D01*
X184709Y111617D02*
X184009D01*
X184359Y111267D01*
Y111734D01*
X151889Y120166D02*
X151772Y120283D01*
X151539D01*
X151422Y120166D01*
Y120050D01*
X151539Y119933D01*
X151772D01*
X151889Y119816D01*
Y119700D01*
X151772Y119583D01*
X151539D01*
X151422Y119700D01*
X152588Y119583D02*
X152122D01*
X152588Y120050D01*
Y120166D01*
X152472Y120283D01*
X152238D01*
X152122Y120166D01*
X149847Y142648D02*
Y142065D01*
X149964Y141948D01*
X150197D01*
X150314Y142065D01*
Y142648D01*
X150547Y141948D02*
X150780D01*
X150664D01*
Y142648D01*
X150547Y142531D01*
X151130D02*
X151247Y142648D01*
X151480D01*
X151597Y142531D01*
Y142414D01*
X151480Y142298D01*
X151363D01*
X151480D01*
X151597Y142181D01*
Y142065D01*
X151480Y141948D01*
X151247D01*
X151130Y142065D01*
X183185Y152541D02*
Y151958D01*
X183301Y151841D01*
X183535D01*
X183651Y151958D01*
Y152541D01*
X184351Y151841D02*
X183885D01*
X184351Y152308D01*
Y152424D01*
X184234Y152541D01*
X184001D01*
X183885Y152424D01*
X184584Y151841D02*
X184818D01*
X184701D01*
Y152541D01*
X184584Y152424D01*
X181254Y161811D02*
Y162510D01*
X181604D01*
X181721Y162394D01*
Y162161D01*
X181604Y162044D01*
X181254D01*
X181488D02*
X181721Y161811D01*
X181954Y162394D02*
X182071Y162510D01*
X182304D01*
X182421Y162394D01*
Y162277D01*
X182304Y162161D01*
X182421Y162044D01*
Y161927D01*
X182304Y161811D01*
X182071D01*
X181954Y161927D01*
Y162044D01*
X182071Y162161D01*
X181954Y162277D01*
Y162394D01*
X182071Y162161D02*
X182304D01*
X183120Y162510D02*
X182887Y162394D01*
X182654Y162161D01*
Y161927D01*
X182771Y161811D01*
X183004D01*
X183120Y161927D01*
Y162044D01*
X183004Y162161D01*
X182654D01*
X177153Y158747D02*
X177037Y158630D01*
Y158397D01*
X177153Y158280D01*
X177620D01*
X177736Y158397D01*
Y158630D01*
X177620Y158747D01*
X177153Y158980D02*
X177037Y159096D01*
Y159330D01*
X177153Y159446D01*
X177270D01*
X177387Y159330D01*
X177503Y159446D01*
X177620D01*
X177736Y159330D01*
Y159096D01*
X177620Y158980D01*
X177503D01*
X177387Y159096D01*
X177270Y158980D01*
X177153D01*
X177387Y159096D02*
Y159330D01*
X177153Y159680D02*
X177037Y159796D01*
Y160030D01*
X177153Y160146D01*
X177620D01*
X177736Y160030D01*
Y159796D01*
X177620Y159680D01*
X177153D01*
X166837Y161060D02*
X166720Y161177D01*
X166487D01*
X166370Y161060D01*
Y160594D01*
X166487Y160477D01*
X166720D01*
X166837Y160594D01*
X167070Y161177D02*
X167536D01*
Y161060D01*
X167070Y160594D01*
Y160477D01*
X167770Y161060D02*
X167886Y161177D01*
X168119D01*
X168236Y161060D01*
Y160944D01*
X168119Y160827D01*
X168236Y160710D01*
Y160594D01*
X168119Y160477D01*
X167886D01*
X167770Y160594D01*
Y160710D01*
X167886Y160827D01*
X167770Y160944D01*
Y161060D01*
X167886Y160827D02*
X168119D01*
X127851Y122963D02*
Y122846D01*
X128084Y122613D01*
X128317Y122846D01*
Y122963D01*
X128084Y122613D02*
Y122263D01*
X128551D02*
X128784D01*
X128667D01*
Y122963D01*
X128551Y122846D01*
X111951Y129008D02*
Y128425D01*
X112067Y128308D01*
X112300D01*
X112417Y128425D01*
Y129008D01*
X112650Y128308D02*
X112884D01*
X112767D01*
Y129008D01*
X112650Y128891D01*
X149998Y153162D02*
X150582D01*
X150698Y153279D01*
Y153512D01*
X150582Y153629D01*
X149998D01*
X150698Y153862D02*
Y154095D01*
Y153978D01*
X149998D01*
X150115Y153862D01*
X150698Y154795D02*
X149998D01*
X150348Y154445D01*
Y154911D01*
X159652Y161531D02*
Y162231D01*
X160002D01*
X160118Y162114D01*
Y161881D01*
X160002Y161765D01*
X159652D01*
X159885D02*
X160118Y161531D01*
X160351Y162231D02*
X160818D01*
Y162114D01*
X160351Y161648D01*
Y161531D01*
X161051Y162231D02*
X161518D01*
Y162114D01*
X161051Y161648D01*
Y161531D01*
X156346Y157809D02*
X156230Y157926D01*
X155996D01*
X155880Y157809D01*
Y157343D01*
X155996Y157226D01*
X156230D01*
X156346Y157343D01*
X156580Y157926D02*
X157046D01*
Y157809D01*
X156580Y157343D01*
Y157226D01*
X157279D02*
X157513D01*
X157396D01*
Y157926D01*
X157279Y157809D01*
X140640Y114605D02*
Y115305D01*
X140990D01*
X141106Y115188D01*
Y114955D01*
X140990Y114838D01*
X140640D01*
X140873D02*
X141106Y114605D01*
X141806Y115305D02*
X141340D01*
Y114955D01*
X141573Y115071D01*
X141689D01*
X141806Y114955D01*
Y114721D01*
X141689Y114605D01*
X141456D01*
X141340Y114721D01*
X142506Y115305D02*
X142273Y115188D01*
X142039Y114955D01*
Y114721D01*
X142156Y114605D01*
X142389D01*
X142506Y114721D01*
Y114838D01*
X142389Y114955D01*
X142039D01*
X105889Y160796D02*
X105656D01*
X105773D01*
Y160213D01*
X105656Y160096D01*
X105539D01*
X105423Y160213D01*
X106589Y160096D02*
X106122D01*
X106589Y160563D01*
Y160679D01*
X106472Y160796D01*
X106239D01*
X106122Y160679D01*
X134391Y150471D02*
Y149888D01*
X134508Y149771D01*
X134741D01*
X134858Y149888D01*
Y150471D01*
X135091Y149771D02*
X135324D01*
X135208D01*
Y150471D01*
X135091Y150354D01*
X136141Y149771D02*
X135674D01*
X136141Y150238D01*
Y150354D01*
X136024Y150471D01*
X135791D01*
X135674Y150354D01*
X160934Y112511D02*
Y111927D01*
X161051Y111811D01*
X161284D01*
X161401Y111927D01*
Y112511D01*
X161634Y111811D02*
X161867D01*
X161751D01*
Y112511D01*
X161634Y112394D01*
X162217D02*
X162334Y112511D01*
X162567D01*
X162684Y112394D01*
Y112277D01*
X162567Y112161D01*
X162684Y112044D01*
Y111927D01*
X162567Y111811D01*
X162334D01*
X162217Y111927D01*
Y112044D01*
X162334Y112161D01*
X162217Y112277D01*
Y112394D01*
X162334Y112161D02*
X162567D01*
X168300Y138367D02*
Y139166D01*
X168700D01*
X168834Y139033D01*
Y138766D01*
X168700Y138633D01*
X168300D01*
X169100Y138367D02*
X169367D01*
X169233D01*
Y139166D01*
X169100Y139033D01*
X132944Y114530D02*
Y113947D01*
X133060Y113830D01*
X133293D01*
X133410Y113947D01*
Y114530D01*
X133643Y113830D02*
X133877D01*
X133760D01*
Y114530D01*
X133643Y114413D01*
X134227Y113830D02*
X134460D01*
X134343D01*
Y114530D01*
X134227Y114413D01*
X193737Y143819D02*
X193503D01*
X193620D01*
Y143235D01*
X193503Y143119D01*
X193387D01*
X193270Y143235D01*
X193970Y143819D02*
X194436D01*
Y143702D01*
X193970Y143235D01*
Y143119D01*
X161925Y115076D02*
Y114493D01*
X162042Y114376D01*
X162275D01*
X162392Y114493D01*
Y115076D01*
X162625Y114376D02*
X162858D01*
X162741D01*
Y115076D01*
X162625Y114959D01*
X163208Y114493D02*
X163325Y114376D01*
X163558D01*
X163674Y114493D01*
Y114959D01*
X163558Y115076D01*
X163325D01*
X163208Y114959D01*
Y114843D01*
X163325Y114726D01*
X163674D01*
X157616Y146024D02*
X157500Y146140D01*
X157266D01*
X157150Y146024D01*
Y145557D01*
X157266Y145440D01*
X157500D01*
X157616Y145557D01*
X157850Y146140D02*
X158316D01*
Y146024D01*
X157850Y145557D01*
Y145440D01*
X159016D02*
X158549D01*
X159016Y145907D01*
Y146024D01*
X158899Y146140D01*
X158666D01*
X158549Y146024D01*
X129486Y148449D02*
X129369Y148566D01*
X129136D01*
X129019Y148449D01*
Y147983D01*
X129136Y147866D01*
X129369D01*
X129486Y147983D01*
X129719Y148449D02*
X129836Y148566D01*
X130069D01*
X130186Y148449D01*
Y148333D01*
X130069Y148216D01*
X129952D01*
X130069D01*
X130186Y148099D01*
Y147983D01*
X130069Y147866D01*
X129836D01*
X129719Y147983D01*
X130885Y148566D02*
X130652Y148449D01*
X130419Y148216D01*
Y147983D01*
X130535Y147866D01*
X130769D01*
X130885Y147983D01*
Y148099D01*
X130769Y148216D01*
X130419D01*
X121345Y111467D02*
X121228Y111583D01*
X120995D01*
X120879Y111467D01*
Y111000D01*
X120995Y110884D01*
X121228D01*
X121345Y111000D01*
X122045Y110884D02*
X121578D01*
X122045Y111350D01*
Y111467D01*
X121928Y111583D01*
X121695D01*
X121578Y111467D01*
X122278D02*
X122395Y111583D01*
X122628D01*
X122745Y111467D01*
Y111000D01*
X122628Y110884D01*
X122395D01*
X122278Y111000D01*
Y111467D01*
X149476Y107670D02*
X149359Y107786D01*
X149126D01*
X149009Y107670D01*
Y107203D01*
X149126Y107086D01*
X149359D01*
X149476Y107203D01*
X150175Y107786D02*
X149942Y107670D01*
X149709Y107436D01*
Y107203D01*
X149826Y107086D01*
X150059D01*
X150175Y107203D01*
Y107320D01*
X150059Y107436D01*
X149709D01*
X150759Y107086D02*
Y107786D01*
X150409Y107436D01*
X150875D01*
X128394Y114477D02*
X128277Y114593D01*
X128044D01*
X127927Y114477D01*
Y114010D01*
X128044Y113894D01*
X128277D01*
X128394Y114010D01*
X128627Y114477D02*
X128743Y114593D01*
X128977D01*
X129093Y114477D01*
Y114360D01*
X128977Y114243D01*
X128860D01*
X128977D01*
X129093Y114127D01*
Y114010D01*
X128977Y113894D01*
X128743D01*
X128627Y114010D01*
X129677Y113894D02*
Y114593D01*
X129327Y114243D01*
X129793D01*
X147063Y132371D02*
X146946Y132488D01*
X146713D01*
X146596Y132371D01*
Y131905D01*
X146713Y131788D01*
X146946D01*
X147063Y131905D01*
X147762Y132488D02*
X147296D01*
Y132138D01*
X147529Y132254D01*
X147646D01*
X147762Y132138D01*
Y131905D01*
X147646Y131788D01*
X147413D01*
X147296Y131905D01*
X147996Y132371D02*
X148112Y132488D01*
X148346D01*
X148462Y132371D01*
Y132254D01*
X148346Y132138D01*
X148462Y132021D01*
Y131905D01*
X148346Y131788D01*
X148112D01*
X147996Y131905D01*
Y132021D01*
X148112Y132138D01*
X147996Y132254D01*
Y132371D01*
X148112Y132138D02*
X148346D01*
X125879Y144804D02*
X125762Y144921D01*
X125529D01*
X125412Y144804D01*
Y144338D01*
X125529Y144221D01*
X125762D01*
X125879Y144338D01*
X126579Y144221D02*
X126112D01*
X126579Y144688D01*
Y144804D01*
X126462Y144921D01*
X126229D01*
X126112Y144804D01*
X126812Y144338D02*
X126929Y144221D01*
X127162D01*
X127279Y144338D01*
Y144804D01*
X127162Y144921D01*
X126929D01*
X126812Y144804D01*
Y144688D01*
X126929Y144571D01*
X127279D01*
X181378Y113740D02*
X181261Y113857D01*
X181028D01*
X180911Y113740D01*
Y113274D01*
X181028Y113157D01*
X181261D01*
X181378Y113274D01*
X181611Y113857D02*
X182078D01*
Y113740D01*
X181611Y113274D01*
Y113157D01*
X182311Y113274D02*
X182428Y113157D01*
X182661D01*
X182778Y113274D01*
Y113740D01*
X182661Y113857D01*
X182428D01*
X182311Y113740D01*
Y113624D01*
X182428Y113507D01*
X182778D01*
X123594Y162282D02*
X123478Y162399D01*
X123245D01*
X123128Y162282D01*
Y161816D01*
X123245Y161699D01*
X123478D01*
X123594Y161816D01*
X124294Y161699D02*
X123828D01*
X124294Y162165D01*
Y162282D01*
X124178Y162399D01*
X123944D01*
X123828Y162282D01*
X124994Y162399D02*
X124527D01*
Y162049D01*
X124761Y162165D01*
X124877D01*
X124994Y162049D01*
Y161816D01*
X124877Y161699D01*
X124644D01*
X124527Y161816D01*
X152515Y159534D02*
X152399Y159417D01*
Y159184D01*
X152515Y159068D01*
X152982D01*
X153098Y159184D01*
Y159417D01*
X152982Y159534D01*
X152399Y160234D02*
X152515Y160001D01*
X152749Y159767D01*
X152982D01*
X153098Y159884D01*
Y160117D01*
X152982Y160234D01*
X152865D01*
X152749Y160117D01*
Y159767D01*
X152515Y160467D02*
X152399Y160584D01*
Y160817D01*
X152515Y160934D01*
X152632D01*
X152749Y160817D01*
Y160700D01*
Y160817D01*
X152865Y160934D01*
X152982D01*
X153098Y160817D01*
Y160584D01*
X152982Y160467D01*
X186393Y108543D02*
X186276Y108660D01*
X186043D01*
X185927Y108543D01*
Y108077D01*
X186043Y107960D01*
X186276D01*
X186393Y108077D01*
X186626Y108543D02*
X186743Y108660D01*
X186976D01*
X187093Y108543D01*
Y108427D01*
X186976Y108310D01*
X187093Y108193D01*
Y108077D01*
X186976Y107960D01*
X186743D01*
X186626Y108077D01*
Y108193D01*
X186743Y108310D01*
X186626Y108427D01*
Y108543D01*
X186743Y108310D02*
X186976D01*
X187793Y108660D02*
X187559Y108543D01*
X187326Y108310D01*
Y108077D01*
X187443Y107960D01*
X187676D01*
X187793Y108077D01*
Y108193D01*
X187676Y108310D01*
X187326D01*
X188947Y152094D02*
X188831Y152211D01*
X188597D01*
X188481Y152094D01*
Y151628D01*
X188597Y151511D01*
X188831D01*
X188947Y151628D01*
X189180Y152094D02*
X189297Y152211D01*
X189530D01*
X189647Y152094D01*
Y151978D01*
X189530Y151861D01*
X189647Y151744D01*
Y151628D01*
X189530Y151511D01*
X189297D01*
X189180Y151628D01*
Y151744D01*
X189297Y151861D01*
X189180Y151978D01*
Y152094D01*
X189297Y151861D02*
X189530D01*
X189880Y152211D02*
X190347D01*
Y152094D01*
X189880Y151628D01*
Y151511D01*
X130543Y146686D02*
Y145986D01*
X130893D01*
X131010Y146103D01*
Y146570D01*
X130893Y146686D01*
X130543D01*
X131710D02*
X131243D01*
Y146336D01*
X131476Y146453D01*
X131593D01*
X131710Y146336D01*
Y146103D01*
X131593Y145986D01*
X131360D01*
X131243Y146103D01*
X119621Y162358D02*
Y161775D01*
X119738Y161658D01*
X119971D01*
X120088Y161775D01*
Y162358D01*
X120321Y162241D02*
X120438Y162358D01*
X120671D01*
X120788Y162241D01*
Y162125D01*
X120671Y162008D01*
X120554D01*
X120671D01*
X120788Y161892D01*
Y161775D01*
X120671Y161658D01*
X120438D01*
X120321Y161775D01*
X151143Y127674D02*
Y127558D01*
X151376Y127324D01*
X151609Y127558D01*
Y127674D01*
X151376Y127324D02*
Y126975D01*
X152309D02*
X151842D01*
X152309Y127441D01*
Y127558D01*
X152192Y127674D01*
X151959D01*
X151842Y127558D01*
X127584Y162231D02*
Y161648D01*
X127701Y161531D01*
X127934D01*
X128051Y161648D01*
Y162231D01*
X128284Y161648D02*
X128401Y161531D01*
X128634D01*
X128750Y161648D01*
Y162114D01*
X128634Y162231D01*
X128401D01*
X128284Y162114D01*
Y161998D01*
X128401Y161881D01*
X128750D01*
X109496Y136577D02*
X109263D01*
X109379D01*
Y135994D01*
X109263Y135877D01*
X109146D01*
X109030Y135994D01*
X109729Y136460D02*
X109846Y136577D01*
X110079D01*
X110196Y136460D01*
Y136344D01*
X110079Y136227D01*
X109963D01*
X110079D01*
X110196Y136111D01*
Y135994D01*
X110079Y135877D01*
X109846D01*
X109729Y135994D01*
X118796Y106465D02*
Y105882D01*
X118912Y105766D01*
X119146D01*
X119262Y105882D01*
Y106465D01*
X119962D02*
X119729Y106349D01*
X119496Y106115D01*
Y105882D01*
X119612Y105766D01*
X119845D01*
X119962Y105882D01*
Y105999D01*
X119845Y106115D01*
X119496D01*
X143726Y142508D02*
Y141808D01*
X144192D01*
X144426Y142391D02*
X144542Y142508D01*
X144776D01*
X144892Y142391D01*
Y142275D01*
X144776Y142158D01*
X144659D01*
X144776D01*
X144892Y142041D01*
Y141925D01*
X144776Y141808D01*
X144542D01*
X144426Y141925D01*
X146342Y149201D02*
Y148501D01*
X146809D01*
X147392D02*
Y149201D01*
X147042Y148851D01*
X147508D01*
X130492Y151614D02*
Y150914D01*
X130959D01*
X131659D02*
X131192D01*
X131659Y151381D01*
Y151497D01*
X131542Y151614D01*
X131309D01*
X131192Y151497D01*
X127152Y108763D02*
X126453D01*
Y109113D01*
X126569Y109229D01*
X126803D01*
X126919Y109113D01*
Y108763D01*
Y108996D02*
X127152Y109229D01*
Y109463D02*
X126453D01*
Y109812D01*
X126569Y109929D01*
X126803D01*
X126919Y109812D01*
Y109463D01*
X127152Y110162D02*
Y110396D01*
Y110279D01*
X126453D01*
X126569Y110162D01*
X183464Y104484D02*
Y103901D01*
X183581Y103784D01*
X183814D01*
X183931Y103901D01*
Y104484D01*
X184630Y103784D02*
X184164D01*
X184630Y104251D01*
Y104368D01*
X184514Y104484D01*
X184281D01*
X184164Y104368D01*
X184864D02*
X184980Y104484D01*
X185214D01*
X185330Y104368D01*
Y104251D01*
X185214Y104134D01*
X185097D01*
X185214D01*
X185330Y104018D01*
Y103901D01*
X185214Y103784D01*
X184980D01*
X184864Y103901D01*
X157137Y148223D02*
Y147640D01*
X157254Y147523D01*
X157487D01*
X157604Y147640D01*
Y148223D01*
X157837Y147523D02*
X158070D01*
X157954D01*
Y148223D01*
X157837Y148106D01*
X158887Y148223D02*
X158420D01*
Y147873D01*
X158653Y147990D01*
X158770D01*
X158887Y147873D01*
Y147640D01*
X158770Y147523D01*
X158537D01*
X158420Y147640D01*
X114008Y129046D02*
Y128463D01*
X114125Y128346D01*
X114358D01*
X114474Y128463D01*
Y129046D01*
X115058Y128346D02*
Y129046D01*
X114708Y128696D01*
X115174D01*
X109521Y148198D02*
X109288D01*
X109405D01*
Y147614D01*
X109288Y147498D01*
X109172D01*
X109055Y147614D01*
X110105Y147498D02*
Y148198D01*
X109755Y147848D01*
X110221D01*
X158594Y116689D02*
X158361D01*
X158478D01*
Y116106D01*
X158361Y115989D01*
X158244D01*
X158128Y116106D01*
X159294Y116689D02*
X159061Y116572D01*
X158827Y116339D01*
Y116106D01*
X158944Y115989D01*
X159177D01*
X159294Y116106D01*
Y116222D01*
X159177Y116339D01*
X158827D01*
X109169Y141187D02*
Y140604D01*
X109286Y140487D01*
X109519D01*
X109636Y140604D01*
Y141187D01*
X110335Y140487D02*
X109869D01*
X110335Y140954D01*
Y141071D01*
X110219Y141187D01*
X109986D01*
X109869Y141071D01*
X180416Y139193D02*
Y138610D01*
X180533Y138493D01*
X180766D01*
X180883Y138610D01*
Y139193D01*
X181582Y138493D02*
X181116D01*
X181582Y138960D01*
Y139077D01*
X181466Y139193D01*
X181233D01*
X181116Y139077D01*
X182282Y138493D02*
X181816D01*
X182282Y138960D01*
Y139077D01*
X182166Y139193D01*
X181932D01*
X181816Y139077D01*
X190217Y145604D02*
X190101Y145721D01*
X189867D01*
X189751Y145604D01*
Y145488D01*
X189867Y145371D01*
X190101D01*
X190217Y145255D01*
Y145138D01*
X190101Y145021D01*
X189867D01*
X189751Y145138D01*
X190450Y145721D02*
Y145021D01*
X190684Y145255D01*
X190917Y145021D01*
Y145721D01*
X191150Y145021D02*
X191384D01*
X191267D01*
Y145721D01*
X191150Y145604D01*
X128156Y146623D02*
Y145923D01*
X128506D01*
X128622Y146040D01*
Y146506D01*
X128506Y146623D01*
X128156D01*
X129205Y145923D02*
Y146623D01*
X128855Y146273D01*
X129322D01*
X113335Y144921D02*
Y144338D01*
X113451Y144221D01*
X113685D01*
X113801Y144338D01*
Y144921D01*
X114501D02*
X114035D01*
Y144571D01*
X114268Y144688D01*
X114384D01*
X114501Y144571D01*
Y144338D01*
X114384Y144221D01*
X114151D01*
X114035Y144338D01*
X159728Y145785D02*
Y145201D01*
X159845Y145085D01*
X160078D01*
X160194Y145201D01*
Y145785D01*
X160428Y145085D02*
X160661D01*
X160544D01*
Y145785D01*
X160428Y145668D01*
X161477Y145785D02*
X161244Y145668D01*
X161011Y145435D01*
Y145201D01*
X161127Y145085D01*
X161361D01*
X161477Y145201D01*
Y145318D01*
X161361Y145435D01*
X161011D01*
X157480Y150217D02*
Y149634D01*
X157597Y149517D01*
X157830D01*
X157947Y149634D01*
Y150217D01*
X158180Y149517D02*
X158413D01*
X158296D01*
Y150217D01*
X158180Y150100D01*
X158763Y150217D02*
X159229D01*
Y150100D01*
X158763Y149634D01*
Y149517D01*
X147520Y141921D02*
X147403Y142038D01*
X147170D01*
X147053Y141921D01*
Y141805D01*
X147170Y141688D01*
X147403D01*
X147520Y141572D01*
Y141455D01*
X147403Y141338D01*
X147170D01*
X147053Y141455D01*
X147753Y141338D02*
X147986D01*
X147870D01*
Y142038D01*
X147753Y141921D01*
X187923Y118036D02*
X187390D01*
X187124Y118303D01*
X187390Y118569D01*
X187923D01*
X187523D01*
Y118036D01*
X187124Y119369D02*
Y118836D01*
X187523D01*
Y119103D01*
Y118836D01*
X187923D01*
X187523Y119636D02*
Y120169D01*
X187257Y120969D02*
X187124Y120835D01*
Y120569D01*
X187257Y120436D01*
X187790D01*
X187923Y120569D01*
Y120835D01*
X187790Y120969D01*
X187124Y121768D02*
Y121235D01*
X187523D01*
X187390Y121502D01*
Y121635D01*
X187523Y121768D01*
X187790D01*
X187923Y121635D01*
Y121369D01*
X187790Y121235D01*
X187523Y122035D02*
Y122568D01*
X187257Y122835D02*
X187124Y122968D01*
Y123235D01*
X187257Y123368D01*
X187790D01*
X187923Y123235D01*
Y122968D01*
X187790Y122835D01*
X187257D01*
Y123634D02*
X187124Y123768D01*
Y124034D01*
X187257Y124168D01*
X187390D01*
X187523Y124034D01*
Y123901D01*
Y124034D01*
X187657Y124168D01*
X187790D01*
X187923Y124034D01*
Y123768D01*
X187790Y123634D01*
X192634Y148463D02*
X193434D01*
Y148863D01*
X193300Y148996D01*
X193167D01*
X193034Y148863D01*
Y148463D01*
Y148863D01*
X192901Y148996D01*
X192767D01*
X192634Y148863D01*
Y148463D01*
Y149263D02*
X193434D01*
Y149796D01*
Y150062D02*
X192901D01*
X192634Y150329D01*
X192901Y150596D01*
X193434D01*
X193034D01*
Y150062D01*
X192767Y151395D02*
X192634Y151262D01*
Y150996D01*
X192767Y150862D01*
X192901D01*
X193034Y150996D01*
Y151262D01*
X193167Y151395D01*
X193300D01*
X193434Y151262D01*
Y150996D01*
X193300Y150862D01*
X192634Y151662D02*
Y152195D01*
Y151929D01*
X193434D01*
X192634Y152995D02*
Y152462D01*
X193434D01*
Y152995D01*
X193034Y152462D02*
Y152728D01*
X193434Y153261D02*
X192634D01*
Y153661D01*
X192767Y153795D01*
X193034D01*
X193167Y153661D01*
Y153261D01*
Y153528D02*
X193434Y153795D01*
X191542Y148527D02*
X192208D01*
X192342Y148660D01*
Y148926D01*
X192208Y149060D01*
X191542D01*
X191675Y149859D02*
X191542Y149726D01*
Y149460D01*
X191675Y149326D01*
X191808D01*
X191942Y149460D01*
Y149726D01*
X192075Y149859D01*
X192208D01*
X192342Y149726D01*
Y149460D01*
X192208Y149326D01*
X191542Y150126D02*
X192342D01*
Y150526D01*
X192208Y150659D01*
X192075D01*
X191942Y150526D01*
Y150126D01*
Y150526D01*
X191808Y150659D01*
X191675D01*
X191542Y150526D01*
Y150126D01*
X191060Y104422D02*
X190527D01*
Y104022D01*
X190793Y104155D01*
X190927D01*
X191060Y104022D01*
Y103755D01*
X190927Y103622D01*
X190660D01*
X190527Y103755D01*
X191327Y104288D02*
X191460Y104422D01*
X191726D01*
X191860Y104288D01*
Y103755D01*
X191726Y103622D01*
X191460D01*
X191327Y103755D01*
Y104288D01*
D96*
X127565Y160072D02*
G03*
X127565Y160072I-127J0D01*
G01*
X185318Y125030D02*
X185333Y117960D01*
X185333Y125639D02*
Y126281D01*
Y126884D02*
Y127302D01*
Y127967D02*
Y128217D01*
Y128880D02*
Y129048D01*
Y129617D02*
Y129744D01*
X185330Y130373D02*
X185333Y130407D01*
X101054Y137287D02*
X101079D01*
X100686Y136919D02*
X101054Y137287D01*
X108877Y163741D02*
X109554D01*
X109216Y164079D02*
Y163402D01*
X112827Y163754D02*
X113504D01*
X163766Y149187D02*
X162751D01*
X163259Y148679D02*
Y149695D01*
X125927Y164033D02*
X125869Y164147D01*
X125755Y164261D01*
X125641Y164319D01*
X125412D01*
X125298Y164261D01*
X125184Y164147D01*
X125127Y164033D01*
X125070Y163861D01*
Y163576D01*
X125127Y163404D01*
X125184Y163290D01*
X125298Y163176D01*
X125412Y163119D01*
X125641D01*
X125755Y163176D01*
X125869Y163290D01*
X125927Y163404D01*
X127006Y164319D02*
X126264D01*
Y163119D01*
X127006D01*
X126264Y163747D02*
X126721D01*
X127206Y164319D02*
Y163119D01*
Y164319D02*
X127720D01*
X127892Y164261D01*
X127949Y164204D01*
X128006Y164090D01*
Y163976D01*
X127949Y163861D01*
X127892Y163804D01*
X127720Y163747D01*
X127206D01*
X127606D02*
X128006Y163119D01*
X128275Y164319D02*
Y163119D01*
Y164319D02*
X129074Y163119D01*
Y164319D02*
Y163119D01*
X130691Y164319D02*
X130577Y164261D01*
X130463Y164147D01*
X130406Y164033D01*
X130348Y163861D01*
Y163576D01*
X130406Y163404D01*
X130463Y163290D01*
X130577Y163176D01*
X130691Y163119D01*
X130920D01*
X131034Y163176D01*
X131148Y163290D01*
X131205Y163404D01*
X131263Y163576D01*
Y163861D01*
X131205Y164033D01*
X131148Y164147D01*
X131034Y164261D01*
X130920Y164319D01*
X130691D01*
X131542Y163690D02*
X132057D01*
X132228Y163747D01*
X132285Y163804D01*
X132342Y163919D01*
Y164090D01*
X132285Y164204D01*
X132228Y164261D01*
X132057Y164319D01*
X131542D01*
Y163119D01*
X133354Y164319D02*
X132611D01*
Y163119D01*
X133354D01*
X132611Y163747D02*
X133068D01*
X133553Y164319D02*
Y163119D01*
Y164319D02*
X134353Y163119D01*
Y164319D02*
Y163119D01*
X135627Y164319D02*
Y163119D01*
X136427Y164319D02*
Y163119D01*
X135627Y163747D02*
X136427D01*
X137673Y163119D02*
X137216Y164319D01*
X136759Y163119D01*
X136930Y163519D02*
X137501D01*
X137953Y164319D02*
Y163119D01*
Y164319D02*
X138467D01*
X138638Y164261D01*
X138695Y164204D01*
X138752Y164090D01*
Y163976D01*
X138695Y163861D01*
X138638Y163804D01*
X138467Y163747D01*
X137953D01*
X138352D02*
X138752Y163119D01*
X139021Y164319D02*
Y163119D01*
Y164319D02*
X139421D01*
X139592Y164261D01*
X139706Y164147D01*
X139764Y164033D01*
X139821Y163861D01*
Y163576D01*
X139764Y163404D01*
X139706Y163290D01*
X139592Y163176D01*
X139421Y163119D01*
X139021D01*
X140089Y164319D02*
X140375Y163119D01*
X140661Y164319D02*
X140375Y163119D01*
X140661Y164319D02*
X140946Y163119D01*
X141232Y164319D02*
X140946Y163119D01*
X142386D02*
X141929Y164319D01*
X141472Y163119D01*
X141643Y163519D02*
X142214D01*
X142666Y164319D02*
Y163119D01*
Y164319D02*
X143180D01*
X143351Y164261D01*
X143409Y164204D01*
X143466Y164090D01*
Y163976D01*
X143409Y163861D01*
X143351Y163804D01*
X143180Y163747D01*
X142666D01*
X143066D02*
X143466Y163119D01*
X144477Y164319D02*
X143734D01*
Y163119D01*
X144477D01*
X143734Y163747D02*
X144191D01*
X145619Y164319D02*
Y163119D01*
X146305D01*
X146436Y164319D02*
Y163119D01*
X147545Y164033D02*
X147488Y164147D01*
X147373Y164261D01*
X147259Y164319D01*
X147031D01*
X146916Y164261D01*
X146802Y164147D01*
X146745Y164033D01*
X146688Y163861D01*
Y163576D01*
X146745Y163404D01*
X146802Y163290D01*
X146916Y163176D01*
X147031Y163119D01*
X147259D01*
X147373Y163176D01*
X147488Y163290D01*
X147545Y163404D01*
X148625Y164319D02*
X147882D01*
Y163119D01*
X148625D01*
X147882Y163747D02*
X148339D01*
X148825Y164319D02*
Y163119D01*
Y164319D02*
X149624Y163119D01*
Y164319D02*
Y163119D01*
X150756Y164147D02*
X150641Y164261D01*
X150470Y164319D01*
X150241D01*
X150070Y164261D01*
X149956Y164147D01*
Y164033D01*
X150013Y163919D01*
X150070Y163861D01*
X150184Y163804D01*
X150527Y163690D01*
X150641Y163633D01*
X150698Y163576D01*
X150756Y163462D01*
Y163290D01*
X150641Y163176D01*
X150470Y163119D01*
X150241D01*
X150070Y163176D01*
X149956Y163290D01*
X151767Y164319D02*
X151024D01*
Y163119D01*
X151767D01*
X151024Y163747D02*
X151481D01*
X152909Y164319D02*
X153366Y163119D01*
X153823Y164319D02*
X153366Y163119D01*
X154035Y164033D02*
Y164090D01*
X154092Y164204D01*
X154149Y164261D01*
X154263Y164319D01*
X154492D01*
X154606Y164261D01*
X154663Y164204D01*
X154720Y164090D01*
Y163976D01*
X154663Y163861D01*
X154549Y163690D01*
X153978Y163119D01*
X154778D01*
X155103Y163233D02*
X155046Y163176D01*
X155103Y163119D01*
X155160Y163176D01*
X155103Y163233D01*
X155766Y164319D02*
X155594Y164261D01*
X155480Y164090D01*
X155423Y163804D01*
Y163633D01*
X155480Y163347D01*
X155594Y163176D01*
X155766Y163119D01*
X155880D01*
X156052Y163176D01*
X156166Y163347D01*
X156223Y163633D01*
Y163804D01*
X156166Y164090D01*
X156052Y164261D01*
X155880Y164319D01*
X155766D01*
X157834Y164547D02*
X157720Y164433D01*
X157605Y164261D01*
X157491Y164033D01*
X157434Y163747D01*
Y163519D01*
X157491Y163233D01*
X157605Y163005D01*
X157720Y162833D01*
X157834Y162719D01*
X157720Y164433D02*
X157605Y164204D01*
X157548Y164033D01*
X157491Y163747D01*
Y163519D01*
X157548Y163233D01*
X157605Y163062D01*
X157720Y162833D01*
X158063Y163690D02*
X158577D01*
X158748Y163747D01*
X158805Y163804D01*
X158862Y163919D01*
Y164090D01*
X158805Y164204D01*
X158748Y164261D01*
X158577Y164319D01*
X158063D01*
Y163119D01*
X159131Y164547D02*
X159245Y164433D01*
X159359Y164261D01*
X159474Y164033D01*
X159531Y163747D01*
Y163519D01*
X159474Y163233D01*
X159359Y163005D01*
X159245Y162833D01*
X159131Y162719D01*
X159245Y164433D02*
X159359Y164204D01*
X159417Y164033D01*
X159474Y163747D01*
Y163519D01*
X159417Y163233D01*
X159359Y163062D01*
X159245Y162833D01*
D98*
X111362Y162922D02*
G03*
X111362Y162916I-250J-6D01*
G01*
D198*
X128854Y141008D02*
G03*
X128854Y141008I-102J0D01*
G01*
X111366Y141503D02*
G03*
X111366Y141503I-102J0D01*
G01*
Y140627D02*
G03*
X111366Y140627I-102J0D01*
G01*
X116015Y137770D02*
G03*
X116015Y137770I-102J0D01*
G01*
X109537Y144412D02*
G03*
X109537Y144412I-102J0D01*
G01*
Y142418D02*
G03*
X109537Y142418I-102J0D01*
G01*
X111366Y139725D02*
G03*
X111366Y139725I-102J0D01*
G01*
X111315Y145986D02*
G03*
X111315Y145986I-102J0D01*
G01*
X116446Y130962D02*
G03*
X116446Y130962I-102J0D01*
G01*
X122885Y125730D02*
G03*
X122885Y125730I-102J0D01*
G01*
X119951Y125781D02*
G03*
X119951Y125781I-102J0D01*
G01*
X130254Y124158D02*
G03*
X130254Y124158I-102J0D01*
G01*
X150295Y126926D02*
G03*
X150295Y126926I-102J0D01*
G01*
X138433Y133784D02*
G03*
X138433Y133784I-102J0D01*
G01*
X130162Y135141D02*
G03*
X130162Y135141I-102J0D01*
G01*
X143256Y133667D02*
G03*
X143256Y133667I-102J0D01*
G01*
X146329Y136131D02*
G03*
X146329Y136131I-102J0D01*
G01*
X140297Y160210D02*
G03*
X140297Y160210I-102J0D01*
G01*
X145834Y133337D02*
G03*
X145834Y133337I-102J0D01*
G01*
X128333Y124155D02*
G03*
X128333Y124155I-102J0D01*
G01*
X118834Y120371D02*
G03*
X118834Y120371I-102J0D01*
G01*
Y119558D02*
G03*
X118834Y119558I-102J0D01*
G01*
Y118720D02*
G03*
X118834Y118720I-102J0D01*
G01*
Y117793D02*
G03*
X118834Y117793I-102J0D01*
G01*
Y114313D02*
G03*
X118834Y114313I-102J0D01*
G01*
Y115341D02*
G03*
X118834Y115341I-102J0D01*
G01*
X109831Y127752D02*
G03*
X109831Y127752I-102J0D01*
G01*
X111711D02*
G03*
X111711Y127752I-102J0D01*
G01*
X137671Y133784D02*
G03*
X137671Y133784I-102J0D01*
G01*
X136909D02*
G03*
X136909Y133784I-102J0D01*
G01*
X136121Y133759D02*
G03*
X136121Y133759I-102J0D01*
G01*
X118656Y109855D02*
G03*
X118656Y109855I-102J0D01*
G01*
X121031Y104407D02*
G03*
X121031Y104407I-102J0D01*
G01*
X124143Y106185D02*
G03*
X124143Y106185I-102J0D01*
G01*
X118618Y107988D02*
G03*
X118618Y107988I-102J0D01*
G01*
X128781Y111661D02*
G03*
X128781Y111661I-102J0D01*
G01*
X131194Y104396D02*
G03*
X131194Y104396I-102J0D01*
G01*
X128222Y113033D02*
G03*
X128222Y113033I-102J0D01*
G01*
X129883Y140957D02*
G03*
X129883Y140957I-102J0D01*
G01*
X133020Y135966D02*
G03*
X133020Y135966I-102J0D01*
G01*
X132994Y134341D02*
G03*
X132994Y134341I-102J0D01*
G01*
X142876Y160197D02*
G03*
X142876Y160197I-102J0D01*
G01*
X136035D02*
G03*
X136035Y160197I-102J0D01*
G01*
X135180D02*
G03*
X135180Y160197I-102J0D01*
G01*
X137746D02*
G03*
X137746Y160197I-102J0D01*
G01*
X136890D02*
G03*
X136890Y160197I-102J0D01*
G01*
X138635Y147701D02*
G03*
X138635Y147701I-102J0D01*
G01*
X131712Y117437D02*
G03*
X131712Y117437I-102J0D01*
G01*
X131321Y135715D02*
G03*
X131321Y135715I-102J0D01*
G01*
X144120Y133667D02*
G03*
X144120Y133667I-102J0D01*
G01*
X118669Y108915D02*
G03*
X118669Y108915I-102J0D01*
G01*
X131788Y133960D02*
G03*
X131788Y133960I-102J0D01*
G01*
X124231Y144564D02*
G03*
X124231Y144564I-102J0D01*
G01*
X118834Y121310D02*
G03*
X118834Y121310I-102J0D01*
G01*
X191148Y149098D02*
G03*
X191148Y149098I-102J0D01*
G01*
X111481Y136042D02*
G03*
X111481Y136042I-102J0D01*
G01*
X118631Y107048D02*
G03*
X118631Y107048I-102J0D01*
G01*
X121044Y105258D02*
G03*
X121044Y105258I-102J0D01*
G01*
X128576Y160746D02*
G03*
X128576Y160746I-102J0D01*
G01*
X144323Y157546D02*
G03*
X144323Y157546I-102J0D01*
G01*
Y156591D02*
G03*
X144323Y156591I-102J0D01*
G01*
X141148Y160210D02*
G03*
X141148Y160210I-102J0D01*
G01*
X142037D02*
G03*
X142037Y160210I-102J0D01*
G01*
X138595D02*
G03*
X138595Y160210I-102J0D01*
G01*
X139408D02*
G03*
X139408Y160210I-102J0D01*
G01*
X134125Y148781D02*
G03*
X134125Y148781I-102J0D01*
G01*
X133147Y152184D02*
G03*
X133147Y152184I-102J0D01*
G01*
X133718Y154368D02*
G03*
X133718Y154368I-102J0D01*
G01*
X137389Y147701D02*
G03*
X137389Y147701I-102J0D01*
G01*
X110211Y126149D02*
G03*
X110211Y126149I-102J0D01*
G01*
X150800Y144640D02*
G03*
X150800Y144640I-102J0D01*
G01*
X137376Y135522D02*
G03*
X137376Y135522I-102J0D01*
G01*
X144120Y135509D02*
G03*
X144120Y135509I-102J0D01*
G01*
X138989Y137008D02*
G03*
X138989Y137008I-102J0D01*
G01*
X149863Y125479D02*
G03*
X149863Y125479I-102J0D01*
G01*
X131140Y120129D02*
G03*
X131140Y120129I-102J0D01*
G01*
X149355Y126926D02*
G03*
X149355Y126926I-102J0D01*
G01*
X131140Y119177D02*
G03*
X131140Y119177I-102J0D01*
G01*
X130862Y158689D02*
G03*
X130862Y158689I-102J0D01*
G01*
X145364Y136081D02*
G03*
X145364Y136081I-102J0D01*
G01*
X136030Y148781D02*
G03*
X136030Y148781I-102J0D01*
G01*
X119926Y111315D02*
G03*
X119926Y111315I-102J0D01*
G01*
X170866Y114109D02*
G03*
X170866Y114109I-102J0D01*
G01*
X180035Y114529D02*
G03*
X180035Y114529I-102J0D01*
G01*
X172161Y114109D02*
G03*
X172161Y114109I-102J0D01*
G01*
X119062Y144221D02*
G03*
X119062Y144221I-102J0D01*
G01*
X119075Y139116D02*
G03*
X119075Y139116I-102J0D01*
G01*
X169888Y114109D02*
G03*
X169888Y114109I-102J0D01*
G01*
X136212Y140003D02*
X138412D01*
X136212D02*
Y141403D01*
X138412D01*
Y140003D02*
Y141403D01*
X144212Y155156D02*
X149412D01*
X144212Y149314D02*
Y155156D01*
Y149314D02*
X149412D01*
Y155156D01*
X140111Y142849D02*
X145311D01*
Y148691D01*
X140111D02*
X145311D01*
X140111Y142849D02*
Y148691D01*
X131581Y158907D02*
X132582D01*
X131581D02*
Y160707D01*
X132582D01*
Y158907D02*
Y160707D01*
X133029Y160716D02*
X134029D01*
Y158916D02*
Y160716D01*
X133029Y158916D02*
X134029D01*
X133029D02*
Y160716D01*
X109758Y131786D02*
X111958D01*
X109758D02*
Y133186D01*
X111958D01*
Y131786D02*
Y133186D01*
X130477Y143254D02*
X131727D01*
X130477D02*
Y144655D01*
X131727D01*
Y143254D02*
Y144655D01*
X130477Y142954D02*
X131727D01*
X130477D02*
Y144954D01*
X131727D01*
Y142954D02*
Y144954D01*
X130594Y144208D02*
X131610D01*
X131102D02*
X131610Y143701D01*
X130594D02*
X131102Y144208D01*
X130594Y143701D02*
X131610D01*
X111899Y134183D02*
Y135083D01*
X110199Y134183D02*
X111899D01*
X110199D02*
Y135083D01*
X111899D01*
X147200Y133669D02*
X148100D01*
X147200D02*
Y135368D01*
X148100D01*
Y133669D02*
Y135368D01*
X127718Y137121D02*
X128618D01*
Y135421D02*
Y137121D01*
X127718Y135421D02*
X128618D01*
X127718D02*
Y137121D01*
X145849Y157566D02*
Y158466D01*
X147549D01*
Y157566D02*
Y158466D01*
X145849Y157566D02*
X147549D01*
X128059Y115074D02*
X130259D01*
Y116574D01*
X128059D02*
X130259D01*
X128059Y115074D02*
Y116574D01*
X148805Y103942D02*
Y106142D01*
Y103942D02*
X150305D01*
Y106142D01*
X148805D02*
X150305D01*
X123754Y112066D02*
X125954D01*
X123754Y110565D02*
Y112066D01*
Y110565D02*
X125954D01*
Y112066D01*
X127190Y147338D02*
Y149538D01*
Y147338D02*
X128690D01*
Y149538D01*
X127190D02*
X128690D01*
X149975Y155427D02*
Y157628D01*
X148475D02*
X149975D01*
X148475Y155427D02*
Y157628D01*
Y155427D02*
X149975D01*
X136238Y146038D02*
X138438D01*
X136238Y144538D02*
Y146038D01*
Y144538D02*
X138438D01*
Y146038D01*
X136238Y142061D02*
X138438D01*
Y143562D01*
X136238D02*
X138438D01*
X136238Y142061D02*
Y143562D01*
X158954Y142194D02*
Y144394D01*
X157454D02*
X158954D01*
X157454Y142194D02*
Y144394D01*
Y142194D02*
X158954D01*
X122992Y105411D02*
X125192D01*
X122992Y103911D02*
Y105411D01*
Y103911D02*
X125192D01*
Y105411D01*
X156070Y116307D02*
X156832D01*
Y115545D02*
Y116307D01*
X154800Y115545D02*
X155562D01*
X154800D02*
Y116307D01*
X155562D01*
X155740Y115722D02*
Y116129D01*
X155893Y115722D02*
Y116129D01*
X156070Y115545D02*
X156832D01*
X146421Y133329D02*
X146721D01*
X146421Y132729D02*
Y133329D01*
Y132729D02*
X146721D01*
Y133329D01*
X146471Y132979D02*
X146671D01*
X146571Y132929D02*
Y132979D01*
X146471Y133079D02*
X146671D01*
X146471D02*
X146571Y132979D01*
X146671Y133079D01*
X146571D02*
Y133129D01*
X128204Y143254D02*
X129454D01*
X128204D02*
Y144655D01*
X129454D01*
Y143254D02*
Y144655D01*
X128204Y142954D02*
X129454D01*
X128204D02*
Y144954D01*
X129454D01*
Y142954D02*
Y144954D01*
X128321Y144208D02*
X129337D01*
X128829D02*
X129337Y143701D01*
X128321D02*
X128829Y144208D01*
X128321Y143701D02*
X129337D01*
X127574Y110334D02*
X129174D01*
X127574Y106534D02*
Y110334D01*
Y106534D02*
X129174D01*
Y110334D01*
X113888Y131507D02*
X114788D01*
Y129808D02*
Y131507D01*
X113888Y129808D02*
X114788D01*
X113888D02*
Y131507D01*
X180383Y102463D02*
X182583D01*
Y103963D01*
X180383D02*
X182583D01*
X180383Y102463D02*
Y103963D01*
X143958Y159256D02*
Y160256D01*
X145758D01*
Y159256D02*
Y160256D01*
X143958Y159256D02*
X145758D01*
X146595Y142487D02*
Y147987D01*
Y142487D02*
X149595D01*
Y147987D01*
X146595D02*
X149595D01*
X141786Y150925D02*
Y157075D01*
X135636D02*
X141786D01*
X135636Y150925D02*
Y157075D01*
Y150925D02*
X141786D01*
X141632Y156540D02*
Y156921D01*
X141251D02*
X141632D01*
X141251Y156540D02*
Y156921D01*
Y156540D02*
X141632D01*
X126673Y151816D02*
X131873D01*
Y157658D01*
X126673D02*
X131873D01*
X126673Y151816D02*
Y157658D01*
X148517Y131371D02*
X152581D01*
Y128069D02*
Y131371D01*
X148517Y128069D02*
X152581D01*
X148517D02*
Y131371D01*
Y129466D02*
X148771Y129720D01*
X148517Y129974D02*
X148771Y129720D01*
D199*
X129652Y119161D02*
Y120361D01*
X127752Y119161D02*
Y120361D01*
X180251Y111571D02*
Y111646D01*
X181326D01*
X182275D02*
X183350D01*
Y111571D02*
Y111646D01*
Y108546D02*
Y108621D01*
X182275Y108546D02*
X183350D01*
X180251D02*
X181326D01*
X180251D02*
Y108621D01*
X158859Y103246D02*
Y104046D01*
X154958Y103246D02*
X158859D01*
X154958D02*
Y104046D01*
X158859Y114546D02*
Y115346D01*
X154958D02*
X158859D01*
X154958Y114546D02*
Y115346D01*
X124759Y112543D02*
Y113343D01*
X120859Y112543D02*
X124759D01*
X120859D02*
Y113343D01*
X124759Y123843D02*
Y124643D01*
X120859D02*
X124759D01*
X120859Y123843D02*
Y124643D01*
X180251Y104635D02*
Y104710D01*
Y104635D02*
X181326D01*
X182275D02*
X183350D01*
Y104710D01*
Y107660D02*
Y107735D01*
X182275D02*
X183350D01*
X180251D02*
X181326D01*
X180251Y107660D02*
Y107735D01*
X170253Y149540D02*
X171453D01*
X170253Y147640D02*
X171453D01*
D200*
X123393Y103371D02*
X123260Y103505D01*
X122993D01*
X122860Y103371D01*
Y102838D01*
X122993Y102705D01*
X123260D01*
X123393Y102838D01*
X124193Y102705D02*
X123660D01*
X124193Y103238D01*
Y103371D01*
X124059Y103505D01*
X123793D01*
X123660Y103371D01*
X124992Y103505D02*
X124726Y103371D01*
X124459Y103105D01*
Y102838D01*
X124593Y102705D01*
X124859D01*
X124992Y102838D01*
Y102971D01*
X124859Y103105D01*
X124459D01*
X127965Y103575D02*
X127832Y103708D01*
X127565D01*
X127432Y103575D01*
Y103041D01*
X127565Y102908D01*
X127832D01*
X127965Y103041D01*
X128232Y103575D02*
X128365Y103708D01*
X128631D01*
X128765Y103575D01*
Y103441D01*
X128631Y103308D01*
X128498D01*
X128631D01*
X128765Y103175D01*
Y103041D01*
X128631Y102908D01*
X128365D01*
X128232Y103041D01*
X129031Y102908D02*
X129298D01*
X129165D01*
Y103708D01*
X129031Y103575D01*
X127673Y134664D02*
X127540Y134797D01*
X127273D01*
X127140Y134664D01*
Y134131D01*
X127273Y133998D01*
X127540D01*
X127673Y134131D01*
X127939Y134664D02*
X128073Y134797D01*
X128339D01*
X128473Y134664D01*
Y134531D01*
X128339Y134398D01*
X128206D01*
X128339D01*
X128473Y134264D01*
Y134131D01*
X128339Y133998D01*
X128073D01*
X127939Y134131D01*
X129272Y134797D02*
X128739D01*
Y134398D01*
X129006Y134531D01*
X129139D01*
X129272Y134398D01*
Y134131D01*
X129139Y133998D01*
X128872D01*
X128739Y134131D01*
X184035Y103067D02*
X183902Y103200D01*
X183636D01*
X183502Y103067D01*
Y102533D01*
X183636Y102400D01*
X183902D01*
X184035Y102533D01*
X184302Y103067D02*
X184435Y103200D01*
X184702D01*
X184835Y103067D01*
Y102933D01*
X184702Y102800D01*
X184835Y102667D01*
Y102533D01*
X184702Y102400D01*
X184435D01*
X184302Y102533D01*
Y102667D01*
X184435Y102800D01*
X184302Y102933D01*
Y103067D01*
X184435Y102800D02*
X184702D01*
X185635Y102400D02*
X185102D01*
X185635Y102933D01*
Y103067D01*
X185502Y103200D01*
X185235D01*
X185102Y103067D01*
X127457Y151352D02*
X127324Y151485D01*
X127057D01*
X126924Y151352D01*
Y150819D01*
X127057Y150686D01*
X127324D01*
X127457Y150819D01*
X128257Y150686D02*
X127724D01*
X128257Y151219D01*
Y151352D01*
X128123Y151485D01*
X127857D01*
X127724Y151352D01*
X128923Y150686D02*
Y151485D01*
X128523Y151085D01*
X129056D01*
X120904Y146932D02*
X120770Y147066D01*
X120504D01*
X120371Y146932D01*
Y146399D01*
X120504Y146266D01*
X120770D01*
X120904Y146399D01*
X121703Y146266D02*
X121170D01*
X121703Y146799D01*
Y146932D01*
X121570Y147066D01*
X121304D01*
X121170Y146932D01*
X121970D02*
X122103Y147066D01*
X122370D01*
X122503Y146932D01*
Y146799D01*
X122370Y146666D01*
X122237D01*
X122370D01*
X122503Y146532D01*
Y146399D01*
X122370Y146266D01*
X122103D01*
X121970Y146399D01*
X161556Y136874D02*
X161423Y137007D01*
X161157D01*
X161023Y136874D01*
Y136341D01*
X161157Y136208D01*
X161423D01*
X161556Y136341D01*
X161823Y137007D02*
X162356D01*
Y136874D01*
X161823Y136341D01*
Y136208D01*
X163156Y137007D02*
X162623D01*
Y136607D01*
X162889Y136741D01*
X163023D01*
X163156Y136607D01*
Y136341D01*
X163023Y136208D01*
X162756D01*
X162623Y136341D01*
X133083Y161658D02*
Y162458D01*
X133483D01*
X133616Y162325D01*
Y162058D01*
X133483Y161925D01*
X133083D01*
X133350D02*
X133616Y161658D01*
X134416Y162458D02*
X133883D01*
Y162058D01*
X134150Y162191D01*
X134283D01*
X134416Y162058D01*
Y161792D01*
X134283Y161658D01*
X134016D01*
X133883Y161792D01*
X135216Y162458D02*
X134683D01*
Y162058D01*
X134949Y162191D01*
X135083D01*
X135216Y162058D01*
Y161792D01*
X135083Y161658D01*
X134816D01*
X134683Y161792D01*
X130429Y161595D02*
Y162395D01*
X130829D01*
X130962Y162261D01*
Y161995D01*
X130829Y161861D01*
X130429D01*
X130696D02*
X130962Y161595D01*
X131762Y162395D02*
X131229D01*
Y161995D01*
X131495Y162128D01*
X131629D01*
X131762Y161995D01*
Y161728D01*
X131629Y161595D01*
X131362D01*
X131229Y161728D01*
X132562Y161595D02*
X132028D01*
X132562Y162128D01*
Y162261D01*
X132428Y162395D01*
X132162D01*
X132028Y162261D01*
X188671Y149720D02*
X187871D01*
Y150120D01*
X188005Y150253D01*
X188271D01*
X188405Y150120D01*
Y149720D01*
X188005Y151053D02*
X187871Y150920D01*
Y150653D01*
X188005Y150520D01*
X188138D01*
X188271Y150653D01*
Y150920D01*
X188405Y151053D01*
X188538D01*
X188671Y150920D01*
Y150653D01*
X188538Y150520D01*
X186220Y149746D02*
X185420D01*
X185687Y150012D01*
X185420Y150279D01*
X186220D01*
Y150545D02*
Y150812D01*
Y150679D01*
X185420D01*
X185554Y150545D01*
X184887Y149746D02*
X184087D01*
X184353Y150012D01*
X184087Y150279D01*
X184887D01*
X184220Y150545D02*
X184087Y150679D01*
Y150945D01*
X184220Y151079D01*
X184753D01*
X184887Y150945D01*
Y150679D01*
X184753Y150545D01*
X184220D01*
X156109Y127864D02*
X156908D01*
X156642Y128130D01*
X156908Y128397D01*
X156109D01*
X156908Y128663D02*
X156109D01*
Y129063D01*
X156242Y129197D01*
X156509D01*
X156642Y129063D01*
Y128663D01*
X154788Y127787D02*
Y128054D01*
Y127921D01*
X155588D01*
Y127787D01*
Y128054D01*
X154788Y128854D02*
Y128587D01*
X154921Y128454D01*
X155454D01*
X155588Y128587D01*
Y128854D01*
X155454Y128987D01*
X154921D01*
X154788Y128854D01*
X153505Y127775D02*
X154305D01*
Y128175D01*
X154172Y128308D01*
X154038D01*
X153905Y128175D01*
Y127775D01*
Y128175D01*
X153772Y128308D01*
X153639D01*
X153505Y128175D01*
Y127775D01*
Y128574D02*
X154305D01*
Y128974D01*
X154172Y129108D01*
X153639D01*
X153505Y128974D01*
Y128574D01*
X157328Y127851D02*
X158128D01*
Y128251D01*
X157994Y128384D01*
X157861D01*
X157728Y128251D01*
Y127851D01*
Y128251D01*
X157595Y128384D01*
X157461D01*
X157328Y128251D01*
Y127851D01*
Y128651D02*
X158128D01*
Y129184D01*
D201*
X187568Y129479D02*
D03*
M02*
