G04 Layer_Color=8388736*
%FSLAX43Y43*%
%MOMM*%
G71*
G01*
G75*
%ADD82C,0.400*%
%ADD121C,1.778*%
%ADD156C,0.603*%
%ADD276R,4.851X4.902*%
%ADD277R,3.962X4.102*%
%ADD278R,0.903X0.603*%
%ADD279C,0.838*%
%ADD280R,1.003X1.003*%
%ADD281R,1.003X1.003*%
%ADD282R,1.600X1.753*%
%ADD283O,4.203X2.203*%
%ADD284R,1.219X0.610*%
%ADD285R,1.076X0.466*%
%ADD286C,1.219*%
%ADD287R,1.295X1.346*%
%ADD288R,1.397X1.353*%
%ADD289R,2.703X1.203*%
%ADD290O,1.303X1.003*%
%ADD291R,1.203X1.803*%
%ADD292O,1.003X1.303*%
%ADD293R,1.295X1.245*%
%ADD294R,1.245X1.295*%
%ADD295R,1.549X1.727*%
%ADD296R,1.727X1.549*%
%ADD297C,0.553*%
%ADD298R,1.803X1.203*%
%ADD299R,2.003X1.203*%
%ADD300R,1.703X0.803*%
%ADD301R,0.803X1.003*%
%ADD302O,0.740X0.390*%
%ADD303O,0.390X0.740*%
%ADD304R,2.203X2.803*%
%ADD305R,0.963X1.453*%
%ADD306R,0.735X0.310*%
%ADD307R,1.710X2.440*%
%ADD308R,1.503X1.703*%
%ADD309R,1.200X0.400*%
%ADD310R,0.737X0.610*%
%ADD311R,3.703X2.203*%
%ADD312R,2.402X0.602*%
%ADD313R,4.203X2.203*%
%ADD314R,0.953X0.553*%
%ADD315C,0.653*%
%ADD316C,0.559*%
%ADD317R,3.203X2.203*%
%ADD318R,2.703X1.403*%
%ADD319R,2.362X1.403*%
%ADD320R,0.603X1.053*%
%ADD321R,0.402X0.752*%
%ADD322R,0.372X0.902*%
%ADD323R,0.370X0.290*%
%ADD324R,0.650X0.350*%
%ADD325R,0.350X0.650*%
%ADD326O,0.490X1.740*%
%ADD327R,1.203X1.403*%
%ADD328R,3.603X4.253*%
%ADD329O,1.153X0.703*%
%ADD330O,0.503X0.953*%
%ADD331O,0.953X0.503*%
%ADD332O,0.850X0.400*%
%ADD333R,2.303X2.303*%
%ADD334O,0.350X0.800*%
%ADD335O,0.800X0.350*%
%ADD336R,0.360X1.710*%
%ADD337R,0.568X0.314*%
%ADD338R,0.568X0.466*%
%ADD339R,1.346X1.295*%
%ADD340R,1.203X1.403*%
%ADD341O,0.950X0.330*%
%ADD342O,0.330X0.950*%
%ADD343R,1.750X2.500*%
%ADD344R,1.118X0.991*%
%ADD345R,6.603X9.003*%
%ADD346R,1.003X3.453*%
%ADD347R,0.950X0.300*%
%ADD348R,0.300X0.950*%
%ADD349R,0.356X0.559*%
%ADD350R,0.568X0.365*%
%ADD351R,0.510X0.360*%
%ADD352R,1.203X2.003*%
%ADD353R,1.600X1.346*%
%ADD354C,3.203*%
%ADD355C,3.048*%
%ADD356C,0.803*%
%ADD357C,1.803*%
%ADD358C,1.403*%
%ADD359C,1.092*%
%ADD360O,2.703X5.203*%
%ADD361O,5.203X2.703*%
%ADD362C,1.703*%
%ADD363R,1.703X1.703*%
%ADD364C,1.981*%
%ADD365C,2.053*%
%ADD366C,1.903*%
%ADD367C,1.803*%
%ADD368C,3.403*%
%ADD369C,0.903*%
%ADD370C,0.863*%
%ADD371C,0.703*%
G36*
X149225Y150266D02*
X148400Y149441D01*
X145352D01*
X144526Y150163D01*
Y151600D01*
X149225D01*
Y150266D01*
D02*
G37*
G36*
X144997Y147842D02*
Y146405D01*
X140298D01*
Y147739D01*
X141124Y148564D01*
X144172D01*
X144997Y147842D01*
D02*
G37*
G36*
Y143675D02*
X144299Y142976D01*
X141251D01*
X140298Y143809D01*
Y145135D01*
X144997D01*
Y143675D01*
D02*
G37*
G36*
X131559Y156808D02*
Y155372D01*
X126860D01*
Y156705D01*
X127686Y157531D01*
X130734D01*
X131559Y156808D01*
D02*
G37*
G36*
X149225Y154195D02*
Y152870D01*
X144526D01*
Y154330D01*
X145225Y155029D01*
X148273D01*
X149225Y154195D01*
D02*
G37*
G36*
X131559Y152641D02*
X130861Y151943D01*
X127813D01*
X126860Y152776D01*
Y154102D01*
X131559D01*
Y152641D01*
D02*
G37*
D82*
X156908Y103946D02*
D03*
Y114646D02*
D03*
X122809Y113243D02*
D03*
Y123943D02*
D03*
D121*
X194875Y106250D02*
D03*
Y141160D02*
D03*
D156*
X159048Y140366D02*
D03*
Y139566D02*
D03*
Y133966D02*
D03*
Y133166D02*
D03*
X158248Y140366D02*
D03*
Y139566D02*
D03*
Y133966D02*
D03*
Y133166D02*
D03*
X157448Y138766D02*
D03*
Y137966D02*
D03*
Y137166D02*
D03*
Y136366D02*
D03*
Y135566D02*
D03*
Y134766D02*
D03*
X156648Y138766D02*
D03*
Y137966D02*
D03*
Y137166D02*
D03*
Y136366D02*
D03*
Y135566D02*
D03*
Y134766D02*
D03*
X155848Y138766D02*
D03*
Y137966D02*
D03*
Y137166D02*
D03*
Y136366D02*
D03*
Y135566D02*
D03*
Y134766D02*
D03*
X155048Y138766D02*
D03*
Y137966D02*
D03*
Y137166D02*
D03*
Y136366D02*
D03*
Y135566D02*
D03*
Y134766D02*
D03*
X154248Y138766D02*
D03*
Y137966D02*
D03*
Y137166D02*
D03*
Y136366D02*
D03*
Y135566D02*
D03*
Y134766D02*
D03*
X153448Y138766D02*
D03*
Y137966D02*
D03*
Y137166D02*
D03*
Y136366D02*
D03*
Y135566D02*
D03*
Y134766D02*
D03*
X152648Y138766D02*
D03*
Y137966D02*
D03*
Y137166D02*
D03*
Y136366D02*
D03*
Y135566D02*
D03*
Y134766D02*
D03*
X151848Y138766D02*
D03*
Y137966D02*
D03*
Y137166D02*
D03*
Y136366D02*
D03*
Y135566D02*
D03*
Y134766D02*
D03*
X151048Y140366D02*
D03*
Y139566D02*
D03*
Y133166D02*
D03*
X150248Y140366D02*
D03*
Y139566D02*
D03*
Y133966D02*
D03*
Y133166D02*
D03*
D276*
X121183Y131750D02*
D03*
D277*
X138900Y154235D02*
D03*
D278*
X159884Y147792D02*
D03*
Y147142D02*
D03*
Y146492D02*
D03*
X161934Y146492D02*
D03*
Y147792D02*
D03*
X159884Y150789D02*
D03*
Y150139D02*
D03*
Y149489D02*
D03*
X161934Y149489D02*
D03*
Y150789D02*
D03*
D279*
X128753Y140500D02*
D03*
Y141516D02*
D03*
X110757Y141503D02*
D03*
X111773D02*
D03*
X110757Y140627D02*
D03*
X111773D02*
D03*
X116421Y137770D02*
D03*
X115405D02*
D03*
X109436Y144920D02*
D03*
Y143904D02*
D03*
Y141910D02*
D03*
Y142926D02*
D03*
X110757Y139725D02*
D03*
X111773D02*
D03*
X111722Y145986D02*
D03*
X110706D02*
D03*
X126589Y131864D02*
D03*
X127589D02*
D03*
X115837Y130962D02*
D03*
X116853D02*
D03*
X122784Y125222D02*
D03*
Y126238D02*
D03*
X119850Y125273D02*
D03*
Y126289D02*
D03*
X118047Y110790D02*
D03*
Y111790D02*
D03*
X116819Y132575D02*
D03*
X115819D02*
D03*
X118948Y136685D02*
D03*
Y137685D02*
D03*
X119812Y136687D02*
D03*
Y137687D02*
D03*
X120625Y137685D02*
D03*
Y136685D02*
D03*
X121539Y137685D02*
D03*
Y136685D02*
D03*
X122403Y137685D02*
D03*
Y136685D02*
D03*
X123317Y137698D02*
D03*
Y136698D02*
D03*
X126576Y129870D02*
D03*
X127576D02*
D03*
X126576Y130747D02*
D03*
X127576D02*
D03*
X118148Y137685D02*
D03*
Y136685D02*
D03*
X115832Y130111D02*
D03*
X116832D02*
D03*
X115807Y128829D02*
D03*
X116807D02*
D03*
X115438Y135649D02*
D03*
X116438D02*
D03*
X115438Y136550D02*
D03*
X116438D02*
D03*
X176252Y151899D02*
D03*
Y150899D02*
D03*
X130660Y124158D02*
D03*
X129644D02*
D03*
X150193Y126418D02*
D03*
Y127434D02*
D03*
X138331Y133276D02*
D03*
Y134292D02*
D03*
X130061Y134633D02*
D03*
Y135649D02*
D03*
X143154Y134176D02*
D03*
Y133160D02*
D03*
X146228Y136639D02*
D03*
Y135623D02*
D03*
X140195Y160719D02*
D03*
Y159702D02*
D03*
X145732Y133845D02*
D03*
Y132829D02*
D03*
X157185Y150713D02*
D03*
X158185D02*
D03*
X156034Y151509D02*
D03*
Y152509D02*
D03*
X158210Y151602D02*
D03*
X157210D02*
D03*
X117654Y145438D02*
D03*
Y146438D02*
D03*
X118594Y146439D02*
D03*
Y145439D02*
D03*
X128740Y124155D02*
D03*
X127724D02*
D03*
X118224Y120371D02*
D03*
X119240D02*
D03*
Y119558D02*
D03*
X118224D02*
D03*
Y118720D02*
D03*
X119240D02*
D03*
X118224Y117793D02*
D03*
X119240D02*
D03*
X118224Y114313D02*
D03*
X119240D02*
D03*
Y115341D02*
D03*
X118224D02*
D03*
X110237Y127752D02*
D03*
X109221D02*
D03*
X111101D02*
D03*
X112117D02*
D03*
X137569Y134292D02*
D03*
Y133276D02*
D03*
X136807Y134292D02*
D03*
Y133276D02*
D03*
X136020Y134267D02*
D03*
Y133251D02*
D03*
X118047Y109855D02*
D03*
X119062D02*
D03*
X120421Y104407D02*
D03*
X121437D02*
D03*
X124549Y106185D02*
D03*
X123533D02*
D03*
X119024Y107988D02*
D03*
X118008D02*
D03*
X128171Y111661D02*
D03*
X129187D02*
D03*
X131600Y104396D02*
D03*
X130584D02*
D03*
X128628Y113033D02*
D03*
X127612D02*
D03*
X129781Y140449D02*
D03*
Y141465D02*
D03*
X132918Y135458D02*
D03*
Y136474D02*
D03*
X132893Y134849D02*
D03*
Y133833D02*
D03*
X142775Y160705D02*
D03*
Y159689D02*
D03*
X135934Y160705D02*
D03*
Y159689D02*
D03*
X135079Y160705D02*
D03*
Y159689D02*
D03*
X137644Y160705D02*
D03*
Y159689D02*
D03*
X136789Y160705D02*
D03*
Y159689D02*
D03*
X138533Y148209D02*
D03*
Y147193D02*
D03*
X131610Y117945D02*
D03*
Y116929D02*
D03*
X131219Y136223D02*
D03*
Y135207D02*
D03*
X144018Y133160D02*
D03*
Y134176D02*
D03*
X119075Y108915D02*
D03*
X118059D02*
D03*
X131686Y134468D02*
D03*
Y133452D02*
D03*
X119610Y145438D02*
D03*
Y146438D02*
D03*
X124638Y144564D02*
D03*
X123622D02*
D03*
X118224Y121310D02*
D03*
X119240D02*
D03*
X191046Y149606D02*
D03*
Y148590D02*
D03*
X110871Y136042D02*
D03*
X111887D02*
D03*
X118021Y107048D02*
D03*
X119037D02*
D03*
X120434Y105258D02*
D03*
X121450D02*
D03*
X128983Y160746D02*
D03*
X127967D02*
D03*
X144729Y157546D02*
D03*
X143713D02*
D03*
X144729Y156591D02*
D03*
X143713D02*
D03*
X141046Y160719D02*
D03*
Y159702D02*
D03*
X141935Y160719D02*
D03*
Y159702D02*
D03*
X138493Y160719D02*
D03*
Y159702D02*
D03*
X139306Y160719D02*
D03*
Y159702D02*
D03*
X134023Y148273D02*
D03*
Y149288D02*
D03*
X132537Y152184D02*
D03*
X133553D02*
D03*
X133109Y154368D02*
D03*
X134125D02*
D03*
X137287Y147193D02*
D03*
Y148209D02*
D03*
X110109Y125641D02*
D03*
Y126657D02*
D03*
X150698Y145148D02*
D03*
Y144132D02*
D03*
X137782Y135522D02*
D03*
X136766D02*
D03*
X144018Y135001D02*
D03*
Y136017D02*
D03*
X139395Y137008D02*
D03*
X138379D02*
D03*
X150269Y125479D02*
D03*
X149253D02*
D03*
X130531Y120129D02*
D03*
X131547D02*
D03*
X149253Y127434D02*
D03*
Y126418D02*
D03*
X131547Y119177D02*
D03*
X130531D02*
D03*
X157210Y152542D02*
D03*
X158210D02*
D03*
X153875Y152509D02*
D03*
Y151509D02*
D03*
X130761Y158181D02*
D03*
Y159197D02*
D03*
X178411Y150823D02*
D03*
Y151823D02*
D03*
X182492Y151831D02*
D03*
X181492D02*
D03*
X181467Y150891D02*
D03*
X182467D02*
D03*
X179503Y150823D02*
D03*
Y151823D02*
D03*
X145263Y135572D02*
D03*
Y136589D02*
D03*
X177617Y114516D02*
D03*
X178617D02*
D03*
X135928Y149288D02*
D03*
Y148273D02*
D03*
X155516Y131178D02*
D03*
X154516D02*
D03*
X154529Y130111D02*
D03*
X155529D02*
D03*
X124630Y143675D02*
D03*
X123630D02*
D03*
X126890Y143662D02*
D03*
X125890D02*
D03*
X119825Y110808D02*
D03*
Y111824D02*
D03*
X160968Y151879D02*
D03*
X161968D02*
D03*
X170764Y114618D02*
D03*
Y113602D02*
D03*
X179426Y114529D02*
D03*
X180442D02*
D03*
X172060Y113602D02*
D03*
Y114618D02*
D03*
X118453Y144221D02*
D03*
X119469D02*
D03*
X118974Y138608D02*
D03*
Y139624D02*
D03*
X169786Y113602D02*
D03*
Y114618D02*
D03*
D280*
X187655Y158634D02*
D03*
Y160134D02*
D03*
X125857Y126707D02*
D03*
Y128206D02*
D03*
X117805Y125411D02*
D03*
Y126911D02*
D03*
X161938Y104470D02*
D03*
Y105970D02*
D03*
X150482Y149708D02*
D03*
Y151208D02*
D03*
D281*
X112155Y144793D02*
D03*
X110655D02*
D03*
X113411Y132829D02*
D03*
X114911D02*
D03*
X169558Y158331D02*
D03*
X171058D02*
D03*
X104218Y136388D02*
D03*
X105718D02*
D03*
X103024Y136413D02*
D03*
X101524D02*
D03*
X114910Y134607D02*
D03*
X113410D02*
D03*
X121945Y144247D02*
D03*
X120445D02*
D03*
X179629Y161760D02*
D03*
X178129D02*
D03*
X185077Y161747D02*
D03*
X186577D02*
D03*
X119278Y116548D02*
D03*
X117778D02*
D03*
X120639Y140640D02*
D03*
X119139D02*
D03*
X120639Y142456D02*
D03*
X119139D02*
D03*
X192875Y124980D02*
D03*
Y138950D02*
D03*
Y137680D02*
D03*
Y136410D02*
D03*
Y135140D02*
D03*
Y133870D02*
D03*
Y132600D02*
D03*
Y131330D02*
D03*
Y130060D02*
D03*
Y128790D02*
D03*
Y127520D02*
D03*
Y126250D02*
D03*
Y123710D02*
D03*
X191605Y138950D02*
D03*
Y137680D02*
D03*
Y136410D02*
D03*
Y135140D02*
D03*
Y133870D02*
D03*
Y132600D02*
D03*
Y131330D02*
D03*
Y130060D02*
D03*
Y128790D02*
D03*
Y127520D02*
D03*
Y126250D02*
D03*
Y124980D02*
D03*
Y123710D02*
D03*
X192875Y109740D02*
D03*
Y122440D02*
D03*
Y119900D02*
D03*
Y118630D02*
D03*
Y117360D02*
D03*
Y116090D02*
D03*
Y114820D02*
D03*
Y113550D02*
D03*
Y112280D02*
D03*
Y111010D02*
D03*
Y108470D02*
D03*
X191605Y122440D02*
D03*
Y121170D02*
D03*
Y119900D02*
D03*
Y118630D02*
D03*
Y117360D02*
D03*
Y116090D02*
D03*
Y114820D02*
D03*
Y113550D02*
D03*
Y112280D02*
D03*
Y111010D02*
D03*
Y109740D02*
D03*
Y108470D02*
D03*
X192875Y121170D02*
D03*
D282*
X138262Y140703D02*
D03*
X136362D02*
D03*
X111808Y132486D02*
D03*
X109908D02*
D03*
D283*
X146812Y153886D02*
D03*
Y150584D02*
D03*
X142711Y144119D02*
D03*
Y147421D02*
D03*
X129273Y153086D02*
D03*
Y156388D02*
D03*
D284*
X129425Y158115D02*
D03*
Y159415D02*
D03*
D285*
X127525Y158765D02*
D03*
Y159415D02*
D03*
Y158115D02*
D03*
D286*
X142826Y150536D02*
D03*
X177420Y151348D02*
D03*
X152324Y151549D02*
D03*
D287*
X132081Y158907D02*
D03*
Y160707D02*
D03*
X133529Y160716D02*
D03*
Y158916D02*
D03*
D288*
X131102Y145079D02*
D03*
Y142830D02*
D03*
X128829Y145079D02*
D03*
Y142830D02*
D03*
D289*
X187871Y106629D02*
D03*
Y103629D02*
D03*
X162446Y141364D02*
D03*
Y138364D02*
D03*
X188531Y153594D02*
D03*
Y156594D02*
D03*
D290*
X111506Y126378D02*
D03*
Y124778D02*
D03*
D291*
X150752Y160045D02*
D03*
X147752D02*
D03*
X125479Y148615D02*
D03*
X122479D02*
D03*
X125504Y150978D02*
D03*
X122504D02*
D03*
X158221Y159603D02*
D03*
X155221D02*
D03*
X169648Y160683D02*
D03*
X172648D02*
D03*
X179503Y159527D02*
D03*
X182503D02*
D03*
D292*
X179997Y112535D02*
D03*
X178397D02*
D03*
X124346Y138151D02*
D03*
X125946D02*
D03*
D293*
X110199Y134633D02*
D03*
X111899D02*
D03*
X147549Y158016D02*
D03*
X145849D02*
D03*
D294*
X147650Y135368D02*
D03*
Y133669D02*
D03*
X128168Y135421D02*
D03*
Y137121D02*
D03*
X114338Y129808D02*
D03*
Y131507D02*
D03*
D295*
X128159Y115824D02*
D03*
X130159D02*
D03*
X125854Y111315D02*
D03*
X123854D02*
D03*
X127374Y104701D02*
D03*
X129374D02*
D03*
X138338Y145288D02*
D03*
X136338D02*
D03*
Y142811D02*
D03*
X138338D02*
D03*
X125092Y104661D02*
D03*
X123092D02*
D03*
X180483Y103213D02*
D03*
X182483D02*
D03*
D296*
X149555Y106042D02*
D03*
Y104042D02*
D03*
X127940Y149438D02*
D03*
Y147438D02*
D03*
X149225Y155527D02*
D03*
Y157527D02*
D03*
X158204Y142294D02*
D03*
Y144294D02*
D03*
D297*
X176485Y105258D02*
D03*
X172485Y110058D02*
D03*
X170885Y104458D02*
D03*
Y110858D02*
D03*
X172485Y104458D02*
D03*
Y110858D02*
D03*
X173285Y109258D02*
D03*
X176485D02*
D03*
X173285Y106058D02*
D03*
Y110058D02*
D03*
X170085Y104458D02*
D03*
X171685D02*
D03*
X165285Y109258D02*
D03*
X169285Y106058D02*
D03*
X170885Y109258D02*
D03*
X172485Y105258D02*
D03*
X171685Y109258D02*
D03*
X166885Y106058D02*
D03*
X166085Y109258D02*
D03*
X168485Y106058D02*
D03*
X167685Y109258D02*
D03*
X172485Y106058D02*
D03*
X170885D02*
D03*
X171685D02*
D03*
Y110858D02*
D03*
X164485Y109258D02*
D03*
X166085Y110058D02*
D03*
X165285D02*
D03*
X166085Y105258D02*
D03*
X166885Y109258D02*
D03*
X164485Y105258D02*
D03*
Y106058D02*
D03*
X166085D02*
D03*
X169285Y104458D02*
D03*
X165285D02*
D03*
Y110858D02*
D03*
X168485D02*
D03*
X165285Y106058D02*
D03*
X167685Y105258D02*
D03*
X170885D02*
D03*
X164485Y110858D02*
D03*
X166885Y104458D02*
D03*
X174885D02*
D03*
X173285D02*
D03*
X167685D02*
D03*
X166885Y110058D02*
D03*
X169285Y110858D02*
D03*
X170885Y110058D02*
D03*
X167685D02*
D03*
X169285D02*
D03*
X174885Y110858D02*
D03*
X173285D02*
D03*
X176485D02*
D03*
Y104458D02*
D03*
X168485Y110058D02*
D03*
Y109258D02*
D03*
Y105258D02*
D03*
X169285D02*
D03*
X167685Y106058D02*
D03*
X170085D02*
D03*
Y109258D02*
D03*
Y110058D02*
D03*
X174085D02*
D03*
X173285Y105258D02*
D03*
X176485Y106058D02*
D03*
X174085Y109258D02*
D03*
X175685D02*
D03*
X172485D02*
D03*
X175685Y106058D02*
D03*
X176485Y110058D02*
D03*
X175685Y105258D02*
D03*
Y110058D02*
D03*
X174885Y105258D02*
D03*
Y110058D02*
D03*
X174085Y105258D02*
D03*
X174885Y106058D02*
D03*
Y109258D02*
D03*
X164485Y110058D02*
D03*
X166885Y110858D02*
D03*
X166085D02*
D03*
X167685D02*
D03*
X170085D02*
D03*
X171685Y110058D02*
D03*
X175685Y110858D02*
D03*
X174085D02*
D03*
X166885Y105258D02*
D03*
X164485Y104458D02*
D03*
X165285Y105258D02*
D03*
X170085D02*
D03*
X169285Y109258D02*
D03*
X171685Y105258D02*
D03*
X166085Y104458D02*
D03*
X168485D02*
D03*
X175685D02*
D03*
X174085D02*
D03*
Y106058D02*
D03*
X134056Y110795D02*
D03*
X138056Y105994D02*
D03*
X139656Y111594D02*
D03*
Y105195D02*
D03*
X138056Y111594D02*
D03*
Y105195D02*
D03*
X137255Y106795D02*
D03*
X134056D02*
D03*
X137255Y109994D02*
D03*
Y105994D02*
D03*
X140456Y111594D02*
D03*
X138856D02*
D03*
X145255Y106795D02*
D03*
X141255Y109994D02*
D03*
X139656Y106795D02*
D03*
X138056Y110795D02*
D03*
X138856Y106795D02*
D03*
X143656Y109994D02*
D03*
X144456Y106795D02*
D03*
X142056Y109994D02*
D03*
X142856Y106795D02*
D03*
X138056Y109994D02*
D03*
X139656D02*
D03*
X138856D02*
D03*
Y105195D02*
D03*
X146056Y106795D02*
D03*
X144456Y105994D02*
D03*
X145255D02*
D03*
X144456Y110795D02*
D03*
X143656Y106795D02*
D03*
X146056Y110795D02*
D03*
Y109994D02*
D03*
X144456D02*
D03*
X141255Y111594D02*
D03*
X145255D02*
D03*
Y105195D02*
D03*
X142056D02*
D03*
X145255Y109994D02*
D03*
X142856Y110795D02*
D03*
X139656D02*
D03*
X146056Y105195D02*
D03*
X143656Y111594D02*
D03*
X135656D02*
D03*
X137255D02*
D03*
X142856D02*
D03*
X143656Y105994D02*
D03*
X141255Y105195D02*
D03*
X139656Y105994D02*
D03*
X142856D02*
D03*
X141255D02*
D03*
X135656Y105195D02*
D03*
X137255D02*
D03*
X134056D02*
D03*
Y111594D02*
D03*
X142056Y105994D02*
D03*
Y106795D02*
D03*
Y110795D02*
D03*
X141255D02*
D03*
X142856Y109994D02*
D03*
X140456D02*
D03*
Y106795D02*
D03*
Y105994D02*
D03*
X136456D02*
D03*
X137255Y110795D02*
D03*
X134056Y109994D02*
D03*
X136456Y106795D02*
D03*
X134856D02*
D03*
X138056D02*
D03*
X134856Y109994D02*
D03*
X134056Y105994D02*
D03*
X134856Y110795D02*
D03*
Y105994D02*
D03*
X135656Y110795D02*
D03*
Y105994D02*
D03*
X136456Y110795D02*
D03*
X135656Y109994D02*
D03*
Y106795D02*
D03*
X146056Y105994D02*
D03*
X143656Y105195D02*
D03*
X144456D02*
D03*
X142856D02*
D03*
X140456D02*
D03*
X138856Y105994D02*
D03*
X134856Y105195D02*
D03*
X136456D02*
D03*
X143656Y110795D02*
D03*
X146056Y111594D02*
D03*
X145255Y110795D02*
D03*
X140456D02*
D03*
X141255Y106795D02*
D03*
X138856Y110795D02*
D03*
X144456Y111594D02*
D03*
X142056D02*
D03*
X134856D02*
D03*
X136456D02*
D03*
Y109994D02*
D03*
D298*
X160936Y157315D02*
D03*
Y160315D02*
D03*
X185447Y159832D02*
D03*
Y156832D02*
D03*
D299*
X128702Y118511D02*
D03*
Y121011D02*
D03*
D300*
X185472Y155523D02*
D03*
Y153523D02*
D03*
X160936Y153828D02*
D03*
Y155828D02*
D03*
D301*
X185980Y154523D02*
D03*
X184964D02*
D03*
X160428Y154828D02*
D03*
X161444D02*
D03*
D302*
X182977Y154137D02*
D03*
Y154637D02*
D03*
Y155137D02*
D03*
Y155637D02*
D03*
Y156137D02*
D03*
Y156637D02*
D03*
X175877D02*
D03*
Y156137D02*
D03*
Y155637D02*
D03*
Y155137D02*
D03*
Y154637D02*
D03*
Y154137D02*
D03*
X151391Y154340D02*
D03*
Y154840D02*
D03*
Y155340D02*
D03*
Y155840D02*
D03*
Y156340D02*
D03*
Y156840D02*
D03*
X158491D02*
D03*
Y156340D02*
D03*
Y155840D02*
D03*
Y155340D02*
D03*
Y154840D02*
D03*
Y154340D02*
D03*
D303*
X182427Y157437D02*
D03*
X181927D02*
D03*
X181427D02*
D03*
X180927D02*
D03*
X180427D02*
D03*
X179927D02*
D03*
X179427D02*
D03*
X178927D02*
D03*
X178427D02*
D03*
X177927D02*
D03*
X177427D02*
D03*
X176927D02*
D03*
X176427D02*
D03*
Y153337D02*
D03*
X176927D02*
D03*
X177427D02*
D03*
X177927D02*
D03*
X178427D02*
D03*
X178927D02*
D03*
X179427D02*
D03*
X179927D02*
D03*
X180427D02*
D03*
X180927D02*
D03*
X181427D02*
D03*
X181927D02*
D03*
X182427D02*
D03*
X157941Y153540D02*
D03*
X157441D02*
D03*
X156941D02*
D03*
X156441D02*
D03*
X155941D02*
D03*
X155441D02*
D03*
X154941D02*
D03*
X154441D02*
D03*
X153941D02*
D03*
X153441D02*
D03*
X152941D02*
D03*
X152441D02*
D03*
X151941D02*
D03*
Y157640D02*
D03*
X152441D02*
D03*
X152941D02*
D03*
X153441D02*
D03*
X153941D02*
D03*
X154441D02*
D03*
X154941D02*
D03*
X155441D02*
D03*
X155941D02*
D03*
X156441D02*
D03*
X156941D02*
D03*
X157441D02*
D03*
X157941D02*
D03*
D304*
X178172Y155387D02*
D03*
X153686Y155590D02*
D03*
D305*
X157683Y126962D02*
D03*
X156413D02*
D03*
X155143D02*
D03*
X153873D02*
D03*
X157683Y119112D02*
D03*
X156413D02*
D03*
X155143D02*
D03*
X153873D02*
D03*
X188303Y148985D02*
D03*
X187033D02*
D03*
X185763D02*
D03*
X184493D02*
D03*
X188303Y141135D02*
D03*
X187033D02*
D03*
X185763D02*
D03*
X184493D02*
D03*
D306*
X180385Y110846D02*
D03*
Y110346D02*
D03*
Y109846D02*
D03*
Y109346D02*
D03*
X183215D02*
D03*
Y109846D02*
D03*
Y110346D02*
D03*
Y110846D02*
D03*
Y106935D02*
D03*
Y106435D02*
D03*
Y105935D02*
D03*
Y105435D02*
D03*
X180385D02*
D03*
Y105935D02*
D03*
Y106435D02*
D03*
Y106935D02*
D03*
D307*
X181801Y110096D02*
D03*
Y106185D02*
D03*
D308*
X123675Y145872D02*
D03*
X125575D02*
D03*
D309*
X158859Y114046D02*
D03*
Y113546D02*
D03*
Y112546D02*
D03*
Y113046D02*
D03*
Y111046D02*
D03*
Y110546D02*
D03*
Y111546D02*
D03*
Y112046D02*
D03*
Y108046D02*
D03*
Y107546D02*
D03*
Y106546D02*
D03*
Y107046D02*
D03*
Y109046D02*
D03*
Y108546D02*
D03*
Y109546D02*
D03*
Y110046D02*
D03*
Y105046D02*
D03*
Y104546D02*
D03*
Y105546D02*
D03*
Y106046D02*
D03*
X154958D02*
D03*
Y105546D02*
D03*
Y104546D02*
D03*
Y105046D02*
D03*
Y110046D02*
D03*
Y109546D02*
D03*
Y108546D02*
D03*
Y109046D02*
D03*
Y107046D02*
D03*
Y106546D02*
D03*
Y107546D02*
D03*
Y108046D02*
D03*
Y112046D02*
D03*
Y111546D02*
D03*
Y110546D02*
D03*
Y111046D02*
D03*
Y113046D02*
D03*
Y112546D02*
D03*
Y113546D02*
D03*
Y114046D02*
D03*
X124759Y113843D02*
D03*
Y114343D02*
D03*
Y115343D02*
D03*
Y114843D02*
D03*
Y116843D02*
D03*
Y117343D02*
D03*
Y116343D02*
D03*
Y115843D02*
D03*
Y119843D02*
D03*
Y120343D02*
D03*
Y121343D02*
D03*
Y120843D02*
D03*
Y118843D02*
D03*
Y119343D02*
D03*
Y118343D02*
D03*
Y117843D02*
D03*
Y122843D02*
D03*
Y123343D02*
D03*
Y122343D02*
D03*
Y121843D02*
D03*
X120859D02*
D03*
Y122343D02*
D03*
Y123343D02*
D03*
Y122843D02*
D03*
Y117843D02*
D03*
Y118343D02*
D03*
Y119343D02*
D03*
Y118843D02*
D03*
Y120843D02*
D03*
Y121343D02*
D03*
Y120343D02*
D03*
Y119843D02*
D03*
Y115843D02*
D03*
Y116343D02*
D03*
Y117343D02*
D03*
Y116843D02*
D03*
Y114843D02*
D03*
Y115343D02*
D03*
Y114343D02*
D03*
Y113843D02*
D03*
D310*
X156324Y115926D02*
D03*
X155308D02*
D03*
D311*
X107089Y138552D02*
D03*
Y147452D02*
D03*
X107153Y125636D02*
D03*
Y134536D02*
D03*
D312*
X107189Y141402D02*
D03*
Y142202D02*
D03*
Y143002D02*
D03*
Y143802D02*
D03*
Y144602D02*
D03*
X107253Y128486D02*
D03*
Y129286D02*
D03*
Y130086D02*
D03*
Y130886D02*
D03*
Y131686D02*
D03*
D313*
X102600Y147452D02*
D03*
Y138552D02*
D03*
Y134536D02*
D03*
Y125636D02*
D03*
D314*
X110455Y131057D02*
D03*
Y130207D02*
D03*
X112405Y131057D02*
D03*
Y130207D02*
D03*
D315*
X179431Y116873D02*
D03*
X178631D02*
D03*
X177831D02*
D03*
X177031D02*
D03*
X176231D02*
D03*
X175431D02*
D03*
X174631D02*
D03*
X173831D02*
D03*
X173031D02*
D03*
X172231D02*
D03*
X171431D02*
D03*
X170631D02*
D03*
X169831D02*
D03*
X169031D02*
D03*
X168231D02*
D03*
X167431D02*
D03*
X166631D02*
D03*
X165831D02*
D03*
X165031D02*
D03*
X164231D02*
D03*
X163431D02*
D03*
X162631D02*
D03*
X179431Y117673D02*
D03*
X178631D02*
D03*
X177831D02*
D03*
X177031D02*
D03*
X176231D02*
D03*
X175431D02*
D03*
X174631D02*
D03*
X173831D02*
D03*
X173031D02*
D03*
X172231D02*
D03*
X171431D02*
D03*
X170631D02*
D03*
X169831D02*
D03*
X169031D02*
D03*
X168231D02*
D03*
X167431D02*
D03*
X166631D02*
D03*
X165831D02*
D03*
X165031D02*
D03*
X164231D02*
D03*
X163431D02*
D03*
X162631D02*
D03*
X179431Y118473D02*
D03*
X178631D02*
D03*
X177831D02*
D03*
X177031D02*
D03*
X176231D02*
D03*
X175431D02*
D03*
X174631D02*
D03*
X173831D02*
D03*
X173031D02*
D03*
X172231D02*
D03*
X171431D02*
D03*
X170631D02*
D03*
X169831D02*
D03*
X169031D02*
D03*
X168231D02*
D03*
X167431D02*
D03*
X166631D02*
D03*
X165831D02*
D03*
X165031D02*
D03*
X164231D02*
D03*
X163431D02*
D03*
X162631D02*
D03*
X179431Y119273D02*
D03*
X178631D02*
D03*
X177831D02*
D03*
X177031D02*
D03*
X176231D02*
D03*
X175431D02*
D03*
X174631D02*
D03*
X173831D02*
D03*
X173031D02*
D03*
X172231D02*
D03*
X171431D02*
D03*
X170631D02*
D03*
X169831D02*
D03*
X169031D02*
D03*
X168231D02*
D03*
X167431D02*
D03*
X166631D02*
D03*
X165831D02*
D03*
X165031D02*
D03*
X164231D02*
D03*
X163431D02*
D03*
X162631D02*
D03*
X179431Y120073D02*
D03*
X178631D02*
D03*
X177831D02*
D03*
X177031D02*
D03*
X176231D02*
D03*
X175431D02*
D03*
X174631D02*
D03*
X173831D02*
D03*
X173031D02*
D03*
X172231D02*
D03*
X171431D02*
D03*
X170631D02*
D03*
X169831D02*
D03*
X169031D02*
D03*
X168231D02*
D03*
X167431D02*
D03*
X166631D02*
D03*
X165831D02*
D03*
X165031D02*
D03*
X164231D02*
D03*
X163431D02*
D03*
X162631D02*
D03*
X179431Y120873D02*
D03*
X178631D02*
D03*
X177831D02*
D03*
X177031D02*
D03*
X176231D02*
D03*
X175431D02*
D03*
X174631D02*
D03*
X173831D02*
D03*
X173031D02*
D03*
X172231D02*
D03*
X171431D02*
D03*
X170631D02*
D03*
X169831D02*
D03*
X169031D02*
D03*
X168231D02*
D03*
X167431D02*
D03*
X166631D02*
D03*
X165831D02*
D03*
X165031D02*
D03*
X164231D02*
D03*
X163431D02*
D03*
X162631D02*
D03*
X179431Y121673D02*
D03*
X178631D02*
D03*
X177831D02*
D03*
X177031D02*
D03*
X176231D02*
D03*
X175431D02*
D03*
X174631D02*
D03*
X173831D02*
D03*
X173031D02*
D03*
X172231D02*
D03*
X171431D02*
D03*
X170631D02*
D03*
X169831D02*
D03*
X169031D02*
D03*
X168231D02*
D03*
X167431D02*
D03*
X166631D02*
D03*
X165831D02*
D03*
X165031D02*
D03*
X164231D02*
D03*
X163431D02*
D03*
X162631D02*
D03*
X179431Y122473D02*
D03*
X178631D02*
D03*
X177831D02*
D03*
X177031D02*
D03*
X176231D02*
D03*
X175431D02*
D03*
X174631D02*
D03*
X173831D02*
D03*
X173031D02*
D03*
X172231D02*
D03*
X171431D02*
D03*
X170631D02*
D03*
X169831D02*
D03*
X169031D02*
D03*
X168231D02*
D03*
X167431D02*
D03*
X166631D02*
D03*
X165831D02*
D03*
X165031D02*
D03*
X164231D02*
D03*
X163431D02*
D03*
X162631D02*
D03*
X179431Y123273D02*
D03*
X178631D02*
D03*
X177831D02*
D03*
X177031D02*
D03*
X176231D02*
D03*
X175431D02*
D03*
X174631D02*
D03*
X173831D02*
D03*
X173031D02*
D03*
X172231D02*
D03*
X171431D02*
D03*
X170631D02*
D03*
X169831D02*
D03*
X169031D02*
D03*
X168231D02*
D03*
X167431D02*
D03*
X166631D02*
D03*
X165831D02*
D03*
X165031D02*
D03*
X164231D02*
D03*
X163431D02*
D03*
X162631D02*
D03*
X179431Y124073D02*
D03*
X178631D02*
D03*
X177831D02*
D03*
X177031D02*
D03*
X176231D02*
D03*
X175431D02*
D03*
X174631D02*
D03*
X173831D02*
D03*
X173031D02*
D03*
X172231D02*
D03*
X171431D02*
D03*
X170631D02*
D03*
X169831D02*
D03*
X169031D02*
D03*
X168231D02*
D03*
X167431D02*
D03*
X166631D02*
D03*
X165831D02*
D03*
X165031D02*
D03*
X164231D02*
D03*
X163431D02*
D03*
X162631D02*
D03*
X179431Y124873D02*
D03*
X178631D02*
D03*
X177831D02*
D03*
X177031D02*
D03*
X176231D02*
D03*
X175431D02*
D03*
X174631D02*
D03*
X173831D02*
D03*
X173031D02*
D03*
X172231D02*
D03*
X171431D02*
D03*
X170631D02*
D03*
X169831D02*
D03*
X169031D02*
D03*
X168231D02*
D03*
X167431D02*
D03*
X166631D02*
D03*
X165831D02*
D03*
X165031D02*
D03*
X164231D02*
D03*
X163431D02*
D03*
X162631D02*
D03*
X179431Y125673D02*
D03*
X178631D02*
D03*
X177831D02*
D03*
X177031D02*
D03*
X176231D02*
D03*
X175431D02*
D03*
X174631D02*
D03*
X173831D02*
D03*
X173031D02*
D03*
X172231D02*
D03*
X171431D02*
D03*
X170631D02*
D03*
X169831D02*
D03*
X169031D02*
D03*
X168231D02*
D03*
X167431D02*
D03*
X166631D02*
D03*
X165831D02*
D03*
X165031D02*
D03*
X164231D02*
D03*
X163431D02*
D03*
X162631D02*
D03*
X179431Y126473D02*
D03*
X178631D02*
D03*
X177831D02*
D03*
X177031D02*
D03*
X176231D02*
D03*
X175431D02*
D03*
X174631D02*
D03*
X173831D02*
D03*
X173031D02*
D03*
X172231D02*
D03*
X171431D02*
D03*
X170631D02*
D03*
X169831D02*
D03*
X169031D02*
D03*
X168231D02*
D03*
X167431D02*
D03*
X166631D02*
D03*
X165831D02*
D03*
X165031D02*
D03*
X164231D02*
D03*
X163431D02*
D03*
X162631D02*
D03*
X179431Y127273D02*
D03*
X178631D02*
D03*
X177831D02*
D03*
X177031D02*
D03*
X176231D02*
D03*
X175431D02*
D03*
X174631D02*
D03*
X173831D02*
D03*
X173031D02*
D03*
X172231D02*
D03*
X171431D02*
D03*
X170631D02*
D03*
X169831D02*
D03*
X169031D02*
D03*
X168231D02*
D03*
X167431D02*
D03*
X166631D02*
D03*
X165831D02*
D03*
X165031D02*
D03*
X164231D02*
D03*
X163431D02*
D03*
X162631D02*
D03*
X179431Y128073D02*
D03*
X178631D02*
D03*
X177831D02*
D03*
X177031D02*
D03*
X176231D02*
D03*
X175431D02*
D03*
X174631D02*
D03*
X173831D02*
D03*
X173031D02*
D03*
X172231D02*
D03*
X171431D02*
D03*
X170631D02*
D03*
X169831D02*
D03*
X169031D02*
D03*
X168231D02*
D03*
X167431D02*
D03*
X166631D02*
D03*
X165831D02*
D03*
X165031D02*
D03*
X164231D02*
D03*
X163431D02*
D03*
X162631D02*
D03*
X179431Y128873D02*
D03*
X178631D02*
D03*
X177831D02*
D03*
X177031D02*
D03*
X176231D02*
D03*
X175431D02*
D03*
X174631D02*
D03*
X173831D02*
D03*
X173031D02*
D03*
X172231D02*
D03*
X171431D02*
D03*
X170631D02*
D03*
X169831D02*
D03*
X169031D02*
D03*
X168231D02*
D03*
X167431D02*
D03*
X166631D02*
D03*
X165831D02*
D03*
X165031D02*
D03*
X164231D02*
D03*
X163431D02*
D03*
X162631D02*
D03*
X179431Y129673D02*
D03*
X178631D02*
D03*
X177831D02*
D03*
X177031D02*
D03*
X176231D02*
D03*
X175431D02*
D03*
X174631D02*
D03*
X173831D02*
D03*
X173031D02*
D03*
X172231D02*
D03*
X171431D02*
D03*
X170631D02*
D03*
X169831D02*
D03*
X169031D02*
D03*
X168231D02*
D03*
X167431D02*
D03*
X166631D02*
D03*
X165831D02*
D03*
X165031D02*
D03*
X164231D02*
D03*
X163431D02*
D03*
X162631D02*
D03*
X179431Y130473D02*
D03*
X178631D02*
D03*
X177831D02*
D03*
X177031D02*
D03*
X176231D02*
D03*
X175431D02*
D03*
X174631D02*
D03*
X173831D02*
D03*
X173031D02*
D03*
X172231D02*
D03*
X171431D02*
D03*
X170631D02*
D03*
X169831D02*
D03*
X169031D02*
D03*
X168231D02*
D03*
X167431D02*
D03*
X166631D02*
D03*
X165831D02*
D03*
X165031D02*
D03*
X164231D02*
D03*
X163431D02*
D03*
X162631D02*
D03*
X179431Y131273D02*
D03*
X178631D02*
D03*
X177831D02*
D03*
X177031D02*
D03*
X176231D02*
D03*
X175431D02*
D03*
X174631D02*
D03*
X173831D02*
D03*
X173031D02*
D03*
X172231D02*
D03*
X171431D02*
D03*
X170631D02*
D03*
X169831D02*
D03*
X169031D02*
D03*
X168231D02*
D03*
X167431D02*
D03*
X166631D02*
D03*
X165831D02*
D03*
X165031D02*
D03*
X164231D02*
D03*
X163431D02*
D03*
X162631D02*
D03*
X179431Y132073D02*
D03*
X178631D02*
D03*
X177831D02*
D03*
X177031D02*
D03*
X176231D02*
D03*
X175431D02*
D03*
X174631D02*
D03*
X173831D02*
D03*
X173031D02*
D03*
X172231D02*
D03*
X171431D02*
D03*
X170631D02*
D03*
X169831D02*
D03*
X169031D02*
D03*
X168231D02*
D03*
X167431D02*
D03*
X166631D02*
D03*
X165831D02*
D03*
X165031D02*
D03*
X164231D02*
D03*
X163431D02*
D03*
X162631D02*
D03*
X179431Y132873D02*
D03*
X178631D02*
D03*
X177831D02*
D03*
X177031D02*
D03*
X176231D02*
D03*
X175431D02*
D03*
X174631D02*
D03*
X173831D02*
D03*
X173031D02*
D03*
X172231D02*
D03*
X171431D02*
D03*
X170631D02*
D03*
X169831D02*
D03*
X169031D02*
D03*
X168231D02*
D03*
X167431D02*
D03*
X166631D02*
D03*
X165831D02*
D03*
X165031D02*
D03*
X164231D02*
D03*
X163431D02*
D03*
X162631D02*
D03*
X179431Y133673D02*
D03*
X178631D02*
D03*
X177831D02*
D03*
X177031D02*
D03*
X176231D02*
D03*
X175431D02*
D03*
X174631D02*
D03*
X173831D02*
D03*
X173031D02*
D03*
X172231D02*
D03*
X171431D02*
D03*
X170631D02*
D03*
X169831D02*
D03*
X169031D02*
D03*
X168231D02*
D03*
X167431D02*
D03*
X166631D02*
D03*
X165831D02*
D03*
X165031D02*
D03*
X164231D02*
D03*
X163431D02*
D03*
X162631D02*
D03*
D316*
X137182Y124773D02*
D03*
Y123974D02*
D03*
Y125574D02*
D03*
X137982Y126374D02*
D03*
X137182D02*
D03*
X138782D02*
D03*
X139582D02*
D03*
X137982Y119974D02*
D03*
X136382D02*
D03*
X139582D02*
D03*
X140382D02*
D03*
X141182D02*
D03*
X138782D02*
D03*
X137182D02*
D03*
X134782Y120773D02*
D03*
X146782Y125574D02*
D03*
X145182Y126374D02*
D03*
X134782Y119974D02*
D03*
X135582Y120773D02*
D03*
X133982Y119974D02*
D03*
X133182Y119173D02*
D03*
X133982Y130374D02*
D03*
X141982Y119974D02*
D03*
X133982Y119173D02*
D03*
X145182Y120773D02*
D03*
X144382Y121574D02*
D03*
X145182D02*
D03*
Y129573D02*
D03*
X140382Y130374D02*
D03*
X139582Y128773D02*
D03*
X144382Y127173D02*
D03*
X145182D02*
D03*
X135582D02*
D03*
X133182Y127974D02*
D03*
X145982Y129573D02*
D03*
Y130374D02*
D03*
Y122374D02*
D03*
X146782D02*
D03*
X144382Y123173D02*
D03*
X145182D02*
D03*
X133982Y125574D02*
D03*
X143582Y127974D02*
D03*
X134782Y130374D02*
D03*
X137182D02*
D03*
X137982Y127974D02*
D03*
Y128773D02*
D03*
Y130374D02*
D03*
X137182Y129573D02*
D03*
X146782Y126374D02*
D03*
X145182Y125574D02*
D03*
X145982Y120773D02*
D03*
X145182Y122374D02*
D03*
X144382D02*
D03*
X146782Y121574D02*
D03*
X137182Y128773D02*
D03*
X145982Y121574D02*
D03*
X145182Y123974D02*
D03*
X133182Y121574D02*
D03*
X134782D02*
D03*
X133982D02*
D03*
Y120773D02*
D03*
X133182Y129573D02*
D03*
X145982Y123974D02*
D03*
Y123173D02*
D03*
X137982Y129573D02*
D03*
X134782Y126374D02*
D03*
X145182Y124773D02*
D03*
X146782Y129573D02*
D03*
X145982Y126374D02*
D03*
X145182Y128773D02*
D03*
X144382Y125574D02*
D03*
X145982Y128773D02*
D03*
Y125574D02*
D03*
X146782Y128773D02*
D03*
X145182Y127974D02*
D03*
X145982D02*
D03*
X146782D02*
D03*
X145982Y127173D02*
D03*
X146782D02*
D03*
X144382Y126374D02*
D03*
X137982Y117574D02*
D03*
X146782Y123173D02*
D03*
X138782Y130374D02*
D03*
Y128773D02*
D03*
Y129573D02*
D03*
X139582Y127974D02*
D03*
X134782Y125574D02*
D03*
X143582Y128773D02*
D03*
X145182Y130374D02*
D03*
X133182Y117574D02*
D03*
X135582Y130374D02*
D03*
Y129573D02*
D03*
X133982Y128773D02*
D03*
X133182D02*
D03*
X145982Y117574D02*
D03*
X145182Y119173D02*
D03*
Y118374D02*
D03*
X144382Y116773D02*
D03*
X146782Y119173D02*
D03*
Y118374D02*
D03*
X144382Y119173D02*
D03*
X145182Y117574D02*
D03*
Y119974D02*
D03*
X145982Y116773D02*
D03*
X144382Y118374D02*
D03*
X145182Y116773D02*
D03*
X145982Y118374D02*
D03*
X146782Y117574D02*
D03*
X145982Y119173D02*
D03*
X144382Y117574D02*
D03*
X141982Y129573D02*
D03*
Y130374D02*
D03*
X139582Y129573D02*
D03*
X141182D02*
D03*
Y128773D02*
D03*
Y127974D02*
D03*
X141982Y128773D02*
D03*
X141182Y130374D02*
D03*
X139582D02*
D03*
X140382Y127974D02*
D03*
Y128773D02*
D03*
Y129573D02*
D03*
X134782D02*
D03*
Y128773D02*
D03*
X144382Y123974D02*
D03*
X136382Y121574D02*
D03*
Y123173D02*
D03*
X135582Y123974D02*
D03*
X144382Y124773D02*
D03*
X138782Y127974D02*
D03*
X133182Y119974D02*
D03*
X138782Y119173D02*
D03*
X133982Y118374D02*
D03*
X133182D02*
D03*
X143582Y126374D02*
D03*
Y125574D02*
D03*
X139582Y119173D02*
D03*
X137982Y116773D02*
D03*
X137182Y127974D02*
D03*
X143582Y130374D02*
D03*
X144382D02*
D03*
Y129573D02*
D03*
X141182Y117574D02*
D03*
X143582D02*
D03*
Y129573D02*
D03*
Y123974D02*
D03*
Y124773D02*
D03*
X142782Y127974D02*
D03*
X144382D02*
D03*
X136382Y125574D02*
D03*
Y123974D02*
D03*
Y124773D02*
D03*
Y126374D02*
D03*
X142782Y119974D02*
D03*
X143582D02*
D03*
Y120773D02*
D03*
X137182Y127173D02*
D03*
X137982D02*
D03*
X140382D02*
D03*
X141182D02*
D03*
X144382Y128773D02*
D03*
X142782D02*
D03*
X133982Y127173D02*
D03*
X134782D02*
D03*
X133182Y125574D02*
D03*
X133982Y124773D02*
D03*
X134782D02*
D03*
X135582Y121574D02*
D03*
X133182Y123974D02*
D03*
X135582Y128773D02*
D03*
Y127974D02*
D03*
X146782Y123974D02*
D03*
X145982Y124773D02*
D03*
X139582Y118374D02*
D03*
X134782Y122374D02*
D03*
X133982D02*
D03*
X133182D02*
D03*
Y123173D02*
D03*
X134782D02*
D03*
X133182Y120773D02*
D03*
X133982Y123173D02*
D03*
X141982Y127974D02*
D03*
X133982D02*
D03*
X135582Y117574D02*
D03*
X133182Y127173D02*
D03*
X135582Y126374D02*
D03*
X133982D02*
D03*
X133182D02*
D03*
X146782Y120773D02*
D03*
X135582Y125574D02*
D03*
X143582Y123173D02*
D03*
X142782Y120773D02*
D03*
X137182Y123173D02*
D03*
X136382Y120773D02*
D03*
X143582Y127173D02*
D03*
X140382Y126374D02*
D03*
X136382Y127173D02*
D03*
X144382Y120773D02*
D03*
Y119974D02*
D03*
X145982D02*
D03*
X136382Y128773D02*
D03*
Y129573D02*
D03*
Y127974D02*
D03*
Y130374D02*
D03*
X146782Y119974D02*
D03*
Y124773D02*
D03*
X134782Y127974D02*
D03*
X133982Y129573D02*
D03*
Y123974D02*
D03*
X138782Y117574D02*
D03*
X135582Y116773D02*
D03*
X133182Y124773D02*
D03*
X142782Y130374D02*
D03*
Y129573D02*
D03*
X139582Y117574D02*
D03*
X141182Y116773D02*
D03*
X143582D02*
D03*
X141982Y117574D02*
D03*
X133982D02*
D03*
X137982Y119173D02*
D03*
X137182Y116773D02*
D03*
X137982Y118374D02*
D03*
X141982Y116773D02*
D03*
X141182Y119173D02*
D03*
Y118374D02*
D03*
X140382Y119173D02*
D03*
Y118374D02*
D03*
X135582Y123173D02*
D03*
X140382Y117574D02*
D03*
Y116773D02*
D03*
X139582D02*
D03*
X133182D02*
D03*
X146782D02*
D03*
X139582Y120773D02*
D03*
X138782D02*
D03*
X140382Y121574D02*
D03*
X142782D02*
D03*
X141982Y122374D02*
D03*
Y121574D02*
D03*
Y120773D02*
D03*
X140382Y123173D02*
D03*
X139582D02*
D03*
X138782D02*
D03*
X139582Y122374D02*
D03*
X138782D02*
D03*
X139582Y121574D02*
D03*
X138782D02*
D03*
X141982Y123173D02*
D03*
Y123974D02*
D03*
X139582D02*
D03*
X141182D02*
D03*
X140382D02*
D03*
X142782D02*
D03*
Y124773D02*
D03*
X137982Y122374D02*
D03*
X137182D02*
D03*
X137982Y123173D02*
D03*
X138782Y123974D02*
D03*
X137982Y124773D02*
D03*
X141982Y125574D02*
D03*
X139582Y124773D02*
D03*
X138782Y125574D02*
D03*
X141182Y126374D02*
D03*
Y125574D02*
D03*
X142782Y127173D02*
D03*
X141982D02*
D03*
X141182Y124773D02*
D03*
X140382D02*
D03*
X137982Y125574D02*
D03*
X146782Y130374D02*
D03*
X133182D02*
D03*
X143582Y119173D02*
D03*
Y118374D02*
D03*
X142782Y119173D02*
D03*
Y118374D02*
D03*
Y117574D02*
D03*
Y116773D02*
D03*
X141982Y119173D02*
D03*
Y118374D02*
D03*
X136382Y116773D02*
D03*
X134782Y119173D02*
D03*
X138782Y118374D02*
D03*
X136382D02*
D03*
X137182Y117574D02*
D03*
Y119173D02*
D03*
X134782Y116773D02*
D03*
X135582Y119173D02*
D03*
X136382Y117574D02*
D03*
X135582Y119974D02*
D03*
X133982Y116773D02*
D03*
X134782Y117574D02*
D03*
Y118374D02*
D03*
X136382Y119173D02*
D03*
X138782Y116773D02*
D03*
X137182Y118374D02*
D03*
X135582Y124773D02*
D03*
X134782Y123974D02*
D03*
X135582Y122374D02*
D03*
X136382D02*
D03*
X143582Y121574D02*
D03*
Y122374D02*
D03*
X137182Y120773D02*
D03*
Y121574D02*
D03*
X141182Y123173D02*
D03*
X137982Y123974D02*
D03*
X138782Y124773D02*
D03*
X142782Y122374D02*
D03*
Y123173D02*
D03*
X141982Y124773D02*
D03*
X142782Y125574D02*
D03*
Y126374D02*
D03*
X141982D02*
D03*
X139582Y125574D02*
D03*
X140382D02*
D03*
X141182Y122374D02*
D03*
Y120773D02*
D03*
X140382D02*
D03*
X137982Y121574D02*
D03*
Y120773D02*
D03*
X140382Y122374D02*
D03*
X141182Y121574D02*
D03*
X138782Y127173D02*
D03*
X139582D02*
D03*
X135582Y118374D02*
D03*
D317*
X123877Y153914D02*
D03*
Y159914D02*
D03*
D318*
X197425Y141460D02*
D03*
X192325D02*
D03*
Y105950D02*
D03*
D319*
X197968D02*
D03*
D320*
X165150Y142568D02*
D03*
X174350D02*
D03*
D321*
X173350Y140018D02*
D03*
X172750D02*
D03*
X171550D02*
D03*
X172150D02*
D03*
X169750D02*
D03*
X169150D02*
D03*
X170350D02*
D03*
X170950D02*
D03*
X166150D02*
D03*
X167350D02*
D03*
X166750D02*
D03*
X167950D02*
D03*
X168550D02*
D03*
D322*
X168850Y142893D02*
D03*
X168250D02*
D03*
X167050D02*
D03*
X167650D02*
D03*
X165850D02*
D03*
X166450D02*
D03*
X171250D02*
D03*
X170650D02*
D03*
X169450D02*
D03*
X170050D02*
D03*
X172450D02*
D03*
X171850D02*
D03*
X173050D02*
D03*
X173650D02*
D03*
D323*
X146571Y132839D02*
D03*
Y133219D02*
D03*
D324*
X123454Y140885D02*
D03*
Y141385D02*
D03*
X126354D02*
D03*
Y140885D02*
D03*
D325*
X123655Y142585D02*
D03*
X124155D02*
D03*
X124655D02*
D03*
X125155D02*
D03*
X125655D02*
D03*
X126155D02*
D03*
Y139685D02*
D03*
X125655D02*
D03*
X125155D02*
D03*
X124655D02*
D03*
X124155D02*
D03*
X123655D02*
D03*
D326*
X171993Y155884D02*
D03*
X171343D02*
D03*
X170693D02*
D03*
X170043D02*
D03*
X171993Y151684D02*
D03*
X171343D02*
D03*
X170693D02*
D03*
X170043D02*
D03*
D327*
X113632Y125044D02*
D03*
Y127244D02*
D03*
X115532D02*
D03*
Y125044D02*
D03*
D328*
X179476Y142189D02*
D03*
D329*
X176776Y140284D02*
D03*
Y141554D02*
D03*
Y142824D02*
D03*
Y144094D02*
D03*
X182176D02*
D03*
Y142824D02*
D03*
Y141554D02*
D03*
Y140284D02*
D03*
D330*
X116253Y143617D02*
D03*
X115603D02*
D03*
X114953D02*
D03*
X114303D02*
D03*
Y139567D02*
D03*
X114953D02*
D03*
X115603D02*
D03*
X116253D02*
D03*
D331*
X113253Y142567D02*
D03*
Y141917D02*
D03*
X117303Y140617D02*
D03*
Y141267D02*
D03*
Y141917D02*
D03*
Y142567D02*
D03*
D332*
X113253Y141267D02*
D03*
Y140617D02*
D03*
D333*
X115278Y141592D02*
D03*
D334*
X118433Y128450D02*
D03*
X118933D02*
D03*
X119433D02*
D03*
X119933D02*
D03*
X120433D02*
D03*
X120933D02*
D03*
X121433D02*
D03*
X121933D02*
D03*
X122433D02*
D03*
X122933D02*
D03*
X123433D02*
D03*
X123933D02*
D03*
Y135050D02*
D03*
X123433D02*
D03*
X122933D02*
D03*
X122433D02*
D03*
X121933D02*
D03*
X121433D02*
D03*
X120933D02*
D03*
X120433D02*
D03*
X119933D02*
D03*
X119433D02*
D03*
X118933D02*
D03*
X118433D02*
D03*
D335*
X124483Y129000D02*
D03*
Y129500D02*
D03*
Y130000D02*
D03*
Y130500D02*
D03*
Y131000D02*
D03*
Y131500D02*
D03*
Y132000D02*
D03*
Y132500D02*
D03*
Y133000D02*
D03*
Y133500D02*
D03*
Y134000D02*
D03*
Y134500D02*
D03*
X117883D02*
D03*
Y134000D02*
D03*
Y133500D02*
D03*
Y133000D02*
D03*
Y132500D02*
D03*
Y132000D02*
D03*
Y131500D02*
D03*
Y131000D02*
D03*
Y130500D02*
D03*
Y130000D02*
D03*
Y129500D02*
D03*
Y129000D02*
D03*
D336*
X155963Y149739D02*
D03*
X155313D02*
D03*
X154663D02*
D03*
X154013D02*
D03*
X153363D02*
D03*
X152713D02*
D03*
X152063D02*
D03*
X155963Y144189D02*
D03*
X155313D02*
D03*
X154663D02*
D03*
X154013D02*
D03*
X153363D02*
D03*
X152713D02*
D03*
X152063D02*
D03*
D337*
X127624Y109684D02*
D03*
Y109184D02*
D03*
Y108684D02*
D03*
Y108184D02*
D03*
Y107684D02*
D03*
Y107184D02*
D03*
X129124D02*
D03*
Y109184D02*
D03*
Y108184D02*
D03*
Y107684D02*
D03*
Y109684D02*
D03*
Y108684D02*
D03*
D338*
X127624Y110264D02*
D03*
Y106604D02*
D03*
X129124D02*
D03*
Y110264D02*
D03*
D339*
X143958Y159756D02*
D03*
X145758D02*
D03*
D340*
X137636Y114353D02*
D03*
X139636D02*
D03*
D341*
X123497Y107496D02*
D03*
Y107996D02*
D03*
Y108496D02*
D03*
Y108996D02*
D03*
Y109496D02*
D03*
X120547D02*
D03*
Y108996D02*
D03*
Y108496D02*
D03*
Y107996D02*
D03*
Y107496D02*
D03*
D342*
X122272Y109971D02*
D03*
X121772D02*
D03*
Y107021D02*
D03*
X122272D02*
D03*
D343*
X122022Y108496D02*
D03*
D344*
X148895Y143187D02*
D03*
Y147287D02*
D03*
X147295D02*
D03*
Y143187D02*
D03*
D345*
X116410Y156533D02*
D03*
D346*
X120220Y148533D02*
D03*
X118950D02*
D03*
X117680D02*
D03*
X116410D02*
D03*
X115140D02*
D03*
X113870D02*
D03*
X112600D02*
D03*
D347*
X141686Y152200D02*
D03*
X135736Y153000D02*
D03*
X141686Y154600D02*
D03*
X135736Y155000D02*
D03*
Y153400D02*
D03*
X141686Y154200D02*
D03*
X135736Y154600D02*
D03*
Y155400D02*
D03*
X141686Y156200D02*
D03*
X135736Y152600D02*
D03*
Y151800D02*
D03*
X141686Y155800D02*
D03*
Y153400D02*
D03*
X135736Y156200D02*
D03*
Y152200D02*
D03*
X141686Y153000D02*
D03*
X135736Y155800D02*
D03*
Y154200D02*
D03*
X141686Y151800D02*
D03*
Y153800D02*
D03*
Y155400D02*
D03*
X135736Y153800D02*
D03*
X141686Y152600D02*
D03*
Y155000D02*
D03*
D348*
X136511Y151025D02*
D03*
X136911D02*
D03*
X140111D02*
D03*
X138911Y156975D02*
D03*
X140111D02*
D03*
X137311Y151025D02*
D03*
X137711D02*
D03*
X140911D02*
D03*
X139711D02*
D03*
X138511Y156975D02*
D03*
X139711D02*
D03*
X140511Y151025D02*
D03*
X136911Y156975D02*
D03*
X137311D02*
D03*
X137711D02*
D03*
X138111D02*
D03*
X136511D02*
D03*
X140511D02*
D03*
X139311D02*
D03*
Y151025D02*
D03*
X138911D02*
D03*
X138511D02*
D03*
X140911Y156975D02*
D03*
X138111Y151025D02*
D03*
D349*
X111815Y142601D02*
D03*
X111315Y143479D02*
D03*
X111815D02*
D03*
X111315Y142601D02*
D03*
X110816D02*
D03*
Y143479D02*
D03*
D350*
X110637Y128497D02*
D03*
X111515Y128996D02*
D03*
Y128497D02*
D03*
X110637Y128996D02*
D03*
Y129496D02*
D03*
D351*
X111515D02*
D03*
D352*
X172103Y148590D02*
D03*
X169603D02*
D03*
D353*
X151649Y128920D02*
D03*
X149449Y130520D02*
D03*
Y128920D02*
D03*
X151649Y130520D02*
D03*
D354*
X196000Y162000D02*
D03*
X104000D02*
D03*
Y104000D02*
D03*
X196000Y104000D02*
D03*
D355*
X191949Y160134D02*
D03*
X114668Y103520D02*
D03*
X108966Y160924D02*
D03*
D356*
X104602Y140777D02*
D03*
Y145176D02*
D03*
D357*
X164376Y150457D02*
D03*
Y161257D02*
D03*
D358*
X194791Y108750D02*
D03*
X185000Y108750D02*
D03*
D359*
X194791Y144950D02*
D03*
X185000Y136950D02*
D03*
D360*
X102973Y154777D02*
D03*
X109223D02*
D03*
D361*
X106223Y149977D02*
D03*
D362*
X197563Y147615D02*
D03*
X195023D02*
D03*
X197563Y150155D02*
D03*
X195023D02*
D03*
X197563Y152695D02*
D03*
X195023D02*
D03*
X197563Y155235D02*
D03*
X195023D02*
D03*
X197563Y157775D02*
D03*
D363*
X195023D02*
D03*
D364*
X112484Y109347D02*
D03*
X114984Y120757D02*
D03*
X115024Y110617D02*
D03*
X112484Y119507D02*
D03*
Y116967D02*
D03*
X115024Y115697D02*
D03*
X112484Y114427D02*
D03*
X115024Y118237D02*
D03*
X112484Y111887D02*
D03*
X115024Y113157D02*
D03*
D365*
X109182Y107315D02*
D03*
D366*
Y122809D02*
D03*
D367*
X102070Y108458D02*
D03*
Y110998D02*
D03*
Y119126D02*
D03*
Y121666D02*
D03*
D368*
X106134Y120777D02*
D03*
Y109347D02*
D03*
D369*
X162446Y153101D02*
D03*
X186920Y152974D02*
D03*
D370*
X177471Y155438D02*
D03*
Y156378D02*
D03*
X178868D02*
D03*
Y155438D02*
D03*
X154383Y155641D02*
D03*
Y156581D02*
D03*
X152986D02*
D03*
Y155641D02*
D03*
D371*
X178376Y143839D02*
D03*
X179476Y142739D02*
D03*
X178376Y141639D02*
D03*
X180576D02*
D03*
X179476Y140539D02*
D03*
X180576Y143839D02*
D03*
M02*
