G04 Layer_Color=16711935*
%FSLAX43Y43*%
%MOMM*%
G71*
G01*
G75*
%ADD82C,0.400*%
%ADD121C,1.778*%
%ADD279C,0.838*%
%ADD280R,1.003X1.003*%
%ADD281R,1.003X1.003*%
%ADD282R,1.600X1.753*%
%ADD284R,1.219X0.610*%
%ADD286C,1.219*%
%ADD290O,1.303X1.003*%
%ADD291R,1.203X1.803*%
%ADD292O,1.003X1.303*%
%ADD293R,1.295X1.245*%
%ADD294R,1.245X1.295*%
%ADD295R,1.549X1.727*%
%ADD296R,1.727X1.549*%
%ADD299R,2.003X1.203*%
%ADD311R,3.703X2.203*%
%ADD312R,2.402X0.602*%
%ADD313R,4.203X2.203*%
%ADD314R,0.953X0.553*%
%ADD317R,3.203X2.203*%
%ADD327R,1.203X1.403*%
%ADD337R,0.568X0.314*%
%ADD338R,0.568X0.466*%
%ADD354C,3.203*%
%ADD355C,3.048*%
%ADD356C,0.803*%
%ADD357C,1.803*%
%ADD358C,1.403*%
%ADD359C,1.092*%
%ADD360O,2.703X5.203*%
%ADD361O,5.203X2.703*%
%ADD362C,1.703*%
%ADD363R,1.703X1.703*%
%ADD364C,1.981*%
%ADD365C,2.053*%
%ADD366C,1.903*%
%ADD367C,1.803*%
%ADD368C,3.403*%
%ADD369C,0.903*%
%ADD371C,0.703*%
%ADD372R,1.753X1.600*%
%ADD373R,0.559X0.356*%
%ADD374R,0.991X1.092*%
%ADD375R,0.360X0.360*%
%ADD376R,0.503X0.503*%
%ADD377R,0.360X0.360*%
%ADD378R,0.510X1.460*%
%ADD379R,0.510X1.460*%
%ADD380R,0.510X1.460*%
%ADD381R,1.403X1.203*%
%ADD382R,0.653X1.003*%
%ADD383R,2.152X0.652*%
%ADD384O,0.450X0.950*%
%ADD385O,0.950X0.450*%
%ADD386R,0.390X0.490*%
%ADD387R,0.490X0.390*%
%ADD388O,0.360X0.910*%
%ADD389O,0.910X0.360*%
%ADD390R,1.560X0.860*%
%ADD391R,1.903X1.603*%
%ADD392R,1.353X1.703*%
%ADD393R,1.703X1.353*%
%ADD394R,0.703X1.403*%
%ADD395O,0.390X0.760*%
%ADD396O,0.760X0.390*%
%ADD397R,3.003X2.803*%
%ADD398R,3.003X2.403*%
%ADD399R,3.603X2.403*%
%ADD400O,0.813X2.388*%
%ADD401R,0.813X2.388*%
%ADD402R,0.501X1.451*%
%ADD403R,0.501X1.451*%
%ADD404R,0.501X1.451*%
%ADD405R,2.203X0.803*%
%ADD406R,0.314X1.330*%
%ADD407C,1.003*%
D82*
X156908Y103946D02*
D03*
Y114646D02*
D03*
X122809Y113243D02*
D03*
Y123943D02*
D03*
D121*
X194875Y106250D02*
D03*
Y141160D02*
D03*
D279*
X116827Y135636D02*
D03*
Y136652D02*
D03*
X134607Y122555D02*
D03*
X135623D02*
D03*
X134569Y121603D02*
D03*
X133553D02*
D03*
X132842Y131623D02*
D03*
Y132639D02*
D03*
X170663Y123723D02*
D03*
Y122707D02*
D03*
X171374Y124143D02*
D03*
Y125159D02*
D03*
X169413Y135788D02*
D03*
X170413D02*
D03*
X166332Y149936D02*
D03*
X167348D02*
D03*
X179857Y115349D02*
D03*
Y116349D02*
D03*
X164630Y125959D02*
D03*
Y126975D02*
D03*
X163512Y136995D02*
D03*
Y138011D02*
D03*
X174219Y134726D02*
D03*
Y133726D02*
D03*
X175158Y134714D02*
D03*
Y133714D02*
D03*
X176441Y136174D02*
D03*
Y135174D02*
D03*
X177381Y136174D02*
D03*
Y135174D02*
D03*
X169431Y137181D02*
D03*
Y138181D02*
D03*
X171272Y137181D02*
D03*
Y138181D02*
D03*
X170320Y137181D02*
D03*
Y138181D02*
D03*
X173063Y137181D02*
D03*
Y138181D02*
D03*
X173965Y137143D02*
D03*
Y138143D02*
D03*
X174854Y137143D02*
D03*
Y138143D02*
D03*
X126987Y140487D02*
D03*
X125971D02*
D03*
X177660Y104123D02*
D03*
Y105123D02*
D03*
X175031Y142799D02*
D03*
Y141783D02*
D03*
X173990Y141808D02*
D03*
Y142824D02*
D03*
X193027Y147891D02*
D03*
X192011D02*
D03*
X102070Y116845D02*
D03*
Y115845D02*
D03*
X182956Y158598D02*
D03*
Y157582D02*
D03*
X181394Y155486D02*
D03*
Y156502D02*
D03*
X169024Y158407D02*
D03*
X170040D02*
D03*
X151981Y148908D02*
D03*
X150965D02*
D03*
X152006Y147891D02*
D03*
X150990D02*
D03*
X178930Y162687D02*
D03*
X177914D02*
D03*
X150114Y133680D02*
D03*
X151130D02*
D03*
X152788Y137973D02*
D03*
X151772D02*
D03*
X150571Y135585D02*
D03*
X151587D02*
D03*
X153695Y136017D02*
D03*
X152679D02*
D03*
X152844Y137033D02*
D03*
X151829D02*
D03*
X153619Y135166D02*
D03*
X152603D02*
D03*
X152806Y138925D02*
D03*
X151790D02*
D03*
X150355Y138747D02*
D03*
X149339D02*
D03*
X150546Y134734D02*
D03*
X149530D02*
D03*
X118859Y134506D02*
D03*
X117843D02*
D03*
X126213Y128499D02*
D03*
Y129515D02*
D03*
X102083Y112784D02*
D03*
Y113784D02*
D03*
X155329Y149593D02*
D03*
X156329D02*
D03*
X133566Y126873D02*
D03*
Y127889D02*
D03*
X137655Y122072D02*
D03*
X136639D02*
D03*
X144453Y130939D02*
D03*
Y129923D02*
D03*
X143640Y130939D02*
D03*
Y129923D02*
D03*
X132362Y125250D02*
D03*
X133378D02*
D03*
X133629Y123444D02*
D03*
X134645D02*
D03*
X168648Y125679D02*
D03*
X167648D02*
D03*
X172479Y121877D02*
D03*
Y122877D02*
D03*
X143842Y153126D02*
D03*
Y152110D02*
D03*
X172519Y119242D02*
D03*
X173226Y119949D02*
D03*
X169443Y127800D02*
D03*
Y126784D02*
D03*
X138484Y130990D02*
D03*
Y129974D02*
D03*
X133667Y119748D02*
D03*
Y120764D02*
D03*
X142268Y128527D02*
D03*
X143284D02*
D03*
X132362Y124361D02*
D03*
X133378D02*
D03*
X147218Y132690D02*
D03*
Y131674D02*
D03*
X159720Y151676D02*
D03*
X158720D02*
D03*
X167526Y155283D02*
D03*
X168542D02*
D03*
X167526Y153607D02*
D03*
X168542D02*
D03*
X137544Y130990D02*
D03*
Y129974D02*
D03*
X115062Y138976D02*
D03*
X114046D02*
D03*
X131534Y129083D02*
D03*
X130518D02*
D03*
X139141Y104165D02*
D03*
X138125D02*
D03*
X143652Y109832D02*
D03*
X142637D02*
D03*
X143612Y108496D02*
D03*
X142596D02*
D03*
X129464Y140525D02*
D03*
X128448D02*
D03*
X159906Y162077D02*
D03*
X158890D02*
D03*
X142494Y148844D02*
D03*
Y147828D02*
D03*
X139954Y139217D02*
D03*
Y140233D02*
D03*
X145670Y157749D02*
D03*
Y156733D02*
D03*
X142876Y151282D02*
D03*
Y150266D02*
D03*
X128448Y119329D02*
D03*
Y118313D02*
D03*
X159207Y112941D02*
D03*
X160223D02*
D03*
X155727Y108471D02*
D03*
X154711D02*
D03*
X152057Y109550D02*
D03*
X151041D02*
D03*
X152006Y108001D02*
D03*
X150990D02*
D03*
X159207Y113767D02*
D03*
X160223D02*
D03*
X152057Y110363D02*
D03*
X151041D02*
D03*
X152057Y108763D02*
D03*
X151041D02*
D03*
X152019Y107150D02*
D03*
X151003D02*
D03*
X159220Y112052D02*
D03*
X160236D02*
D03*
X159233Y111163D02*
D03*
X160249D02*
D03*
X157937Y107518D02*
D03*
X158953D02*
D03*
X157937Y105829D02*
D03*
X158953D02*
D03*
X160071Y109525D02*
D03*
X161087D02*
D03*
X155766Y110871D02*
D03*
X154749D02*
D03*
X157924Y106642D02*
D03*
X158941D02*
D03*
X157937Y104978D02*
D03*
X158953D02*
D03*
X131585Y136919D02*
D03*
Y137935D02*
D03*
X132372Y145263D02*
D03*
X133388D02*
D03*
X132372Y146126D02*
D03*
X133388D02*
D03*
X155778Y109791D02*
D03*
X154762D02*
D03*
X155994Y107518D02*
D03*
X157010D02*
D03*
X155981Y105829D02*
D03*
X156997D02*
D03*
X158229Y109550D02*
D03*
X159245D02*
D03*
X157493Y108636D02*
D03*
X158509D02*
D03*
X155981Y106617D02*
D03*
X156997D02*
D03*
X155969Y104978D02*
D03*
X156985D02*
D03*
X124790Y118834D02*
D03*
X123774D02*
D03*
X121869Y118821D02*
D03*
X122885D02*
D03*
X132779Y119659D02*
D03*
Y118643D02*
D03*
X130630Y115903D02*
D03*
X131646D02*
D03*
X129527Y119329D02*
D03*
Y118313D02*
D03*
X178117Y125311D02*
D03*
X179133D02*
D03*
X183245Y153228D02*
D03*
X184245D02*
D03*
X164498Y130086D02*
D03*
X165498D02*
D03*
X179926Y129273D02*
D03*
X178926D02*
D03*
X177406Y121467D02*
D03*
Y120467D02*
D03*
X166154Y120236D02*
D03*
Y119236D02*
D03*
X167831Y127787D02*
D03*
Y126771D02*
D03*
X167335Y112281D02*
D03*
Y111265D02*
D03*
X168567Y122733D02*
D03*
Y123749D02*
D03*
X169431Y123761D02*
D03*
Y122745D02*
D03*
X171285Y105575D02*
D03*
Y104559D02*
D03*
X183418Y162446D02*
D03*
X182418D02*
D03*
X128689Y158051D02*
D03*
X127673D02*
D03*
X142646Y119367D02*
D03*
X143662D02*
D03*
X170993Y119855D02*
D03*
Y118855D02*
D03*
X171663Y154203D02*
D03*
X172663D02*
D03*
X166797Y121666D02*
D03*
X167797D02*
D03*
X168923Y103200D02*
D03*
Y104216D02*
D03*
X174244Y116276D02*
D03*
Y117276D02*
D03*
X172199Y137143D02*
D03*
Y138143D02*
D03*
X179781Y162662D02*
D03*
X180797D02*
D03*
X112103Y141300D02*
D03*
Y140284D02*
D03*
X154153Y105842D02*
D03*
X155169D02*
D03*
X141659Y106683D02*
D03*
Y107699D02*
D03*
X142392Y104038D02*
D03*
X143408D02*
D03*
X133629Y103937D02*
D03*
X134645D02*
D03*
X140973Y104168D02*
D03*
X139957D02*
D03*
X144475Y105880D02*
D03*
Y104864D02*
D03*
X143726Y113970D02*
D03*
X142710D02*
D03*
X145809Y104102D02*
D03*
X144793D02*
D03*
X143066Y111620D02*
D03*
X144081D02*
D03*
X133429Y112296D02*
D03*
X134445D02*
D03*
X136096Y103355D02*
D03*
X137112D02*
D03*
X140211Y118367D02*
D03*
X139195D02*
D03*
X140231Y105616D02*
D03*
X141247D02*
D03*
X132829Y135141D02*
D03*
Y134125D02*
D03*
X116853Y124346D02*
D03*
Y125362D02*
D03*
X178422Y135204D02*
D03*
Y136220D02*
D03*
X135867Y121135D02*
D03*
X136883D02*
D03*
X143262Y120859D02*
D03*
X142544Y120141D02*
D03*
X141582Y127637D02*
D03*
Y126621D02*
D03*
X132283Y152235D02*
D03*
X133299D02*
D03*
X135994Y126037D02*
D03*
Y125021D02*
D03*
X126683Y138062D02*
D03*
X127699D02*
D03*
X139840Y127559D02*
D03*
X138824D02*
D03*
X137530Y134290D02*
D03*
X138546D02*
D03*
X140043Y130990D02*
D03*
Y129974D02*
D03*
X136665Y135509D02*
D03*
X137681D02*
D03*
X141582Y124259D02*
D03*
Y125275D02*
D03*
X167356Y124777D02*
D03*
X168356D02*
D03*
X135889Y123316D02*
D03*
X136608Y124034D02*
D03*
X157023Y138455D02*
D03*
Y137439D02*
D03*
X185371Y153236D02*
D03*
Y154236D02*
D03*
X183194Y154320D02*
D03*
X184194D02*
D03*
X168626Y121666D02*
D03*
X169626D02*
D03*
X140058Y111458D02*
D03*
Y112474D02*
D03*
X142979Y121440D02*
D03*
Y122456D02*
D03*
X141684Y121541D02*
D03*
Y122558D02*
D03*
X136969Y125857D02*
D03*
Y126873D02*
D03*
X171361Y126878D02*
D03*
Y125878D02*
D03*
X158709Y150688D02*
D03*
X159709D02*
D03*
X136360Y116307D02*
D03*
Y117323D02*
D03*
X148120Y108013D02*
D03*
Y106997D02*
D03*
X147221Y124767D02*
D03*
X146205D02*
D03*
X166235Y125222D02*
D03*
X165235D02*
D03*
X171018Y121709D02*
D03*
Y120709D02*
D03*
X171061Y133947D02*
D03*
X170061D02*
D03*
X169550Y133248D02*
D03*
X168550D02*
D03*
X143145Y125910D02*
D03*
Y124894D02*
D03*
X139995Y121313D02*
D03*
Y122329D02*
D03*
X140008Y124285D02*
D03*
Y125301D02*
D03*
X138407Y121923D02*
D03*
Y120907D02*
D03*
X130569Y122860D02*
D03*
Y121844D02*
D03*
X128486Y116599D02*
D03*
X129502D02*
D03*
X170439Y125666D02*
D03*
X169439D02*
D03*
X143233Y127688D02*
D03*
Y126672D02*
D03*
X143842Y151272D02*
D03*
Y150256D02*
D03*
X173342Y109593D02*
D03*
Y108593D02*
D03*
X167068Y120185D02*
D03*
Y119185D02*
D03*
X137300Y114021D02*
D03*
X136284D02*
D03*
X177430Y131659D02*
D03*
X176723Y130952D02*
D03*
X169413Y124803D02*
D03*
X170413D02*
D03*
X172737Y127660D02*
D03*
X171737D02*
D03*
X138331Y125859D02*
D03*
Y126876D02*
D03*
X144453Y113642D02*
D03*
X145469D02*
D03*
X137442Y124513D02*
D03*
Y123497D02*
D03*
X142903Y123624D02*
D03*
X143919D02*
D03*
X150254Y121069D02*
D03*
X151270D02*
D03*
X168556Y154498D02*
D03*
X167540D02*
D03*
X150330Y136360D02*
D03*
X149314D02*
D03*
X154851Y134569D02*
D03*
Y135585D02*
D03*
X153632Y134239D02*
D03*
X152616D02*
D03*
X154267Y139370D02*
D03*
X155283D02*
D03*
X149339Y137173D02*
D03*
X150355D02*
D03*
X183434Y139230D02*
D03*
X184434D02*
D03*
X183286Y143620D02*
D03*
Y144620D02*
D03*
X175951Y122923D02*
D03*
X174951D02*
D03*
X173299Y122936D02*
D03*
X174299D02*
D03*
X171959Y161805D02*
D03*
Y160805D02*
D03*
X172663Y155438D02*
D03*
X171663D02*
D03*
X166129Y118483D02*
D03*
Y117483D02*
D03*
X128816Y154749D02*
D03*
Y155766D02*
D03*
Y153886D02*
D03*
Y152870D02*
D03*
X154153Y107061D02*
D03*
X155169D02*
D03*
X120612Y109487D02*
D03*
Y108471D02*
D03*
X137719Y116319D02*
D03*
Y117335D02*
D03*
X148527Y125781D02*
D03*
X149542D02*
D03*
X166497Y112273D02*
D03*
Y111273D02*
D03*
X169685Y111125D02*
D03*
Y112141D02*
D03*
X174485Y103157D02*
D03*
Y104157D02*
D03*
X164859Y103246D02*
D03*
Y104246D02*
D03*
X173063Y112285D02*
D03*
Y111285D02*
D03*
X166472Y103183D02*
D03*
Y104183D02*
D03*
X176111Y103132D02*
D03*
Y104132D02*
D03*
X172166Y110350D02*
D03*
X171166D02*
D03*
X170497Y104178D02*
D03*
Y103162D02*
D03*
X171082Y133025D02*
D03*
Y132025D02*
D03*
X164871Y113182D02*
D03*
Y112166D02*
D03*
X160274Y115075D02*
D03*
X159258D02*
D03*
X116878Y128969D02*
D03*
Y129984D02*
D03*
X119062Y111100D02*
D03*
X118047D02*
D03*
X173029Y133960D02*
D03*
X172029D02*
D03*
X128118Y125666D02*
D03*
Y124650D02*
D03*
X146507Y123571D02*
D03*
X145567Y123546D02*
D03*
X170675Y154356D02*
D03*
Y155372D02*
D03*
D280*
X181521Y152284D02*
D03*
Y153784D02*
D03*
X182893Y161342D02*
D03*
Y159842D02*
D03*
X120764Y129872D02*
D03*
Y128372D02*
D03*
X124270Y128358D02*
D03*
Y129857D02*
D03*
X118453Y133299D02*
D03*
Y131799D02*
D03*
X122377Y129896D02*
D03*
Y128396D02*
D03*
X164541Y116294D02*
D03*
Y114794D02*
D03*
X117805Y122885D02*
D03*
Y121385D02*
D03*
X164846Y142291D02*
D03*
Y143791D02*
D03*
X162065Y131966D02*
D03*
Y133466D02*
D03*
X163424Y109626D02*
D03*
Y111126D02*
D03*
X181496Y149415D02*
D03*
Y150915D02*
D03*
X171171Y112166D02*
D03*
Y113666D02*
D03*
X175781Y112065D02*
D03*
Y113565D02*
D03*
X171094Y116675D02*
D03*
Y115175D02*
D03*
X158521Y129007D02*
D03*
Y130507D02*
D03*
X177457Y140310D02*
D03*
Y141810D02*
D03*
X121374Y134607D02*
D03*
Y133107D02*
D03*
X187008Y151460D02*
D03*
Y149960D02*
D03*
X117843Y126709D02*
D03*
Y125209D02*
D03*
X161684Y156503D02*
D03*
Y155003D02*
D03*
X173050Y113765D02*
D03*
Y115265D02*
D03*
X125451Y127114D02*
D03*
Y125614D02*
D03*
X120040Y134620D02*
D03*
Y133120D02*
D03*
D281*
X113727Y107975D02*
D03*
X115227D02*
D03*
X115279Y106147D02*
D03*
X113779D02*
D03*
X110199Y103175D02*
D03*
X108699D02*
D03*
X175693Y162230D02*
D03*
X174193D02*
D03*
X109955Y145364D02*
D03*
X111455D02*
D03*
X119331Y128892D02*
D03*
X117831D02*
D03*
X126481Y136119D02*
D03*
X124981D02*
D03*
X168275Y107493D02*
D03*
X166775D02*
D03*
X119939Y106350D02*
D03*
X118439D02*
D03*
X165633Y147333D02*
D03*
X164133D02*
D03*
X169800Y160797D02*
D03*
X168300D02*
D03*
X164238Y152237D02*
D03*
X165738D02*
D03*
X156464Y117107D02*
D03*
X157964D02*
D03*
X170066Y145898D02*
D03*
X168566D02*
D03*
X179387Y112395D02*
D03*
X177887D02*
D03*
X189573Y153835D02*
D03*
X191073D02*
D03*
X167743Y152237D02*
D03*
X169243D02*
D03*
X187389Y146482D02*
D03*
X185889D02*
D03*
X169532Y156413D02*
D03*
X168032D02*
D03*
X163220Y157671D02*
D03*
X161720D02*
D03*
X119607Y137490D02*
D03*
X121107D02*
D03*
X163273Y159474D02*
D03*
X161773D02*
D03*
X120893Y112509D02*
D03*
X119393D02*
D03*
X124308Y132397D02*
D03*
X122808D02*
D03*
X169837Y107480D02*
D03*
X171337D02*
D03*
X173304Y107480D02*
D03*
X174804D02*
D03*
X108711Y104991D02*
D03*
X110211D02*
D03*
D282*
X133792Y143904D02*
D03*
X131892D02*
D03*
D284*
X163472Y112355D02*
D03*
X161572Y113655D02*
D03*
Y112355D02*
D03*
Y113005D02*
D03*
X163472Y113655D02*
D03*
X162753Y139622D02*
D03*
X164653Y140271D02*
D03*
Y140921D02*
D03*
Y139622D02*
D03*
X162753Y140921D02*
D03*
D286*
X119037Y107975D02*
D03*
X146584Y105262D02*
D03*
D290*
X123876Y142977D02*
D03*
Y144577D02*
D03*
X160973Y138036D02*
D03*
Y136436D02*
D03*
X121018Y144564D02*
D03*
Y142964D02*
D03*
D291*
X145608Y146113D02*
D03*
X142608D02*
D03*
D292*
X177826Y114338D02*
D03*
X179426D02*
D03*
X175768Y117107D02*
D03*
X177368D02*
D03*
X179311Y107213D02*
D03*
X180911D02*
D03*
X177051Y125260D02*
D03*
X175451D02*
D03*
D293*
X126288Y148044D02*
D03*
X124588D02*
D03*
X144500Y157747D02*
D03*
X142800D02*
D03*
D294*
X141834Y154837D02*
D03*
Y153138D02*
D03*
X135510Y154918D02*
D03*
Y156618D02*
D03*
X136501Y152005D02*
D03*
Y150305D02*
D03*
D295*
X129127Y114379D02*
D03*
X131127D02*
D03*
X124292Y105816D02*
D03*
X122292D02*
D03*
X139532Y156375D02*
D03*
X137532D02*
D03*
X138804Y132870D02*
D03*
X140804D02*
D03*
X125701Y115862D02*
D03*
X123701D02*
D03*
X144497Y143421D02*
D03*
X142497D02*
D03*
X151514Y123266D02*
D03*
X153514D02*
D03*
X149317Y140449D02*
D03*
X151317D02*
D03*
X149295Y127434D02*
D03*
X151295D02*
D03*
D296*
X130811Y147878D02*
D03*
Y145878D02*
D03*
X138431Y150129D02*
D03*
Y152129D02*
D03*
X136552Y147888D02*
D03*
Y145888D02*
D03*
X130660Y124123D02*
D03*
Y126123D02*
D03*
X145416Y153628D02*
D03*
Y151628D02*
D03*
D299*
X130569Y155580D02*
D03*
Y153080D02*
D03*
D311*
X107102Y147427D02*
D03*
Y138527D02*
D03*
D312*
X107202Y144577D02*
D03*
Y143777D02*
D03*
Y142977D02*
D03*
Y142177D02*
D03*
Y141377D02*
D03*
D313*
X102600Y138527D02*
D03*
Y147427D02*
D03*
D314*
X109642Y142361D02*
D03*
Y143211D02*
D03*
X111592Y142361D02*
D03*
Y143211D02*
D03*
D317*
X119583Y151956D02*
D03*
Y157956D02*
D03*
D327*
X168206Y113843D02*
D03*
Y116043D02*
D03*
X166307D02*
D03*
Y113843D02*
D03*
X167767Y137960D02*
D03*
Y135760D02*
D03*
X165867D02*
D03*
Y137960D02*
D03*
D337*
X130877Y110828D02*
D03*
Y109828D02*
D03*
Y111828D02*
D03*
Y111327D02*
D03*
Y110327D02*
D03*
Y112327D02*
D03*
X129377D02*
D03*
Y111828D02*
D03*
Y111327D02*
D03*
Y110828D02*
D03*
Y110327D02*
D03*
Y109828D02*
D03*
X130877Y106078D02*
D03*
Y105078D02*
D03*
Y107078D02*
D03*
Y106578D02*
D03*
Y105578D02*
D03*
Y107578D02*
D03*
X129377D02*
D03*
Y107078D02*
D03*
Y106578D02*
D03*
Y106078D02*
D03*
Y105578D02*
D03*
Y105078D02*
D03*
D338*
X130877Y109247D02*
D03*
Y112908D02*
D03*
X129377D02*
D03*
Y109247D02*
D03*
X130877Y104498D02*
D03*
Y108158D02*
D03*
X129377D02*
D03*
Y104498D02*
D03*
D354*
X196000Y162000D02*
D03*
X104000D02*
D03*
Y104000D02*
D03*
X196000Y104000D02*
D03*
D355*
X191949Y160134D02*
D03*
X114668Y103520D02*
D03*
X108966Y160924D02*
D03*
D356*
X104602Y140777D02*
D03*
Y145176D02*
D03*
X125311Y137795D02*
D03*
X144756Y144516D02*
D03*
D357*
X164376Y150457D02*
D03*
Y161257D02*
D03*
D358*
X194791Y108750D02*
D03*
X185000Y108750D02*
D03*
D359*
X194791Y144950D02*
D03*
X185000Y136950D02*
D03*
D360*
X102973Y154777D02*
D03*
X109223D02*
D03*
D361*
X106223Y149977D02*
D03*
D362*
X197563Y147615D02*
D03*
X195023D02*
D03*
X197563Y150155D02*
D03*
X195023D02*
D03*
X197563Y152695D02*
D03*
X195023D02*
D03*
X197563Y155235D02*
D03*
X195023D02*
D03*
X197563Y157775D02*
D03*
D363*
X195023D02*
D03*
D364*
X112484Y109347D02*
D03*
X114984Y120757D02*
D03*
X115024Y110617D02*
D03*
X112484Y119507D02*
D03*
Y116967D02*
D03*
X115024Y115697D02*
D03*
X112484Y114427D02*
D03*
X115024Y118237D02*
D03*
X112484Y111887D02*
D03*
X115024Y113157D02*
D03*
D365*
X109182Y107315D02*
D03*
D366*
Y122809D02*
D03*
D367*
X102070Y108458D02*
D03*
Y110998D02*
D03*
Y119126D02*
D03*
Y121666D02*
D03*
X119051Y103660D02*
D03*
D368*
X106134Y120777D02*
D03*
Y109347D02*
D03*
D369*
X162446Y153101D02*
D03*
X186920Y152974D02*
D03*
X161456Y142115D02*
D03*
D371*
X178376Y143839D02*
D03*
X179476Y142739D02*
D03*
X178376Y141639D02*
D03*
X180576D02*
D03*
X179476Y140539D02*
D03*
X180576Y143839D02*
D03*
D372*
X128079Y120830D02*
D03*
Y122730D02*
D03*
X140970Y137462D02*
D03*
Y135562D02*
D03*
X144021Y138163D02*
D03*
Y136263D02*
D03*
X128206Y129436D02*
D03*
Y127536D02*
D03*
D373*
X110102Y141521D02*
D03*
X110980Y141021D02*
D03*
Y141521D02*
D03*
X110102Y141021D02*
D03*
Y140521D02*
D03*
X110980D02*
D03*
D374*
X128422Y141580D02*
D03*
X130302D02*
D03*
X129362Y143586D02*
D03*
X125070Y141630D02*
D03*
X126949D02*
D03*
X126009Y143637D02*
D03*
D375*
X138209Y111762D02*
D03*
X138809D02*
D03*
X140435Y110848D02*
D03*
X139835D02*
D03*
X136269Y119992D02*
D03*
X135669D02*
D03*
X139675Y119271D02*
D03*
X140275D02*
D03*
X136269Y119281D02*
D03*
X135669D02*
D03*
X136282Y120500D02*
D03*
X135682D02*
D03*
X141282Y119306D02*
D03*
X141882D02*
D03*
X136523Y104270D02*
D03*
X135923D02*
D03*
D376*
X145443Y111148D02*
D03*
D377*
Y110548D02*
D03*
X139677Y119705D02*
D03*
Y120305D02*
D03*
X141874Y119959D02*
D03*
Y120559D02*
D03*
X138179Y119705D02*
D03*
Y120305D02*
D03*
X138687Y119718D02*
D03*
Y120317D02*
D03*
X141405Y119959D02*
D03*
Y120559D02*
D03*
X140262Y119718D02*
D03*
Y120317D02*
D03*
D378*
X160621Y149080D02*
D03*
X161921D02*
D03*
X161271D02*
D03*
X162571D02*
D03*
D379*
X161271Y151280D02*
D03*
X162571D02*
D03*
X161921D02*
D03*
D380*
X160621D02*
D03*
D381*
X158509Y127216D02*
D03*
X160709D02*
D03*
Y125316D02*
D03*
X158509D02*
D03*
D382*
X187262Y143142D02*
D03*
X186462D02*
D03*
X185661D02*
D03*
X184861D02*
D03*
X187262Y144542D02*
D03*
X186462D02*
D03*
X185661D02*
D03*
X184861D02*
D03*
D383*
X196991Y142450D02*
D03*
Y140850D02*
D03*
Y140050D02*
D03*
Y139250D02*
D03*
Y138450D02*
D03*
Y137650D02*
D03*
Y136850D02*
D03*
Y136050D02*
D03*
Y135250D02*
D03*
Y134450D02*
D03*
Y133650D02*
D03*
Y132850D02*
D03*
Y132050D02*
D03*
Y131250D02*
D03*
Y130450D02*
D03*
Y129650D02*
D03*
Y128850D02*
D03*
Y128050D02*
D03*
Y127250D02*
D03*
Y126450D02*
D03*
Y125650D02*
D03*
Y124850D02*
D03*
Y124050D02*
D03*
Y123250D02*
D03*
Y122450D02*
D03*
Y121650D02*
D03*
Y120850D02*
D03*
Y120050D02*
D03*
Y119250D02*
D03*
Y118450D02*
D03*
Y117650D02*
D03*
Y116850D02*
D03*
Y116050D02*
D03*
Y115250D02*
D03*
Y114450D02*
D03*
Y113650D02*
D03*
Y112850D02*
D03*
Y112050D02*
D03*
Y111250D02*
D03*
X192591Y142450D02*
D03*
Y141650D02*
D03*
Y140850D02*
D03*
Y140050D02*
D03*
Y139250D02*
D03*
Y138450D02*
D03*
Y137650D02*
D03*
Y136850D02*
D03*
Y136050D02*
D03*
Y135250D02*
D03*
Y134450D02*
D03*
Y133650D02*
D03*
Y132850D02*
D03*
Y132050D02*
D03*
Y131250D02*
D03*
Y130450D02*
D03*
Y129650D02*
D03*
Y128850D02*
D03*
Y128050D02*
D03*
Y127250D02*
D03*
Y126450D02*
D03*
Y125650D02*
D03*
Y124850D02*
D03*
Y124050D02*
D03*
Y123250D02*
D03*
Y122450D02*
D03*
Y121650D02*
D03*
Y120850D02*
D03*
Y120050D02*
D03*
Y119250D02*
D03*
Y118450D02*
D03*
Y117650D02*
D03*
Y116850D02*
D03*
Y116050D02*
D03*
Y115250D02*
D03*
Y114450D02*
D03*
Y113650D02*
D03*
Y112850D02*
D03*
Y112050D02*
D03*
Y111250D02*
D03*
X196991Y141650D02*
D03*
X187200Y133650D02*
D03*
X182800Y111250D02*
D03*
Y112050D02*
D03*
Y112850D02*
D03*
Y113650D02*
D03*
Y114450D02*
D03*
Y115250D02*
D03*
Y116050D02*
D03*
Y116850D02*
D03*
Y117650D02*
D03*
Y118450D02*
D03*
Y119250D02*
D03*
Y120050D02*
D03*
Y120850D02*
D03*
Y121650D02*
D03*
Y122450D02*
D03*
Y123250D02*
D03*
Y124050D02*
D03*
Y124850D02*
D03*
Y125650D02*
D03*
Y126450D02*
D03*
Y127250D02*
D03*
Y128050D02*
D03*
Y128850D02*
D03*
Y129650D02*
D03*
Y130450D02*
D03*
Y131250D02*
D03*
Y132050D02*
D03*
Y132850D02*
D03*
Y133650D02*
D03*
Y134450D02*
D03*
X187200Y111250D02*
D03*
Y112050D02*
D03*
Y112850D02*
D03*
Y113650D02*
D03*
Y114450D02*
D03*
Y115250D02*
D03*
Y116050D02*
D03*
Y116850D02*
D03*
Y117650D02*
D03*
Y118450D02*
D03*
Y119250D02*
D03*
Y120050D02*
D03*
Y120850D02*
D03*
Y121650D02*
D03*
Y122450D02*
D03*
Y123250D02*
D03*
Y124050D02*
D03*
Y124850D02*
D03*
Y125650D02*
D03*
Y126450D02*
D03*
Y127250D02*
D03*
Y128050D02*
D03*
Y128850D02*
D03*
Y129650D02*
D03*
Y130450D02*
D03*
Y131250D02*
D03*
Y132050D02*
D03*
Y132850D02*
D03*
Y134450D02*
D03*
D384*
X180197Y161388D02*
D03*
X179547D02*
D03*
X178897D02*
D03*
X178247D02*
D03*
Y157788D02*
D03*
X178897D02*
D03*
X179547D02*
D03*
X180197D02*
D03*
D385*
X177422Y160563D02*
D03*
Y159913D02*
D03*
Y159263D02*
D03*
Y158613D02*
D03*
X181022D02*
D03*
Y159263D02*
D03*
Y159913D02*
D03*
Y160563D02*
D03*
D386*
X164475Y154213D02*
D03*
X163974D02*
D03*
X165474D02*
D03*
X165974Y156713D02*
D03*
X163974D02*
D03*
X165474D02*
D03*
X164974Y154213D02*
D03*
X164475Y156713D02*
D03*
X164974D02*
D03*
X165974Y154213D02*
D03*
D387*
X163724Y155963D02*
D03*
Y155463D02*
D03*
Y154963D02*
D03*
X166224Y155963D02*
D03*
Y154963D02*
D03*
Y155463D02*
D03*
D388*
X171895Y159782D02*
D03*
X172395D02*
D03*
X172895D02*
D03*
X173395D02*
D03*
Y156732D02*
D03*
X172895D02*
D03*
X172395D02*
D03*
X171895D02*
D03*
D389*
X174170Y159007D02*
D03*
Y158507D02*
D03*
Y158007D02*
D03*
Y157507D02*
D03*
X171120D02*
D03*
Y158007D02*
D03*
Y158507D02*
D03*
Y159007D02*
D03*
D390*
X103966Y133053D02*
D03*
Y131953D02*
D03*
Y129753D02*
D03*
Y130853D02*
D03*
Y126453D02*
D03*
Y125353D02*
D03*
Y127553D02*
D03*
Y128653D02*
D03*
D391*
X101066Y123903D02*
D03*
Y136803D02*
D03*
D392*
X115541Y133253D02*
D03*
Y130953D02*
D03*
Y124353D02*
D03*
D393*
X110816Y123778D02*
D03*
D394*
X188269Y151859D02*
D03*
X189519D02*
D03*
X190769D02*
D03*
X192019D02*
D03*
Y149359D02*
D03*
X190769D02*
D03*
X189519D02*
D03*
X188269D02*
D03*
D395*
X187737Y158212D02*
D03*
X187237D02*
D03*
X186737D02*
D03*
X186237D02*
D03*
X185737D02*
D03*
X185237D02*
D03*
Y162362D02*
D03*
X185737D02*
D03*
X186237D02*
D03*
X186737D02*
D03*
X187237D02*
D03*
X187737D02*
D03*
D396*
X184412Y159037D02*
D03*
Y159537D02*
D03*
Y160037D02*
D03*
Y160537D02*
D03*
Y161037D02*
D03*
Y161537D02*
D03*
X188562D02*
D03*
Y161037D02*
D03*
Y160537D02*
D03*
Y160037D02*
D03*
Y159537D02*
D03*
Y159037D02*
D03*
D397*
X186487Y160287D02*
D03*
D398*
X123863Y156451D02*
D03*
Y152051D02*
D03*
D399*
X114251Y157851D02*
D03*
Y151251D02*
D03*
D400*
X156286Y154826D02*
D03*
X157556D02*
D03*
X158826D02*
D03*
Y160033D02*
D03*
X160096D02*
D03*
X157556D02*
D03*
X156286D02*
D03*
D401*
X160096Y154826D02*
D03*
D402*
X183278Y149563D02*
D03*
X184578D02*
D03*
X183928D02*
D03*
X185228D02*
D03*
D403*
X183928Y151763D02*
D03*
X185228D02*
D03*
X184578D02*
D03*
D404*
X183278D02*
D03*
D405*
X119050Y144247D02*
D03*
Y141707D02*
D03*
Y142977D02*
D03*
X114249D02*
D03*
Y144247D02*
D03*
Y141707D02*
D03*
X119050Y140437D02*
D03*
X114249D02*
D03*
D406*
X130389Y117452D02*
D03*
X131887D02*
D03*
X131387D02*
D03*
X131887Y120398D02*
D03*
X130389D02*
D03*
X130889Y117452D02*
D03*
X131387Y120398D02*
D03*
X130889D02*
D03*
D407*
X123344Y147970D02*
D03*
M02*
